<svg viewBox="0 0 41 41" fill="none" xmlns="http://www.w3.org/2000/svg">
<rect width="41" height="41" rx="8" fill="url(#paint0_linear_1720_41076)"/>
<ellipse cx="20.5" cy="20.5" rx="13" ry="12.5" fill="url(#paint1_linear_1720_41076)"/>
<path d="M22.759 18.0693C22.5837 17.8143 22.3366 17.6071 22.0179 17.4477C21.6991 17.2723 21.3564 17.1847 20.9897 17.1847C20.0812 17.1847 19.3719 17.4557 18.8618 17.9976C18.3677 18.5396 18.1206 19.2489 18.1206 20.1255C18.1206 21.0022 18.3677 21.7115 18.8618 22.2535C19.3719 22.7954 20.0812 23.0664 20.9897 23.0664C21.3882 23.0664 21.7309 22.9787 22.0179 22.8034C22.3048 22.6281 22.5518 22.4209 22.759 22.1818L25.1261 24.6683C24.5682 25.2422 23.9067 25.6486 23.1416 25.8877C22.3924 26.1109 21.6752 26.2225 20.9897 26.2225C20.0971 26.2225 19.2523 26.079 18.4553 25.7921C17.6743 25.5052 16.9889 25.0987 16.3991 24.5727C15.8253 24.0308 15.371 23.3852 15.0363 22.636C14.7016 21.8869 14.5342 21.05 14.5342 20.1255C14.5342 19.201 14.7016 18.3642 15.0363 17.6151C15.371 16.8659 15.8253 16.2283 16.3991 15.7023C16.9889 15.1603 17.6743 14.7459 18.4553 14.459C19.2523 14.1721 20.0971 14.0286 20.9897 14.0286C21.6752 14.0286 22.3924 14.1482 23.1416 14.3873C23.9067 14.6104 24.5682 15.0089 25.1261 15.5827L22.759 18.0693Z" fill="white"/>
<defs>
<linearGradient id="paint0_linear_1720_41076" x1="0" y1="0" x2="39.4625" y2="41" gradientUnits="userSpaceOnUse">
<stop stop-color="#EB7F5D"/>
<stop offset="0.656709" stop-color="#BE5F42"/>
<stop offset="1" stop-color="#A64F33"/>
</linearGradient>
<linearGradient id="paint1_linear_1720_41076" x1="20.5" y1="8" x2="20.5" y2="33" gradientUnits="userSpaceOnUse">
<stop stop-color="#B65D1C"/>
<stop offset="1" stop-color="#9C4A0F"/>
</linearGradient>
</defs>
</svg>
