<svg xmlns="http://www.w3.org/2000/svg" viewBox="0 0 25 24" fill="none">
  <path d="M14.4444 2.42729C14.8243 1.98241 15.448 1.54977 16.1292 1.27191C15.9691 2.05872 15.589 2.69716 15.1389 3.22214L15.1389 3.22213L15.1351 3.22667C14.6515 3.79759 14.1229 4.26552 13.4141 4.4543C13.5599 3.63856 13.9551 2.99748 14.4428 2.42912L14.4444 2.42729Z" stroke="currentColor" stroke-width="2"/>
  <path d="M12.9675 22.0245L12.9684 22.0245C13.8834 22.0401 14.6329 22.3319 15.2139 22.5581C15.2308 22.5646 15.2475 22.5711 15.2641 22.5776C15.8832 22.8183 16.3177 22.976 16.8254 22.976C17.3422 22.976 17.7643 22.7681 18.177 22.3964C18.5779 22.0351 18.9078 21.5794 19.2706 21.0784C19.3062 21.0292 19.3421 20.9796 19.3784 20.9297C20.0145 20.0493 20.5503 19.124 20.9661 18.0911C19.4184 17.1357 18.1887 15.6148 17.9986 13.2624C17.879 11.8101 18.169 10.5999 18.7528 9.59928C19.1228 8.96525 19.5955 8.44105 20.114 8.00217C19.4948 7.41821 18.6391 7.01011 17.4801 6.83488L12.9675 22.0245ZM12.9675 22.0245C11.9967 22.0087 11.2502 22.2554 10.6238 22.4917C10.5267 22.5283 10.4343 22.5638 10.3453 22.5979C9.86632 22.7819 9.48726 22.9275 9.02834 23.0002M12.9675 22.0245L9.02834 23.0002M9.02834 23.0002H9.02788H9.02693H9.02597H9.02501H9.02406H9.0231H9.02214H9.02119H9.02023H9.01927H9.01832H9.01736H9.0164H9.01545H9.01449H9.01354H9.01258H9.01162H9.01067H9.00971H9.00875H9.0078H9.00684H9.00588H9.00493H9.00397H9.00301H9.00206H9.0011H9.00014H8.99919H8.99823H8.99728H8.99632H8.99536H8.99441H8.99345H8.9925H8.99154H8.99058H8.98963H8.98867H8.98771H8.98676H8.9858H8.98485H8.98389H8.98293H8.98198H8.98102H8.98007H8.97911H8.97815H8.9772H8.97624H8.97529H8.97433H8.97337H8.97242H8.97146H8.97051H8.96955H8.9686H8.96764H8.96668H8.96573H8.96477H8.96382H8.96286H8.96191H8.96095H8.95999H8.95904H8.95808H8.95713H8.95617H8.95522H8.95426H8.95331H8.95235H8.9514H8.95044H8.94948H8.94853H8.94757H8.94662H8.94566H8.94471H8.94375H8.9428H8.94184H8.94089H8.93993H8.93898H8.93802H8.93707H8.93611H8.93516H8.9342H8.93325H8.93229H8.93134H8.93038H8.92943H8.92847H8.92752H8.92656H8.92561H8.92465H8.9237H8.92274H8.92179H8.92084H8.91988H8.91893H8.91797H8.91702H8.91606H8.91511H8.91415H8.9132H8.91225H8.91129H8.91034H8.90938H8.90843H8.90747H8.90652H8.90557H8.90461H8.90366H8.9027H8.90175H8.9008H8.89984H8.89889H8.89793H8.89698H8.89603H8.89507H8.89412H8.89316H8.89221H8.89126H8.8903H8.88935H8.8884H8.88744H8.88649H8.88554H8.88458H8.88363H8.88268H8.88172H8.88077H8.87982H8.87886H8.87791H8.87696H8.876H8.87505H8.8741H8.87314H8.87219H8.87124H8.87028H8.86933H8.86838H8.86742H8.86647H8.86552H8.86457H8.86361H8.86266H8.86171H8.86076H8.8598H8.85885H8.8579H8.85695H8.85599H8.85504H8.85409H8.85314H8.85218H8.85123H8.85028H8.84933H8.84837H8.84742H8.84647H8.84552H8.84457H8.84361H8.84266H8.84171H8.84076H8.83981H8.83886H8.8379H8.83695H8.836H8.83505H8.8341H8.83315H8.83219H8.83124H8.83029H8.82934H8.82839H8.82744H8.82649H8.82553H8.82458H8.82363H8.82268H8.82173H8.82078H8.81983H8.81888H8.81793H8.81698H8.81602H8.81507H8.81412H8.81317H8.81222H8.81127H8.81032H8.80937H8.80842H8.80747H8.80652H8.80557H8.80462H8.80367H8.80272H8.80177H8.80082H8.79987H8.79892H8.79797H8.79702H8.79607H8.79512H8.79417H8.79322H8.79227H8.79132H8.79037H8.78942H8.78847H8.78752H8.78657H8.78562H8.78467H8.78372H8.78277H8.78183H8.78088H8.77993H8.77898H8.77803H8.77708H8.77613H8.77518H8.77423H8.77329H8.77234H8.77139H8.77044H8.76949H8.76854H8.76759H8.76665H8.7657H8.76475H8.7638H8.76285H8.7619H8.76096H8.76001H8.75906H8.75811H8.75716H8.75622H8.75527H8.75432H8.75337H8.75243H8.75148H8.75053H8.74958H8.74864H8.74769H8.74674H8.74579H8.74485H8.7439H8.74295H8.742H8.74106H8.74011H8.73916H8.73822H8.73727H8.73632H8.73538H8.73443H8.73348H8.73254H8.73159H8.73064H8.7297H8.72875H8.72781H8.72686H8.72591H8.72497H8.72402H8.72307H8.72213H8.72118H8.72024H8.71929H8.71835H8.7174H8.71645H8.71551H8.71456H8.71362H8.71267H8.71173H8.71078H8.70984H8.70889H8.70795H8.707H8.70606H8.70511H8.70417H8.70322H8.70228H8.70133H8.70039H8.69944H8.6985H8.69756H8.69724C8.07665 22.8824 7.46361 22.3469 6.8763 21.6342C5.17785 19.5683 3.87118 16.9159 3.62012 13.5116V13.5101V13.508V13.5059V13.5038V13.5017V13.4996V13.4975V13.4954V13.4933V13.4912V13.4891V13.487V13.4849V13.4828V13.4807V13.4786V13.4765V13.4744V13.4723V13.4702V13.4681V13.466V13.4639V13.4618V13.4597V13.4576V13.4555V13.4534V13.4513V13.4492V13.4471V13.445V13.4429V13.4408V13.4387V13.4366V13.4345V13.4324V13.4303V13.4282V13.4261V13.424V13.4219V13.4198V13.4177V13.4156V13.4135V13.4114V13.4093V13.4072V13.4051V13.403V13.4009V13.3988V13.3967V13.3946V13.3925V13.3904V13.3883V13.3862V13.3841V13.382V13.3799V13.3779V13.3758V13.3737V13.3716V13.3695V13.3674V13.3653V13.3632V13.3611V13.359V13.3569V13.3548V13.3527V13.3506V13.3485V13.3464V13.3443V13.3422V13.3401V13.338V13.3359V13.3338V13.3317V13.3296V13.3275V13.3254V13.3233V13.3212V13.3191V13.317V13.3149V13.3128V13.3107V13.3086V13.3065V13.3044V13.3023V13.3002V13.2981V13.296V13.2939V13.2919V13.2898V13.2877V13.2856V13.2835V13.2814V13.2793V13.2772V13.2751V13.273V13.2709V13.2688V13.2667V13.2646V13.2625V13.2604V13.2583V13.2562V13.2541V13.252V13.2499V13.2478V13.2457V13.2436V13.2415V13.2394V13.2373V13.2352V13.2331V13.231V13.2289V13.2268V13.2247V13.2226V13.2205V13.2185V13.2164V13.2143V13.2122V13.2101V13.208V13.2059V13.2038V13.2017V13.1996V13.1975V13.1954V13.1933V13.1912V13.1891V13.187V13.1849V13.1828V13.1807V13.1786V13.1765V13.1744V13.1723V13.1702V13.1681V13.166V13.1639V13.1618V13.1597V13.1576V13.1555V13.1535V13.1514V13.1493V13.1472V13.1451V13.143V13.1409V13.1388V13.1367V13.1346V13.1325V13.1304V13.1283V13.1262V13.1241V13.122V13.1199V13.1178V13.1157V13.1136V13.1115V13.1094V13.1073V13.1052V13.1031V13.101V13.0989V13.0968V13.0947V13.0927V13.0906V13.0885V13.0864V13.0843V13.0822V13.0801V13.078V13.0759V13.0738V13.0717V13.0696V13.0675V13.0654V13.0633V13.0612V13.0591V13.057V13.0549V13.0528V13.0507V13.0486V13.0465V13.0444V13.0423V13.0402V13.0381V13.036V13.034V13.0319V13.0298V13.0277V13.0256V13.0235V13.0214V13.0193V13.0172V13.0151V13.013V13.0109V13.0088V13.0067V13.0046V13.0025V13.0004V12.9983V12.9962V12.9941V12.992V12.9899V12.9878V12.9857V12.9836V12.9815V12.9794V12.9773V12.9753V12.9732V12.9711V12.969V12.9669V12.9648V12.9627V12.9606V12.9585V12.9564V12.9543V12.9522V12.9501V12.948V12.9459V12.9438V12.9417V12.9396V12.9375V12.9354V12.9333V12.9312V12.9291V12.927V12.9249V12.9228V12.9207V12.9186V12.9165V12.9145V12.9124V12.9103V12.9082V12.9061V12.904V12.9019V12.8998V12.8977V12.8956V12.8935V12.8914V12.8893V12.8872V12.8851V12.883V12.8809V12.8788V12.8767V12.8746V12.8725V12.8704V12.8683V12.8662V12.8641V12.862V12.8599V12.8578V12.8557V12.8537V12.8516V12.8495V12.8474V12.8453V12.8432V12.8411V12.839V12.8369V12.8348V12.8327V12.8306V12.8285V12.8264V12.8243V12.8222V12.8201V12.818V12.8159V12.8138V12.8117V12.8096V12.8075V12.8054V12.8033V12.8012V12.7991V12.797V12.7949V12.7928V12.7907V12.7886V12.7866V12.7845V12.7824V12.7803V12.7782V12.7761V12.774V12.7719V12.7698V12.7677V12.7656V12.7635V12.7614V12.7593V12.7572V12.7551V12.753V12.7509V12.7488V12.7467V12.7446V12.7425V12.7404V12.7383V12.7362V12.7341V12.732V12.7299V12.7278V12.7257V12.7236V12.7215V12.7194V12.7173V12.7152V12.7132V12.7111V12.709V12.7069V12.7048V12.7027V12.7006V12.6985V12.6964V12.6943V12.6922V12.6901V12.688V12.6859V12.6838V12.6817V12.6796V12.6775V12.6754V12.6733V12.6712V12.6691V12.667V12.6649V12.6628V12.6607V12.6586V12.6565V12.6544V12.6523V12.6502V12.6481V12.646V12.6439V12.6418V12.6397V12.6376V12.6355V12.6334V12.6313V12.6292V12.6271V12.625V12.623V12.6209V12.6188V12.6167V12.6146V12.6125V12.6104V12.6083V12.6062V12.6041V12.602V12.5999V12.5978V12.5957V12.5936V12.5915V12.5894V12.5873V12.5852V12.5831V12.581V12.5789V12.5768V12.5747V12.5726V12.5705V12.5684V12.5663V12.5642V12.5621V12.56V12.5579V12.5558V12.5537V12.5516V12.5495V12.5474V12.5453V12.5432V12.5411V12.539V12.5369V12.5348V12.5327V12.5306V12.5285V12.5264V12.5243V12.5222V12.5201V12.518V12.5159V12.5138V12.5117V12.5096V12.5075V12.5054V12.5033V12.5012V12.4991V12.497V12.4957C3.72437 10.1766 4.84908 8.38594 6.21195 7.55445L6.21195 7.55445L6.21477 7.55272C6.98915 7.07674 7.97304 6.72301 9.02104 6.88293C9.49949 6.9572 10.0173 7.12673 10.523 7.31791C10.612 7.35218 10.7065 7.3924 10.8248 7.44271C10.8432 7.45052 10.8621 7.45856 10.8816 7.46686C11.0199 7.5256 11.183 7.59405 11.3545 7.65671C11.6873 7.77822 12.131 7.90885 12.6143 7.89426M9.02834 23.0002L17.48 6.83485C16.3381 6.66319 15.4747 6.97719 14.3622 7.38181C14.2834 7.41045 14.2034 7.43955 14.122 7.46896C14.0407 7.49867 13.9571 7.53235 13.8543 7.5738L13.854 7.57391C13.7565 7.61323 13.64 7.66018 13.5202 7.70332C13.2848 7.78808 12.9697 7.88381 12.6143 7.89426M12.6143 7.89426C12.6141 7.89426 12.6139 7.89427 12.6136 7.89428L12.5845 6.8947L12.615 7.89424C12.6148 7.89424 12.6145 7.89425 12.6143 7.89426Z" stroke="currentColor" stroke-width="2"/>
</svg>