<svg xmlns="http://www.w3.org/2000/svg" viewBox="0 0 20 24" fill="none">
  <path fill-rule="evenodd" clip-rule="evenodd" d="M16.5542 12.7507C16.5241 9.7123 19.0323 8.25422 19.1444 8.18203C17.7346 6.1198 15.5381 5.83633 14.7555 5.80446C12.8864 5.61576 11.1089 6.90553 10.1593 6.90553C9.21233 6.90553 7.74893 5.83277 6.19917 5.86116C4.16217 5.89127 2.28417 7.04593 1.23406 8.87035C-0.882257 12.5421 0.692743 17.9842 2.75547 20.9616C3.76309 22.4197 4.96474 24.0576 6.54286 23.9991C8.06206 23.9393 8.63697 23.0149 10.4747 23.0149C12.3119 23.0149 12.8279 23.9991 14.4362 23.9677C16.0714 23.9375 17.1074 22.4812 18.1083 21.0183C19.2666 19.3263 19.7414 17.6902 19.7702 17.606C19.7339 17.5896 16.5816 16.3822 16.5497 12.752L16.5542 12.7507H16.5542ZM13.5335 3.83166C14.3706 2.81605 14.9362 1.40623 14.7816 -0.000915527C13.5756 0.048247 12.113 0.802972 11.2472 1.81727C10.4698 2.71772 9.79081 4.15277 9.97242 5.53112C11.3193 5.63612 12.6946 4.84682 13.5321 3.83342L13.5335 3.83166Z" fill="currentColor"/>
</svg>