<svg viewBox="0 0 60 60" fill="none" xmlns="http://www.w3.org/2000/svg">
<circle cx="30" cy="30" r="30" fill="url(#paint0_linear_1438_36450)"/>
<path d="M37.5 40C37.5 38.0109 36.7098 36.1032 35.3033 34.6967C33.8968 33.2902 31.9891 32.5 30 32.5C28.0109 32.5 26.1032 33.2902 24.6967 34.6967C23.2902 36.1032 22.5 38.0109 22.5 40" stroke="white" stroke-width="2" stroke-linecap="round" stroke-linejoin="round"/>
<path d="M30 32.5C32.7614 32.5 35 30.2614 35 27.5C35 24.7386 32.7614 22.5 30 22.5C27.2386 22.5 25 24.7386 25 27.5C25 30.2614 27.2386 32.5 30 32.5Z" stroke="white" stroke-width="2" stroke-linecap="round" stroke-linejoin="round"/>
<path d="M30 42.5C36.9036 42.5 42.5 36.9036 42.5 30C42.5 23.0964 36.9036 17.5 30 17.5C23.0964 17.5 17.5 23.0964 17.5 30C17.5 36.9036 23.0964 42.5 30 42.5Z" stroke="white" stroke-width="2" stroke-linecap="round" stroke-linejoin="round"/>
<defs>
<linearGradient id="paint0_linear_1438_36450" x1="8.32229" y1="14.1208" x2="72.0301" y2="97.7895" gradientUnits="userSpaceOnUse">
<stop stop-color="#B526D6"/>
<stop offset="1" stop-color="#FEBE0C"/>
</linearGradient>
</defs>
</svg>
