<svg viewBox="0 0 13 12" fill="none" xmlns="http://www.w3.org/2000/svg">
<ellipse cx="6.44369" cy="6.24259" rx="5.764" ry="5.69474" fill="white"/>
<path d="M7.35725 5.07133C7.28392 4.96466 7.18058 4.87799 7.04725 4.81133C6.91392 4.73799 6.77059 4.70133 6.61725 4.70133C6.23725 4.70133 5.94058 4.81466 5.72725 5.04133C5.52058 5.26799 5.41725 5.56466 5.41725 5.93133C5.41725 6.29799 5.52058 6.59466 5.72725 6.82133C5.94058 7.04799 6.23725 7.16133 6.61725 7.16133C6.78392 7.16133 6.92725 7.12466 7.04725 7.05133C7.16725 6.97799 7.27059 6.89133 7.35725 6.79133L8.34725 7.83133C8.11392 8.07133 7.83725 8.24133 7.51725 8.34133C7.20392 8.43466 6.90392 8.48133 6.61725 8.48133C6.24392 8.48133 5.89058 8.42133 5.55725 8.30133C5.23058 8.18133 4.94392 8.01133 4.69725 7.79133C4.45725 7.56466 4.26725 7.29466 4.12725 6.98133C3.98725 6.66799 3.91725 6.31799 3.91725 5.93133C3.91725 5.54466 3.98725 5.19466 4.12725 4.88133C4.26725 4.56799 4.45725 4.30133 4.69725 4.08133C4.94392 3.85466 5.23058 3.68133 5.55725 3.56133C5.89058 3.44133 6.24392 3.38133 6.61725 3.38133C6.90392 3.38133 7.20392 3.43133 7.51725 3.53133C7.83725 3.62466 8.11392 3.79133 8.34725 4.03133L7.35725 5.07133Z" fill="#2C1B40"/>
</svg>
