<svg viewBox="0 0 36 36" fill="none" xmlns="http://www.w3.org/2000/svg">
<g id="Frame">
<path id="Vector" d="M32.3041 22.5254H25.6833C24.9097 22.5254 24.1679 22.8327 23.6209 23.3797C23.0739 23.9266 22.7666 24.6685 22.7666 25.4421V32.0629" stroke="currentColor" stroke-width="1.5" stroke-linecap="round" stroke-linejoin="round"/>
<path id="Vector_2" d="M11.0996 5.52124V7.94207C11.0996 9.1024 11.5605 10.2152 12.381 11.0357C13.2015 11.8561 14.3143 12.3171 15.4746 12.3171C16.2482 12.3171 16.99 12.6244 17.537 13.1713C18.084 13.7183 18.3913 14.4602 18.3913 15.2337C18.3913 16.8379 19.7038 18.1504 21.3079 18.1504C22.0815 18.1504 22.8234 17.8431 23.3703 17.2961C23.9173 16.7492 24.2246 16.0073 24.2246 15.2337C24.2246 13.6296 25.5371 12.3171 27.1413 12.3171H31.7642" stroke="currentColor" stroke-width="1.5" stroke-linecap="round" stroke-linejoin="round"/>
<path id="Vector_3" d="M16.9329 32.6608V26.9004C16.9329 26.1269 16.6257 25.385 16.0787 24.838C15.5317 24.291 14.7898 23.9837 14.0163 23.9837C13.2427 23.9837 12.5009 23.6765 11.9539 23.1295C11.4069 22.5825 11.0996 21.8406 11.0996 21.0671V19.6087C11.0996 18.8352 10.7923 18.0933 10.2453 17.5464C9.69836 16.9994 8.95649 16.6921 8.18294 16.6921H3.88086" stroke="currentColor" stroke-width="1.5" stroke-linecap="round" stroke-linejoin="round"/>
<path id="Vector_4" d="M18.3919 32.7337C26.4461 32.7337 32.9753 26.2046 32.9753 18.1504C32.9753 10.0963 26.4461 3.56708 18.3919 3.56708C10.3378 3.56708 3.80859 10.0963 3.80859 18.1504C3.80859 26.2046 10.3378 32.7337 18.3919 32.7337Z" stroke="currentColor" stroke-width="1.5" stroke-linecap="round" stroke-linejoin="round"/>
</g>
</svg>
