<svg viewBox="0 0 36 36" fill="none" xmlns="http://www.w3.org/2000/svg">
<g id="Frame">
<path id="Vector" d="M5.2666 16.6921H9.6416C10.4151 16.6921 11.157 16.9994 11.704 17.5463C12.251 18.0933 12.5583 18.8352 12.5583 19.6087V23.9837C12.5583 24.7573 12.251 25.4992 11.704 26.0461C11.157 26.5931 10.4151 26.9004 9.6416 26.9004H8.18327C7.40972 26.9004 6.66785 26.5931 6.12087 26.0461C5.57389 25.4992 5.2666 24.7573 5.2666 23.9837V16.6921ZM5.2666 16.6921C5.2666 14.9685 5.60609 13.2618 6.26568 11.6694C6.92528 10.077 7.89206 8.63007 9.11082 7.4113C10.3296 6.19253 11.7765 5.22575 13.3689 4.56616C14.9613 3.90657 16.668 3.56708 18.3916 3.56708C20.1152 3.56708 21.8219 3.90657 23.4143 4.56616C25.0067 5.22575 26.4536 6.19253 27.6724 7.4113C28.8911 8.63007 29.8579 10.077 30.5175 11.6694C31.1771 13.2618 31.5166 14.9685 31.5166 16.6921M31.5166 16.6921V23.9837C31.5166 24.7573 31.2093 25.4992 30.6623 26.0461C30.1153 26.5931 29.3735 26.9004 28.5999 26.9004H27.1416C26.3681 26.9004 25.6262 26.5931 25.0792 26.0461C24.5322 25.4992 24.2249 24.7573 24.2249 23.9837V19.6087C24.2249 18.8352 24.5322 18.0933 25.0792 17.5463C25.6262 16.9994 26.3681 16.6921 27.1416 16.6921H31.5166Z" stroke="currentColor" stroke-width="1.5" stroke-linecap="round" stroke-linejoin="round"/>
<path id="Vector_2" d="M31.5166 23.9837V26.9004C31.5166 28.4475 30.902 29.9312 29.8081 31.0252C28.7141 32.1191 27.2304 32.7337 25.6833 32.7337H18.3916" stroke="currentColor" stroke-width="1.5" stroke-linecap="round" stroke-linejoin="round"/>
</g>
</svg>
