<svg xmlns="http://www.w3.org/2000/svg" viewBox="0 0 36 36" fill="none">
  <g clip-path="url(#clip0_1193_85686)">
    <path d="M18.2276 35.6504C17.0359 35.6504 15.845 35.5298 14.6878 35.2921C14.4104 35.2351 14.2318 34.9641 14.2888 34.6867C14.3457 34.4093 14.6167 34.2308 14.8942 34.2877C15.9836 34.5115 17.1051 34.6251 18.2276 34.6251C22.6282 34.6251 26.7653 32.9114 29.8769 29.7997C32.9886 26.6881 34.7022 22.551 34.7022 18.1504C34.7022 15.855 34.2393 13.634 33.3265 11.5491C32.4445 9.53487 31.1863 7.74124 29.5868 6.21811C29.3817 6.02287 29.3737 5.6983 29.5691 5.49322C29.7642 5.28807 30.0889 5.28028 30.2939 5.47545C31.9926 7.09305 33.3289 8.99811 34.2658 11.1378C35.2358 13.3532 35.7276 15.7126 35.7276 18.1504C35.7276 22.8249 33.9073 27.2195 30.602 30.5249C27.2966 33.8302 22.902 35.6504 18.2276 35.6504ZM12.8333 34.7761C12.7793 34.7761 12.7245 34.7676 12.6705 34.7495C9.22032 33.5949 6.25547 31.4253 4.09639 28.4753C1.89253 25.4637 0.727539 21.8935 0.727539 18.1504C0.727539 13.476 2.54783 9.0813 5.85318 5.77596C9.15852 2.47061 13.5531 0.650391 18.2276 0.650391C21.8636 0.650391 25.3501 1.75509 28.3101 3.84506C28.5415 4.00844 28.5966 4.3283 28.4332 4.55963C28.2699 4.79096 27.95 4.84599 27.7187 4.68274C24.9326 2.71562 21.6506 1.67579 18.2276 1.67579C13.827 1.67579 9.68988 3.38944 6.57827 6.50105C3.46659 9.61267 1.75294 13.7498 1.75294 18.1504C1.75294 21.6742 2.84943 25.0351 4.92389 27.8697C6.95692 30.6475 9.74819 32.6903 12.9959 33.7771C13.2644 33.8669 13.4093 34.1575 13.3194 34.426C13.2476 34.6406 13.0477 34.7761 12.8333 34.7761ZM18.0451 33.4482C17.4387 33.4482 16.8323 33.3017 16.3598 33.0089C16.1191 32.8597 16.045 32.5437 16.1941 32.303C16.3433 32.0624 16.6593 31.9881 16.9 32.1373C17.5208 32.522 18.5696 32.522 19.1902 32.1373C19.3909 32.013 19.4263 31.8422 19.3926 31.7238C19.3699 31.6439 19.3044 31.5487 19.1217 31.5487C18.8385 31.5487 18.609 31.3192 18.609 31.036C18.609 30.7528 18.8385 30.5233 19.1217 30.5233C19.7263 30.5233 20.2197 30.8843 20.3788 31.4429C20.5473 32.0347 20.2868 32.6639 19.7304 33.0088C19.2578 33.3017 18.6515 33.4482 18.0451 33.4482ZM23.935 32.0712C23.848 32.0712 23.7598 32.0491 23.6791 32.0024C23.4339 31.8609 23.3498 31.5474 23.4914 31.3021C23.5639 31.1765 23.6472 31.054 23.7399 30.9353L22.7974 29.3028C22.6483 29.3237 22.5006 29.3346 22.3556 29.3346C22.3556 29.3346 22.3556 29.3346 22.3555 29.3346C22.0723 29.3346 21.8428 29.1051 21.8428 28.8219C21.8428 28.5387 22.0723 28.3092 22.3555 28.3092C22.5316 28.3092 22.7166 28.2851 22.9039 28.2406C22.9245 28.2341 22.9452 28.229 22.966 28.2251C23.5532 28.0721 24.1571 27.7234 24.5833 27.2914C24.597 27.2753 24.6119 27.2598 24.6278 27.2453C24.76 27.1052 24.8733 26.9572 24.9613 26.8047C25.1028 26.5595 25.4164 26.4753 25.6617 26.617C25.9069 26.7585 25.991 27.0721 25.8494 27.3173C25.7768 27.4429 25.6936 27.5654 25.6008 27.6841L26.5434 29.3168C26.6924 29.2958 26.8401 29.2849 26.985 29.2849H26.9853C27.2685 29.285 27.498 29.5145 27.4979 29.7977C27.4979 30.0808 27.2684 30.3103 26.9852 30.3103C26.9852 30.3102 26.985 30.3102 26.985 30.3103C26.0433 30.3103 24.8502 30.9992 24.3794 31.8147C24.2845 31.9792 24.1121 32.0712 23.935 32.0712ZM23.8153 29.015L24.498 30.1977C24.8122 29.9598 25.1623 29.7576 25.5255 29.6045L24.8426 28.4218C24.5285 28.6597 24.1785 28.8618 23.8153 29.015ZM11.6562 31.8853C11.3154 31.8853 10.9652 31.7967 10.6431 31.6107C10.204 31.3572 9.87986 30.9606 9.73035 30.4941C9.57511 30.0097 9.6248 29.5089 9.87015 29.0839C10.1853 28.5379 10.7221 28.2311 11.1533 27.9847C11.4306 27.8262 11.7173 27.6624 11.8082 27.5048C11.8885 27.3657 11.8585 27.3047 11.8487 27.2848C11.8103 27.2069 11.6818 27.1162 11.51 27.0934C11.2294 27.0561 11.032 26.7984 11.0693 26.5176C11.1065 26.237 11.3644 26.0388 11.6449 26.0769C12.1411 26.1428 12.5717 26.432 12.7685 26.8317C12.9503 27.2007 12.9246 27.6219 12.6962 28.0175C12.4667 28.415 12.0577 28.6488 11.6621 28.875C11.2881 29.0887 10.9347 29.2907 10.7581 29.5966C10.6592 29.768 10.641 29.9756 10.7068 30.1812C10.7784 30.4046 10.9378 30.5968 11.1557 30.7227C11.589 30.9729 12.1156 30.8747 12.3297 30.5039C12.5106 30.1906 12.6633 29.6421 12.707 29.4571C12.7441 29.2993 12.8537 29.1684 13.0026 29.1041C13.1515 29.0398 13.3219 29.0497 13.4623 29.1308L13.8209 29.3378C14.0662 29.4793 14.1502 29.7928 14.0086 30.0381C13.9077 30.213 13.7189 30.3059 13.5306 30.2934C13.4502 30.5305 13.3444 30.7972 13.2178 31.0166C12.8943 31.5767 12.2918 31.8853 11.6562 31.8853ZM17.3335 31.5488C16.7288 31.5488 16.2354 31.1878 16.0763 30.6292C15.9078 30.0374 16.1684 29.4082 16.7247 29.0633C17.6696 28.4774 19.1502 28.4774 20.0952 29.0633C20.3359 29.2125 20.4101 29.5285 20.2609 29.7692C20.1117 30.0099 19.7957 30.084 19.555 29.9349C18.9343 29.5501 17.8856 29.5501 17.2649 29.9349C17.0643 30.0592 17.0288 30.23 17.0625 30.3484C17.0853 30.4282 17.1508 30.5235 17.3335 30.5235C17.6166 30.5235 17.8462 30.7529 17.8462 31.0362C17.8462 31.3194 17.6167 31.5488 17.3335 31.5488ZM6.94864 27.543C6.82662 27.543 6.70563 27.4995 6.60965 27.4151C6.54922 27.3619 6.01177 26.8817 5.74188 26.4142C5.30438 25.6564 5.48581 24.8593 5.77183 24.1703L4.67185 24.1021C4.38925 24.0846 4.17432 23.8413 4.19182 23.5587C4.20932 23.2761 4.45268 23.0614 4.73528 23.0788L6.24795 23.1725L6.92308 21.8155C7.0492 21.5621 7.35696 21.4586 7.61051 21.5849C7.86399 21.711 7.96728 22.0189 7.84115 22.2723L7.35901 23.2413L8.43924 23.3083C8.72184 23.3258 8.93676 23.5691 8.91926 23.8517C8.90169 24.1343 8.6586 24.3482 8.3758 24.3316L6.86675 24.2382C6.50328 25.0112 6.3885 25.4835 6.62988 25.9015C6.71998 26.0575 6.88186 26.2429 7.02671 26.3931L9.17657 25.152C9.42177 25.0105 9.73534 25.0944 9.87692 25.3396C10.0185 25.5849 9.93447 25.8984 9.68927 26.04L7.20493 27.4743C7.12501 27.5205 7.03662 27.543 6.94864 27.543ZM18.2276 27.4473C13.1012 27.4473 8.93061 23.2767 8.93061 18.1504C8.93061 17.8671 9.16016 17.6377 9.44331 17.6377C9.72646 17.6377 9.95601 17.8671 9.95601 18.1504C9.95601 22.7113 13.6666 26.4219 18.2276 26.4219C22.7886 26.4219 26.4991 22.7113 26.4991 18.1504C26.4991 13.5894 22.7886 9.87879 18.2276 9.87879C16.3306 9.87879 14.5463 10.5034 13.0678 11.685C11.6321 12.8324 10.6075 14.4425 10.1827 16.2188C10.1169 16.4941 9.84007 16.664 9.56478 16.5982C9.28943 16.5323 9.11955 16.2557 9.18539 15.9803C9.66302 13.9831 10.8145 12.1732 12.4276 10.884C14.0662 9.57452 16.1259 8.85339 18.2276 8.85339C23.354 8.85339 27.5245 13.024 27.5245 18.1504C27.5245 23.2767 23.3539 27.4473 18.2276 27.4473ZM30.5168 27.3582C30.4298 27.3582 30.3417 27.336 30.2609 27.2894C29.7881 27.0165 29.4772 26.5694 29.3621 26.0755C28.8769 26.2228 28.3343 26.1771 27.8616 25.9041C26.9552 25.3809 26.6436 24.2178 27.1668 23.3114C27.69 22.405 28.853 22.0934 29.7595 22.6167C30.1985 22.8702 30.5126 23.2795 30.6438 23.7691C30.6492 23.7892 30.6542 23.8093 30.6589 23.8294C30.6787 23.8234 30.6986 23.8177 30.7187 23.8123C31.2083 23.6812 31.7198 23.7484 32.1589 24.0019C32.4041 24.1435 32.4881 24.4571 32.3465 24.7023C32.2049 24.9475 31.8912 25.0313 31.6462 24.8899C31.4443 24.7734 31.2091 24.7424 30.9841 24.8028C30.759 24.8631 30.5708 25.0075 30.4542 25.2094C30.2137 25.626 30.357 26.1607 30.7736 26.4013C31.0188 26.5429 31.1028 26.8565 30.9613 27.1017C30.8663 27.2663 30.6939 27.3582 30.5168 27.3582ZM28.812 23.3881C28.5102 23.3881 28.2163 23.5446 28.0548 23.8242C27.8143 24.2409 27.9575 24.7755 28.3742 25.0162C28.7908 25.2567 29.3256 25.1134 29.5662 24.6968C29.6827 24.4949 29.7136 24.2598 29.6533 24.0347C29.593 23.8095 29.4486 23.6213 29.2468 23.5048C29.1097 23.4257 28.9599 23.3881 28.812 23.3881ZM18.2276 25.3965C17.9444 25.3965 17.7149 25.167 17.7149 24.8838V22.6896C17.2532 22.6378 16.812 22.5169 16.4022 22.3375L15.3048 24.2381C15.1633 24.4833 14.8497 24.5671 14.6045 24.4257C14.3593 24.2842 14.2753 23.9706 14.4168 23.7254L15.5149 21.8234C15.1493 21.5527 14.8253 21.2287 14.5546 20.863L12.6526 21.9611C12.4075 22.1025 12.0938 22.0187 11.9523 21.7734C11.8107 21.5282 11.8947 21.2147 12.1399 21.0731L14.0405 19.9758C13.8611 19.5659 13.7402 19.1248 13.6884 18.6631H11.4941C11.211 18.6631 10.9814 18.4336 10.9814 18.1504C10.9814 17.8671 11.211 17.6377 11.4941 17.6377H13.6884C13.7402 17.176 13.8611 16.7349 14.0405 16.325L12.1399 15.2276C11.8947 15.0861 11.8107 14.7725 11.9523 14.5273C12.0938 14.282 12.4074 14.1981 12.6526 14.3396L14.5546 15.4378C14.8253 15.0721 15.1494 14.7481 15.515 14.4773L14.4169 12.5754C14.2753 12.3302 14.3594 12.0166 14.6046 11.875C14.8497 11.7336 15.1633 11.8174 15.3049 12.0627L16.4022 13.9632C16.8121 13.7839 17.2532 13.6629 17.7149 13.6112V11.4169C17.7149 11.1337 17.9445 10.9042 18.2276 10.9042C18.5108 10.9042 18.7403 11.1337 18.7403 11.4169V13.6114C19.1936 13.6625 19.6366 13.7809 20.0535 13.9626L21.1504 12.0628C21.292 11.8174 21.6054 11.7336 21.8507 11.8751C22.0959 12.0167 22.1799 12.3303 22.0384 12.5755L20.7018 14.8903C20.6981 14.8969 20.6943 14.9034 20.6902 14.9097C20.5421 15.1469 20.231 15.2218 19.9912 15.0778C19.9888 15.0763 19.9864 15.0748 19.9841 15.0734C19.452 14.7689 18.8449 14.608 18.2276 14.608C16.2743 14.608 14.6852 16.1971 14.6852 18.1504C14.6852 20.1037 16.2743 21.6928 18.2276 21.6928C20.1808 21.6928 21.7699 20.1037 21.7699 18.1504C21.7699 17.5333 21.6092 16.9266 21.305 16.3946C21.301 16.3883 21.2972 16.3819 21.2935 16.3754C21.1548 16.1304 21.2392 15.8196 21.4829 15.6789L23.8025 14.3396C24.0477 14.1981 24.3613 14.282 24.5029 14.5273C24.6445 14.7725 24.5604 15.0861 24.3152 15.2276L22.4154 16.3245C22.597 16.7415 22.7154 17.1844 22.7665 17.6377H24.961C25.2441 17.6377 25.4737 17.8671 25.4737 18.1504C25.4737 18.4336 25.2441 18.6631 24.961 18.6631H22.7667C22.7149 19.1248 22.594 19.5659 22.4146 19.9758L24.3152 21.0731C24.5604 21.2147 24.6444 21.5282 24.5028 21.7734C24.3612 22.0186 24.0477 22.1025 23.8025 21.9611L21.9004 20.863C21.6297 21.2287 21.3057 21.5527 20.9401 21.8234L22.0382 23.7254C22.1797 23.9706 22.0957 24.2842 21.8505 24.4257C21.6053 24.5672 21.2917 24.4834 21.1502 24.2381L20.0529 22.3375C19.6429 22.5169 19.2018 22.6379 18.7401 22.6896V24.8838C18.7403 25.167 18.5107 25.3965 18.2276 25.3965ZM31.662 20.7139C31.3789 20.7139 31.1493 20.4844 31.1493 20.2012C31.1493 19.9179 31.3789 19.6885 31.662 19.6885C31.9448 19.6885 32.1747 19.4585 32.1747 19.1758C32.1747 18.893 31.9448 18.6631 31.662 18.6631H29.7541C29.471 18.6631 29.2414 18.4336 29.2414 18.1504C29.2414 17.8671 29.471 17.6377 29.7541 17.6377H31.662C31.9448 17.6377 32.1747 17.4077 32.1747 17.125C32.1747 16.8422 31.9448 16.6123 31.662 16.6123C31.3789 16.6123 31.1493 16.3828 31.1493 16.0996C31.1493 15.8163 31.3789 15.5869 31.662 15.5869C32.5102 15.5869 33.2001 16.2769 33.2001 17.125C33.2001 17.5185 33.0516 17.8781 32.8075 18.1504C33.0516 18.4226 33.2001 18.7822 33.2001 19.1758C33.2001 20.0238 32.5102 20.7139 31.662 20.7139ZM6.7774 20.7139C6.49426 20.7139 6.2647 20.4844 6.2647 20.2012V15.9589C6.2647 15.6757 6.49426 15.4462 6.7774 15.4462C7.06055 15.4462 7.2901 15.6757 7.2901 15.9589V20.2012C7.2901 20.4844 7.06055 20.7139 6.7774 20.7139ZM4.7266 20.7139C4.44345 20.7139 4.2139 20.4844 4.2139 20.2012V19.6006C3.61712 19.389 3.1885 18.8188 3.1885 18.1504C3.1885 17.4819 3.61712 16.9117 4.2139 16.7001V16.0996C4.2139 15.8163 4.44345 15.5869 4.7266 15.5869C5.00975 15.5869 5.2393 15.8163 5.2393 16.0996V17.125C5.2393 17.4082 5.00975 17.6377 4.7266 17.6377C4.44386 17.6377 4.2139 17.8676 4.2139 18.1504C4.2139 18.4331 4.44386 18.6631 4.7266 18.6631C5.00975 18.6631 5.2393 18.8925 5.2393 19.1758V20.2012C5.2393 20.4844 5.00975 20.7139 4.7266 20.7139ZM7.38164 14.7696C7.29468 14.7696 7.2065 14.7475 7.12577 14.7008L4.64143 13.2665C4.45084 13.1565 4.35172 12.9372 4.39512 12.7213C4.41098 12.6425 4.55803 11.9369 4.82798 11.4694C5.20676 10.8134 5.73628 10.7277 6.11424 10.7712C6.52652 10.8187 6.93825 11.0404 7.32463 11.2636L8.1351 11.7316C8.20647 11.7727 8.2695 11.7858 8.32268 11.7707C8.36958 11.7573 8.41217 11.7208 8.44272 11.6678C8.53549 11.507 8.49632 11.3246 8.32617 11.1255L6.7275 9.25466C6.54361 9.0394 6.56897 8.71578 6.78424 8.53183C6.9995 8.34794 7.32305 8.3733 7.50708 8.58856L9.10575 10.4594C9.56116 10.9924 9.64524 11.6357 9.33079 12.1804C9.16659 12.4649 8.9088 12.6695 8.60494 12.7565C8.28365 12.8485 7.93474 12.7998 7.62247 12.6196L6.81192 12.1516C6.51094 11.9778 6.20386 11.8137 5.9968 11.7898C5.91497 11.7803 5.83766 11.7714 5.71604 11.9821C5.62601 12.1381 5.54638 12.371 5.48861 12.5716L7.63847 13.8128C7.88367 13.9544 7.96769 14.268 7.82611 14.5132C7.73116 14.6777 7.55883 14.7696 7.38164 14.7696ZM28.618 14.542C28.5666 14.542 28.5144 14.5343 28.4629 14.5179C28.1929 14.4323 28.0435 14.144 28.1291 13.8742C28.3209 13.2695 28.6957 12.7524 29.1758 12.3674L28.7099 11.5603C28.1364 11.7836 27.5012 11.8497 26.8816 11.7134C26.6051 11.6526 26.4302 11.3791 26.491 11.1025C26.5518 10.8261 26.8256 10.6515 27.1019 10.7119C27.4684 10.7926 27.8432 10.7692 28.1914 10.6621L27.9175 10.1877C27.7759 9.9425 27.8599 9.62894 28.1051 9.48736C28.3503 9.34586 28.6639 9.4298 28.8055 9.67501L29.0794 10.1494C29.3463 9.90142 29.5537 9.58853 29.6672 9.23081C29.7528 8.96085 30.0409 8.81142 30.311 8.89707C30.5809 8.98273 30.7303 9.27093 30.6446 9.54082C30.4529 10.1455 30.0781 10.6626 29.5979 11.0475L30.0638 11.8547C30.6373 11.6312 31.2727 11.5652 31.8921 11.7015C32.1686 11.7623 32.3436 12.0358 32.2827 12.3124C32.2219 12.5889 31.9483 12.7639 31.6719 12.703C31.3053 12.6223 30.9305 12.6457 30.5824 12.7528L30.8563 13.2272C30.9978 13.4724 30.9138 13.786 30.6686 13.9276C30.4234 14.069 30.1098 13.9852 29.9683 13.7399L29.6944 13.2656C29.4274 13.5135 29.22 13.8264 29.1065 14.1842C29.0373 14.4025 28.8354 14.542 28.618 14.542ZM11.1358 9.92671C11.0919 9.92671 11.0472 9.92104 11.0028 9.90908C10.7293 9.83579 10.567 9.55463 10.6402 9.28112L11.0412 7.78472L10.9984 7.77323C10.7249 7.70002 10.5626 7.41879 10.6358 7.14528C10.7091 6.87177 10.9904 6.70914 11.2638 6.78277L11.3067 6.79425L11.6184 5.63097L11.3643 5.77767C11.1191 5.91917 10.8055 5.83523 10.6639 5.59002C10.5224 5.34481 10.6064 5.03124 10.8516 4.88967L12.1776 4.12411C12.4143 3.98164 12.7439 4.06976 12.8779 4.31175L13.6435 5.63773C13.7851 5.88294 13.701 6.19651 13.4558 6.33808C13.2106 6.47952 12.8971 6.39564 12.7555 6.15043L12.6088 5.89634L12.2971 7.05962L12.3399 7.07111C12.6134 7.14432 12.7757 7.42555 12.7024 7.69906C12.6292 7.97257 12.348 8.13527 12.0745 8.06158L12.0316 8.05009L11.6307 9.54656C11.5694 9.77564 11.3622 9.92671 11.1358 9.92671ZM24.8747 9.20045C24.6808 9.20045 24.5021 9.0906 24.4153 8.91498L24.0205 8.11667L23.1318 8.17396C22.9253 8.1877 22.7309 8.07511 22.6392 7.88958L22.093 6.78488C21.9675 6.53106 22.0715 6.22358 22.3253 6.09807C22.5792 5.97263 22.8867 6.07667 23.0122 6.33036L23.4069 7.12867L24.2956 7.07138C24.5025 7.05771 24.6965 7.1703 24.7882 7.35576L25.1829 8.15407L26.0717 8.09678C26.3545 8.07805 26.5981 8.29284 26.6163 8.57544C26.6346 8.85804 26.4203 9.10181 26.1377 9.12006L24.9079 9.19936C24.8967 9.20011 24.8857 9.20045 24.8747 9.20045ZM19.4172 7.8282C19.1137 7.8282 18.8259 7.73106 18.5848 7.54737C18.3596 7.37565 18.3162 7.05395 18.4879 6.82877C18.6595 6.60366 18.9813 6.56018 19.2065 6.73184C19.2489 6.76424 19.32 6.80279 19.4172 6.80279C19.6093 6.80279 19.7656 6.64652 19.7656 6.45436C19.7656 6.27957 19.7067 5.84651 19.3387 4.85132H18.5429L17.6597 6.60052C17.5725 6.77319 17.3955 6.88209 17.202 6.88209C17.0086 6.88209 16.8316 6.77319 16.7444 6.60052L15.719 4.56975C15.5913 4.31695 15.6928 4.00858 15.9455 3.88095C16.1983 3.75353 16.5066 3.85484 16.6342 4.10749L17.202 5.23188L17.7697 4.10749C17.8569 3.93482 18.0339 3.82592 18.2274 3.82592H19.4287L19.8613 3.22175C20.0261 2.99159 20.3464 2.93854 20.5766 3.10342C20.8069 3.26824 20.8598 3.58857 20.695 3.81874L20.2695 4.41293C20.62 5.34741 20.7908 6.01679 20.7908 6.45436C20.7911 7.21186 20.1747 7.8282 19.4172 7.8282ZM25.9001 7.42446C25.7061 7.42446 25.5275 7.31461 25.4407 7.13899L25.0459 6.34068L24.1572 6.39797C23.9507 6.41239 23.7563 6.29912 23.6646 6.11359L23.1184 5.00889C22.9929 4.75507 23.0969 4.44752 23.3507 4.32208C23.6046 4.19657 23.9121 4.30068 24.0376 4.55436L24.4323 5.35267L25.321 5.29539C25.5279 5.2824 25.7219 5.39424 25.8136 5.57977L26.2083 6.37807L27.0971 6.32079C27.3795 6.30206 27.6235 6.51684 27.6417 6.79944C27.66 7.08198 27.4457 7.32582 27.1631 7.34407L25.9333 7.42337C25.9221 7.42412 25.9111 7.42446 25.9001 7.42446Z" fill="currentColor"/>
  </g>
  <defs>
    <clipPath id="clip0_1193_85686">
      <rect width="35" height="35" fill="currentColor" transform="translate(0.727539 0.650391)"/>
    </clipPath>
  </defs>
</svg>