<svg xmlns="http://www.w3.org/2000/svg" viewBox="0 0 128 132" fill="none">
  <path d="M127.071 60.6945C126.826 55.3296 125.705 49.9147 123.832 44.7078C123.599 44.0551 123.327 43.419 123.074 42.7746L122.682 41.8101C122.551 41.4879 122.396 41.1782 122.253 40.8623L121.365 38.9728L120.381 37.127C120.213 36.8214 120.051 36.5096 119.879 36.2082L119.337 35.3102C118.97 34.7158 118.618 34.1088 118.232 33.5247C117.441 32.369 116.665 31.1966 115.789 30.0991C115.144 29.5649 114.675 29.1159 114.208 28.8062C113.268 28.1577 112.488 27.7378 111.735 27.4156C110.972 27.1038 110.262 26.8668 109.5 26.5592C109.067 26.3721 108.521 26.0292 107.932 25.5864C107.34 25.1478 106.718 24.5949 106.037 24.0939C105.361 23.5868 104.699 23.0505 104.033 22.6472C103.778 22.4913 103.531 22.352 103.29 22.2253C102.749 21.7555 102.303 21.319 102.027 21.028C101.668 20.6268 101.651 20.4439 102.199 20.7203C102.477 20.8637 102.784 21.0134 103.089 21.1942C103.392 21.3772 103.705 21.5663 104.017 21.7534C104.637 22.1379 105.276 22.4996 105.795 22.8322C106.233 23.1045 106.228 22.9133 105.946 22.4955C105.668 22.0756 105.068 21.4769 104.382 20.8887C101.354 18.3715 98.0512 16.0642 94.5177 14.2641C82.7946 8.25268 69.146 6.24679 56.1551 8.46054C55.2359 8.63514 54.3022 8.82222 53.4038 9.05087C52.5116 9.30239 51.6505 9.56845 50.86 9.83244C50.0736 10.1131 49.3661 10.4207 48.7623 10.6909C48.1564 10.9591 47.6605 11.2147 47.3161 11.4517C46.675 11.8757 45.8616 12.3601 45.4466 12.7093C44.6955 12.9857 43.9486 13.2809 43.2078 13.5906C39.7801 15.1662 36.3856 17.037 33.4828 19.2715C29.4161 22.4331 25.6107 26.0582 22.5586 30.1199C21.7742 31.1156 21.0771 32.1674 20.3882 33.2046C20.0334 33.7159 19.7388 34.2668 19.4192 34.7927C19.1142 35.329 18.7843 35.8445 18.5146 36.3932C17.9627 37.4824 17.4087 38.5446 16.9709 39.6504C16.7447 40.1992 16.5144 40.7355 16.3131 41.2822C16.1223 41.833 15.9397 42.3818 15.7633 42.9243C15.7591 42.9347 15.755 42.9451 15.7529 42.9555C15.6845 43.0823 15.6139 43.207 15.5496 43.3338L14.7674 44.926C14.6387 45.1921 14.5038 45.4561 14.3814 45.7242L14.0287 46.539L13.3232 48.1708L12.6945 49.8357L12.3812 50.6693C12.2837 50.9499 12.1966 51.2326 12.1032 51.5153L11.5554 53.2135C10.2088 57.7761 9.39755 62.5237 9.19836 67.3212C9.18176 68.5206 9.11536 69.722 9.17553 70.9235L9.23156 72.7277L9.37057 74.5278L9.43282 75.3115C9.36227 74.9872 9.29173 74.665 9.22741 74.3387L8.92447 72.524L8.77508 71.6115C8.73151 71.308 8.70246 71.0025 8.66511 70.6969L8.45555 68.8573C8.385 68.2421 8.3684 67.6247 8.32276 67.0053C8.29163 66.3858 8.23146 65.7643 8.22939 65.1428L8.21279 63.27C8.19826 62.6422 8.22524 62.0165 8.25636 61.3888C8.28748 60.759 8.31653 60.1291 8.34765 59.4972C8.4099 58.8674 8.47422 58.2355 8.53647 57.6036L8.63606 56.6516C8.67549 56.3356 8.72943 56.0197 8.77716 55.7037C8.87883 55.0697 8.98049 54.4358 9.08216 53.8018C9.19836 53.1678 9.34567 52.54 9.48054 51.9061C9.7316 50.6298 10.1155 49.3847 10.464 48.1146C10.6861 47.4037 10.9101 46.6908 11.1301 45.9903C11.24 45.639 11.3355 45.2856 11.4475 44.9426C11.5596 44.5997 11.6695 44.2629 11.7795 43.9303C13.6718 37.7651 17.2448 31.7121 21.8386 26.4303C23.8637 24.069 26.1066 21.8927 28.4305 19.8494C28.8475 19.4856 29.2355 19.1094 29.609 18.7311C29.9908 18.3652 30.3664 18.0056 30.7336 17.6523C30.9141 17.4797 30.91 17.301 30.8353 17.2386C30.771 17.1846 30.4929 17.2178 30.2937 17.3446C25.675 20.2485 21.5709 24.0233 18.0643 28.4196C12.3916 35.6449 8.19619 44.0717 6.04868 53.0057C5.97813 53.3237 5.78517 53.7997 5.67935 53.9244C5.35152 54.3069 5.27267 53.9348 5.42206 52.9869C5.94494 50.2224 6.57363 47.4515 7.47828 44.7514L7.80403 43.7329C7.914 43.3941 8.04679 43.0636 8.16921 42.7268L8.92447 40.7168C9.20043 40.0558 9.48884 39.3989 9.77518 38.7379L10.2109 37.7485L10.6881 36.7798C11.9289 34.167 13.4374 31.6726 15.0724 29.2323C16.7281 26.8066 18.5997 24.5034 20.6248 22.2959C22.8615 19.9138 25.3908 17.6024 27.557 15.5612C31.0303 12.3351 35.0971 9.6516 39.859 7.56465C43.7328 5.87264 47.7456 4.4072 51.885 3.47597C55.9227 2.56553 60.0393 2.04172 64.1538 1.89413C68.2662 1.74447 72.3911 1.97312 76.4724 2.60087C84.6329 3.83766 92.5631 6.62303 99.6945 10.747C104.093 13.2996 108.127 16.3406 111.631 19.9013C114.233 22.4996 116.769 25.3141 118.995 28.3136C119.18 28.5588 119.667 28.9808 119.705 28.9372C119.819 28.8062 119.987 28.5838 119.759 28.2076C119.271 27.4114 118.786 26.5758 118.242 25.7631C117.684 24.9607 117.092 24.1563 116.445 23.3789C110.913 16.9684 104.108 11.5411 96.4162 7.73094C85.6247 2.38677 73.3414 -0.00989372 61.3797 0.962907C55.3729 1.38695 49.42 2.71104 43.7265 4.72731C43.0169 4.98506 42.3156 5.26984 41.6122 5.54214L40.5582 5.95786C40.2096 6.10337 39.8673 6.26342 39.5207 6.41516L37.4562 7.34847L35.4353 8.37324C35.0992 8.54784 34.761 8.71413 34.4311 8.89497L33.4476 9.45413C32.794 9.83244 32.1321 10.1983 31.4889 10.5911C30.217 11.4039 28.9285 12.1938 27.7126 13.0876C25.4053 14.6819 23.2536 16.4841 21.1684 18.3528L19.6516 19.8057L18.8985 20.5374L18.1743 21.2982L16.7343 22.8281L15.3628 24.4203C11.7235 28.6815 8.67964 33.4395 6.20845 38.4677C4.51326 41.9536 3.13346 45.6203 2.16242 49.3286C-1.28604 62.5674 -0.553609 76.5171 4.00907 89.1219C5.86609 94.2187 8.23976 99.1825 11.2131 103.737C11.7671 104.585 12.3439 105.514 12.9373 106.385C13.5183 107.264 14.0391 108.135 14.4872 108.865C14.9479 109.636 15.4189 110.418 15.9646 111.149C16.5103 111.881 17.0809 112.602 17.6743 113.313C18.2926 114.001 18.9317 114.679 19.5811 115.352C20.2368 116.019 20.9422 116.645 21.6352 117.287C29.4638 124.326 39.0373 129.304 48.8308 131.341L50.0259 131.418C50.4222 131.447 50.8185 131.466 51.2169 131.468C52.0053 131.48 52.7938 131.491 53.576 131.503C54.3541 131.507 55.1301 131.457 55.8875 131.428C56.2651 131.41 56.6406 131.389 57.0141 131.37C57.3855 131.347 57.7569 131.299 58.1242 131.262C58.9251 131.175 59.4749 130.913 59.5974 130.651C59.8609 130.086 59.9003 129.485 59.8048 128.874C59.7343 128.435 59.1098 127.972 58.1449 127.556C57.6594 127.358 57.0992 127.113 56.4684 126.918C56.1551 126.816 55.8252 126.72 55.4808 126.629C55.3086 126.585 55.1343 126.541 54.9558 126.498C54.7795 126.45 54.601 126.402 54.4184 126.352C53.5179 126.109 52.5905 125.922 51.6858 125.666C50.7832 125.4 49.8765 125.155 49.0175 124.835C48.171 124.502 47.2497 124.164 46.4114 123.785C46.1625 123.667 45.9239 123.548 45.6915 123.43C46.2309 123.646 46.7746 123.854 47.3223 124.049C49.6275 124.922 52.0074 125.592 54.4081 126.167C55.6177 126.419 56.8212 126.702 58.0453 126.876C58.6553 126.97 59.2654 127.084 59.8775 127.159L61.722 127.367C64.5252 127.629 67.2931 127.743 70.0237 127.562L71.0466 127.508L72.0653 127.404C72.7438 127.329 73.4202 127.265 74.0946 127.171C75.437 126.945 76.7816 126.745 78.1012 126.402C79.6449 126.063 81.1803 125.635 82.6452 125.29C84.0914 124.879 85.4774 124.563 86.6622 124.236C87.268 124.078 87.8864 123.924 88.5088 123.721C89.1271 123.509 89.76 123.276 90.4156 123.022C91.0775 122.781 91.7373 122.465 92.4324 122.131C93.1234 121.79 93.86 121.449 94.5945 121.002C97.2524 119.534 99.8564 117.641 102.24 115.913C108.075 111.663 112.963 106.239 116.688 100.159C120.425 94.0774 123.049 87.3676 124.577 80.3605C125.089 77.731 125.359 75.0579 125.529 72.3889L125.61 70.383C125.635 69.7137 125.612 69.0444 125.614 68.3751L125.612 68.1236C125.896 68.8137 126.245 68.6391 126.508 67.5561C126.73 66.5978 126.954 65.544 127.023 64.4007C127.069 63.8291 127.102 63.2325 127.122 62.6152C127.135 61.9937 127.098 61.3576 127.071 60.6945ZM19.1018 90.1508C18.9731 89.9492 18.8134 89.7538 18.72 89.5418C18.3984 88.8164 18.4399 88.5836 18.7449 88.991C18.8445 89.1115 18.9648 89.4628 19.0769 89.7123C19.0873 89.8536 19.0935 90.0033 19.1018 90.1508ZM32.8749 108.376C33.1529 108.723 33.4351 109.068 33.7318 109.401C33.5949 109.297 33.4579 109.193 33.3251 109.085L32.6301 108.503C32.1736 108.11 31.7026 107.732 31.2876 107.308C30.8436 106.853 30.8436 106.603 31.1673 106.697C31.6652 107.194 32.1736 107.678 32.6923 108.154C32.7525 108.227 32.8147 108.304 32.8749 108.376ZM67.2267 124.261C67.1147 124.336 66.6769 124.446 66.1415 124.463C58.7985 124.64 51.2127 122.97 44.4175 119.875C41.8135 118.68 39.2987 117.296 36.9043 115.735C37.5351 115.371 37.8442 114.793 37.1554 113.683C36.8545 113.224 36.369 112.623 35.8254 112.012C35.5556 111.704 35.2672 111.399 34.9954 111.081C34.7319 110.756 34.4746 110.436 34.2443 110.131C34.1302 109.979 34.1094 109.863 34.0762 109.74C36.7446 112.12 39.7926 114.115 43.0522 115.647C43.2742 115.753 43.5668 115.866 43.8344 115.955C47.3763 117.799 51.1463 119.252 55.0554 120.256C56.5618 120.636 58.0868 120.946 59.6202 121.199C59.9418 121.357 60.2468 121.522 60.6037 121.675C61.0228 121.865 61.4336 122.041 61.886 122.195C61.4585 122.153 61.0311 122.112 60.6016 122.07C59.614 121.958 58.6284 121.788 57.6428 121.642L56.1738 121.347C55.6862 121.243 55.1924 121.162 54.711 121.029C53.7462 120.775 52.7668 120.57 51.8207 120.262C47.9967 119.142 44.3241 117.651 40.8508 115.967C40.3051 115.712 39.4875 115.315 39.5394 115.396C39.7262 115.643 40.0166 116.076 40.7014 116.464C46.8015 120.06 53.7524 122.461 60.8672 123.451C61.8756 123.582 62.8611 123.735 63.8343 123.814C64.3198 123.864 64.8012 123.914 65.2784 123.964C65.7577 124.003 66.2308 124.022 66.7038 124.053C67.1188 124.078 67.3263 124.195 67.2267 124.261Z" fill="url(#paint0_linear_1215_26185)"/>
  <defs>
    <linearGradient id="paint0_linear_1215_26185" x1="17.6362" y1="31.5232" x2="157.461" y2="210.058" gradientUnits="userSpaceOnUse">
      <stop stop-color="#B526D6"/>
      <stop offset="1" stop-color="#FEBE0C"/>
    </linearGradient>
  </defs>
</svg>