<svg xmlns="http://www.w3.org/2000/svg" viewBox="0 0 128 132" fill="none">
  <g clip-path="url(#clip0_1215_26190)">
    <path d="M127.648 60.6945C127.404 55.3296 126.283 49.9147 124.409 44.7078C124.177 44.0551 123.905 43.419 123.652 42.7746L123.26 41.8101C123.129 41.4879 122.974 41.1782 122.83 40.8623L121.942 38.9728L120.959 37.127C120.791 36.8214 120.629 36.5096 120.457 36.2082L119.915 35.3102C119.548 34.7158 119.195 34.1088 118.809 33.5247C118.019 32.369 117.243 31.1966 116.367 30.0991C115.722 29.5649 115.253 29.1159 114.786 28.8062C113.846 28.1577 113.066 27.7378 112.313 27.4156C111.549 27.1038 110.84 26.8668 110.078 26.5592C109.645 26.3721 109.099 26.0292 108.51 25.5864C107.918 25.1478 107.296 24.5949 106.615 24.0939C105.939 23.5868 105.277 23.0505 104.611 22.6472C104.356 22.4913 104.109 22.352 103.868 22.2253C103.327 21.7555 102.881 21.319 102.605 21.028C102.246 20.6268 102.229 20.4439 102.777 20.7203C103.055 20.8637 103.362 21.0134 103.667 21.1942C103.97 21.3772 104.283 21.5663 104.594 21.7534C105.215 22.138 105.854 22.4996 106.373 22.8322C106.81 23.1045 106.806 22.9133 106.524 22.4955C106.246 22.0756 105.646 21.4769 104.96 20.8887C101.932 18.3715 98.6291 16.0642 95.0956 14.2641C83.3725 8.25268 69.7239 6.24679 56.7331 8.46054C55.8139 8.63514 54.8802 8.82222 53.9818 9.05087C53.0896 9.30239 52.2285 9.56845 51.438 9.83244C50.6516 10.1131 49.9441 10.4207 49.3403 10.6909C48.7344 10.9591 48.2385 11.2147 47.8941 11.4517C47.253 11.8757 46.4396 12.3601 46.0246 12.7093C45.2735 12.9857 44.5266 13.2809 43.7858 13.5906C40.3581 15.1662 36.9636 17.037 34.0609 19.2715C29.9941 22.4331 26.1888 26.0582 23.1366 30.1199C22.3523 31.1156 21.6552 32.1674 20.9663 33.2046C20.6115 33.7159 20.3169 34.2668 19.9973 34.7927C19.6923 35.329 19.3624 35.8445 19.0927 36.3932C18.5408 37.4824 17.9868 38.5446 17.549 39.6504C17.3228 40.1992 17.0925 40.7355 16.8912 41.2822C16.7003 41.833 16.5177 42.3818 16.3414 42.9243C16.3372 42.9347 16.3331 42.9451 16.331 42.9555C16.2625 43.0823 16.192 43.207 16.1277 43.3338L15.3454 44.926C15.2168 45.1921 15.0819 45.4561 14.9595 45.7242L14.6068 46.539L13.9013 48.1708L13.2726 49.8357L12.9593 50.6693C12.8618 50.9499 12.7747 51.2326 12.6813 51.5153L12.1335 53.2135C10.7869 57.7761 9.97565 62.5237 9.77646 67.3212C9.75986 68.5206 9.69346 69.722 9.75363 70.9235L9.80966 72.7277L9.94867 74.5278L10.0109 75.3115C9.94037 74.9872 9.86983 74.665 9.80551 74.3387L9.50257 72.524L9.35318 71.6115C9.30961 71.308 9.28056 71.0025 9.24321 70.6969L9.03365 68.8573C8.9631 68.2421 8.94651 67.6247 8.90086 67.0053C8.86973 66.3858 8.80956 65.7643 8.80749 65.1428L8.79089 63.27C8.77637 62.6422 8.80334 62.0165 8.83446 61.3888C8.86558 60.759 8.89463 60.1291 8.92576 59.4972C8.988 58.8674 9.05232 58.2355 9.11457 57.6036L9.21416 56.6516C9.25359 56.3356 9.30753 56.0197 9.35526 55.7037C9.45693 55.0697 9.55859 54.4358 9.66026 53.8018C9.77646 53.1678 9.92377 52.54 10.0586 51.9061C10.3097 50.6298 10.6936 49.3847 11.0421 48.1146C11.2641 47.4037 11.4882 46.6908 11.7082 45.9903C11.8181 45.639 11.9136 45.2856 12.0256 44.9426C12.1377 44.5997 12.2476 44.2629 12.3576 43.9303C14.2499 37.7651 17.8228 31.7121 22.4166 26.4303C24.4417 24.069 26.6847 21.8927 29.0085 19.8494C29.4256 19.4856 29.8136 19.1094 30.1871 18.7311C30.5688 18.3652 30.9444 18.0056 31.3116 17.6523C31.4922 17.4797 31.488 17.301 31.4133 17.2386C31.349 17.1846 31.071 17.2178 30.8718 17.3446C26.2531 20.2485 22.149 24.0233 18.6424 28.4196C12.9697 35.6449 8.77429 44.0717 6.62679 53.0057C6.55624 53.3237 6.36328 53.7997 6.25746 53.9244C5.92963 54.3069 5.85078 53.9348 6.00017 52.9869C6.52304 50.2224 7.15173 47.4515 8.05638 44.7514L8.38214 43.7329C8.49211 43.3941 8.6249 43.0636 8.74732 42.7268L9.50257 40.7168C9.77853 40.0558 10.0669 39.3989 10.3533 38.7379L10.789 37.7485L11.2662 36.7798C12.507 34.167 14.0154 31.6726 15.6504 29.2323C17.3062 26.8066 19.1777 24.5034 21.2028 22.2959C23.4395 19.9138 25.9688 17.6024 28.135 15.5612C31.6084 12.3351 35.6751 9.6516 40.437 7.56465C44.3108 5.87264 48.3236 4.4072 52.463 3.47598C56.5007 2.56553 60.6173 2.04172 64.7318 1.89413C68.8442 1.74447 72.969 1.97312 77.0503 2.60087C85.2108 3.83766 93.141 6.62303 100.272 10.747C104.671 13.2996 108.705 16.3406 112.209 19.9013C114.811 22.4996 117.347 25.3141 119.573 28.3136C119.758 28.5588 120.245 28.9808 120.283 28.9372C120.397 28.8062 120.565 28.5838 120.336 28.2076C119.849 27.4114 119.363 26.5758 118.82 25.7631C118.262 24.9607 117.67 24.1563 117.023 23.3789C111.491 16.9684 104.686 11.5411 96.9941 7.73094C86.2026 2.38677 73.9193 -0.00989377 61.9576 0.962907C55.9509 1.38695 49.998 2.71104 44.3046 4.72731C43.5949 4.98506 42.8936 5.26984 42.1902 5.54214L41.1362 5.95786C40.7876 6.10337 40.4453 6.26342 40.0988 6.41516L38.0343 7.34847L36.0133 8.37324C35.6772 8.54784 35.339 8.71413 35.0091 8.89497L34.0256 9.45413C33.372 9.83244 32.7101 10.1983 32.0669 10.5911C30.795 11.4039 29.5065 12.1938 28.2906 13.0876C25.9834 14.6819 23.8317 16.4841 21.7464 18.3528L20.2297 19.8057L19.4765 20.5374L18.7524 21.2982L17.3124 22.8281L15.9409 24.4203C12.3016 28.6815 9.25774 33.4395 6.78655 38.4677C5.09138 41.9536 3.71158 45.6203 2.74054 49.3286C-0.707916 62.5674 0.024517 76.5171 4.58718 89.1219C6.4442 94.2187 8.81786 99.1825 11.7912 103.737C12.3452 104.585 12.922 105.514 13.5154 106.385C14.0964 107.264 14.6172 108.135 15.0653 108.865C15.526 109.636 15.997 110.418 16.5426 111.149C17.0883 111.881 17.6589 112.602 18.2523 113.313C18.8707 114.001 19.5097 114.679 20.1592 115.352C20.8148 116.019 21.5203 116.645 22.2133 117.287C30.0418 124.326 39.6153 129.304 49.4088 131.341L50.6039 131.418C51.0002 131.447 51.3965 131.466 51.7949 131.468C52.5833 131.48 53.3718 131.491 54.154 131.503C54.9321 131.507 55.7081 131.457 56.4654 131.428C56.8431 131.41 57.2186 131.389 57.5921 131.37C57.9635 131.347 58.3349 131.299 58.7021 131.262C59.5031 131.175 60.0529 130.913 60.1753 130.651C60.4388 130.086 60.4782 129.485 60.3828 128.874C60.3123 128.435 59.6877 127.972 58.7229 127.556C58.2374 127.358 57.6772 127.113 57.0464 126.918C56.7331 126.816 56.4032 126.72 56.0588 126.629C55.8865 126.585 55.7122 126.541 55.5338 126.498C55.3574 126.45 55.179 126.402 54.9964 126.352C54.0959 126.109 53.1684 125.922 52.2638 125.666C51.3612 125.4 50.4545 125.155 49.5955 124.835C48.7489 124.502 47.8277 124.164 46.9894 123.785C46.7405 123.667 46.5019 123.548 46.2695 123.43C46.8089 123.646 47.3526 123.854 47.9003 124.049C50.2055 124.922 52.5854 125.592 54.986 126.167C56.1957 126.419 57.3991 126.702 58.6233 126.876C59.2333 126.97 59.8433 127.084 60.4554 127.159L62.3 127.367C65.1032 127.629 67.871 127.743 70.6016 127.562L71.6245 127.508L72.6433 127.404C73.3218 127.329 73.9982 127.265 74.6725 127.171C76.015 126.945 77.3595 126.745 78.6791 126.402C80.2228 126.063 81.7582 125.635 83.2231 125.29C84.6693 124.879 86.0553 124.563 87.2401 124.236C87.8459 124.078 88.4642 123.924 89.0867 123.721C89.705 123.509 90.3379 123.276 90.9935 123.022C91.6554 122.781 92.3152 122.465 93.0103 122.131C93.7012 121.79 94.4378 121.449 95.1723 121.002C97.8303 119.534 100.434 117.641 102.818 115.913C108.653 111.663 113.541 106.239 117.266 100.159C121.003 94.0774 123.627 87.3676 125.154 80.3605C125.667 77.731 125.937 75.0579 126.107 72.3889L126.188 70.383C126.213 69.7137 126.19 69.0444 126.192 68.3751L126.19 68.1236C126.474 68.8137 126.823 68.6391 127.086 67.5561C127.308 66.5978 127.532 65.544 127.601 64.4007C127.646 63.8291 127.679 63.2325 127.7 62.6152C127.713 61.9937 127.675 61.3576 127.648 60.6945ZM19.6799 90.1508C19.5512 89.9492 19.3915 89.7538 19.2981 89.5418C18.9765 88.8164 19.018 88.5836 19.323 88.991C19.4226 89.1115 19.5429 89.4628 19.655 89.7123C19.6653 89.8536 19.6716 90.0033 19.6799 90.1508ZM33.4529 108.376C33.731 108.723 34.0131 109.068 34.3098 109.401C34.1729 109.297 34.036 109.193 33.9032 109.085L33.2081 108.503C32.7516 108.11 32.2806 107.732 31.8656 107.308C31.4216 106.853 31.4216 106.603 31.7453 106.697C32.2433 107.194 32.7516 107.678 33.2703 108.154C33.3305 108.227 33.3927 108.304 33.4529 108.376ZM67.8046 124.261C67.6926 124.336 67.2548 124.446 66.7195 124.463C59.3765 124.64 51.7907 122.97 44.9955 119.875C42.3915 118.68 39.8768 117.296 37.4823 115.735C38.1131 115.371 38.4223 114.793 37.7334 113.683C37.4325 113.224 36.947 112.623 36.4034 112.012C36.1337 111.704 35.8453 111.399 35.5735 111.081C35.3099 110.756 35.0527 110.436 34.8223 110.131C34.7082 109.979 34.6875 109.863 34.6543 109.74C37.3226 112.12 40.3706 114.115 43.6302 115.647C43.8522 115.753 44.1448 115.866 44.4124 115.955C47.9543 117.799 51.7243 119.252 55.6334 120.256C57.1398 120.636 58.6648 120.946 60.1981 121.199C60.5197 121.357 60.8247 121.522 61.1816 121.675C61.6008 121.865 62.0116 122.041 62.4639 122.195C62.0365 122.153 61.6091 122.112 61.1796 122.07C60.1919 121.958 59.2063 121.788 58.2208 121.642L56.7518 121.347C56.2642 121.243 55.7703 121.162 55.289 121.029C54.3241 120.775 53.3448 120.57 52.3987 120.262C48.5747 119.142 44.9021 117.651 41.4288 115.967C40.8831 115.712 40.0656 115.315 40.1174 115.396C40.3042 115.643 40.5947 116.076 41.2794 116.464C47.3795 120.06 54.3304 122.461 61.4451 123.451C62.4535 123.582 63.4391 123.735 64.4122 123.814C64.8977 123.864 65.3791 123.914 65.8563 123.964C66.3356 124.003 66.8087 124.022 67.2818 124.053C67.6968 124.078 67.9042 124.195 67.8046 124.261Z" fill="currentColor" fill-opacity="0.3"/>
  </g>
  <defs>
    <clipPath id="clip0_1215_26190">
      <rect width="127.122" height="130.754" fill="white" transform="translate(0.578125 0.750977)"/>
    </clipPath>
  </defs>
</svg>