<svg xmlns="http://www.w3.org/2000/svg" viewBox="0 0 41 41" fill="none">
  <rect x="0.142578" y="0.871094" width="39.9652" height="39.9652" rx="19.9826" fill="url(#paint0_linear_1358_38885)"/>
  <path d="M16.9837 11.788C16.3183 11.6097 15.548 12.0813 14.8663 12.4984C14.7293 12.5823 14.5965 12.6636 14.4673 12.7382C13.82 13.1115 13.5127 14.4656 13.6835 16.189C13.8949 18.3178 14.7781 20.8187 16.1709 23.2312C17.5634 25.6424 19.2865 27.6576 21.0249 28.9046C22.4317 29.9154 23.7585 30.3246 24.4045 29.9516C24.5337 29.877 24.6705 29.8027 24.8115 29.7265C25.529 29.3362 26.3427 28.8942 26.4973 28.2034C26.6036 27.7287 26.3971 27.1321 25.8833 26.4304C24.3461 24.3296 23.6492 24.7391 22.4935 25.4171L22.2672 25.5492C21.7163 25.8677 21.0367 25.5824 20.2458 24.7032C19.6973 24.0931 19.0649 23.1705 18.3672 21.9613C16.6425 18.9746 16.2754 17.3311 17.2106 16.7898L17.4352 16.662C18.6025 16.0007 19.3068 15.6016 18.2558 13.2186C17.9038 12.4231 17.491 11.946 17.027 11.8002C17.0126 11.7958 16.9982 11.7919 16.9837 11.788Z" fill="white"/>
  <defs>
    <linearGradient id="paint0_linear_1358_38885" x1="0.142578" y1="0.871094" x2="40.1077" y2="0.871094" gradientUnits="userSpaceOnUse">
      <stop stop-color="#A633CD"/>
      <stop offset="1" stop-color="#EC9947"/>
    </linearGradient>
  </defs>
</svg>