<svg xmlns="http://www.w3.org/2000/svg" viewBox="0 0 36 36" fill="none">
  <g clip-path="url(#clip0_1193_85691)">
    <path d="M29.5522 23.3698C31.0073 20.0895 31.0073 16.2114 29.5522 12.9312C32.6901 12.6543 35.1592 10.0115 35.1592 6.80284C34.9168 -1.01895 23.7913 -1.47223 22.8785 6.25754C19.5982 4.80245 15.7202 4.80245 12.4399 6.25754C12.163 3.11951 9.52021 0.650452 6.3115 0.650452C-1.51029 0.892853 -1.96358 12.0183 5.7662 12.9311C4.31111 16.2114 4.31111 20.0894 5.7662 23.3697C2.62824 23.6467 0.15918 26.2894 0.15918 29.4981C0.401581 37.3199 11.527 37.7732 12.4399 30.0434C15.7201 31.4985 19.5983 31.4985 22.8785 30.0434C23.1554 33.1814 25.7982 35.6505 29.0069 35.6505C36.8286 35.4081 37.2819 24.2826 29.5522 23.3698ZM30.0594 6.66455C30.0063 8.05921 28.0069 8.05825 27.9543 6.66455V5.79639C27.9543 5.21602 28.4265 4.74393 29.0068 4.74393C29.5872 4.74393 30.0593 5.21609 30.0593 5.79639L30.0594 6.66455ZM27.6381 8.65886C28.4039 9.21933 29.6099 9.21933 30.3757 8.65886C30.988 9.10053 31.3615 9.81707 31.3615 10.5707V10.9676C29.9911 11.7865 28.0227 11.7865 26.6523 10.9676V10.5707C26.6523 9.81707 27.0258 9.10053 27.6381 8.65886ZM29.0069 2.01763C33.0452 1.98339 35.2792 6.86197 32.6636 9.8859C32.4908 8.98131 31.9821 8.15826 31.2395 7.59738C31.3599 7.31013 31.4266 6.99493 31.4266 6.66448V5.79639C31.3045 2.59 26.7081 2.5924 26.5872 5.79639V6.66448C26.5872 6.99493 26.6538 7.31013 26.7743 7.59738C26.0316 8.15826 25.5229 8.98131 25.3501 9.8859C22.7336 6.86095 24.9702 1.98291 29.0069 2.01763ZM1.52636 6.80277C1.52636 4.16425 3.67297 2.01763 6.3115 2.01763C10.3491 1.98298 12.5843 6.86204 9.9683 9.8859C9.79549 8.98138 9.28676 8.15833 8.54418 7.59745C8.66463 7.3102 8.73128 6.995 8.73128 6.66455V5.79639C8.60925 2.59 4.01272 2.5924 3.89186 5.79639V6.66448C3.89186 6.99493 3.95851 7.31013 4.07896 7.59738C3.33637 8.15826 2.82758 8.98131 2.65483 9.8859C1.95101 9.05254 1.52636 7.97636 1.52636 6.80277ZM6.3115 11.5879C5.45612 11.5879 4.65249 11.3623 3.95694 10.9676V10.5707C3.95694 9.81707 4.33045 9.10053 4.94274 8.65886C5.70857 9.2194 6.91449 9.21933 7.68032 8.65886C8.29261 9.10053 8.66613 9.81707 8.66613 10.5707V10.9676C7.97051 11.3623 7.16688 11.5879 6.3115 11.5879ZM7.36402 6.66455C7.31098 8.05921 5.31154 8.05819 5.25897 6.66455V5.79639C5.25897 5.21602 5.73113 4.74393 6.3115 4.74393C6.89187 4.74393 7.36402 5.21609 7.36402 5.79639V6.66455ZM3.95694 33.6629V33.2661C3.95694 32.5124 4.33045 31.7959 4.94274 31.3542C5.70857 31.9148 6.91449 31.9147 7.68032 31.3542C8.29261 31.7959 8.66613 32.5124 8.66613 33.2661V33.6629C7.29573 34.4819 5.32726 34.4818 3.95694 33.6629ZM7.36402 29.3598C7.31098 30.7545 5.31154 30.7535 5.25897 29.3598V28.4917C5.25897 27.9114 5.73113 27.4393 6.3115 27.4393C6.89187 27.4393 7.36402 27.9114 7.36402 28.4917V29.3598ZM9.9683 32.5813C9.79549 31.6767 9.28676 30.8537 8.54418 30.2928C8.66463 30.0056 8.73128 29.6904 8.73128 29.3599V28.4917C8.60925 25.2854 4.01272 25.2878 3.89186 28.4917V29.3598C3.89186 29.6903 3.95851 30.0055 4.07896 30.2927C3.33637 30.8536 2.82758 31.6767 2.65483 32.5813C0.0390044 29.5564 2.27414 24.6785 6.31164 24.713C10.3487 24.6784 12.5845 29.5572 9.9683 32.5813ZM12.3837 28.5051C11.9602 25.9065 9.90316 23.8494 7.30455 23.4259C5.62285 20.1701 5.62285 16.1307 7.30455 12.875C9.90309 12.4515 11.9602 10.3944 12.3837 7.79589C15.6395 6.11419 19.6789 6.11419 22.9347 7.79589C23.3581 10.3944 25.4152 12.4515 28.0137 12.875C29.6955 16.1308 29.6954 20.1702 28.0138 23.4259C25.4153 23.8494 23.3581 25.9065 22.9347 28.5051C19.679 30.1867 15.6394 30.1867 12.3837 28.5051ZM26.6523 33.6629V33.2661C26.6523 32.5124 27.0258 31.7959 27.6381 31.3542C28.4039 31.9147 29.6099 31.9147 30.3757 31.3542C30.988 31.7959 31.3615 32.5124 31.3615 33.2661V33.6629C29.991 34.4819 28.0226 34.4818 26.6523 33.6629ZM30.0594 29.3598C30.0063 30.7545 28.0069 30.7535 27.9543 29.3598V28.4917C27.9543 27.9114 28.4265 27.4393 29.0068 27.4393C29.5872 27.4393 30.0593 27.9114 30.0593 28.4917L30.0594 29.3598ZM32.6636 32.5813C32.4908 31.6767 31.9821 30.8536 31.2395 30.2927C31.3599 30.0055 31.4266 29.6903 31.4266 29.3598V28.4917C31.3045 25.2854 26.7081 25.2878 26.5872 28.4917V29.3598C26.5872 29.6903 26.6538 30.0055 26.7743 30.2927C26.0316 30.8536 25.5229 31.6767 25.3501 32.5813C22.7343 29.5564 24.9694 24.6785 29.0069 24.713C33.044 24.6783 35.2798 29.5573 32.6636 32.5813Z" fill="currentColor"/>
    <path d="M24.4954 18.1505C24.4954 14.3811 21.4288 11.3145 17.6595 11.3145C8.60315 11.6582 8.60561 24.6441 17.6595 24.9864C21.4289 24.9864 24.4954 21.9198 24.4954 18.1505ZM12.1907 18.1505C12.1907 15.135 14.644 12.6817 17.6595 12.6817C22.3782 12.6652 24.8735 18.3674 21.719 21.811C21.5606 20.7233 20.9622 19.7267 20.0657 19.0726C20.2137 18.7433 20.2962 18.3786 20.2962 17.9949V17.0183C20.1632 13.5242 15.1544 13.5269 15.0226 17.0183V17.9949C15.0226 18.3786 15.1051 18.7434 15.2531 19.0726C14.3566 19.7267 13.7583 20.7233 13.5998 21.811C12.7244 20.8411 12.1907 19.5569 12.1907 18.1505ZM16.3899 17.9949V17.0183C16.454 15.336 18.8656 15.3373 18.929 17.0183V17.9949C18.865 19.6772 16.4533 19.6759 16.3899 17.9949ZM14.9251 22.8852V22.3893C14.9251 21.4938 15.3791 20.6433 16.1196 20.134C16.9772 20.7901 18.3418 20.7901 19.1993 20.134C19.9398 20.6433 20.3938 21.4938 20.3938 22.3893V22.8852C18.8085 23.8539 16.5104 23.8539 14.9251 22.8852Z" fill="currentColor"/>
  </g>
  <defs>
    <clipPath id="clip0_1193_85691">
      <rect width="35" height="35" fill="currentColor" transform="translate(0.15918 0.650452)"/>
    </clipPath>
  </defs>
</svg>