<svg xmlns="http://www.w3.org/2000/svg" viewBox="0 0 36 36" fill="none">
  <g clip-path="url(#clip0_1193_85677)">
    <path d="M33.9403 24.5482H2.51497C1.5294 24.5482 0.727539 23.7467 0.727539 22.7613V5.86372C0.727539 4.87836 1.5294 4.07672 2.51497 4.07672H33.9403C34.9255 4.07672 35.7275 4.87836 35.7275 5.86372V22.7613C35.7275 23.7467 34.9255 24.5482 33.9403 24.5482ZM2.51497 5.52022C2.3254 5.52022 2.1709 5.67429 2.1709 5.86372V22.7613C2.1709 22.9507 2.3254 23.1049 2.51497 23.1049H33.9403C34.1298 23.1049 34.2841 22.9507 34.2841 22.7613V5.86372C34.2841 5.67429 34.1299 5.52022 33.9403 5.52022H2.51497Z" fill="currentColor"/>
    <path d="M14.4908 19.7973C14.2538 19.6677 14.0996 19.4261 14.0996 19.1561V9.46899C14.0996 9.19885 14.2506 8.95149 14.4908 8.82756C14.7308 8.70371 15.0196 8.72435 15.2398 8.88092L22.051 13.7244C22.2416 13.8598 22.3545 14.079 22.3545 14.3126C22.3545 14.5462 22.2416 14.7653 22.051 14.9008C22.051 14.9008 16.9423 18.5332 15.2398 19.7441C15.1153 19.8326 14.8471 19.9924 14.4908 19.7973ZM15.5433 10.8678V17.7572L20.3873 14.3126L15.5433 10.8678Z" fill="currentColor"/>
    <path d="M35.0059 28.6452H21.2109C20.8905 27.418 19.7725 26.5099 18.4465 26.5099C17.1205 26.5099 16.0028 27.418 15.6824 28.6452H1.44925C1.05075 28.6452 0.727539 28.9684 0.727539 29.3669C0.727539 29.7655 1.05075 30.0886 1.44925 30.0886H15.6825C16.0029 31.3157 17.1207 32.224 18.4465 32.224C19.7726 32.224 20.8906 31.3157 21.211 30.0886H35.0059C35.4041 30.0886 35.7275 29.7656 35.7275 29.3669C35.7275 28.9684 35.4041 28.6452 35.0059 28.6452ZM18.4465 30.7805C17.6673 30.7805 17.033 30.1463 17.033 29.3668C17.033 28.5875 17.6673 27.9534 18.4465 27.9534C19.226 27.9534 19.8601 28.5875 19.8601 29.3668C19.8601 30.1464 19.226 30.7805 18.4465 30.7805Z" fill="currentColor"/>
  </g>
  <defs>
    <clipPath id="clip0_1193_85677">
      <rect width="35" height="35" fill="currentColor" transform="translate(0.727539 0.650391)"/>
    </clipPath>
  </defs>
</svg>