<?xml version="1.0" encoding="UTF-8"?>
<!DOCTYPE svg PUBLIC "-//W3C//DTD SVG 1.1//EN" "http://www.w3.org/Graphics/SVG/1.1/DTD/svg11.dtd">
<svg xmlns="http://www.w3.org/2000/svg" version="1.1" width="260px" height="185px" style="shape-rendering:geometricPrecision; text-rendering:geometricPrecision; image-rendering:optimizeQuality; fill-rule:evenodd; clip-rule:evenodd" xmlns:xlink="http://www.w3.org/1999/xlink">
<g><path style="opacity:0.75" fill="#fefffe" d="M 69.5,-0.5 C 70.1667,-0.5 70.8333,-0.5 71.5,-0.5C 74.3474,2.10101 74.0141,4.10101 70.5,5.5C 66.9859,4.10101 66.6526,2.10101 69.5,-0.5 Z"/></g>
<g><path style="opacity:0.711" fill="#fefffe" d="M 22.5,7.5 C 27.289,9.19983 27.6224,11.5332 23.5,14.5C 19.9897,12.5733 19.6564,10.24 22.5,7.5 Z"/></g>
<g><path style="opacity:0.704" fill="#fefefe" d="M 259.5,87.5 C 259.5,92.5 259.5,97.5 259.5,102.5C 257.35,108.148 253.35,111.981 247.5,114C 239.386,114.938 231.386,114.438 223.5,112.5C 223.167,112.833 222.833,113.167 222.5,113.5C 233.185,125.017 243.685,136.684 254,148.5C 255.183,152.274 254.349,155.441 251.5,158C 241.306,166.699 231.306,175.532 221.5,184.5C 219.5,184.5 217.5,184.5 215.5,184.5C 201.805,169.141 188.138,153.808 174.5,138.5C 174.5,138.167 174.5,137.833 174.5,137.5C 174.662,135.473 174.495,133.473 174,131.5C 173.292,132.381 172.458,133.047 171.5,133.5C 161.276,122.73 151.276,111.73 141.5,100.5C 144.998,96.1691 148.998,92.3358 153.5,89C 146.174,88.5003 138.841,88.3337 131.5,88.5C 130.391,88.4431 129.391,88.1098 128.5,87.5C 119.245,76.0731 109.412,65.0731 99,54.5C 97.3674,52.5471 96.2007,50.3804 95.5,48C 98.3345,43.1488 102.001,38.8155 106.5,35C 112.833,29.3333 119.167,23.6667 125.5,18C 128.7,14.448 132.2,13.948 136,16.5C 146.333,28.1667 156.667,39.8333 167,51.5C 167.333,44.5 167.667,37.5 168,30.5C 169.925,20.5729 175.925,15.9062 186,16.5C 191.755,16.4173 197.255,17.584 202.5,20C 210.45,32.1432 212.617,45.3099 209,59.5C 206.786,65.9091 204.119,71.9091 201,77.5C 212.324,70.9189 224.491,68.7522 237.5,71C 244.002,72.5854 250.002,75.252 255.5,79C 257.329,81.6823 258.663,84.5156 259.5,87.5 Z M 186.5,31.5 C 195.586,45.3117 195.752,59.3117 187,73.5C 182.173,70.0319 179.006,65.5319 177.5,60C 177.663,49.4873 180.663,39.9873 186.5,31.5 Z M 211.5,87.5 C 223.412,85.4826 234.079,88.1492 243.5,95.5C 240.625,98.7467 236.959,100.58 232.5,101C 225.5,101.667 218.5,101.667 211.5,101C 208.13,97.965 205.13,94.6317 202.5,91C 205.511,89.6727 208.511,88.506 211.5,87.5 Z"/></g>
<g><path style="opacity:0.705" fill="#fefffe" d="M 51.5,18.5 C 56.1585,18.0146 57.4919,19.848 55.5,24C 50.7282,24.8104 49.3948,22.9771 51.5,18.5 Z"/></g>
<g><path style="opacity:0.866" fill="#fefffe" d="M 83.5,22.5 C 92.4867,21.665 94.8201,25.165 90.5,33C 85.3096,34.8049 81.9762,33.1382 80.5,28C 81.1242,25.9149 82.1242,24.0816 83.5,22.5 Z"/></g>
<g><path style="opacity:0.85" fill="#fefffe" d="M -0.5,35.5 C -0.5,34.8333 -0.5,34.1667 -0.5,33.5C 2.37746,27.8923 6.21079,27.2256 11,31.5C 11.9232,39.2463 8.75656,41.7463 1.5,39C 0.915201,37.6976 0.248534,36.531 -0.5,35.5 Z"/></g>
<g><path style="opacity:0.732" fill="#fefffe" d="M 82.5,49.5 C 84.1667,49.5 85.8333,49.5 87.5,49.5C 88.3221,55.2093 86.4888,56.5427 82,53.5C 81.4209,52.0715 81.5876,50.7382 82.5,49.5 Z"/></g>
<g><path style="opacity:0.828" fill="#fefffe" d="M 40.5,50.5 C 46.873,50.3677 49.373,53.3677 48,59.5C 45.8328,62.2868 42.9994,63.1201 39.5,62C 35.3759,57.6949 35.7092,53.8615 40.5,50.5 Z"/></g>
<g><path style="opacity:0.75" fill="#fefffe" d="M 8.5,62.5 C 12.0131,63.0282 13.0131,64.8615 11.5,68C 8.76293,69.0798 7.09626,68.2464 6.5,65.5C 6.94242,64.2613 7.60908,63.2613 8.5,62.5 Z"/></g>
<g><path style="opacity:0.867" fill="#fefffe" d="M 91.5,67.5 C 98.6797,68.8568 100.346,72.6902 96.5,79C 89,80.8333 86.1667,78 88,70.5C 89.1451,69.3636 90.3117,68.3636 91.5,67.5 Z"/></g>
<g><path style="opacity:0.734" fill="#fefffe" d="M 52.5,77.5 C 54.1992,77.3398 55.8659,77.5065 57.5,78C 58.8133,81.692 57.4799,83.3587 53.5,83C 52.5939,81.3005 52.2606,79.4672 52.5,77.5 Z"/></g>
<g><path style="opacity:0.705" fill="#fefffe" d="M 113.5,79.5 C 118.159,79.0146 119.492,80.848 117.5,85C 112.728,85.8104 111.395,83.9771 113.5,79.5 Z"/></g>
<g><path style="opacity:0.872" fill="#fefefe" d="M 101.5,87.5 C 105.796,98.0786 110.463,108.412 115.5,118.5C 120.322,130.804 125.656,142.804 131.5,154.5C 135.506,164.511 139.506,174.511 143.5,184.5C 99.8333,184.5 56.1667,184.5 12.5,184.5C 11.5077,152.24 11.1744,119.907 11.5,87.5C 41.5,87.5 71.5,87.5 101.5,87.5 Z"/></g>
<g><path style="opacity:0.955" fill="#d5cae4" d="M 101.5,87.5 C 106.167,87.5 110.833,87.5 115.5,87.5C 115.5,91.8333 115.5,96.1667 115.5,100.5C 115.5,105.833 115.5,111.167 115.5,116.5C 115.5,117.167 115.5,117.833 115.5,118.5C 110.463,108.412 105.796,98.0786 101.5,87.5 Z"/></g>
<g><path style="opacity:0.89" fill="#cfc2e0" d="M 115.5,87.5 C 119.833,87.5 124.167,87.5 128.5,87.5C 129.391,88.1098 130.391,88.4431 131.5,88.5C 134.463,92.7977 137.797,96.7977 141.5,100.5C 151.276,111.73 161.276,122.73 171.5,133.5C 172.512,134.872 173.512,136.205 174.5,137.5C 174.5,137.833 174.5,138.167 174.5,138.5C 174.5,145.167 174.5,151.833 174.5,158.5C 154.833,139.167 135.167,119.833 115.5,100.5C 115.5,96.1667 115.5,91.8333 115.5,87.5 Z"/></g>
<g><path style="opacity:0.921" fill="#e8e2f1" d="M 131.5,88.5 C 138.841,88.3337 146.174,88.5003 153.5,89C 148.998,92.3358 144.998,96.1691 141.5,100.5C 137.797,96.7977 134.463,92.7977 131.5,88.5 Z"/></g>
<g><path style="opacity:0.789" fill="#cabbdb" d="M 115.5,100.5 C 135.167,119.833 154.833,139.167 174.5,158.5C 174.5,163.833 174.5,169.167 174.5,174.5C 154.833,155.167 135.167,135.833 115.5,116.5C 115.5,111.167 115.5,105.833 115.5,100.5 Z"/></g>
<g><path style="opacity:0.897" fill="#d0c3e0" d="M 115.5,116.5 C 135.167,135.833 154.833,155.167 174.5,174.5C 174.747,177.939 174.414,181.272 173.5,184.5C 170.167,184.5 166.833,184.5 163.5,184.5C 153.202,173.702 142.702,163.035 132,152.5C 131.536,153.094 131.369,153.761 131.5,154.5C 125.656,142.804 120.322,130.804 115.5,118.5C 115.5,117.833 115.5,117.167 115.5,116.5 Z"/></g>
<g><path style="opacity:0.721" fill="#ece7f3" d="M 174.5,137.5 C 173.512,136.205 172.512,134.872 171.5,133.5C 172.458,133.047 173.292,132.381 174,131.5C 174.495,133.473 174.662,135.473 174.5,137.5 Z"/></g>
<g><path style="opacity:0.796" fill="#cbbbdc" d="M 163.5,184.5 C 156.833,184.5 150.167,184.5 143.5,184.5C 139.506,174.511 135.506,164.511 131.5,154.5C 131.369,153.761 131.536,153.094 132,152.5C 142.702,163.035 153.202,173.702 163.5,184.5 Z"/></g>
</svg>
