 <svg viewBox="0 0 300 58" fill="none" xmlns="http://www.w3.org/2000/svg">
      
      <path
        fillRule="evenodd"
        clipRule="evenodd"
        d="M163.463 21.001C164.071 22.6623 164.434 24.3899 164.514 26.1016L164.519 26.2215C164.527 26.3903 164.534 26.5538 164.531 26.7144C164.524 26.9113 164.513 27.1017 164.498 27.284C164.476 27.6488 164.403 27.985 164.331 28.2908C164.246 28.6363 164.133 28.692 164.04 28.4718L164.041 28.5521C164.041 28.6253 164.042 28.6985 164.042 28.7717C164.044 28.912 164.045 29.0523 164.04 29.1927L164.014 29.8327C163.958 30.6842 163.871 31.5371 163.704 32.376C163.209 34.6116 162.357 36.7524 161.144 38.6929C159.935 40.6327 158.348 42.363 156.454 43.7192L156.42 43.7435C155.656 44.288 154.823 44.8813 153.973 45.3427C153.775 45.4607 153.577 45.5555 153.388 45.6464L153.388 45.6464C153.348 45.6653 153.309 45.6841 153.271 45.7028C153.045 45.8096 152.831 45.9104 152.616 45.9873C152.403 46.0682 152.198 46.1425 151.997 46.2101C151.822 46.2666 151.647 46.311 151.476 46.3547L151.398 46.3746C151.232 46.4196 151.053 46.4639 150.867 46.5104L150.866 46.5105L150.866 46.5106L150.866 46.5106C150.62 46.5717 150.36 46.6363 150.094 46.7108C149.896 46.7566 149.694 46.807 149.49 46.858L149.49 46.8581L149.49 46.8581L149.49 46.8581L149.49 46.8582L149.489 46.8582L149.489 46.8583C149.203 46.9298 148.911 47.0026 148.619 47.0656C148.258 47.1579 147.891 47.2177 147.523 47.2775L147.523 47.2775L147.521 47.2779C147.453 47.2889 147.386 47.2998 147.319 47.311C147.156 47.3332 146.993 47.3502 146.83 47.3673L146.829 47.3673C146.773 47.3733 146.716 47.3792 146.66 47.3853L146.329 47.4185L145.997 47.4357C145.111 47.4934 144.212 47.4569 143.303 47.3734L142.704 47.307C142.573 47.2914 142.443 47.2702 142.313 47.2491C142.245 47.2381 142.177 47.2271 142.109 47.2168C141.801 47.1736 141.497 47.1096 141.192 47.0456C141.104 47.0272 141.016 47.0087 140.929 46.9907C140.149 46.807 139.377 46.5934 138.629 46.3149C138.451 46.2526 138.274 46.1862 138.099 46.1173C138.175 46.1551 138.252 46.1929 138.333 46.2307C138.54 46.3224 138.762 46.4068 138.977 46.4886C139.045 46.5145 139.113 46.5401 139.179 46.5656C139.402 46.6474 139.636 46.7139 139.87 46.7808C139.928 46.7974 139.987 46.814 140.045 46.8309C140.204 46.8751 140.365 46.9128 140.526 46.9505L140.526 46.9505L140.526 46.9506C140.662 46.9824 140.798 47.0142 140.932 47.0497C140.991 47.0656 141.049 47.0809 141.106 47.0961C141.164 47.1101 141.221 47.124 141.277 47.1379C141.389 47.1671 141.496 47.1976 141.597 47.2301C141.766 47.2814 141.919 47.3435 142.056 47.399L142.112 47.4218L142.141 47.4337C142.455 47.5663 142.657 47.7142 142.68 47.8542C142.711 48.0491 142.698 48.2408 142.613 48.4212C142.573 48.5048 142.395 48.5883 142.135 48.6162C142.101 48.6196 142.067 48.6232 142.033 48.6269L142.033 48.6269C141.947 48.6362 141.861 48.6454 141.774 48.6507L141.602 48.6594L141.6 48.6595C141.536 48.6628 141.473 48.6661 141.409 48.6692C141.343 48.6717 141.276 48.6747 141.209 48.6777C141.027 48.6858 140.843 48.6941 140.658 48.6931C140.532 48.6911 140.405 48.6893 140.278 48.6875H140.277L140.277 48.6875L140.276 48.6875L140.268 48.6873C140.143 48.6856 140.018 48.6838 139.893 48.6818C139.763 48.6812 139.635 48.6752 139.506 48.6659L139.118 48.6414C135.939 47.9914 132.832 46.4031 130.291 44.1576C130.236 44.1077 130.181 44.0581 130.126 44.0086L130.126 44.0086C129.955 43.8547 129.785 43.7012 129.624 43.5401C129.413 43.3253 129.206 43.1091 129.005 42.8895C128.813 42.6627 128.627 42.4326 128.45 42.1992C128.273 41.9657 128.12 41.7164 127.971 41.4703C127.942 41.4243 127.912 41.3766 127.882 41.3274L127.881 41.3263C127.757 41.1268 127.619 40.9038 127.468 40.6791C127.343 40.4988 127.22 40.3106 127.1 40.1267L127.1 40.1264L127.099 40.1253C127.034 40.0264 126.971 39.9287 126.908 39.8342C125.943 38.3812 125.172 36.7975 124.57 35.1713C123.089 31.1498 122.851 26.6991 123.97 22.4753C124.285 21.2921 124.733 20.1223 125.283 19.0101C126.086 17.4058 127.074 15.8878 128.255 14.5283L128.7 14.0203L129.167 13.5322L129.402 13.2894L129.647 13.056L130.139 12.5924C130.816 11.9962 131.515 11.4212 132.263 10.9126C132.586 10.6793 132.925 10.4683 133.263 10.2572C133.339 10.2103 133.414 10.1633 133.489 10.1161C133.633 10.03 133.779 9.94804 133.925 9.86604L133.925 9.86603L133.925 9.86602L133.925 9.86601L133.925 9.866C133.992 9.82857 134.058 9.79113 134.125 9.75331L134.444 9.57491C134.516 9.53642 134.588 9.49999 134.661 9.46347L134.661 9.46342L134.661 9.46341L134.661 9.46339L134.661 9.46338C134.698 9.44518 134.734 9.42696 134.77 9.40845L135.426 9.0815L136.096 8.78372C136.138 8.76584 136.179 8.74759 136.221 8.72934L136.221 8.72934L136.221 8.7293L136.221 8.72928L136.221 8.72927C136.291 8.69816 136.362 8.66707 136.433 8.63782L136.775 8.50518C136.845 8.47871 136.914 8.45187 136.984 8.42501L136.984 8.42501L136.984 8.425L136.984 8.425L136.984 8.42495C137.143 8.36369 137.301 8.30237 137.461 8.24521C139.309 7.60192 141.242 7.17947 143.191 7.04418C147.074 6.73381 151.061 7.49846 154.564 9.20352C157.06 10.4191 159.27 12.1507 161.065 14.196C161.275 14.444 161.467 14.7007 161.648 14.9567C161.778 15.1473 161.897 15.3418 162.015 15.5324L162.015 15.5327C162.057 15.6013 162.099 15.6694 162.141 15.7366C162.215 15.8566 162.16 15.9276 162.123 15.9694C162.111 15.9833 161.953 15.8487 161.893 15.7704C161.17 14.8134 160.347 13.9155 159.503 13.0865C158.365 11.9504 157.056 10.9802 155.628 10.1658C153.313 8.85004 150.739 7.96137 148.09 7.56677C146.766 7.36649 145.427 7.29354 144.092 7.34129C142.756 7.38837 141.42 7.5555 140.11 7.84597C138.766 8.14308 137.463 8.61063 136.206 9.15047C134.66 9.81631 133.34 10.6725 132.213 11.7018C132.094 11.8116 131.972 11.9239 131.848 12.0384C131.236 12.6024 130.566 13.2187 129.963 13.8505C129.306 14.5548 128.698 15.2896 128.161 16.0635C127.63 16.8421 127.14 17.638 126.738 18.4716L126.583 18.7806L126.441 19.0963L126.381 19.2316L126.381 19.2316C126.308 19.397 126.235 19.5619 126.165 19.7277L125.92 20.369C125.907 20.4043 125.893 20.4394 125.88 20.4744L125.88 20.4744L125.88 20.4744L125.88 20.4745L125.88 20.4745C125.853 20.5461 125.825 20.6174 125.801 20.69L125.696 21.0149C125.402 21.8764 125.198 22.7604 125.028 23.6425C124.98 23.9449 125.005 24.0636 125.112 23.9416C125.146 23.9018 125.209 23.7499 125.232 23.6484C125.929 20.7981 127.29 18.1095 129.132 15.8042C130.27 14.4016 131.602 13.1972 133.101 12.2708C133.166 12.2303 133.256 12.2197 133.277 12.2369C133.301 12.2568 133.303 12.3139 133.244 12.3689C133.141 12.4661 133.037 12.5647 132.93 12.6648L132.93 12.6651L132.879 12.7131C132.758 12.8338 132.632 12.9539 132.496 13.0699C131.742 13.7218 131.014 14.4162 130.357 15.1696C128.866 16.8547 127.706 18.7859 127.092 20.753C127.057 20.8557 127.023 20.9597 126.987 21.0656L126.987 21.0661L126.987 21.0665L126.984 21.0759C126.963 21.1377 126.945 21.2006 126.926 21.2638L126.926 21.2638L126.926 21.2638L126.926 21.2638L126.926 21.2639C126.911 21.3125 126.896 21.3614 126.881 21.4102L126.851 21.505L126.851 21.5052L126.851 21.5054C126.789 21.6981 126.727 21.8933 126.665 22.088C126.639 22.1811 126.612 22.2738 126.586 22.3663L126.586 22.3664L126.586 22.3665L126.586 22.3666C126.497 22.6765 126.408 22.9841 126.346 23.2976C126.332 23.358 126.319 23.4181 126.306 23.4782C126.274 23.6196 126.243 23.7605 126.216 23.9024L126.117 24.5093C126.113 24.5395 126.108 24.5697 126.103 24.6C126.092 24.6705 126.08 24.7411 126.071 24.8117L126.039 25.1154C126.028 25.2215 126.018 25.3275 126.007 25.4334L126.007 25.4335L126.007 25.4336L126.007 25.4337L125.978 25.7196C125.973 25.8179 125.968 25.9161 125.963 26.0142C125.958 26.1172 125.953 26.2201 125.948 26.3231C125.938 26.5234 125.929 26.723 125.934 26.9233L125.939 27.5208C125.94 27.6532 125.949 27.7856 125.958 27.9178C125.962 27.9836 125.966 28.0493 125.97 28.115C125.975 28.1839 125.979 28.2527 125.983 28.3214C125.99 28.4499 125.998 28.578 126.013 28.7059L126.081 29.2928C126.085 29.3279 126.089 29.363 126.093 29.3981L126.093 29.3981C126.1 29.4604 126.108 29.5227 126.117 29.5846L126.165 29.8758L126.263 30.4547C126.283 30.5526 126.304 30.6493 126.326 30.7464L126.326 30.7465L126.326 30.7466L126.33 30.7651L126.31 30.5151L126.265 29.9408L126.247 29.3651C126.233 29.09 126.24 28.8148 126.247 28.5399L126.247 28.5398C126.25 28.4318 126.252 28.3238 126.254 28.2158C126.319 26.6852 126.582 25.1705 127.019 23.7148L127.197 23.1729C127.208 23.1404 127.218 23.1079 127.229 23.0754L127.229 23.0754C127.248 23.0178 127.267 22.9603 127.287 22.903L127.389 22.6371L127.593 22.1059L127.936 21.3253C127.963 21.2683 127.991 21.2118 128.019 21.1554C128.034 21.1271 128.048 21.0989 128.062 21.0706L128.315 20.5626C128.33 20.5345 128.346 20.5066 128.361 20.4787L128.361 20.4787L128.361 20.4787L128.361 20.4787L128.361 20.4787L128.381 20.4419C128.382 20.4386 128.384 20.4353 128.385 20.432C128.442 20.2589 128.501 20.0838 128.563 19.9081C128.614 19.7718 128.671 19.6375 128.729 19.5018L128.729 19.5017L128.777 19.3874C128.904 19.0708 129.062 18.7654 129.223 18.4549L129.278 18.3482C129.338 18.2288 129.406 18.1143 129.476 17.9993L129.476 17.9993L129.476 17.9992L129.476 17.9992L129.476 17.9992L129.476 17.9991C129.508 17.9456 129.54 17.8919 129.572 17.8376C129.605 17.7836 129.637 17.7289 129.67 17.674L129.67 17.6739L129.67 17.6739L129.67 17.6739L129.67 17.6739L129.67 17.6739C129.739 17.558 129.808 17.4416 129.886 17.3309L129.893 17.3201C130.115 16.9927 130.339 16.661 130.591 16.3467C131.581 15.0509 132.816 13.8943 134.136 12.8855C135.079 12.1726 136.18 11.5757 137.293 11.0731C137.533 10.9742 137.776 10.8801 138.02 10.7919C138.115 10.7132 138.274 10.6131 138.433 10.5134C138.499 10.4719 138.565 10.4304 138.627 10.3906C138.738 10.315 138.899 10.2335 139.096 10.1479C139.292 10.0617 139.522 9.96354 139.777 9.87401C140.033 9.78978 140.313 9.70489 140.603 9.62465C140.894 9.5517 141.197 9.49201 141.496 9.4363C145.712 8.73001 150.142 9.36998 153.948 11.2879C155.095 11.8622 156.167 12.5984 157.149 13.4015C157.372 13.5892 157.567 13.7802 157.657 13.9142C157.749 14.0475 157.75 14.1085 157.608 14.0216C157.514 13.9626 157.409 13.9007 157.299 13.8363C157.211 13.7849 157.12 13.7319 157.031 13.6774C156.93 13.6177 156.828 13.5574 156.73 13.499C156.652 13.4535 156.573 13.4141 156.499 13.3771L156.499 13.377L156.499 13.377L156.499 13.3769L156.441 13.3478C156.263 13.2596 156.268 13.3179 156.385 13.4459C156.475 13.5388 156.619 13.6781 156.795 13.8279C156.873 13.8684 156.953 13.9128 157.036 13.9626C157.203 14.0619 157.369 14.1865 157.537 14.3126L157.537 14.3127L157.538 14.3129C157.587 14.3501 157.637 14.3873 157.687 14.4241C157.803 14.5082 157.914 14.5968 158.021 14.6823L158.021 14.6825L158.021 14.6826L158.022 14.6828L158.022 14.6829C158.118 14.7598 158.211 14.8341 158.302 14.9003C158.493 15.0416 158.67 15.151 158.811 15.2107C158.931 15.2582 159.046 15.3004 159.162 15.3426C159.285 15.3876 159.408 15.4326 159.536 15.4839C159.781 15.5867 160.034 15.7207 160.339 15.9276C160.441 15.9941 160.543 16.0808 160.663 16.1823L160.663 16.1823C160.721 16.2316 160.784 16.2844 160.852 16.3401C161.095 16.639 161.314 16.9552 161.532 17.2708L161.532 17.2708L161.645 17.433C161.73 17.5599 161.81 17.6901 161.891 17.8201L161.891 17.8202L161.891 17.8208L161.891 17.8212L161.891 17.8214C161.929 17.882 161.966 17.9426 162.004 18.0027L162.18 18.2892C162.215 18.3493 162.248 18.4107 162.282 18.4721L162.312 18.5267L162.343 18.5823L162.662 19.1713L162.95 19.7741C162.966 19.8077 162.982 19.8411 162.997 19.8744C163.029 19.9412 163.061 20.008 163.09 20.0765L163.217 20.3842C163.243 20.4506 163.271 20.5167 163.298 20.5829L163.298 20.5829L163.298 20.583C163.355 20.7215 163.412 20.8601 163.463 21.001ZM129.427 35.4396C129.441 35.4596 129.455 35.4795 129.468 35.4996L129.466 35.4539C129.464 35.422 129.463 35.3902 129.46 35.3597C129.449 35.3349 129.437 35.3069 129.426 35.279L129.426 35.279C129.4 35.2174 129.375 35.156 129.353 35.1296C129.254 34.9996 129.24 35.0739 129.345 35.3053C129.365 35.3518 129.396 35.3958 129.427 35.4396ZM134.217 41.6414C134.121 41.5353 134.029 41.4252 133.939 41.3145C133.92 41.2913 133.899 41.2667 133.88 41.2435C133.711 41.0916 133.546 40.9371 133.385 40.7786C133.28 40.7488 133.28 40.8283 133.424 40.9736C133.528 41.0786 133.644 41.1747 133.76 41.2711L133.76 41.2712L133.76 41.2712C133.793 41.299 133.826 41.3269 133.86 41.3549L134.085 41.5406C134.128 41.5751 134.173 41.6083 134.217 41.6414ZM144.737 46.4469C144.911 46.4416 145.053 46.4064 145.089 46.3826C145.122 46.3613 145.054 46.3242 144.92 46.3162C144.861 46.3125 144.803 46.3093 144.745 46.3061L144.744 46.306L144.744 46.306L144.744 46.306C144.649 46.3008 144.553 46.2955 144.457 46.2877C144.302 46.2718 144.146 46.2559 143.988 46.24C143.755 46.2214 143.52 46.1898 143.281 46.1577L143.281 46.1576L143.28 46.1576L143.279 46.1575L143.278 46.1574C143.194 46.1461 143.11 46.1347 143.025 46.1239C140.716 45.8082 138.46 45.0422 136.479 43.8949C136.274 43.7801 136.178 43.6533 136.116 43.5725L136.102 43.5541C136.088 43.5324 136.273 43.618 136.437 43.6943L136.528 43.7364C137.655 44.2736 138.847 44.7491 140.089 45.1066C140.298 45.1735 140.512 45.2253 140.727 45.2771L140.727 45.2772L140.727 45.2772L140.727 45.2772L140.727 45.2773C140.827 45.3014 140.927 45.3256 141.027 45.3513C141.135 45.3807 141.245 45.4022 141.356 45.4236C141.404 45.4331 141.453 45.4426 141.502 45.4528L141.978 45.5469C142.074 45.5608 142.17 45.5754 142.265 45.59C142.49 45.6242 142.714 45.6584 142.939 45.6835L143.356 45.7233C143.209 45.6743 143.076 45.6179 142.94 45.5575C142.857 45.5225 142.783 45.4858 142.709 45.4493L142.709 45.4492L142.673 45.4315L142.62 45.4057C142.123 45.3248 141.628 45.226 141.139 45.1046C139.87 44.7843 138.646 44.3207 137.496 43.7324C137.41 43.7039 137.315 43.6681 137.243 43.6343C136.184 43.1455 135.195 42.5089 134.329 41.7495L134.333 41.7628C134.342 41.7973 134.351 41.8313 134.384 41.8742C134.458 41.9717 134.542 42.0738 134.627 42.1773C134.678 42.2357 134.731 42.2927 134.783 42.3494L134.783 42.3495L134.783 42.3495L134.783 42.3495C134.821 42.3913 134.86 42.4328 134.897 42.4744C135.073 42.6694 135.231 42.861 135.328 43.0076C135.552 43.3617 135.452 43.5461 135.247 43.6622C136.024 44.1602 136.84 44.6019 137.686 44.9832C139.891 45.9707 142.354 46.5033 144.737 46.4469ZM155.437 39.5623C156.344 38.74 157.133 37.787 157.767 36.7411C158.251 35.9479 158.794 35.0069 159.169 34.0612C159.276 33.7952 159.378 33.5213 159.473 33.2448C159.6 32.6638 159.716 32.0862 159.803 31.5086C159.952 30.5184 160.013 29.5309 159.913 28.6011H160.156C160.126 26.4497 159.673 24.3189 158.797 22.3227C158.369 21.3538 157.859 20.5567 157.287 19.9299C157.256 19.8938 157.217 19.8494 157.173 19.7997L157.173 19.7995L157.173 19.7994L157.173 19.7993C157.096 19.7132 157.006 19.6111 156.922 19.5082L156.736 19.278C156.677 19.2104 156.63 19.1527 156.602 19.1122C156.109 18.4 155.509 17.7613 154.832 17.2115C154.157 16.6598 153.416 16.1856 152.64 15.7717C152.585 15.7432 152.53 15.7131 152.474 15.6828L152.474 15.6826L152.474 15.6824L152.473 15.6824L152.473 15.6824C152.399 15.6418 152.324 15.6008 152.246 15.5622L152.048 15.4652L151.821 15.3546C151.697 15.2893 151.563 15.2314 151.424 15.1711L151.424 15.1711L151.424 15.171L151.424 15.171L151.424 15.171L151.358 15.1424C151.303 15.1194 151.248 15.0946 151.191 15.0695L151.191 15.0694C151.08 15.0199 150.966 14.9688 150.843 14.9262C149.959 14.4964 148.96 14.0886 147.809 13.8339C147.768 13.8252 147.728 13.8157 147.688 13.8063L147.688 13.8063L147.688 13.8063L147.688 13.8063C147.627 13.7919 147.567 13.7777 147.506 13.7669C147.407 13.749 147.309 13.7311 147.213 13.7132C147.152 13.7022 147.092 13.6904 147.032 13.6788L147.032 13.6788L147.032 13.6788C146.904 13.654 146.781 13.6299 146.659 13.6151L146.471 13.5856L146.47 13.5854C146.359 13.5682 146.251 13.5514 146.147 13.5348C146.062 13.5232 145.98 13.5136 145.899 13.5042L145.899 13.5042C145.823 13.4952 145.748 13.4865 145.675 13.4764C145.482 13.4476 145.3 13.429 145.13 13.4116L145.13 13.4116C145.034 13.4018 144.941 13.3923 144.852 13.3816C144.71 13.3614 144.576 13.3484 144.45 13.3363C144.358 13.3273 144.269 13.3187 144.185 13.308C144.121 13.2988 144.059 13.2903 144 13.2821L144 13.282C143.696 13.2399 143.461 13.2072 143.286 13.1495C143.181 13.1177 143.098 13.0799 143.037 13.0401C142.975 13.0023 142.933 12.9592 142.912 12.9114C142.89 12.8637 142.785 12.8285 142.679 12.794C142.644 12.7828 142.568 12.7785 142.491 12.7743C142.455 12.7723 142.419 12.7703 142.387 12.7675L142.206 12.7794C142.161 12.785 142.117 12.7902 142.073 12.7952L142.073 12.7952L142.032 12.8L141.932 12.8116L141.931 12.8117C141.853 12.8208 141.776 12.8296 141.701 12.8385C141.594 12.8511 141.491 12.863 141.391 12.8743C141.305 12.888 141.222 12.9017 141.142 12.9149L141.142 12.9149L141.142 12.9149L141.141 12.915L141.141 12.9151L141.103 12.9214L140.855 12.961L140.855 12.961C140.762 12.9759 140.672 12.9903 140.586 13.0043L140.539 13.0139L140.537 13.0143C140.397 13.0429 140.268 13.0695 140.147 13.0945C140.024 13.118 139.911 13.1399 139.806 13.1602L139.775 13.1661L139.623 13.2006L139.471 13.235C139.288 13.2742 139.141 13.2994 139.025 13.312C138.568 13.3741 138.59 13.2204 138.637 12.8962L138.637 12.8922C138.659 12.7476 138.563 12.6461 138.31 12.6176C137.809 12.5612 137.551 12.4061 137.467 12.1786C137.375 12.2151 137.278 12.2502 137.176 12.2827C136.663 12.4591 136.137 12.7184 135.63 12.9936C135.493 13.0621 135.361 13.1372 135.229 13.2116L135.229 13.2116C135.113 13.2777 134.997 13.3433 134.879 13.4035C134.793 13.4471 134.708 13.4918 134.625 13.5359L134.625 13.5359C134.466 13.6199 134.31 13.702 134.153 13.7716C134.083 13.8034 133.975 13.8704 133.872 13.9433C133.771 14.0189 133.676 14.1038 133.623 14.1622C133.487 14.3167 133.337 14.4636 133.184 14.6136C133.12 14.6761 133.056 14.7391 132.991 14.8035C132.88 14.9109 132.767 15.017 132.65 15.1225C132.581 15.184 132.515 15.2489 132.449 15.3141C132.402 15.3599 132.356 15.4058 132.308 15.4508L131.964 15.781C131.861 15.8878 131.76 15.9959 131.66 16.104L132.021 15.7638C132.105 15.6822 132.193 15.6059 132.282 15.531L132.548 15.3042C133.263 14.7073 134.011 14.1562 134.808 13.6834C135.602 13.2092 136.421 12.7755 137.279 12.4273C137.411 12.3702 137.543 12.345 137.551 12.3636C137.56 12.3862 137.501 12.4531 137.36 12.5314C137.265 12.5827 137.167 12.6359 137.067 12.6905L137.065 12.6914L137.065 12.6916C136.976 12.7397 136.886 12.7889 136.794 12.8385L136.656 12.9185C136.507 13.0048 136.356 13.0924 136.203 13.1754C136.175 13.191 136.147 13.2064 136.118 13.2218L136.118 13.2218C136.054 13.2565 135.99 13.2911 135.927 13.3292L135.658 13.495C135.595 13.5341 135.533 13.5724 135.47 13.6106C135.353 13.6819 135.236 13.7531 135.122 13.8299C135.067 13.8681 135.011 13.9061 134.956 13.9441C134.664 14.1439 134.373 14.3433 134.096 14.5634C133.839 14.7506 133.598 14.9555 133.356 15.1605C133.277 15.2272 133.199 15.2938 133.119 15.3599C133.019 15.4494 132.921 15.541 132.823 15.6325L132.823 15.6325L132.823 15.6325L132.823 15.6325L132.823 15.6326C132.768 15.6842 132.712 15.7358 132.657 15.787C132.63 15.8126 132.602 15.838 132.575 15.8632C132.525 15.9092 132.475 15.955 132.427 16.0025L132.207 16.2274C131.612 16.8189 131.071 17.4629 130.565 18.132C130.054 18.7979 129.606 19.5115 129.188 20.2423C129.155 20.3036 129.122 20.3651 129.088 20.427L129.088 20.4273C129.037 20.5208 128.985 20.615 128.935 20.7098C128.903 20.7868 128.87 20.8631 128.836 20.9394C128.809 21.0013 128.782 21.0633 128.756 21.1257C128.305 22.0734 128.108 22.962 127.993 23.8447C127.984 23.9255 127.884 24.105 127.813 24.2351L127.783 24.2897C127.757 24.3388 127.705 24.3229 127.694 24.2692C127.686 24.2208 127.678 24.1704 127.672 24.12L127.577 24.5212C127.568 24.5593 127.559 24.5973 127.55 24.6353L127.55 24.6353C127.536 24.6912 127.523 24.747 127.511 24.8031L127.456 25.0869C127.296 25.8409 127.208 26.6049 127.138 27.3683C127.03 28.8976 127.084 30.4421 127.371 31.9608C127.684 33.705 128.276 35.3988 129.106 36.9765C129.125 37.0037 129.144 37.0309 129.163 37.0594C129.24 37.1636 129.318 37.2803 129.397 37.3997C129.477 37.5184 129.558 37.6404 129.637 37.7584C129.722 37.8718 129.807 37.9793 129.889 38.0721C129.988 38.1835 130.085 38.2903 130.183 38.3931C130.278 38.4869 130.375 38.576 130.47 38.6632L130.47 38.6632L130.489 38.6809C130.551 38.7361 130.613 38.7907 130.674 38.8449L130.791 38.9495C130.862 39.0104 130.936 39.0677 131.009 39.1243L131.009 39.1244C131.04 39.1479 131.07 39.1714 131.1 39.1949C131.192 39.2665 131.287 39.2141 131.264 39.118C131.243 39.0291 131.199 38.9204 131.15 38.8076C131.102 38.6942 131.056 38.5722 131.02 38.4654C130.974 38.3222 130.942 38.1875 130.931 38.0774C130.928 38.047 130.928 38.0188 130.927 37.9903C130.926 37.8722 130.925 37.7488 130.702 37.4395L130.689 37.4294C130.618 37.3763 130.54 37.3183 130.461 37.2591C130.381 37.1934 130.3 37.1278 130.22 37.0707C130.077 36.9659 129.928 36.8273 129.784 36.6489C129.646 36.4679 129.509 36.2497 129.372 35.9957C128.835 34.9313 128.406 33.8092 128.081 32.5133C128.081 32.4505 128.079 32.3847 128.078 32.3164C128.075 32.1942 128.072 32.0641 128.076 31.9297C128.083 31.7194 128.093 31.5019 128.107 31.2943L128.111 31.2269L128.111 31.2269C128.128 30.9735 128.145 30.7062 128.129 30.4322C128.117 30.1331 128.103 29.8227 128.045 29.5071C127.89 28.44 127.975 27.3968 128.221 26.41C128.246 26.3081 128.291 26.2405 128.347 26.1581C128.37 26.1231 128.396 26.0854 128.422 26.0412C128.411 26.1785 128.404 26.3152 128.397 26.451C128.393 26.5218 128.39 26.5924 128.386 26.6626C128.384 26.702 128.382 26.7412 128.379 26.7804C128.376 26.8433 128.372 26.906 128.371 26.969C128.371 27.0201 128.371 27.071 128.371 27.1219V27.1221L128.371 27.1223C128.371 27.173 128.371 27.2235 128.371 27.2741C128.371 27.3472 128.371 27.4201 128.37 27.4929C128.368 27.6219 128.367 27.7504 128.374 27.8789L128.401 28.4804C128.407 28.5898 128.415 28.7006 128.423 28.8121C128.437 29.0088 128.452 29.2076 128.453 29.4036C128.468 29.6941 128.493 29.9812 128.528 30.2664C128.406 28.3591 128.636 26.4551 129.186 24.6717C129.79 22.6974 130.776 21.0222 131.769 19.9213C131.919 19.7455 132.018 19.6968 132.104 19.6548L132.133 19.6401C132.159 19.6275 132.15 19.6607 132.116 19.727C132.094 19.7665 132.064 19.8182 132.03 19.8798L132.03 19.88L131.952 20.0181C131.88 20.1422 131.792 20.2867 131.694 20.4393C131.657 20.5006 131.62 20.564 131.582 20.6283L131.582 20.6284C131.525 20.7262 131.466 20.8259 131.405 20.9227C131.332 21.0368 131.265 21.1582 131.199 21.2764L131.199 21.2764C131.164 21.3397 131.13 21.402 131.095 21.4619C130.411 22.6278 129.928 23.9137 129.622 25.2255L129.524 25.7209L129.477 25.9683L129.442 26.2176C129.431 26.3005 129.419 26.3834 129.408 26.4663L129.408 26.467C129.397 26.5497 129.386 26.6323 129.374 26.715L129.334 27.2137L129.314 27.4624L129.308 27.7111L129.296 28.2072C129.299 28.2895 129.301 28.3717 129.304 28.454C129.306 28.5362 129.309 28.6184 129.312 28.7006L129.32 28.946L129.341 29.1907C129.349 29.2724 129.355 29.3541 129.362 29.4355C129.371 29.5595 129.381 29.683 129.397 29.8055L129.474 30.4123C129.49 30.5052 129.505 30.598 129.52 30.6907C129.571 30.998 129.622 31.3041 129.693 31.6067C129.864 32.3959 130.073 33.1818 130.364 33.9677C130.412 34.1215 130.474 34.2717 130.535 34.4215L130.556 34.4737C130.581 34.534 130.605 34.5949 130.629 34.6559L130.63 34.656C130.672 34.7633 130.714 34.8709 130.763 34.9757C130.804 35.0613 130.844 35.1474 130.884 35.2336L130.884 35.2337C130.996 35.4766 131.109 35.7199 131.241 35.9539L131.369 36.1946L131.433 36.3153L131.504 36.4321L131.786 36.9003C131.845 36.9998 131.911 37.0954 131.977 37.191L131.977 37.191L131.977 37.1911L131.977 37.1912L131.977 37.1912L131.977 37.1913L131.977 37.1913C132.015 37.2459 132.053 37.3005 132.089 37.3559C132.191 37.5078 132.292 37.659 132.407 37.8022C132.977 38.5682 133.616 39.2652 134.285 39.8375C134.953 40.4099 135.644 40.8615 136.283 41.1772C136.508 41.2875 136.779 41.4308 137.076 41.5881L137.077 41.5882C137.464 41.793 137.895 42.0213 138.329 42.231C139.259 42.68 140.235 43.0394 141.232 43.3034C141.834 43.4725 142.446 43.5766 143.055 43.6688C143.277 43.6947 143.499 43.7159 143.721 43.7351C143.736 43.7217 143.742 43.7064 143.747 43.6911C143.753 43.6752 143.759 43.6594 143.775 43.6456C143.884 43.5554 144 43.4838 144.132 43.4287C144.263 43.3723 144.411 43.3226 144.581 43.2934C144.709 43.2691 144.85 43.2592 145.006 43.2483L145.007 43.2483L145.007 43.2483C145.059 43.2446 145.113 43.2409 145.169 43.2364C145.281 43.2304 145.4 43.2271 145.528 43.2271L145.622 43.2284C145.657 43.2289 145.692 43.2294 145.728 43.2298L145.741 43.2295L145.742 43.2295C145.806 43.2282 145.872 43.227 145.94 43.2251C146.134 43.2225 146.316 43.2278 146.469 43.2496C146.621 43.2662 146.744 43.2961 146.819 43.3578C146.949 43.4659 147.151 43.5288 147.41 43.5421C147.777 43.4698 148.142 43.3836 148.5 43.2768C148.652 43.2311 148.809 43.186 148.969 43.1409C149.061 43.1139 149.153 43.0831 149.247 43.0521L149.247 43.052C149.316 43.0289 149.386 43.0057 149.456 42.9837C149.67 42.9213 149.883 42.8426 150.099 42.7627C150.221 42.7178 150.344 42.6725 150.468 42.6296L150.978 42.4193L151.234 42.3139L151.485 42.1952C151.546 42.1655 151.608 42.1367 151.669 42.1079L151.67 42.1079L151.67 42.1079L151.67 42.1079L151.67 42.1078C151.775 42.0587 151.88 42.0098 151.982 41.9571C152.143 41.8702 152.302 41.784 152.46 41.6991C153.535 41.1069 154.534 40.3867 155.437 39.5623ZM155.294 37.1646C154.5 38.1084 153.581 38.9286 152.573 39.5729L152.502 39.6178C152.403 39.6812 152.307 39.7426 152.208 39.7966C152.087 39.8612 151.968 39.9211 151.853 39.9757C151.624 40.0895 151.396 40.1631 151.186 40.2265C150.947 40.2956 150.874 40.2472 150.975 40.1151L150.927 40.1435C150.883 40.1689 150.839 40.1948 150.795 40.2208L150.795 40.2208L150.794 40.2209L150.794 40.2209L150.794 40.2209C150.71 40.2706 150.626 40.3203 150.539 40.366L150.469 40.4025C149.622 39.5656 148.893 38.4711 148.789 37.5488C148.68 36.5371 148.551 34.1467 148.907 33.8888C150.421 32.7863 150.657 31.467 150.94 29.8917C150.983 29.6529 151.026 29.4082 151.076 29.1575C151.3 28.0171 151.301 28.0167 151.467 27.9762C151.536 27.9593 151.634 27.9354 151.789 27.8185C152.898 26.9853 153.383 25.2793 153.344 24.8528C153.301 24.4209 153.129 24.3143 152.735 24.0702L152.735 24.0702C152.667 24.0284 152.593 23.9825 152.512 23.9303C152.55 23.8498 152.588 23.7715 152.625 23.6947C152.891 23.1471 153.116 22.6819 152.908 22.1251C152.63 21.3714 152.982 20.6008 153.37 19.7504C153.482 19.5054 153.597 19.2538 153.7 18.994C153.736 19.0225 153.772 19.0522 153.808 19.0831C153.948 19.2076 154.096 19.3456 154.245 19.4913C154.39 19.6408 154.532 19.8017 154.669 19.9612C156.559 22.2435 157.708 25.1232 157.868 28.0735C157.918 28.9614 157.845 29.8609 157.7 30.7301C157.664 30.9292 157.616 31.1125 157.566 31.2133C157.517 31.3147 157.481 31.3367 157.484 31.2212C157.487 31.1445 157.488 31.0596 157.489 30.9712V30.9711V30.9709V30.9708C157.49 30.9003 157.49 30.8276 157.492 30.7552C157.493 30.6738 157.495 30.5918 157.496 30.5125C157.496 30.4498 157.493 30.389 157.489 30.3317V30.3316V30.3316V30.3315L157.487 30.2865C157.479 30.1491 157.445 30.1727 157.408 30.2872C157.383 30.3733 157.349 30.5086 157.319 30.6663C157.322 30.7272 157.323 30.7908 157.322 30.8578C157.319 30.9925 157.302 31.1356 157.284 31.2804L157.284 31.2805C157.278 31.3232 157.273 31.366 157.268 31.4088C157.258 31.5079 157.242 31.6055 157.228 31.6996L157.228 31.6998C157.215 31.7843 157.202 31.866 157.193 31.9435C157.174 32.1074 157.17 32.2518 157.182 32.357C157.195 32.4453 157.21 32.5294 157.224 32.6135C157.24 32.703 157.255 32.7926 157.269 32.8872C157.291 33.0696 157.298 33.2681 157.279 33.5232C157.274 33.6076 157.257 33.6991 157.237 33.8064C157.227 33.8585 157.217 33.9143 157.207 33.9747C157.111 34.2243 156.995 34.4658 156.88 34.7068L156.88 34.707L156.821 34.831C156.774 34.9262 156.723 35.0196 156.672 35.1129L156.672 35.1132L156.672 35.1141C156.648 35.1576 156.624 35.2011 156.601 35.2448L156.489 35.4501C156.464 35.492 156.439 35.5335 156.414 35.5751C156.398 35.6 156.383 35.625 156.368 35.65L156.122 36.0467L155.858 36.4297C155.843 36.4505 155.829 36.4714 155.814 36.4924L155.814 36.493L155.814 36.493C155.784 36.5354 155.755 36.5778 155.723 36.6187L155.581 36.8023L155.54 36.8545L155.489 36.9201L155.489 36.9201L155.489 36.9202L155.489 36.9202L155.489 36.9203C155.425 37.0026 155.361 37.085 155.294 37.1646ZM154.067 17.5338C154.447 17.861 154.811 18.2068 155.15 18.5757C155.78 19.2604 156.345 20.0034 156.837 20.7878C157.328 21.5716 157.749 22.3999 158.087 23.2641C158.767 24.99 159.122 26.8433 159.13 28.69C159.132 29.83 159 30.9533 158.707 32.0314C158.498 32.8267 158.241 33.6332 157.913 34.4001C157.886 34.4633 157.86 34.6052 157.872 34.6076C157.91 34.6152 157.972 34.6232 158.019 34.537C158.045 34.4888 158.071 34.4403 158.098 34.3915L158.099 34.3901C158.174 34.2535 158.25 34.1141 158.32 33.9699C158.412 33.772 158.501 33.5675 158.578 33.355C159.192 31.5655 159.473 29.6373 159.342 27.7165C159.159 25.0217 158.238 22.3644 156.704 20.1443C155.966 19.0528 155.07 18.0659 154.074 17.1992C154.077 17.3123 154.075 17.4238 154.067 17.5338ZM133.232 18.7815C133.74 18.1759 134.295 17.6121 134.893 17.0954C134.832 18.0852 135.228 18.9529 135.592 19.7504C135.98 20.6008 136.332 21.3714 136.054 22.1251C135.845 22.6819 136.071 23.1471 136.337 23.6947C136.374 23.7715 136.412 23.8498 136.45 23.9303C136.365 23.9848 136.288 24.0324 136.218 24.0757L136.218 24.0758C135.827 24.316 135.652 24.4242 135.618 24.8528C135.578 25.2793 136.054 26.9853 137.173 27.8185C137.327 27.9354 137.425 27.9593 137.495 27.9762C137.66 28.0167 137.662 28.0171 137.886 29.1575C137.934 29.4021 137.977 29.6409 138.019 29.8742C138.305 31.4572 138.544 32.7822 140.054 33.8888C140.421 34.1566 140.292 36.547 140.173 37.5488C140.063 38.5189 139.263 39.6795 138.36 40.5305C137.991 40.3552 137.622 40.1668 137.279 39.9582C137.139 39.881 137.013 39.7955 136.893 39.7135L136.892 39.7135L136.818 39.6629C136.675 39.5648 136.54 39.4715 136.419 39.3695C136.296 39.2701 136.18 39.1728 136.069 39.0761C135.974 38.9905 135.887 38.9014 135.801 38.8137L135.801 38.8137L135.801 38.8137L135.762 38.774C135.677 38.6899 135.588 38.5982 135.495 38.5022L135.495 38.5022L135.495 38.5021C135.373 38.3762 135.244 38.2429 135.106 38.1093C135.01 38.0066 134.909 37.9032 134.808 37.7985L134.808 37.7984C134.665 37.6514 134.52 37.5019 134.38 37.3485C134.199 37.164 134.035 36.9647 133.872 36.7652L133.872 36.7652L133.872 36.7651L133.872 36.7651L133.872 36.7651L133.781 36.6542C133.711 36.5645 133.644 36.4729 133.577 36.381L133.577 36.3809L133.577 36.3809L133.577 36.3808L133.577 36.3808L133.507 36.2851L133.372 36.0984L133.247 35.9053C132.904 35.3939 132.615 34.8425 132.35 34.2677L132.182 33.8856C132.147 33.8018 132.114 33.7164 132.082 33.631C132.065 33.5864 132.048 33.5418 132.031 33.4975C131.95 33.2976 131.883 33.0928 131.816 32.8881C131.797 32.8289 131.778 32.7698 131.758 32.7108C131.599 32.1795 131.46 31.6418 131.369 31.096C131.345 30.9677 131.324 30.8388 131.305 30.7097C131.308 30.7681 131.312 30.8278 131.317 30.8894C131.333 31.0453 131.36 31.208 131.385 31.3657L131.385 31.3661L131.385 31.3672C131.393 31.4165 131.401 31.4654 131.408 31.5134C131.436 31.6759 131.477 31.839 131.518 32.003L131.518 32.0036C131.528 32.0441 131.538 32.0846 131.548 32.1252C131.577 32.236 131.61 32.3459 131.643 32.4556L131.643 32.4556L131.643 32.4557L131.643 32.4557L131.643 32.4557L131.643 32.4558C131.671 32.5484 131.698 32.6408 131.723 32.7334L131.756 32.8541C131.767 32.8937 131.779 32.9325 131.79 32.9709C131.811 33.0481 131.829 33.1229 131.845 33.1952C131.872 33.3142 131.888 33.4276 131.902 33.5289L131.911 33.5925C131.939 33.8265 131.92 33.9997 131.843 34.0622C131.736 34.1487 131.616 34.2078 131.477 34.2194C131.413 34.2247 131.3 34.1468 131.193 34.0006C131.179 33.9814 131.165 33.9623 131.151 33.9431L131.151 33.943C131.116 33.8949 131.08 33.8464 131.047 33.7966L130.982 33.6961L130.909 33.5838C130.885 33.545 130.86 33.5061 130.835 33.4671L130.835 33.4671L130.835 33.467L130.835 33.467L130.835 33.467C130.767 33.3608 130.698 33.2532 130.635 33.1422L130.503 32.9061L130.376 32.6791C130.331 32.6013 130.29 32.5221 130.251 32.4417L130.132 32.2005C129.422 30.0678 129.305 27.6508 129.782 25.3444C129.793 25.2942 129.804 25.244 129.815 25.1938C129.849 25.0377 129.882 24.8821 129.924 24.7293C129.981 24.528 130.04 24.3283 130.103 24.1314C130.173 23.9369 130.248 23.7456 130.328 23.558C130.408 23.3704 130.505 23.1918 130.602 23.0164L130.658 22.9126C130.736 22.7687 130.823 22.6079 130.906 22.439C130.972 22.3012 131.043 22.162 131.113 22.026L131.113 22.026L131.113 22.0259L131.113 22.0259L131.113 22.0259L131.113 22.0255C131.151 21.9521 131.188 21.8797 131.223 21.8089C131.767 20.7237 132.458 19.7097 133.232 18.7815Z"
        fill="url(#paint0_linear_1603_9111)"
      />
      <defs>
        <linearGradient id="paint0_linear_1603_9111" x1="164.735" y1="49.694" x2="125.715" y2="8.68314" gradientUnits="userSpaceOnUse">
          <stop stopColor="#F9B21A" />
          <stop offset="1" stopColor="#B92CCE" />
        </linearGradient>
      </defs>
    </svg>