<svg viewBox="0 0 73 73" fill="none" xmlns="http://www.w3.org/2000/svg">
<g clip-path="url(#clip0_1667_37489)">
<path d="M36.5 73C56.6584 73 73 56.6584 73 36.5C73 16.3416 56.6584 0 36.5 0C16.3416 0 0 16.3416 0 36.5C0 56.6584 16.3416 73 36.5 73Z" fill="#3E1C69"/>
<path fill-rule="evenodd" clip-rule="evenodd" d="M36.5009 67.5091C31.5979 67.3275 27.5337 66.3244 22.5097 63.6437C22.5097 63.6437 29.756 62.1564 32.1427 58.3776C32.7566 57.4004 33.2149 56.7519 33.5868 56.3022C33.4225 56.0601 33.336 55.7834 33.336 55.5067C33.336 55.0484 33.5695 54.616 33.9586 54.2788C32.7307 52.9558 33.1371 50.3616 34.1143 47.9404C35.0568 45.6229 35.2125 42.0516 35.2211 39.9417C34.1143 39.6217 33.336 38.904 33.336 38.0652C33.336 37.5204 33.6646 37.0189 34.2007 36.6471C34.0278 34.883 35.4459 32.0381 35.7659 29.833C36.2588 26.3741 33.3014 25.3884 30.9148 26.8757C28.6405 28.2852 26.8938 31.1907 20.9704 31.3204L29.7993 45.0608H30.8715C29.7993 50.3962 26.3663 54.3912 20.2268 54.3912C14.0872 54.3912 10.6543 50.3962 9.58203 45.0608H10.6716L19.5177 31.2944C12.5567 30.8015 12.0811 24.0567 15.7043 23.045C16.7074 22.7682 18.1514 22.9671 18.8 23.9097C20.0365 25.717 18.8865 27.3686 17.6499 26.8757C16.4134 26.3828 17.157 25.0598 18.1428 25.1462C19.1286 25.2241 17.7277 22.8374 15.7562 23.6589C13.7759 24.4804 13.9402 27.3599 15.2633 28.4322C16.5776 29.5044 18.8 29.9195 20.3651 29.2537C21.9303 28.5965 22.5961 27.1092 24.3256 27.1092C26.055 27.1092 26.7036 27.9306 26.7036 27.9306C26.7036 27.9306 26.1069 25.9591 28.2601 24.7571C30.4046 23.5638 35.0136 25.4575 35.0136 25.4575C35.0136 25.4575 33.2841 23.7281 33.3706 21.5836C33.4484 19.4477 36.0858 17.969 36.5009 15.738C36.916 17.9604 39.5447 19.4391 39.6312 21.5836C39.709 23.7281 37.9882 25.4575 37.9882 25.4575C37.9882 25.4575 42.5972 23.5551 44.7417 24.7571C46.8862 25.9504 46.2982 27.9306 46.2982 27.9306C46.2982 27.9306 46.9468 27.1092 48.6762 27.1092C50.4057 27.1092 51.0715 28.5965 52.6453 29.2537C54.2104 29.9109 56.4328 29.4958 57.7472 28.4322C59.0615 27.3599 59.2258 24.4804 57.2543 23.6589C55.274 22.8374 53.8818 25.2241 54.8676 25.1462C55.8534 25.0598 56.5971 26.3741 55.3605 26.8757C54.124 27.3686 52.9739 25.717 54.2018 23.9097C54.8503 22.9585 56.3031 22.7596 57.3062 23.045C60.9293 24.0567 60.4537 30.8015 53.4927 31.2944L62.3388 45.0608H63.4284C62.3561 50.3962 58.9232 54.3912 52.7836 54.3912C46.6528 54.3912 43.2198 50.3962 42.1389 45.0608H43.2198L52.0486 31.3204C46.1253 31.1907 44.3785 28.2852 42.1043 26.8757C39.7177 25.3884 36.7517 26.3828 37.2532 29.833C37.5645 32.0381 38.9826 34.883 38.8183 36.6471C39.3545 37.0189 39.6831 37.5118 39.6831 38.0652C39.6831 38.904 38.9048 39.6304 37.798 39.9417C37.798 42.0516 37.9623 45.6229 38.9048 47.9404C39.8906 50.3616 40.297 52.9558 39.0605 54.2788C39.4582 54.6247 39.6917 55.0484 39.6917 55.5067C39.6917 55.7921 39.6052 56.0601 39.4409 56.3022C39.8128 56.7519 40.2711 57.4091 40.885 58.3776C43.2717 62.1651 50.5094 63.6437 50.5094 63.6437C45.4681 66.3244 41.4039 67.3275 36.5009 67.5091ZM61.5174 45.0435L52.7663 31.4328L44.024 45.0435H61.5174ZM28.9778 45.0435L20.2354 31.4328L11.4844 45.0435H28.9778ZM23.5041 51.8143C20.7283 52.7482 15.7302 51.65 13.4301 49.8428C11.1299 48.0355 12.5307 46.8681 13.8019 47.8712C15.0644 48.8743 18.2033 51.8143 23.5041 51.8143ZM27.845 48.8483C25.6054 51.3128 20.2354 51.1139 18.9729 50.0416C17.7104 48.978 19.7685 48.6062 21.5066 49.6093C23.236 50.6124 27.0062 49.6093 27.845 48.8483ZM26.4355 48.7446C23.8327 49.1769 21.9043 48.4419 22.2675 47.5772C22.6394 46.7125 23.5733 48.6754 26.4355 48.7446ZM49.4977 51.8143C52.2648 52.7482 57.2716 51.65 59.5717 49.8428C61.8719 48.0355 60.471 46.8681 59.1999 47.8712C57.9374 48.8743 54.7985 51.8143 49.4977 51.8143ZM45.1568 48.8483C47.3878 51.3128 52.7577 51.1139 54.0288 50.0416C55.2913 48.978 53.2247 48.6062 51.4952 49.6093C49.7571 50.6124 45.9956 49.6093 45.1568 48.8483ZM46.5576 48.7446C49.1605 49.1769 51.0974 48.4419 50.7256 47.5772C50.3624 46.7125 49.4285 48.6754 46.5576 48.7446ZM35.6275 22.7682C35.6275 22.0246 36.0166 21.4279 36.4922 21.4279C36.9765 21.4279 37.3656 22.0246 37.3656 22.7682C37.3656 23.5119 36.9765 24.1086 36.4922 24.1086C36.0166 24.1086 35.6275 23.5119 35.6275 22.7682ZM36.5009 37.2264C37.2446 37.2264 37.8412 37.6156 37.8412 38.0998C37.8412 38.5754 37.2446 38.9732 36.5009 38.9732C35.7572 38.9732 35.1606 38.5754 35.1606 38.0998C35.1606 37.6156 35.7572 37.2264 36.5009 37.2264ZM36.5009 54.6247C37.2446 54.6247 37.8412 55.0138 37.8412 55.498C37.8412 55.9736 37.2446 56.3628 36.5009 56.3628C35.7572 56.3628 35.1606 55.9736 35.1606 55.498C35.1606 55.0138 35.7572 54.6247 36.5009 54.6247ZM34.9357 57.3399C33.9932 60.2973 29.635 62.4418 28.0698 63.099C26.5047 63.7562 28.4417 65.4856 31.6498 62.8914C34.8579 60.2973 34.9357 57.3399 34.9357 57.3399ZM38.066 57.3399C39.0086 60.2973 43.3668 62.4418 44.9319 63.099C46.4971 63.7562 44.5601 65.4856 41.352 62.8914C38.1439 60.2973 38.066 57.3399 38.066 57.3399ZM36.5009 57.6253C36.008 60.0119 34.6504 66.1428 36.5009 66.1428C38.3514 66.1428 36.9938 60.0119 36.5009 57.6253Z" fill="white"/>
<path d="M44.4643 9.87526C44.0233 9.9185 43.5736 9.95309 43.1326 9.97903C42.6916 10.0136 42.2419 10.0396 41.8009 10.0655C41.3599 10.0914 40.9103 10.1174 40.4692 10.1347C40.0282 10.152 39.5786 10.1779 39.1376 10.1866C38.8522 10.1952 38.6187 9.97038 38.6101 9.68502C38.6101 9.62449 38.6187 9.57261 38.636 9.52072L38.6447 9.47749C38.6793 9.35643 38.7225 9.20078 38.7571 9.06242C38.7917 8.91542 38.8263 8.77706 38.8522 8.63006C38.9041 8.33605 38.9473 8.04204 38.9646 7.75669C39.0165 7.17732 38.9819 6.6066 38.8263 6.11371C38.7484 5.87159 38.636 5.65541 38.4977 5.46517C38.3593 5.28358 38.1864 5.12792 37.9788 5.01551C37.7713 4.9031 37.5378 4.80798 37.2784 4.76474C37.1574 4.73015 37.0103 4.73015 36.8806 4.70421C36.7423 4.69556 36.6039 4.69556 36.4656 4.68692L36.258 4.69556H36.137C36.0937 4.69556 36.0592 4.69556 36.0332 4.70421C35.9121 4.7215 35.7824 4.7215 35.6527 4.75609C35.3933 4.79933 35.1598 4.8858 34.9437 4.99822C34.7361 5.11063 34.5545 5.25763 34.4162 5.44787C34.2692 5.62946 34.1568 5.85429 34.0789 6.09642C34.0011 6.33854 33.9492 6.61525 33.9233 6.89196C33.8973 7.16867 33.906 7.46268 33.9233 7.75669C33.9406 8.05069 33.9752 8.3447 34.027 8.6387C34.0789 8.93271 34.1481 9.23536 34.2259 9.49478L34.2432 9.54666C34.3124 9.78879 34.1827 10.0309 33.9406 10.1087C33.8887 10.126 33.8368 10.126 33.7936 10.126L32.4619 10.0569C32.0209 10.0396 31.5712 10.0136 31.1302 9.97903C30.6892 9.95309 30.2396 9.92714 29.7985 9.89255C29.3575 9.85797 28.9079 9.82338 28.4669 9.78014C28.3977 9.77149 28.3458 9.71096 28.3545 9.64178C28.3631 9.58125 28.4063 9.53802 28.4669 9.52937C28.9079 9.48613 29.3575 9.45155 29.7985 9.41696C30.2396 9.38237 30.6892 9.35643 31.1302 9.33048C31.5712 9.30454 32.0209 9.2786 32.4619 9.25266L33.7936 9.18348L33.3526 9.80608C33.2229 9.47749 33.1364 9.16619 33.0499 8.84624C32.9634 8.52629 32.9029 8.1977 32.851 7.86045C32.7991 7.52321 32.7818 7.17732 32.7991 6.83143C32.8078 6.47689 32.8597 6.12236 32.9548 5.75917C33.0499 5.40464 33.2142 5.04145 33.4477 4.7215C33.6812 4.40156 33.9925 4.12485 34.3297 3.92596C34.6669 3.73572 35.0388 3.59736 35.3933 3.52819C35.5663 3.48495 35.7651 3.46765 35.9554 3.44171C36.0073 3.43307 36.0419 3.43307 36.0851 3.43307L36.2062 3.42442L36.4656 3.41577C36.6385 3.42442 36.8201 3.42442 36.9931 3.44171C37.1746 3.46765 37.3476 3.4763 37.5292 3.51954C37.8924 3.58872 38.2555 3.72707 38.6014 3.91731C38.9473 4.10755 39.2586 4.38426 39.5008 4.71286C39.7429 5.03281 39.8985 5.39599 40.0023 5.75917C40.2012 6.48554 40.2012 7.19462 40.1234 7.8691C40.0801 8.20634 40.0109 8.53494 39.9331 8.86353C39.8899 9.02783 39.8466 9.18348 39.7948 9.34778C39.7429 9.51208 39.691 9.65908 39.6305 9.84067L39.1376 9.1316C39.5786 9.14024 40.0282 9.16619 40.4692 9.18348C40.9103 9.20077 41.3599 9.22672 41.8009 9.25266C42.2419 9.2786 42.6916 9.30454 43.1326 9.33913C43.5736 9.36507 44.0233 9.40831 44.4643 9.4429C44.5853 9.45154 44.6718 9.55531 44.6545 9.67637C44.6545 9.78879 44.568 9.86661 44.4643 9.87526Z" fill="white"/>
<path d="M28.0863 13.1092C28.0863 13.1092 28.3544 13.0659 28.8127 13.014C29.0462 12.9881 29.3229 12.9535 29.6428 12.9276C29.9628 12.9016 30.326 12.867 30.7237 12.8411C31.5193 12.7892 32.4445 12.7373 33.4303 12.7114C33.9232 12.6941 34.4334 12.6854 34.9609 12.6854C35.4797 12.6768 36.0072 12.6768 36.5347 12.6854C37.0622 12.6854 37.5897 12.6941 38.1085 12.7114C38.6273 12.72 39.1375 12.7373 39.639 12.7633C40.6335 12.8065 41.5501 12.8584 42.3456 12.9189C42.7434 12.9449 43.1066 12.9881 43.4265 13.014C43.7465 13.04 44.0318 13.0746 44.2567 13.1005C44.4901 13.1264 44.6717 13.1524 44.7928 13.1697C44.9139 13.187 44.983 13.1956 44.983 13.1956C45.0522 13.2043 45.0955 13.2648 45.0868 13.334C45.0782 13.3859 45.0349 13.4291 44.983 13.4378C44.983 13.4378 44.9139 13.4464 44.7928 13.4637C44.6717 13.481 44.4901 13.5069 44.2567 13.5329C44.0232 13.5588 43.7465 13.5934 43.4265 13.6193C43.1066 13.6539 42.7434 13.6885 42.3456 13.7145C41.5501 13.775 40.6248 13.8355 39.639 13.8701C39.1462 13.8961 38.636 13.9047 38.1085 13.922C37.5897 13.9306 37.0622 13.9393 36.5347 13.9479C36.0072 13.9479 35.4797 13.9566 34.9609 13.9479C34.4421 13.9479 33.9319 13.9306 33.4303 13.922C32.4359 13.8961 31.5193 13.8442 30.7237 13.7923C30.326 13.7663 29.9628 13.7318 29.6428 13.7058C29.3229 13.6799 29.0375 13.6453 28.8127 13.6193C28.3544 13.5675 28.0863 13.5242 28.0863 13.5242C27.9653 13.5069 27.8874 13.3945 27.9047 13.2821C27.922 13.1956 27.9912 13.1265 28.0863 13.1092Z" fill="white"/>
</g>
<defs>
<clipPath id="clip0_1667_37489">
<rect width="73" height="73" fill="white"/>
</clipPath>
</defs>
</svg>
