<svg viewBox="0 0 73 73" fill="none" xmlns="http://www.w3.org/2000/svg">
<g clip-path="url(#clip0_1667_37496)">
<path d="M36.5 73C56.6584 73 73 56.6584 73 36.5C73 16.3416 56.6584 0 36.5 0C16.3416 0 0 16.3416 0 36.5C0 56.6584 16.3416 73 36.5 73Z" fill="#3E1C69"/>
<path fill-rule="evenodd" clip-rule="evenodd" d="M36.5002 9.47741C34.8918 8.88939 30.4212 6.46817 26.6078 7.86037C22.803 9.25258 18.4794 14.6052 17.3725 17.3896C15.8939 21.1252 11.1898 28.2419 7.78275 22.3013C8.11134 28.5705 11.2935 28.631 14.4411 26.5471C14.4411 26.5471 13.3343 28.19 11.4492 28.3716C9.56408 28.5532 7.57522 27.1351 7.57522 27.1351C8.07676 30.7842 10.6623 31.5625 14.4411 31.0177C14.4411 31.0177 13.6369 31.8219 11.2157 32.1159C8.79448 32.4099 6.08789 29.4785 6.08789 29.4785C6.08789 29.4785 6.74508 34.3123 8.5783 35.7045C10.5758 37.2178 15.2367 36.794 17.1477 35.2635C15.0118 38.1603 8.61288 38.2208 6.66726 36.4395C8.05081 42.6396 15.1156 41.991 19.4219 39.3709C16.4559 41.576 11.1379 43.9453 7.99028 40.9101C7.99028 40.9101 10.1867 46.4789 12.6771 47.7242C15.0637 48.9175 20.5634 46.8508 21.8345 44.7236C21.8345 44.7236 21.1773 47.214 17.7357 48.5283C14.2855 49.8427 12.9019 49.1164 12.9019 49.1164C12.9019 49.1164 16.8018 54.4603 20.2348 55.5672C23.6677 56.674 28.8042 54.9792 31.3724 51.0274C33.932 47.067 34.0098 41.3598 34.0098 41.3598C34.0098 41.3598 33.932 41.6538 36.5002 41.8008C39.0685 41.6538 38.9906 41.3598 38.9906 41.3598C38.9906 41.3598 39.0685 47.0756 41.628 51.0274C44.1963 54.9878 50.1975 56.4492 52.7657 55.5672C55.3339 54.6852 60.0985 49.1164 60.0985 49.1164C60.0985 49.1164 58.7063 49.8514 55.2647 48.5283C51.8231 47.214 51.166 44.7236 51.166 44.7236C51.166 44.7236 51.8231 45.8218 53.4315 46.5481C55.0486 47.2831 57.833 48.9694 60.3234 47.7242C62.8138 46.4789 65.0102 40.9101 65.0102 40.9101C65.0102 40.9101 62.883 42.9595 59.6575 42.2332C56.4321 41.4981 53.5785 39.3709 53.5785 39.3709C53.5785 39.3709 56.951 41.429 60.4704 41.2041C63.9898 40.9879 66.3332 36.4481 66.3332 36.4481C66.3332 36.4481 61.4994 37.2523 59.303 37.1053C57.1066 36.9583 55.8528 35.2721 55.8528 35.2721C55.8528 35.2721 56.2159 35.5661 57.686 36.1455C59.156 36.7335 62.5976 37.0967 64.4308 35.7131C66.2554 34.3209 66.9212 29.4871 66.9212 29.4871C66.9212 29.4871 64.206 32.4185 61.7934 32.1245C59.3722 31.8305 58.568 31.0263 58.568 31.0263C58.568 31.0263 61.2054 31.4673 62.6668 30.7323C64.1368 29.9973 64.794 27.1437 64.794 27.1437C64.794 27.1437 63.8428 28.0949 61.4994 27.8009C59.156 27.5069 58.568 26.5557 58.568 26.5557C58.568 26.5557 63.1856 27.5847 64.5 26.7027C65.823 25.8207 65.1658 22.3013 65.1658 22.3013C65.1658 22.3013 63.6093 25.077 60.0985 23.6848C56.5791 22.2926 56.7261 20.1654 55.6279 17.381C54.5297 14.5966 50.2061 9.24393 46.3927 7.85173C42.5792 6.46817 38.1086 8.88939 36.5002 9.47741ZM23.3478 16.0407C22.8376 16.8881 21.2897 17.0351 21.0822 15.9801C20.8833 14.9338 22.7079 14.83 22.7079 14.83C22.7079 14.83 21.9296 13.1698 23.6591 13.0747C25.3885 12.9709 24.3941 14.8646 24.3941 14.8646C24.3941 14.8646 26.4176 14.8646 25.7258 16.352C25.0253 17.8479 23.7456 16.7843 23.3478 16.0407ZM18.2546 29.2882C17.4677 28.5273 16.1446 28.1295 15.7209 29.1153C15.2972 30.1011 17.4071 30.4988 17.4071 30.4988C17.4071 30.4988 15.3837 31.035 16.0582 32.1072C16.7326 33.1795 17.8827 31.8565 17.8827 31.8565C17.8827 31.8565 17.8308 34.001 19.2922 33.5167C20.7623 33.0411 19.5776 31.5192 19.5776 31.5192C19.5776 31.5192 21.4886 32.3148 21.6616 30.8447C21.8345 29.3747 20.0878 29.9195 20.0878 29.9195C20.0878 29.9195 21.4108 28.6829 19.8629 27.8874C18.3151 27.0918 18.2546 29.2882 18.2546 29.2882ZM36.5002 35.7564C33.6639 35.7564 32.4014 34.9868 32.4014 34.9868C32.4014 34.9868 32.6695 35.1251 33.8023 35.2548C34.9351 35.3845 35.2983 35.3154 35.7912 35.2548C36.2841 35.1943 36.2495 35.4105 36.5002 35.5056C36.751 35.4105 36.7078 35.1943 37.2093 35.2548C37.7108 35.3154 38.074 35.3845 39.1982 35.2548C40.331 35.1251 40.5904 34.9868 40.5904 34.9868C40.5904 34.9868 39.3279 35.7564 36.5002 35.7564ZM36.5002 36.7767C36.31 36.7767 35.6442 36.7162 35.1772 36.379C34.7103 36.0417 34.52 35.8774 33.7764 35.6612C33.7764 35.6526 35.4712 36.0244 36.5002 36.0244C37.5293 36.0244 39.1982 35.6526 39.1982 35.6612C38.4545 35.8774 38.2902 36.0504 37.8233 36.379C37.3563 36.7162 36.6905 36.7767 36.5002 36.7767ZM36.5002 41.0139C33.6812 41.0139 29.3144 36.647 28.0432 34.2777C26.971 32.2802 26.1408 29.4093 26.6856 27.7404C26.7807 29.9627 27.7752 33.2487 29.5911 35.4278C31.1562 37.2956 34.0704 40.1751 36.5002 40.3135C38.9301 40.1751 41.8442 37.3042 43.4094 35.4278C45.2339 33.2487 46.2197 29.9714 46.3148 27.7404C46.8596 29.4093 46.0381 32.2802 44.9659 34.2777C43.6861 36.6384 39.3279 41.0139 36.5002 41.0139ZM37.7281 32.7212C37.5811 33.1708 37.0364 33.2746 36.4916 33.266C35.9468 33.266 35.4107 33.1535 35.2723 32.7212C35.0475 33.119 35.4366 33.4043 35.7998 33.5167C36.1716 33.6378 36.8202 33.6378 37.192 33.5167C37.5552 33.4043 37.9357 33.119 37.7281 32.7212ZM33.785 27.5501C32.5139 26.4346 30.4818 26.3482 29.2971 27.6107C28.7869 28.1381 27.4639 28.363 27.2909 27.3685C27.2304 27.0486 27.5417 27.0054 27.853 27.161C28.1643 27.308 28.3286 27.2561 28.3545 27.2042C28.3891 27.1524 28.0086 27.1264 27.9568 26.8843C27.9222 26.6508 28.4842 26.4865 28.9425 26.5989C29.3922 26.7114 28.5967 26.4433 28.8215 26.1579C29.0377 25.8812 29.764 26.132 29.9716 26.1579C30.1791 26.1925 29.3749 25.8899 29.6603 25.7602C29.8246 25.6823 30.2396 25.6391 30.6547 25.691C33.9234 25.9936 34.1828 27.896 33.785 27.5501ZM41.7059 28.0863C41.7664 28.0863 41.8269 28.069 41.8702 28.043C41.7232 28.2852 41.4551 28.4408 41.1957 28.4322C40.7028 28.4235 40.4261 28.0171 40.4174 27.749C40.4088 27.481 40.4866 27.3167 40.4866 27.3167C40.4866 27.3167 40.3742 26.9621 39.6478 27.3945C39.5527 27.8874 39.8294 28.5186 39.9764 28.631C40.1234 28.7435 40.3828 28.8472 41.1006 28.8645C41.8183 28.8818 42.8214 28.5446 42.977 28.0863C43.1327 27.628 43.0981 27.2994 42.977 27.1956C42.856 27.0918 42.1123 26.7546 41.4724 26.7805C40.8411 26.8065 40.7893 27.014 40.7893 27.014C40.7893 27.014 41.5502 26.6422 41.8788 27.2561C41.9134 27.3253 41.9393 27.3858 41.9566 27.455C41.8875 27.3858 41.801 27.3513 41.6972 27.3513C41.4983 27.3513 41.334 27.5155 41.334 27.7144C41.334 27.922 41.4983 28.0863 41.7059 28.0863ZM44.0752 28.0517C43.5996 27.602 42.2766 29.6428 40.1926 28.8559C39.1203 28.4581 39.2068 28.3803 39.1549 28.4149C39.0944 28.4581 39.864 29.1412 41.0227 29.1585C41.9999 29.1758 43.1845 28.8213 43.8677 28.5273C44.4989 28.2506 44.3865 28.3457 44.0752 28.0517ZM39.2068 27.5501C40.4866 26.4346 42.5101 26.3482 43.7034 27.6107C44.2136 28.1381 45.5366 28.363 45.7095 27.3685C45.7614 27.0486 45.4588 27.0054 45.1388 27.161C44.8362 27.308 44.6719 27.2561 44.6373 27.2042C44.6113 27.1524 44.9832 27.1264 45.0351 26.8843C45.0783 26.6508 44.5076 26.4865 44.0579 26.5989C43.6083 26.7114 44.4038 26.4433 44.179 26.1579C43.9542 25.8812 43.2364 26.132 43.0289 26.1579C42.8127 26.1925 43.6256 25.8899 43.3316 25.7602C43.1673 25.6823 42.7608 25.6391 42.3371 25.691C39.0771 25.9936 38.809 27.896 39.2068 27.5501ZM33.3526 27.3945C33.4478 27.8874 33.1624 28.5186 33.0154 28.631C32.8684 28.7435 32.6176 28.8472 31.8999 28.8645C31.1822 28.8818 30.1791 28.5446 30.0235 28.0863C29.8678 27.628 29.9024 27.2994 30.0235 27.1956C30.1445 27.0918 30.8882 26.7546 31.5281 26.7805C32.1593 26.8065 32.2112 27.014 32.2112 27.014C32.2112 27.014 31.4416 26.6422 31.1217 27.2561C31.0871 27.3253 31.0611 27.3858 31.0438 27.455C31.113 27.3858 31.1995 27.3513 31.3032 27.3513C31.5021 27.3513 31.6664 27.5155 31.6664 27.7144C31.6664 27.9133 31.5021 28.0776 31.3032 28.0776C31.2427 28.0776 31.1822 28.0603 31.1303 28.0344C31.2773 28.2765 31.5454 28.4322 31.8048 28.4235C32.2977 28.4149 32.5744 28.0084 32.583 27.7404C32.5917 27.4723 32.5139 27.308 32.5139 27.308C32.5139 27.308 32.6176 26.9621 33.3526 27.3945ZM28.9253 28.0517C29.4009 27.602 30.7152 29.6428 32.8079 28.8559C33.8801 28.4581 33.785 28.3803 33.8455 28.4149C33.9061 28.4581 33.1365 29.1412 31.9777 29.1585C31.0006 29.1758 29.8159 28.8213 29.1328 28.5273C28.5015 28.2506 28.614 28.3457 28.9253 28.0517ZM34.7535 15.1241C31.995 14.7263 29.8073 15.9455 28.3372 17.5107C25.8814 20.1308 26.6597 23.4168 23.5294 24.6014C21.4108 25.4056 19.0587 24.3766 20.3385 21.2377C19.9321 23.7281 21.5492 24.5236 23.0019 24.1691C25.7258 23.5119 24.9648 19.5774 27.3774 16.8449C29.0377 14.9771 31.6318 13.8702 34.7535 15.1241ZM34.6843 16.3693C31.554 16.2741 30.3693 18.3149 30.084 19.88C29.7986 21.4452 29.1328 22.725 28.0432 23.4859C26.9537 24.2469 24.9129 24.8608 24.152 27.4204C23.3997 29.98 23.2527 31.7354 21.5924 33.1622C19.9321 34.589 19.0328 35.1511 19.0328 35.1511C19.0328 35.1511 22.1631 34.0615 23.2527 31.6403C24.3422 29.2191 24.3941 26.0455 27.5676 24.809C30.7412 23.5811 30.5077 21.6787 30.8449 19.8282C31.1735 17.9863 33.0759 16.326 34.6843 16.3693ZM36.1111 17.087C33.6899 16.8535 33.9752 20.2173 33.8369 22.0678C33.6985 23.9183 29.8505 24.9127 29.8505 24.9127C29.8505 24.9127 32.8425 23.9183 32.7906 21.9727C32.7387 20.027 33.2143 15.8504 36.1111 17.087ZM24.3422 35.1251C23.27 40.6507 20.2175 43.2362 17.5195 44.2912C14.813 45.3462 12.3485 44.5333 12.3485 44.5333C12.3485 44.5333 15.4269 44.9743 18.5313 43.0114C20.6498 41.6711 22.5955 38.9731 24.3422 35.1251ZM26.1668 36.9497C30.2137 44.0058 23.1835 49.3671 20.6931 49.592C20.6931 49.592 29.1501 45.1992 26.1668 36.9497ZM38.247 15.1241C40.9968 14.7263 43.1932 15.9455 44.6632 17.5107C47.119 20.1308 46.3408 23.4168 49.4711 24.6014C51.5897 25.4056 53.9331 24.3766 52.6619 21.2377C53.0683 23.7281 51.4513 24.5236 49.9986 24.1691C47.266 23.5119 48.0357 19.5774 45.6231 16.8449C43.9628 14.9771 41.3686 13.8702 38.247 15.1241ZM38.3075 16.3693C41.4378 16.2741 42.6311 18.3149 42.9078 19.88C43.1932 21.4452 43.859 22.725 44.9486 23.4859C46.0381 24.2469 48.0789 24.8608 48.8312 27.4204C49.5922 29.98 49.7392 31.7354 51.3908 33.1622C53.051 34.589 53.959 35.1511 53.959 35.1511C53.959 35.1511 50.8287 34.0615 49.7392 31.6403C48.6496 29.2191 48.5977 26.0455 45.4155 24.809C42.242 23.5811 42.4755 21.6787 42.1469 19.8282C41.8269 17.9863 39.9245 16.326 38.3075 16.3693ZM36.8894 17.087C39.3106 16.8535 39.0252 20.2173 39.1636 22.0678C39.3106 23.9097 43.15 24.9041 43.15 24.9041C43.15 24.9041 40.1667 23.9097 40.2099 21.964C40.2531 20.027 39.7862 15.8504 36.8894 17.087ZM48.6583 35.1251C49.7392 40.6507 52.783 43.2362 55.4896 44.2912C58.1962 45.3462 60.6606 44.5333 60.6606 44.5333C60.6606 44.5333 57.5822 44.9743 54.4778 43.0114C52.342 41.6711 50.405 38.9731 48.6583 35.1251ZM46.8337 36.9497C42.7868 44.0058 49.8256 49.3671 52.3074 49.592C52.3074 49.592 43.8417 45.1992 46.8337 36.9497ZM47.7244 14.3026C46.7645 14.6571 46.9115 15.3835 47.6984 15.7899C48.4853 16.1963 48.6583 14.83 48.6583 14.83C48.6583 14.83 49.3327 15.9628 50.2061 15.2624C51.0795 14.562 49.6267 13.9221 49.6267 13.9221C49.6267 13.9221 50.5261 12.7547 49.4192 12.3137C48.3124 11.8813 48.3729 13.4551 48.3729 13.4551C48.3729 13.4551 47.8195 12.3742 46.998 12.7028C46.1851 13.0228 47.7244 14.3026 47.7244 14.3026ZM54.0887 29.1239C53.1808 28.7435 52.783 27.7577 53.7947 27.4031C54.8064 27.0486 54.9275 28.5446 54.9275 28.5446C54.9275 28.5446 57.098 27.5242 56.804 29.2277C56.5445 30.741 55.0745 29.6601 55.0745 29.6601C55.0745 29.6601 55.5415 31.1474 53.9936 30.888C52.4544 30.6286 54.0887 29.1239 54.0887 29.1239Z" fill="white"/>
<path d="M31.1299 54.7198C31.1299 54.7198 31.1645 54.7458 31.225 54.7976C31.251 54.8236 31.2942 54.8495 31.3374 54.8928C31.3807 54.936 31.4326 54.9879 31.4845 55.0484C31.5882 55.1695 31.7093 55.3165 31.8217 55.4981C31.9428 55.6797 32.0552 55.8872 32.1676 56.1293C32.28 56.3628 32.3838 56.6309 32.4702 56.9162C32.5567 57.2016 32.6345 57.5042 32.6951 57.8242C32.7469 58.1441 32.7902 58.4814 32.8075 58.8273C32.8161 59.0088 32.8161 59.1645 32.8161 59.3288C32.8161 59.4931 32.8161 59.6487 32.8161 59.813C32.8161 60.1416 32.8075 60.4616 32.7902 60.7815C32.7815 61.1015 32.7642 61.4128 32.7383 61.7241C32.6951 62.3294 32.6432 62.9001 32.5827 63.393C32.5221 63.8772 32.4529 64.2837 32.3924 64.569C32.3665 64.7074 32.3405 64.8198 32.3232 64.8976C32.3059 64.9754 32.2973 65.01 32.2973 65.01C32.28 65.0792 32.2108 65.1225 32.1416 65.1052C32.0898 65.0965 32.0552 65.0533 32.0465 65.01C32.0465 65.01 32.0379 64.9668 32.0206 64.8976C32.0033 64.8198 31.9773 64.7074 31.9514 64.569C31.8995 64.2837 31.8303 63.8772 31.7612 63.393C31.7006 62.9088 31.6401 62.338 31.6055 61.7241C31.5796 61.4214 31.5709 61.1015 31.5536 60.7815C31.545 60.4616 31.5363 60.133 31.5277 59.813C31.5277 59.6487 31.5277 59.4844 31.5277 59.3288C31.5277 59.1731 31.5277 59.0175 31.5277 58.8618C31.5277 58.5678 31.5104 58.2738 31.4845 57.9885C31.4585 57.7031 31.4239 57.4264 31.3893 57.167C31.3547 56.9076 31.3029 56.6654 31.2596 56.4406C31.2077 56.2158 31.1645 56.0169 31.104 55.8353C31.0521 55.6624 31.0002 55.4981 30.957 55.377C30.931 55.3165 30.9137 55.2646 30.8964 55.2127C30.8791 55.1608 30.8532 55.1176 30.8359 55.083C30.8013 55.0138 30.784 54.9706 30.784 54.9706C30.7321 54.8582 30.784 54.7285 30.8878 54.6852C30.9829 54.6506 31.0694 54.6679 31.1299 54.7198Z" fill="white"/>
<path d="M31.9421 57.2622C31.9421 57.2622 31.9507 57.2536 31.9594 57.2363C31.968 57.219 31.9853 57.193 32.0199 57.1498C32.0891 57.0633 32.1669 56.9596 32.2966 56.8385C32.5474 56.5964 32.9279 56.2678 33.5332 56.0343C33.8358 55.9305 34.2163 55.8354 34.6746 55.9305C34.8995 55.9824 35.1416 56.0948 35.3405 56.2591C35.5393 56.4234 35.6864 56.631 35.7901 56.8472C35.8506 56.9509 35.8766 57.0547 35.9198 57.1671C35.9458 57.2709 35.9804 57.3833 36.0063 57.487C36.0495 57.6946 36.0755 57.9021 36.0841 58.1096C36.0841 58.2048 36.0928 58.3172 36.0928 58.4037V58.6717C36.0928 58.8533 36.0928 59.0349 36.0928 59.2165C36.0928 59.5797 36.0841 59.9515 36.0668 60.306C36.0582 60.6692 36.0409 61.0238 36.0149 61.361C35.9717 62.0441 35.9198 62.684 35.8593 63.2375C35.7988 63.7822 35.7296 64.2405 35.6691 64.5605C35.6431 64.7161 35.6172 64.8459 35.5999 64.9323C35.5826 65.0188 35.5739 65.062 35.5739 65.062C35.5566 65.1312 35.4961 65.1744 35.4269 65.1571C35.3751 65.1485 35.3405 65.1053 35.3318 65.062C35.3318 65.062 35.3232 65.0188 35.3059 64.9323C35.2886 64.8459 35.2626 64.7248 35.2367 64.5605C35.1848 64.2405 35.1156 63.7822 35.0465 63.2375C34.9859 62.6927 34.9254 62.0528 34.8908 61.361C34.8649 61.0151 34.8562 60.6606 34.8389 60.306C34.8303 59.9429 34.8216 59.5797 34.813 59.2165C34.813 58.862 34.813 58.5074 34.813 58.1529C34.8043 57.8416 34.7697 57.5476 34.6833 57.3487C34.6487 57.2449 34.5968 57.1757 34.5536 57.1152C34.5103 57.0547 34.4498 57.0201 34.3806 56.9855C34.2336 56.925 34.0001 56.9163 33.7753 56.9509C33.5505 56.9855 33.3343 57.046 33.1441 57.1152C32.9538 57.1844 32.7895 57.2536 32.6512 57.3228C32.5215 57.3919 32.409 57.4525 32.3572 57.487C32.2966 57.5216 32.2534 57.5649 32.2534 57.5562C32.1756 57.6427 32.0372 57.6513 31.9507 57.5735C31.8643 57.4784 31.8643 57.3487 31.9421 57.2622Z" fill="white"/>
<path d="M35.22 57.2621C35.22 57.2621 35.2286 57.2535 35.2373 57.2275C35.2459 57.2102 35.2719 57.1757 35.3065 57.1238C35.3756 57.0373 35.4708 56.9162 35.6178 56.7865C35.7561 56.6568 35.9377 56.5012 36.1712 56.3628C36.4047 56.2158 36.6814 56.0688 37.0359 55.965C37.2175 55.9218 37.4164 55.8872 37.6412 55.8959C37.866 55.9045 38.1168 55.9564 38.3589 56.0861C38.6011 56.2158 38.7999 56.4233 38.9383 56.6395C39.0767 56.8557 39.1718 57.0892 39.2323 57.314C39.362 57.7637 39.362 58.2306 39.3707 58.6111C39.3793 59.0089 39.388 59.4153 39.388 59.8217C39.388 60.2281 39.388 60.6345 39.3793 61.0323C39.3707 61.4301 39.362 61.8192 39.3447 62.1997C39.3361 62.952 39.3101 63.6524 39.2669 64.2577C39.241 64.5604 39.2323 64.8371 39.2237 65.0792C39.215 65.3214 39.1977 65.5375 39.1804 65.7191C39.1631 65.9007 39.1545 66.0304 39.1545 66.1255C39.1458 66.2207 39.1458 66.2726 39.1458 66.2726V66.2812C39.1372 66.3504 39.0853 66.4023 39.0161 66.3936C38.9642 66.3936 38.921 66.3504 38.9037 66.3071C38.9037 66.3071 38.8864 66.2553 38.8605 66.1601C38.8345 66.065 38.7827 65.9267 38.7481 65.7537C38.7048 65.5808 38.6529 65.3646 38.6097 65.1225C38.5578 64.8803 38.4973 64.595 38.4627 64.2923C38.3762 63.687 38.2898 62.9693 38.2206 62.2084C38.1946 61.8279 38.1773 61.4387 38.1601 61.041C38.1428 60.6432 38.1341 60.2368 38.1255 59.8304C38.1168 59.4239 38.1082 59.0175 38.1168 58.6197C38.1168 58.4295 38.1168 58.2393 38.1168 58.0577C38.1082 57.9799 38.1082 57.8934 38.0995 57.8155C38.0909 57.7377 38.0822 57.6599 38.0649 57.5907C38.0476 57.4437 37.9958 57.3313 37.9525 57.2275C37.9093 57.1324 37.8574 57.0632 37.7969 57.02C37.6845 56.9162 37.4596 56.873 37.2175 56.8903C36.9754 56.9076 36.7333 56.9681 36.5257 57.0459C36.3182 57.1238 36.128 57.2016 35.9809 57.2708C35.8339 57.3486 35.7215 57.4091 35.6524 57.4524C35.6178 57.4697 35.5918 57.487 35.5745 57.5042C35.5572 57.5215 35.5399 57.5302 35.5399 57.5302C35.4448 57.5994 35.3065 57.5821 35.2373 57.487C35.1768 57.4264 35.1768 57.3313 35.22 57.2621Z" fill="white"/>
<path d="M38.6015 57.4955C38.6015 57.4955 38.6101 57.4869 38.6274 57.4609C38.6447 57.435 38.6533 57.409 38.7139 57.3572C38.809 57.2534 38.9387 57.141 39.1462 57.0372C39.3451 56.9334 39.5959 56.847 39.8985 56.8124C40.2012 56.7778 40.5557 56.7778 40.9449 56.8989C41.1351 56.9594 41.3426 57.0545 41.5329 57.2015C41.7231 57.3485 41.9047 57.5474 42.0258 57.7809C42.1468 58.023 42.216 58.2911 42.2246 58.5505C42.2419 58.8099 42.216 59.0693 42.1555 59.3028C42.1468 59.3633 42.1295 59.4238 42.1122 59.4757L42.0863 59.5622L42.069 59.6054L42.0603 59.6314L42.0517 59.6573V59.666L41.9998 59.813L41.9739 59.8822L41.9393 59.9686L41.8615 60.1416C41.8355 60.1935 41.8096 60.2453 41.7836 60.2972C41.7318 60.401 41.6799 60.5048 41.6193 60.5999C41.3945 60.9976 41.1351 61.3695 40.8584 61.7154C40.5817 62.0699 40.305 62.3985 40.0196 62.7184C39.7342 63.0384 39.4489 63.341 39.1722 63.6264C38.6187 64.2058 38.0999 64.7333 37.6762 65.1916C37.2525 65.6499 36.9325 66.0563 36.7336 66.3503C36.6385 66.4973 36.5693 66.627 36.5348 66.7135C36.4915 66.7999 36.4742 66.8432 36.4742 66.8432L36.4656 66.8605C36.4396 66.921 36.3618 66.9469 36.3013 66.921C36.2494 66.8951 36.2235 66.8518 36.2321 66.7999C36.2321 66.7999 36.2321 66.7394 36.2408 66.6356C36.2494 66.5319 36.2753 66.3676 36.3359 66.1773C36.3964 65.9871 36.4742 65.7536 36.5953 65.5115C36.7164 65.2607 36.8547 64.9927 37.0277 64.7073C37.3735 64.1452 37.8232 63.5226 38.3247 62.8914C38.5755 62.5714 38.8349 62.2515 39.0857 61.9229C39.3451 61.5943 39.6045 61.2657 39.8467 60.9371C40.0974 60.6085 40.3223 60.2713 40.5298 59.9427C40.5817 59.8562 40.6249 59.7784 40.6681 59.7006L40.7373 59.5795L40.7978 59.4671L40.8238 59.4152L40.8584 59.346L40.9189 59.2077L40.9535 59.1039C40.9708 59.0693 40.9794 59.0261 40.9967 58.9915C41.0919 58.6888 41.1005 58.4294 41.04 58.2392C40.9794 58.0489 40.8238 57.8846 40.6076 57.7722C40.4001 57.6598 40.158 57.5993 39.9331 57.5733C39.7169 57.556 39.5181 57.5647 39.3624 57.5993C39.2154 57.6252 39.0943 57.6771 39.0338 57.703C39.0079 57.7117 38.9733 57.7376 38.9473 57.7549C38.93 57.7722 38.9128 57.7809 38.9128 57.7809C38.8176 57.8501 38.6793 57.8328 38.6101 57.729C38.5496 57.6685 38.5496 57.5647 38.6015 57.4955Z" fill="white"/>
</g>
<defs>
<clipPath id="clip0_1667_37496">
<rect width="73" height="73" fill="white"/>
</clipPath>
</defs>
</svg>
