<svg viewBox="0 0 73 73" fill="none" xmlns="http://www.w3.org/2000/svg">
<g clip-path="url(#clip0_1667_37413)">
<path d="M36.5 73C56.6584 73 73 56.6584 73 36.5C73 16.3416 56.6584 0 36.5 0C16.3416 0 0 16.3416 0 36.5C0 56.6584 16.3416 73 36.5 73Z" fill="#3E1C69"/>
<path fill-rule="evenodd" clip-rule="evenodd" d="M36.5006 3.3811C35.0478 4.01235 33.5173 5.51697 33.2838 6.93512C31.2085 4.7906 26.4006 5.5775 26.4006 5.5775C26.7378 6.58058 27.7323 7.94685 27.4729 9.512C24.014 8.43109 21.4976 9.52929 19.846 10.3421C21.1344 11.302 21.7743 12.6596 21.8349 13.8443C18.2895 13.7491 16.3871 14.6312 14.182 17.6836C15.9634 18.3668 17.2086 20.2865 17.174 21.0734C13.914 22.3272 12.9714 23.2784 11.5273 26.6595C14.1648 25.8466 14.8565 26.9362 15.7472 28.1122C13.0838 29.4525 12.0894 32.3753 12.0894 36.526C14.4328 34.4939 16.3871 34.5371 17.5718 34.8657C14.8565 36.9929 15.3062 42.7952 17.174 45.2856C18.203 43.487 18.1252 42.3369 20.3908 41.4981C19.2234 47.067 21.61 48.6235 22.5353 50.5518C23.3135 48.0009 23.1838 47.8798 24.3599 47.3004C23.6075 48.9867 25.4753 52.3245 26.8676 53.0941C27.2134 51.3301 27.2826 50.9669 28.2857 50.0676C28.5884 51.9527 30.2486 53.5265 30.9923 54.3566C31.4246 53.0768 31.5284 52.2467 32.9552 51.6414C32.9552 51.6414 32.6353 53.3708 34.5895 55.2818C35.5234 53.1027 36.5006 51.9094 36.5006 51.9094C36.5006 51.9094 37.4691 53.0941 38.4116 55.2818C40.3659 53.3708 40.0459 51.6414 40.0459 51.6414C41.4641 52.2467 41.5679 53.0854 42.0089 54.3566C42.7439 53.5265 44.4128 51.9527 44.7155 50.0676C45.7185 50.9669 45.7877 51.3301 46.1336 53.0941C47.5258 52.3158 49.3936 48.9867 48.6413 47.3004C49.8173 47.8798 49.6876 48.0095 50.4659 50.5518C51.3911 48.6235 53.7778 47.067 52.6104 41.4981C54.876 42.3369 54.7895 43.4957 55.8272 45.2856C57.695 42.7866 58.1446 36.9929 55.4294 34.8657C56.6141 34.5285 58.577 34.4939 60.9204 36.526C60.9204 32.3839 59.9173 29.4525 57.254 28.1122C58.136 26.9362 58.8364 25.8466 61.4738 26.6595C60.0297 23.2871 59.0785 22.3272 55.8272 21.0734C55.7926 20.2865 57.0378 18.3668 58.8191 17.6836C56.6054 14.6312 54.7117 13.7491 51.1577 13.8443C51.2182 12.6596 51.8667 11.302 53.1465 10.3421C51.4949 9.52929 48.9786 8.43109 45.5197 9.512C45.2689 7.94685 46.2547 6.58058 46.5919 5.5775C46.5919 5.5775 41.784 4.7906 39.7087 6.93512C39.4839 5.52562 37.9533 4.01235 36.5006 3.3811ZM43.7989 29.4007C43.574 28.4581 42.6315 27.8787 41.6889 28.1036C40.7464 28.3284 40.167 29.2709 40.3918 30.2135C40.6167 31.156 41.2306 32.2802 41.7408 33.1363C43.4616 36.0331 43.3492 37.6415 43.3492 37.6415C43.3492 37.6415 42.6834 35.4364 41.7149 33.9923C40.7291 32.5396 39.6914 30.6804 39.9941 28.8559C40.0719 27.8441 40.7896 26.9448 41.8359 26.6941C43.133 26.3828 44.4215 27.187 44.7328 28.4754C45.0441 29.7725 44.2485 31.0696 42.9514 31.3809C42.8822 31.3982 42.8217 31.4068 42.7525 31.4241C43.5481 31.1042 44.0064 30.2481 43.7989 29.4007ZM29.2023 29.4007C29.4271 28.4581 30.3697 27.8787 31.3122 28.1036C32.2548 28.3284 32.8341 29.2709 32.6093 30.2135C32.3845 31.156 31.7705 32.2802 31.2604 33.1363C29.5395 36.0331 29.652 37.6415 29.652 37.6415C29.652 37.6415 30.3178 35.4364 31.2863 33.9923C32.2721 32.5396 33.3097 30.6804 33.0071 28.8559C32.9293 27.8441 32.2115 26.9448 31.1652 26.6941C29.8768 26.3828 28.5797 27.187 28.2684 28.4754C27.9571 29.7725 28.7526 31.0696 30.0497 31.3809C30.1189 31.3982 30.1794 31.4068 30.2486 31.4241C29.4531 31.1042 29.0034 30.2481 29.2023 29.4007ZM46.5746 49.9811C47.0329 48.3381 46.8686 47.5166 45.8223 46.1677C45.8223 46.2109 46.566 48.07 46.5746 49.9811ZM50.4572 46.2714C50.8204 41.844 47.9236 41.1004 47.8804 41.1695C48.8921 42.1034 50.0768 43.6945 50.4572 46.2714ZM54.9019 41.109C53.6135 37.1832 50.1632 36.5346 50.2238 36.6643C50.2843 36.794 52.9303 38.3246 54.9019 41.109ZM57.6431 32.7212C55.758 30.1962 50.6302 30.8534 50.6215 30.9744C51.6073 31.0263 54.7895 31.5538 57.6431 32.7212ZM57.4961 24.7657C53.6135 23.8664 50.4399 24.7917 50.4572 24.9127C50.4832 25.0338 54.4609 25.4921 57.4961 24.7657ZM54.876 17.8739C50.9155 17.4242 48.0274 18.5397 48.1138 18.583C48.2089 18.6175 51.9186 18.6781 54.876 17.8739ZM50.3362 11.2069C46.7043 11.7776 44.3263 14.6917 44.4474 14.7176C44.5685 14.7436 48.8488 12.772 50.3362 11.2069ZM43.5048 7.7739C40.4524 10.1951 40.2794 12.8844 40.4264 12.9104C40.5734 12.945 42.839 10.0827 43.5048 7.7739ZM26.1585 49.9811C25.7002 48.3381 25.8645 47.5166 26.9108 46.1677C26.9108 46.2109 26.1671 48.07 26.1585 49.9811ZM22.2845 46.2714C21.9213 41.844 24.8182 41.1004 24.8614 41.1695C23.8497 42.1034 22.6563 43.6945 22.2845 46.2714ZM17.8312 41.109C19.1196 37.1832 22.5699 36.5346 22.5093 36.6643C22.4575 36.794 19.8028 38.3246 17.8312 41.109ZM15.09 32.7212C16.9751 30.1962 22.1029 30.8534 22.1116 30.9744C21.1258 31.0263 17.9436 31.5538 15.09 32.7212ZM15.237 24.7657C19.1196 23.8664 22.2932 24.7917 22.2759 24.9127C22.2499 25.0338 18.2722 25.4921 15.237 24.7657ZM17.8571 17.8739C21.8176 17.4242 24.7057 18.5397 24.6193 18.583C24.5241 18.6175 20.8058 18.6781 17.8571 17.8739ZM22.3969 11.2069C26.0288 11.7776 28.4068 14.6917 28.2857 14.7176C28.1646 14.7436 23.8843 12.772 22.3969 11.2069ZM29.2282 7.7739C32.2807 10.1951 32.4537 12.8844 32.3067 12.9104C32.1597 12.945 29.8941 10.0827 29.2282 7.7739ZM36.3622 6.72759C35.584 8.5608 36.0509 12.4434 36.3622 12.4434C36.6735 12.4434 37.1491 8.5608 36.3622 6.72759ZM34.1918 17.7874C31.9089 16.8622 29.8681 16.8622 28.0782 19.0845C26.2882 21.3068 24.1264 25.2586 24.4377 29.2796C24.7057 32.7817 26.4698 34.0875 27.0837 36.1369C27.6285 37.9614 27.3259 40.1578 27.715 41.4463C28.0868 42.6828 28.9515 43.6686 28.9515 43.6686C28.9515 43.6686 28.7094 45.1732 29.2888 46.5827C30.3783 49.2288 34.4771 49.4623 34.3301 49.5401C34.088 49.6784 31.5544 49.713 29.8681 48.5024C27.4383 46.7557 28.3116 43.9799 28.3116 43.9799C28.3116 43.9799 26.7378 42.4839 26.5563 41.4981C26.366 40.5124 26.7292 38.6964 26.1671 36.7508C25.6051 34.8138 23.7113 33.3265 23.3395 28.8818C22.9676 24.4371 26.6687 17.4242 29.7557 16.7497C32.8341 16.058 34.1918 17.7874 34.1918 17.7874ZM38.8094 17.7874C41.0923 16.8622 43.133 16.8622 44.923 19.0845C46.713 21.3068 48.8748 25.2586 48.5635 29.2796C48.2954 32.7817 46.5314 34.0875 45.9261 36.1369C45.3726 37.9614 45.684 40.1578 45.2948 41.4463C44.923 42.6828 44.0583 43.6686 44.0583 43.6686C44.0583 43.6686 44.3004 45.1732 43.721 46.5827C42.6315 49.2288 38.5413 49.4623 38.6797 49.5401C38.9218 49.6784 41.4554 49.713 43.1417 48.5024C45.5802 46.7557 44.6982 43.9799 44.6982 43.9799C44.6982 43.9799 46.272 42.4839 46.4536 41.4981C46.6438 40.5124 46.2806 38.6964 46.8427 36.7508C47.4048 34.8138 49.2985 33.3265 49.6703 28.8818C50.0422 24.4371 46.3411 17.4242 43.2541 16.7497C40.167 16.058 38.8094 17.7874 38.8094 17.7874ZM36.3363 42.2159C35.5148 41.6106 35.3764 41.2301 35.2121 40.7891C35.0306 40.3221 35.1084 39.0596 34.3474 38.8867C33.5951 38.7051 32.9812 39.5352 34.0794 39.9243C34.0707 39.9676 32.4969 39.76 33.033 38.6618C33.2233 38.2814 33.5605 38.0738 34.2004 38.1344C35.0305 38.2035 35.7137 38.8867 36.5092 38.8867C37.3048 38.8867 37.9793 38.2035 38.8094 38.1344C39.4579 38.0738 39.7952 38.2814 39.9768 38.6618C40.5129 39.76 38.9391 39.9676 38.9305 39.9243C40.0287 39.5266 39.4147 38.7051 38.6624 38.8867C37.9101 39.0596 37.9793 40.3221 37.7977 40.7891C37.6334 41.2301 37.495 41.6019 36.6735 42.2159C36.8638 44.9916 41.5938 45.6834 42.5969 42.164C42.3894 45.7785 38.23 45.6748 36.5006 44.6111C34.7711 45.6748 30.6118 45.7785 30.4043 42.164C31.4074 45.6834 36.146 44.9916 36.3363 42.2159ZM42.692 39.025C42.5191 39.025 42.3807 39.1634 42.3807 39.3363C42.3807 39.5093 42.5191 39.6476 42.692 39.6476C42.865 39.6476 43.0033 39.5093 43.0033 39.3363C43.0033 39.172 42.865 39.025 42.692 39.025ZM41.5333 39.9243C41.3603 39.9243 41.222 40.0627 41.222 40.2356C41.222 40.4086 41.3603 40.5469 41.5333 40.5469C41.7062 40.5469 41.8446 40.4086 41.8446 40.2356C41.8446 40.0627 41.7062 39.9243 41.5333 39.9243ZM42.7958 40.2789C42.6228 40.2789 42.4845 40.4172 42.4845 40.5902C42.4845 40.7631 42.6228 40.9015 42.7958 40.9015C42.9687 40.9015 43.1071 40.7631 43.1071 40.5902C43.1071 40.4172 42.9687 40.2789 42.7958 40.2789ZM41.5506 41.1436C41.3776 41.1436 41.2393 41.282 41.2393 41.4549C41.2393 41.6278 41.3776 41.7662 41.5506 41.7662C41.7235 41.7662 41.8619 41.6278 41.8619 41.4549C41.8705 41.282 41.7322 41.1436 41.5506 41.1436ZM30.3092 39.025C30.4821 39.025 30.6205 39.1634 30.6205 39.3363C30.6205 39.5093 30.4821 39.6476 30.3092 39.6476C30.1362 39.6476 29.9979 39.5093 29.9979 39.3363C29.9979 39.172 30.1362 39.025 30.3092 39.025ZM31.4679 39.9243C31.6408 39.9243 31.7792 40.0627 31.7792 40.2356C31.7792 40.4086 31.6408 40.5469 31.4679 40.5469C31.2949 40.5469 31.1566 40.4086 31.1566 40.2356C31.1566 40.0627 31.2949 39.9243 31.4679 39.9243ZM30.2054 40.2789C30.3783 40.2789 30.5167 40.4172 30.5167 40.5902C30.5167 40.7631 30.3783 40.9015 30.2054 40.9015C30.0324 40.9015 29.8941 40.7631 29.8941 40.5902C29.8941 40.4172 30.0324 40.2789 30.2054 40.2789ZM31.4419 41.1436C31.6149 41.1436 31.7532 41.282 31.7532 41.4549C31.7532 41.6278 31.6149 41.7662 31.4419 41.7662C31.269 41.7662 31.1306 41.6278 31.1306 41.4549C31.1306 41.282 31.269 41.1436 31.4419 41.1436ZM30.0497 29.5995C30.1622 29.1326 30.6377 28.8386 31.1047 28.951C31.5717 29.0634 31.8657 29.539 31.7532 30.006C31.6408 30.4729 31.1739 30.7669 30.6983 30.6545C30.2227 30.5421 29.9373 30.0751 30.0497 29.5995ZM42.9514 29.5995C42.839 29.1326 42.3634 28.8386 41.8965 28.951C41.4295 29.0634 41.1355 29.539 41.2479 30.006C41.3603 30.4729 41.8359 30.7669 42.3029 30.6545C42.7698 30.5421 43.0638 30.0751 42.9514 29.5995Z" fill="white"/>
<path d="M33.9575 58.879C33.9575 58.879 33.9834 58.8012 34.0267 58.6456C34.0786 58.4899 34.165 58.2391 34.338 57.9451C34.5109 57.6511 34.779 57.3052 35.22 57.0199C35.6524 56.7345 36.2577 56.5529 36.8803 56.5789C37.1916 56.5875 37.5029 56.6394 37.8142 56.7259C37.892 56.7432 37.9698 56.7691 38.039 56.7951L38.0995 56.8124L38.1687 56.8383L38.2725 56.8729L38.3762 56.9075L38.4973 56.9594C38.5838 56.9939 38.6616 57.0285 38.7394 57.0718C39.0507 57.2274 39.362 57.435 39.6387 57.703C39.9154 57.9711 40.1489 58.317 40.3132 58.6802C40.4775 59.052 40.564 59.4411 40.5899 59.8302C40.6159 60.2194 40.5986 60.5998 40.538 60.9717C40.4256 61.7153 40.1922 62.4158 39.9154 63.0816L39.8117 63.3237C39.7857 63.3929 39.7511 63.4707 39.7252 63.5486C39.6647 63.6956 39.6128 63.8512 39.5696 64.0069C39.4744 64.3182 39.3966 64.6381 39.3274 64.9494C39.1977 65.5806 39.1372 66.2205 39.1718 66.8172C39.1891 67.1112 39.241 67.3966 39.3274 67.6387C39.4139 67.8808 39.5436 68.0711 39.6993 68.1748C39.8549 68.2786 40.0711 68.3132 40.2959 68.2786C40.5467 68.2354 40.7802 68.1748 40.9791 68.0797C41.1779 67.9846 41.3336 67.8549 41.446 67.6992C41.5584 67.5522 41.619 67.3706 41.6362 67.189C41.6795 66.8259 41.6017 66.48 41.5065 66.2033C41.4201 65.9265 41.3077 65.719 41.2385 65.5807C41.1606 65.4423 41.1174 65.3731 41.1174 65.3731C41.0828 65.3126 41.1001 65.2434 41.152 65.2002C41.2039 65.1656 41.2731 65.1742 41.3163 65.2261C41.3163 65.2261 41.3768 65.2953 41.472 65.4337C41.5671 65.572 41.7054 65.7795 41.8351 66.0649C41.9648 66.3503 42.1032 66.7307 42.0945 67.215C42.0859 67.4571 42.034 67.7252 41.887 67.9759C41.7487 68.2267 41.5152 68.4342 41.2644 68.5899C41.005 68.7455 40.711 68.8493 40.417 68.9185C40.2527 68.9531 40.0797 68.979 39.8982 68.9617C39.7166 68.9531 39.5177 68.9012 39.3361 68.8061C38.9729 68.6158 38.7308 68.2699 38.5751 67.9413C38.4195 67.6041 38.3416 67.2582 38.2984 66.9037C38.2033 66.2033 38.2379 65.4942 38.3416 64.7851C38.3935 64.4306 38.4627 64.076 38.5578 63.7215C38.6011 63.5486 38.653 63.367 38.7135 63.194C38.7394 63.1075 38.774 63.0211 38.8 62.926L38.8951 62.6838C39.1285 62.0612 39.3015 61.43 39.3707 60.8247C39.4398 60.2194 39.3966 59.6314 39.1891 59.1903C38.9815 58.7407 38.6184 58.4294 38.1774 58.2046C38.1255 58.1786 38.0649 58.1527 38.0217 58.1354L37.9439 58.1008L37.8401 58.0662L37.7363 58.0316L37.7104 58.023L37.7018 58.0143C37.7104 58.0143 37.6845 58.0057 37.7104 58.0143H37.7018L37.6585 58.0057C37.598 57.9884 37.5375 57.9711 37.4769 57.9538C37.2435 57.8933 37.0186 57.8587 36.8111 57.8414C36.396 57.8068 36.0415 57.8673 35.7388 57.9884C35.4362 58.1094 35.1768 58.291 34.9692 58.4726C34.7617 58.6542 34.606 58.8185 34.4936 58.9396C34.4331 59.0001 34.3899 59.052 34.3553 59.0779C34.3207 59.1039 34.3034 59.1212 34.3034 59.1212C34.2169 59.199 34.0699 59.1903 33.9921 59.1039C33.9489 59.0347 33.9316 58.9569 33.9575 58.879Z" fill="white"/>
<path d="M34.9688 59.0607C34.9688 59.0607 34.9861 59.0607 35.0034 59.0693C35.0294 59.078 35.064 59.078 35.1245 59.0953C35.2456 59.1299 35.3926 59.1817 35.5914 59.2855C35.7817 59.3893 35.9979 59.5622 36.1795 59.813C36.361 60.0638 36.4994 60.3924 36.5599 60.7555C36.6205 61.1274 36.6032 61.5251 36.4994 61.9402C36.3956 62.3466 36.2054 62.7617 35.9027 63.1335C35.6087 63.5054 35.1764 63.8167 34.6662 63.9723C34.156 64.128 33.5939 64.0934 33.1097 63.9464C32.8676 63.8772 32.6341 63.7648 32.4179 63.661C32.1844 63.5572 31.9596 63.4189 31.7607 63.2459C31.5532 63.073 31.3716 62.8655 31.2332 62.632C31.0949 62.3985 30.9911 62.1391 30.9392 61.871C30.8268 61.3436 30.9133 60.8161 31.0862 60.3924C31.2592 59.96 31.5186 59.6141 31.8126 59.346C32.098 59.078 32.4179 58.905 32.7206 58.8099C33.0232 58.7061 33.2999 58.6889 33.5161 58.6975C33.7409 58.7148 33.8966 58.758 34.009 58.8013C34.0609 58.8186 34.1041 58.8359 34.1301 58.8531C34.156 58.8618 34.1733 58.8704 34.1733 58.8704C34.2338 58.905 34.2598 58.9742 34.2338 59.0434C34.2165 59.0866 34.1733 59.1126 34.1387 59.1126H34.1301C34.1301 59.1126 34.0782 59.1212 33.9831 59.1385C33.8879 59.1558 33.7496 59.1817 33.6026 59.2509C33.4469 59.3115 33.274 59.4066 33.101 59.5363C32.9281 59.666 32.7551 59.8476 32.6081 60.0551C32.4611 60.2713 32.3314 60.5221 32.2623 60.7901C32.1844 61.0582 32.1671 61.3436 32.219 61.6116C32.2709 61.8797 32.4006 62.1305 32.6081 62.3726C32.7119 62.4936 32.8416 62.6061 32.98 62.7185C33.1356 62.8309 33.2999 62.9001 33.4642 62.9606C33.7928 63.0816 34.1301 63.1249 34.45 63.0471C34.7613 62.9779 35.0553 62.8049 35.2888 62.5542C35.5223 62.312 35.6952 62.018 35.799 61.7154C35.9027 61.4127 35.946 61.1014 35.9287 60.8334C35.9114 60.5567 35.8336 60.3145 35.7298 60.1243C35.626 59.9341 35.4877 59.7957 35.358 59.7006C35.2283 59.6055 35.1072 59.5449 35.0294 59.519C34.9948 59.5017 34.9515 59.4844 34.9256 59.4757C34.8997 59.4671 34.891 59.4585 34.891 59.4585C34.7786 59.4152 34.7267 59.2942 34.7613 59.1817C34.7613 59.0953 34.8651 59.0434 34.9688 59.0607Z" fill="white"/>
</g>
<defs>
<clipPath id="clip0_1667_37413">
<rect width="73" height="73" fill="white"/>
</clipPath>
</defs>
</svg>
