<svg viewBox="0 0 73 73" fill="none" xmlns="http://www.w3.org/2000/svg">
<g clip-path="url(#clip0_1667_37470)">
<path d="M36.5 73C56.6584 73 73 56.6584 73 36.5C73 16.3416 56.6584 0 36.5 0C16.3416 0 0 16.3416 0 36.5C0 56.6584 16.3416 73 36.5 73Z" fill="#3E1C69"/>
<path fill-rule="evenodd" clip-rule="evenodd" d="M66.3237 35.7045C65.3985 34.8052 63.7296 33.6551 63.4096 33.6897L51.1738 34.909C50.6636 34.9608 50.188 35.3154 49.8681 35.6959H29.6768C29.0541 34.4161 27.2209 33.3006 28.1635 28.6829C28.3191 27.922 30.2388 27.9306 30.6712 26.4433C31.1468 24.809 29.3914 23.0709 31.3716 21.1426C36.3957 16.2309 40.1053 18.1333 45.2158 13.8789C46.34 12.945 46.9453 11.2847 47.1009 9.60713L68.2088 35.6872H66.3237V35.7045ZM49.8767 37.2869C50.1966 37.6761 50.6722 38.0306 51.1824 38.0825L63.4183 39.3018C63.7469 39.3363 65.4071 38.1863 66.3324 37.2869H68.2175L47.1009 63.367C46.9453 61.6895 46.34 60.0378 45.2158 59.1039C40.1053 54.8495 36.3957 56.7605 31.3716 51.8403C29.4 49.9119 31.1554 48.1652 30.6712 46.5395C30.2388 45.0608 28.3191 45.0695 28.1635 44.2999C27.2209 39.6822 29.0541 38.5667 29.6768 37.2869H49.8767ZM14.7084 35.7045H23.4248C22.7417 34.0529 20.8393 30.6286 21.9894 26.4693C23.7361 20.0962 30.1696 18.0987 31.6397 16.3952C32.0288 15.9456 32.9022 14.1729 33.4815 14.2939C33.9658 14.3891 34.0177 15.5651 34.8132 15.7294C37.8052 16.326 45.3974 13.4811 45.873 8.63864C45.9941 7.43668 44.8699 7.29832 44.3252 7.43668C42.3622 7.92092 41.5494 4.60903 44.4635 4.31502C46.1065 4.15072 47.0577 6.17418 47.1269 8.47434L47.1961 8.42246L69.9296 36.5087L47.1961 64.5863L47.1269 64.5344C47.0491 66.8346 46.1065 68.858 44.4635 68.6937C41.5581 68.3997 42.3622 65.0965 44.3252 65.5721C44.8699 65.7104 45.9941 65.5721 45.873 64.3701C45.3888 59.519 37.7965 56.6827 34.8132 57.2794C34.0177 57.435 33.9658 58.611 33.4815 58.7148C32.9022 58.8272 32.0288 57.0632 31.6397 56.6135C30.1696 54.91 23.7361 52.9039 21.9894 46.5395C20.8479 42.3802 22.7417 38.9559 23.4248 37.2956H14.7084C13.9215 37.8663 11.604 38.904 11.4051 39.2845C11.4051 39.2845 10.8517 39.172 9.91781 38.9213C8.98391 38.6792 4.7727 37.3648 3.06055 36.5C4.7727 35.6353 8.99255 34.3296 9.91781 34.0788C10.8517 33.8281 11.4051 33.7156 11.4051 33.7156C11.63 34.148 13.8955 35.056 14.7084 35.5748V35.7045ZM5.42989 36.5C7.76464 36.1542 10.1426 36.1023 11.483 36.1542C12.8233 36.206 13.9993 36.4482 13.9993 36.5C13.9993 36.5519 12.8319 36.7941 11.483 36.8546C10.134 36.9065 7.76464 36.8459 5.42989 36.5ZM23.4421 36.5C25.0591 36.2666 26.6935 36.2233 27.6274 36.2666C28.5613 36.3012 29.3654 36.4655 29.3654 36.5C29.3654 36.5346 28.5613 36.6989 27.6274 36.7422C26.7021 36.7768 25.0591 36.7422 23.4421 36.5ZM46.487 7.16861C45.8644 4.95492 44.1868 4.61768 43.815 5.24892C43.4345 5.88017 43.7285 6.63248 44.2733 6.75354C44.8181 6.88325 44.1782 5.6467 44.9737 5.85423C45.7693 6.06176 46.2362 6.62383 46.487 7.16861ZM26.9615 20.9177C32.5303 19.4563 33.5507 16.9141 33.2048 16.352C33.0146 16.0407 32.5476 16.3001 32.2709 16.6979C31.3457 18.0382 30.5588 19.0845 26.9615 20.9177ZM23.0962 26.72C24.3587 23.0795 28.691 22.5261 29.0196 23.9183C29.3482 25.3192 25.846 23.9702 23.0962 26.72ZM23.3729 29.9368C23.4161 27.6972 25.7509 26.0628 27.6619 26.1147C29.573 26.158 28.5007 27.2734 26.3994 27.749C24.3068 28.2073 23.3729 29.9368 23.3729 29.9368ZM26.9615 34.7447C23.2259 32.3667 24.1598 29.6168 25.5174 29.1931C26.8664 28.7781 27.0566 30.4989 25.9844 31.1561C24.9121 31.8046 25.8893 33.854 26.9615 34.7447ZM46.487 65.8315C45.8644 68.0538 44.1868 68.3824 43.815 67.7598C43.4345 67.1286 43.7285 66.3763 44.2733 66.2466C44.8181 66.1255 44.1782 67.362 44.9737 67.1459C45.7693 66.9383 46.2362 66.3763 46.487 65.8315ZM26.9615 52.0824C32.5303 53.5524 33.5507 56.086 33.2048 56.6568C33.0146 56.9681 32.5476 56.7086 32.2709 56.3109C31.3457 54.9706 30.5588 53.9156 26.9615 52.0824ZM23.0962 46.2801C24.3587 49.9206 28.691 50.474 29.0196 49.0818C29.3482 47.6809 25.846 49.0385 23.0962 46.2801ZM23.3729 43.0633C23.4161 45.3029 25.7509 46.9373 27.6619 46.8854C29.573 46.8421 28.5007 45.718 26.3994 45.2511C24.3068 44.7928 23.3729 43.0633 23.3729 43.0633ZM26.9615 38.2554C23.2259 40.6334 24.1598 43.3833 25.5174 43.807C26.8664 44.222 27.0566 42.5012 25.9844 41.844C24.9121 41.1955 25.8893 39.1461 26.9615 38.2554ZM50.7241 36.5C54.624 36.1542 58.5672 36.1023 60.8155 36.1542C63.0551 36.206 65.0007 36.4482 65.0007 36.5C65.0007 36.5519 63.0551 36.7941 60.8155 36.8546C58.5672 36.9065 54.624 36.8459 50.7241 36.5Z" fill="white"/>
<path d="M12.9368 20.1483C12.9368 20.1483 13.0146 20.1742 13.1443 20.2261C13.274 20.278 13.447 20.3644 13.6372 20.4769C13.8275 20.5893 14.0436 20.7363 14.2598 20.9092C14.3636 20.9957 14.476 21.0908 14.5798 21.1859C14.6835 21.281 14.7873 21.3848 14.8911 21.4886C14.9948 21.5923 15.09 21.7048 15.1851 21.8085C15.2802 21.9209 15.3667 22.0247 15.4445 22.1371C15.6088 22.3619 15.7471 22.5781 15.8596 22.777C15.972 22.9759 16.0498 23.1488 16.1017 23.2786C16.1276 23.3391 16.1449 23.3996 16.1622 23.4342C16.1709 23.4688 16.1795 23.4947 16.1795 23.4947C16.2055 23.5639 16.1622 23.6504 16.0844 23.6677C16.0584 23.6763 16.0239 23.6763 15.9979 23.6677C15.9979 23.6677 15.9806 23.659 15.9374 23.6504C15.9028 23.6331 15.8509 23.6244 15.7817 23.5899C15.652 23.538 15.4791 23.4601 15.2802 23.3477C15.0813 23.2353 14.8651 23.097 14.6403 22.9327C14.5279 22.8548 14.4155 22.7597 14.3117 22.6733C14.1993 22.5781 14.0955 22.483 13.9918 22.3792C13.888 22.2755 13.7842 22.1804 13.6891 22.0679C13.594 21.9642 13.4989 21.8518 13.4124 21.748C13.2394 21.5318 13.0924 21.3243 12.98 21.1254C12.8676 20.9352 12.7811 20.7622 12.7293 20.6325C12.6774 20.5028 12.6514 20.425 12.6514 20.425C12.6168 20.2953 12.686 20.1569 12.8157 20.1223C12.8503 20.131 12.8936 20.131 12.9368 20.1483Z" fill="white"/>
<path d="M22.9063 13.775C22.9063 13.775 22.7507 13.9912 22.4567 14.3544C22.3097 14.536 22.1367 14.7608 21.9292 15.003C21.7217 15.2537 21.4882 15.5304 21.2288 15.8331C20.7099 16.4298 20.0873 17.1215 19.4042 17.8393C19.067 18.2024 18.7124 18.5656 18.3492 18.9375C17.9861 19.3093 17.6142 19.6811 17.2337 20.0529C16.8533 20.4248 16.4814 20.788 16.101 21.1511C15.7205 21.5057 15.3486 21.8602 14.9855 22.1975C14.2591 22.8719 13.5587 23.4859 12.962 23.9961C12.6594 24.2555 12.374 24.489 12.1319 24.6879C11.8811 24.8954 11.6649 25.0683 11.4833 25.2153C11.3017 25.3624 11.1547 25.4661 11.0596 25.5439C10.9558 25.6218 10.904 25.6564 10.904 25.6564C10.8521 25.6996 10.7743 25.6823 10.731 25.6304C10.6964 25.5872 10.6964 25.5267 10.731 25.4834C10.731 25.4834 10.7743 25.4315 10.8434 25.3278C10.9213 25.2326 11.025 25.077 11.172 24.904C11.319 24.7225 11.492 24.4976 11.6995 24.2555C11.907 24.0047 12.1405 23.7194 12.3999 23.4254C12.9188 22.8201 13.5327 22.1283 14.1986 21.4019C14.5358 21.0387 14.8817 20.6669 15.2449 20.2864C15.5994 19.9059 15.9712 19.5341 16.3431 19.1536C16.7149 18.7818 17.0867 18.4013 17.4586 18.0381C17.8304 17.675 18.2022 17.3204 18.5568 16.9832C19.2745 16.3 19.9663 15.6861 20.5629 15.1586C20.8656 14.8992 21.1423 14.6657 21.3931 14.4582C21.6352 14.2506 21.86 14.0691 22.0416 13.9307C22.4048 13.6367 22.621 13.481 22.621 13.481C22.7161 13.4119 22.8545 13.4292 22.9236 13.5243C22.9582 13.5935 22.9582 13.6972 22.9063 13.775Z" fill="white"/>
<path d="M22.6985 17.995C22.6466 17.8134 22.612 17.6318 22.5774 17.4502C22.5429 17.2687 22.5083 17.0871 22.4823 16.9055C22.4304 16.5423 22.3872 16.1791 22.3526 15.8073C22.318 15.4441 22.3007 15.0809 22.2834 14.7091C22.2748 14.5275 22.2748 14.3459 22.2661 14.1643C22.2661 13.9827 22.2661 13.8011 22.2661 13.6195L22.906 14.2594H22.759H22.612L22.318 14.2508L21.7387 14.2248C21.3495 14.1989 20.9604 14.1729 20.5713 14.1297C20.1822 14.0865 19.793 14.0346 19.4039 13.9741C19.2137 13.9395 19.0148 13.9049 18.8245 13.8616C18.6343 13.8184 18.4354 13.7752 18.2452 13.7233C18.176 13.706 18.1414 13.6368 18.1587 13.5676C18.1674 13.5244 18.2106 13.4898 18.2452 13.4812C18.4354 13.4293 18.6343 13.386 18.8245 13.3515C19.0148 13.3082 19.2137 13.2823 19.4039 13.2477C19.793 13.1872 20.1822 13.1439 20.5713 13.1093C20.9604 13.0747 21.3495 13.0488 21.7387 13.0315L22.318 13.0142L22.8974 13.0056C23.2433 12.9969 23.5286 13.2823 23.5373 13.6282V13.6368V13.6455C23.5373 13.8271 23.5373 14.0086 23.5373 14.1902C23.5286 14.3718 23.5286 14.5534 23.52 14.735C23.5113 15.0982 23.4854 15.4614 23.4508 15.8332C23.4162 16.1964 23.3816 16.5596 23.3211 16.9314C23.2952 17.113 23.2606 17.2946 23.226 17.4762C23.1914 17.6578 23.1568 17.8394 23.1049 18.021C23.0703 18.142 22.9493 18.2112 22.8369 18.1766C22.7763 18.1334 22.7158 18.0728 22.6985 17.995Z" fill="white"/>
</g>
<defs>
<clipPath id="clip0_1667_37470">
<rect width="73" height="73" fill="white"/>
</clipPath>
</defs>
</svg>
