<svg xmlns="http://www.w3.org/2000/svg" version="1.0" viewBox="0 0 1024.000000 1024.000000" preserveAspectRatio="xMidYMid meet">
<rect width="700" height="60%" fill="white"  x="150" y="150"/>
<g transform="translate(0.000000,1024.000000) scale(0.100000,-0.100000)" fill="#000000" stroke="none">

<path d="M4925 10229 c-1035 -34 -2062 -403 -2905 -1045 -1033 -786 -1730 -1943 -1944 -3227 -56 -332 -77 -667 -64 -1042 33 -1037 402 -2062 1044 -2905 786 -1033 1943 -1730 3227 -1944 318 -54 416 -61 842 -61 426 0 524 7 842 61 823 137 1597 472 2263 980 1033 786 1730 1943 1944 3227 54 318 61 416 61 842 0 426 -7 524 -61 842 -137 823 -472 1597 -980 2263 -786 1033 -1943 1730 -3227 1944 -331 56 -667 77 -1042 65z m-260 -1927 c175 -68 293 -245 421 -632 l58 -175 58 175 c83 247 169 419 253 508 109 116 232 164 360 141 120 -21 214 -97 255 -205 28 -75 29 -128 2 -181 -19 -36 -64 -83 -81 -83 -3 0 -6 37 -6 83 -1 103 -24 154 -92 198 -40 24 -57 29 -112 29 -238 0 -386 -258 -536 -935 -72 -326 -88 -385 -105 -385 -13 0 -48 127 -80 285 -129 632 -253 921 -435 1011 -63 30 -149 35 -207 11 -85 -36 -143 -180 -108 -271 7 -20 6 -26 -4 -26 -27 0 -73 50 -96 102 -20 46 -21 58 -11 101 16 68 60 154 94 183 44 37 124 75 176 84 58 10 144 2 196 -18z m-945 -1195 c142 -34 251 -75 362 -138 190 -106 330 -211 454 -340 65 -69 182 -210 201 -244 7 -12 22 -10 100 15 192 62 356 65 546 11 59 -17 111 -31 115 -31 5 0 43 44 85 98 118 151 273 297 411 387 212 138 357 201 570 247 139 30 457 33 586 4 144 -31 262 -73 406 -146 372 -186 668 -517 832 -928 69 -173 108 -334 129 -530 15 -140 15 -183 5 -305 -30 -355 -169 -672 -397 -903 -196 -198 -399 -298 -635 -311 -176 -9 -345 43 -467 146 -52 43 -123 130 -123 150 0 3 60 6 133 6 154 1 215 14 354 80 117 55 170 92 262 179 191 184 282 414 268 681 -13 245 -120 460 -302 608 -135 109 -282 153 -480 144 -145 -7 -250 -32 -363 -87 -88 -44 -182 -126 -182 -160 0 -35 -14 -21 -39 38 -37 88 -77 146 -142 206 -65 60 -159 110 -229 121 -51 8 -49 5 32 -49 94 -62 197 -179 250 -281 25 -49 56 -119 69 -155 12 -36 24 -67 26 -69 1 -2 22 14 45 35 152 140 314 203 543 211 158 6 226 -6 330 -57 105 -51 255 -196 255 -245 0 -44 -147 -197 -271 -282 -229 -157 -546 -207 -777 -121 -29 11 -55 18 -58 15 -2 -2 -11 -44 -19 -93 -105 -650 -448 -1491 -796 -1954 -119 -158 -261 -293 -367 -348 -202 -105 -428 -108 -637 -7 -201 97 -440 393 -668 825 -244 463 -461 1118 -512 1543 -6 48 -11 58 -24 54 -9 -3 -56 -17 -106 -33 -79 -25 -106 -28 -220 -28 -105 0 -147 4 -215 23 -178 48 -360 158 -488 296 -34 36 -62 74 -62 83 0 45 120 180 215 242 97 63 169 82 325 88 116 4 148 1 220 -17 141 -35 267 -105 373 -204 39 -36 50 -42 54 -28 55 150 138 299 213 384 49 54 153 147 196 174 44 28 -54 0 -135 -39 -101 -48 -200 -142 -246 -234 -57 -113 -53 -110 -85 -65 -160 220 -591 291 -885 146 -264 -130 -438 -424 -437 -740 1 -308 139 -563 397 -731 170 -110 292 -148 488 -149 163 0 166 -3 82 -93 -77 -84 -146 -127 -266 -169 -100 -35 -110 -37 -239 -37 -110 0 -149 4 -213 22 -345 99 -643 413 -780 823 -49 144 -67 250 -74 415 -13 312 48 601 188 894 231 481 637 824 1124 945 155 39 206 44 405 40 154 -3 203 -8 290 -28z"  fill="#3E1C69"/>
<path d="M2803 6900 c-83 -50 -144 -202 -145 -357 0 -57 7 -114 17 -149 35 -122 111 -236 179 -268 62 -29 68 -21 27 42 -69 105 -99 204 -108 352 -6 114 7 202 50 330 13 39 21 70 18 70 -3 0 -20 -9 -38 -20z" fill="#3E1C69"/>
<path d="M7405 6903 c4 -10 19 -54 33 -98 23 -72 26 -96 26 -245 1 -155 -1 -170 -27 -245 -16 -44 -44 -106 -63 -139 -19 -32 -33 -61 -31 -63 3 -2 16 -1 30 2 63 16 146 127 189 254 18 54 22 86 22 176 -1 118 -18 184 -69 270 -38 66 -132 140 -110 88z" fill="#3E1C69"/>
<path d="M3790 6858 c-130 -46 -311 -209 -383 -346 -62 -118 -95 -304 -66 -379 13 -35 14 -34 78 135 63 168 97 230 174 322 106 127 265 236 370 256 55 10 32 25 -45 30 -48 4 -78 -1 -128 -18z" fill="#3E1C69"/>
<path d="M6278 6868 c-47 -12 -49 -23 -5 -24 38 0 158 -59 226 -109 84 -61 185 -172 231 -253 25 -43 70 -144 100 -225 30 -81 57 -147 61 -147 18 0 30 108 19 173 -27 170 -84 281 -210 407 -153 154 -293 212 -422 178z" fill="#3E1C69"/>
<path d="M1956 6068 c-11 -41 -6 -125 9 -167 33 -95 97 -141 249 -181 90 -23 126 -24 175 -6 l34 12 -41 12 c-22 7 -96 39 -164 71 -150 70 -204 122 -232 220 -9 34 -19 61 -20 61 -2 0 -6 -10 -10 -22z" fill="#3E1C69"/>
<path d="M8241 6027 c-27 -81 -91 -151 -173 -190 -138 -66 -213 -99 -239 -104 -38 -7 -37 -19 2 -27 72 -14 177 5 304 54 40 15 92 66 117 115 24 45 35 156 20 195 -8 22 -11 18 -31 -43z" fill="#3E1C69"/>
<path d="M2953 5510 c-69 -13 -158 -44 -157 -56 1 -14 93 -81 167 -120 162 -85 323 -112 472 -79 44 9 90 22 102 28 l24 11 -38 39 c-56 59 -177 134 -252 158 -76 24 -237 33 -318 19z" fill="#3E1C69"/>
<path d="M7052 5505 c-35 -8 -100 -32 -145 -54 -85 -41 -211 -137 -201 -152 3 -5 37 -19 77 -31 95 -30 264 -32 347 -4 113 38 259 126 319 189 l23 26 -42 11 c-121 33 -269 38 -378 15z" fill="#3E1C69"/>
<path d="M4150 5191 c-146 -31 -263 -196 -244 -342 l7 -51 32 70 c39 83 104 158 160 183 50 23 164 25 204 4 69 -35 136 -152 147 -255 5 -46 -18 -152 -50 -222 -16 -36 -16 -38 3 -38 10 0 33 14 50 32 27 28 33 30 45 18 19 -21 57 -141 115 -370 61 -238 76 -282 86 -257 14 35 -3 300 -29 452 -57 326 -109 488 -195 612 -91 129 -213 189 -331 164z" fill="#3E1C69"/>
<path d="M5970 5187 c-105 -29 -197 -120 -265 -261 -95 -198 -175 -598 -175 -875 1 -68 4 -100 10 -90 9 16 41 124 115 394 26 94 56 189 67 212 l20 42 34 -35 c19 -18 43 -34 54 -34 18 0 18 2 -5 52 -36 79 -51 176 -36 243 23 101 85 194 148 221 49 21 149 18 200 -7 56 -27 129 -109 163 -183 l27 -59 6 39 c12 68 8 113 -14 159 -30 63 -100 139 -152 163 -57 27 -141 35 -197 19z" fill="#3E1C69"/>
<path d="M4155 4962 c-72 -34 -105 -87 -105 -166 0 -188 206 -268 301 -117 23 36 29 56 29 100 0 67 -36 151 -74 176 -40 26 -104 29 -151 7z m191 -97 c15 -23 15 -27 0 -50 -22 -33 -44 -32 -52 3 -3 15 -9 37 -14 50 -9 20 -7 22 20 22 20 0 35 -8 46 -25z" fill="#3E1C69"/>
<path d="M5980 4969 c-98 -27 -154 -191 -99 -289 64 -113 227 -102 289 20 78 153 -33 311 -190 269z m-15 -96 c-4 -10 -11 -33 -17 -50 -14 -50 -58 -37 -58 17 0 34 17 50 53 50 24 0 28 -3 22 -17z" fill="#3E1C69"/>
<path d="M1863 4883 c-7 -3 -13 -9 -13 -13 0 -18 64 -81 107 -107 40 -23 52 -25 121 -21 61 4 89 11 132 34 48 26 120 97 109 108 -4 4 -30 0 -159 -29 -78 -17 -145 -14 -204 10 -42 17 -78 24 -93 18z" fill="#3E1C69"/>
<path d="M7947 4848 c37 -63 147 -118 237 -118 23 0 60 9 83 19 45 21 123 95 123 117 0 20 -50 17 -110 -6 -60 -24 -139 -26 -219 -6 -31 8 -73 17 -95 21 l-39 6 20 -33z" fill="#3E1C69"/>
<path d="M2742 4256 c-12 -31 -82 -105 -162 -169 l-35 -28 48 4 c83 8 154 86 173 190 8 46 -8 49 -24 3z" fill="#3E1C69"/>
<path d="M7474 4250 c16 -108 99 -195 179 -188 l36 3 -66 50 c-41 31 -84 76 -111 115 l-45 65 7 -45z" fill="#3E1C69"/>
<path d="M4707 3642 c-25 -27 -38 -71 -28 -91 13 -23 315 -209 367 -225 16 -5 23 -19 32 -69 6 -34 14 -74 17 -89 6 -23 2 -33 -24 -57 -72 -68 -242 -49 -385 43 -31 20 -58 36 -61 36 -2 0 1 -15 7 -32 30 -84 191 -188 345 -222 201 -45 430 10 566 134 50 46 96 115 84 127 -3 2 -29 -11 -59 -31 -77 -51 -171 -87 -248 -93 -77 -7 -127 6 -160 42 -23 24 -23 25 -7 76 10 28 17 68 17 88 0 35 3 39 48 59 50 23 295 173 325 199 42 38 2 123 -58 123 -60 0 -262 -155 -344 -265 -22 -28 -23 -29 -34 -10 -24 43 -117 132 -211 202 -81 60 -106 73 -136 73 -22 0 -43 -7 -53 -18z" fill="#3E1C69"/>
</g>
</svg>