<svg viewBox="0 0 73 73" fill="none" xmlns="http://www.w3.org/2000/svg">
<g clip-path="url(#clip0_1667_37436)">
<path d="M36.5 73C56.6584 73 73 56.6584 73 36.5C73 16.3416 56.6584 0 36.5 0C16.3416 0 0 16.3416 0 36.5C0 56.6584 16.3416 73 36.5 73Z" fill="#3E1C69"/>
<path fill-rule="evenodd" clip-rule="evenodd" d="M36.4998 61.3002C28.8297 61.3002 23.7105 45.8216 22.9409 37.9181C20.9521 38.0824 18.9286 37.8835 17.13 37.183C15.1671 36.4134 12.7285 35.1769 12.9101 34.4851C13.3338 32.8594 18.4184 29.2881 23.6759 32.8335L23.7019 32.7902C22.1194 29.6167 18.8854 28.285 16.222 29.487C10.8694 31.8909 8.84592 40.0453 13.9305 44.0922C18.1417 47.4387 20.7186 45.2336 21.8946 45.6487C20.8137 47.9661 15.4957 50.6295 9.71065 44.8791C2.37779 37.5895 8.30115 19.7934 21.4622 20.0529C24.8779 20.1134 28.3282 21.2808 30.8186 23.2091C31.7784 23.9441 32.7815 25.0855 33.6116 26.3999C34.5974 26.1665 35.5745 26.0281 36.4911 26.0281C37.4078 26.0281 38.3849 26.1665 39.3707 26.3999C40.2008 25.0942 41.2039 23.9528 42.1637 23.2091C44.6628 21.2894 48.113 20.122 51.5287 20.0529C64.6898 19.7934 70.6045 37.5895 63.2803 44.8791C57.4953 50.6295 52.1859 47.9748 51.0963 45.6487C52.281 45.2336 54.8579 47.4387 59.0691 44.0922C64.1537 40.0539 62.1389 31.8909 56.7776 29.487C54.1142 28.285 50.8802 29.6167 49.2977 32.7902L49.3237 32.8335C54.5898 29.2881 59.6744 32.8594 60.0981 34.4851C60.2797 35.1769 57.8412 36.4221 55.8696 37.183C54.071 37.8835 52.0475 38.0824 50.0587 37.9181C49.2891 45.8216 44.1785 61.3002 36.4998 61.3002ZM45.6572 41.5499C45.5189 40.4085 44.4812 39.587 43.3311 39.734C40.3738 40.0972 40.3219 47.4041 39.7079 49.5054C39.1891 46.7728 39.8376 40.7716 42.5442 39.0854C44.3342 37.9699 47.0667 38.6963 47.3607 41.0829C47.551 42.6567 46.4268 44.0835 44.8617 44.2738C44.0834 44.3689 43.3398 44.1441 42.7604 43.7031C43.089 43.8501 43.4608 43.9106 43.8413 43.8587C44.9741 43.7376 45.7956 42.7 45.6572 41.5499ZM27.3424 41.5499C27.4807 40.4085 28.5184 39.587 29.6598 39.734C32.6258 40.0972 32.6691 47.4041 33.2917 49.5054C33.8105 46.7728 33.162 40.7716 30.4554 39.0854C28.6654 37.9699 25.9329 38.6963 25.6389 41.0829C25.4486 42.6567 26.5728 44.0835 28.1379 44.2738C28.9162 44.3689 29.6598 44.1441 30.2392 43.7031C29.9106 43.8501 29.5388 43.9106 29.1583 43.8587C28.0169 43.7376 27.204 42.7 27.3424 41.5499ZM16.0318 21.4883C14.5617 23.5982 14.7606 27.0225 16.1701 29.0287C16.1701 29.0287 15.34 24.5581 16.0318 21.4883ZM11.5266 33.1361C10.437 32.0293 9.3907 31.2251 8.18009 30.2825C8.87187 31.8045 9.90089 32.6605 11.5266 33.1361ZM10.7137 39.4573C9.77983 39.5697 8.37033 39.8637 7.5056 40.175C7.5056 40.175 9.01022 40.6852 10.7137 39.4573ZM14.9941 45.3979C14.7001 46.0205 14.1899 46.7728 14.0083 47.3954C14.4926 47.2138 15.0287 46.4356 14.9941 45.3979ZM27.8612 23.4339C24.6271 23.6155 21.9551 26.4691 21.9551 29.5043C23.062 27.7143 23.4425 26.1578 27.8612 23.4339ZM56.9678 21.4883C58.4378 23.5982 58.239 27.0225 56.8381 29.0287C56.8295 29.0287 57.6596 24.5581 56.9678 21.4883ZM61.473 33.1361C62.5626 32.0293 63.6089 31.2251 64.8195 30.2825C64.1277 31.8045 63.0987 32.6605 61.473 33.1361ZM62.2859 39.4573C63.2111 39.5697 64.6293 39.8637 65.494 40.175C65.494 40.175 63.9894 40.6852 62.2859 39.4573ZM58.0055 45.3979C58.2995 46.0205 58.8097 46.7728 58.9913 47.3954C58.4984 47.2138 57.9709 46.4356 58.0055 45.3979ZM45.1297 23.4339C48.3638 23.6155 51.0358 26.4691 51.0358 29.5043C49.9376 27.7143 49.5571 26.1578 45.1297 23.4339ZM28.38 41.6796C28.4492 41.1089 28.9681 40.7025 29.5388 40.7716C30.1095 40.8408 30.5159 41.3597 30.4467 41.9304C30.3776 42.5011 29.8587 42.9075 29.288 42.847C28.7173 42.7692 28.3109 42.2503 28.38 41.6796ZM44.6196 41.6796C44.5504 41.1089 44.0315 40.7025 43.4608 40.7716C42.8901 40.8408 42.4837 41.3597 42.5442 41.9304C42.6134 42.5011 43.1322 42.9075 43.7116 42.847C44.2823 42.7692 44.6887 42.2503 44.6196 41.6796ZM36.4998 53.656C34.7012 53.656 33.2052 52.5838 32.8766 51.892C32.7901 53.4917 34.4158 53.4571 34.8395 54.3046C35.1595 54.9445 35.9464 55.005 36.3182 54.9964C36.3787 55.74 36.3269 56.5701 36.1712 56.942C34.7531 56.8728 32.6258 56.3713 31.6919 54.7542C32.7123 57.063 35.1249 57.6424 36.5171 57.6424C37.9093 57.6424 40.3219 57.063 41.3509 54.7542C40.4083 56.3713 38.2898 56.8728 36.8716 56.942C36.716 56.5701 36.6554 55.74 36.7246 54.9964C37.0878 55.005 37.8747 54.9531 38.2033 54.3046C38.627 53.4571 40.2441 53.4917 40.1576 51.892C39.7944 52.5924 38.2984 53.656 36.4998 53.656ZM22.6037 36.0502C20.5716 34.0095 15.8848 34.2084 15.7637 34.9175C15.6513 35.566 19.3696 36.8026 22.6037 36.0502ZM50.3873 36.0502C52.4194 34.0095 57.1062 34.2084 57.2272 34.9175C57.3396 35.566 53.63 36.8026 50.3873 36.0502Z" fill="white"/>
<path d="M36.3104 22.1976C36.3104 22.1976 36.3018 22.1197 36.2845 21.9814C36.2672 21.8344 36.2326 21.6442 36.198 21.3847C36.1634 21.1253 36.1115 20.814 36.051 20.4595C35.9905 20.1049 35.9126 19.7072 35.8262 19.2662C35.7397 18.8338 35.6359 18.3582 35.5149 17.874C35.3938 17.3811 35.2641 16.8622 35.1171 16.3347C34.9701 15.8073 34.7972 15.2711 34.6069 14.735C34.408 14.1989 34.2005 13.6627 33.9411 13.1612C33.6903 12.6597 33.4049 12.1754 33.0764 11.7776C32.7478 11.3712 32.3673 11.0686 31.9695 10.9043C31.9176 10.887 31.8657 10.8697 31.8139 10.8524L31.736 10.8265H31.7274C31.762 10.8351 31.736 10.8265 31.736 10.8265H31.7274L31.7014 10.8178L31.6496 10.8092C31.5804 10.7919 31.5199 10.7832 31.4507 10.7659C31.3988 10.7573 31.3383 10.7486 31.2864 10.74C31.0615 10.714 30.8281 10.714 30.6205 10.7313C30.1968 10.7746 29.825 10.9389 29.5396 11.181C29.2543 11.4231 29.0467 11.7258 28.9343 12.0284C28.8133 12.3311 28.77 12.6164 28.7787 12.8499C28.7873 13.0834 28.8392 13.265 28.8911 13.3687C28.943 13.4812 28.9862 13.533 28.9862 13.533C29.0381 13.5849 29.0381 13.6627 28.9862 13.706C28.9343 13.7579 28.8565 13.7579 28.8133 13.706C28.8133 13.706 28.796 13.6887 28.77 13.6627C28.7354 13.6368 28.6922 13.5936 28.6403 13.533C28.5452 13.4033 28.4155 13.1958 28.355 12.9104C28.2858 12.6251 28.2598 12.2619 28.355 11.8555C28.4414 11.4577 28.623 10.9994 28.9862 10.6016C29.3407 10.2039 29.8682 9.8839 30.4649 9.7542C30.7589 9.68502 31.0702 9.66772 31.3815 9.67637C31.4593 9.68502 31.5458 9.68502 31.6236 9.69367C31.6928 9.70231 31.762 9.71096 31.8312 9.71961L31.883 9.72825H31.909H31.9176H31.9436H31.9609L32.0906 9.7542C32.177 9.77149 32.2635 9.78878 32.3413 9.81473C32.6699 9.92714 32.9899 10.0741 33.2666 10.2817C33.3358 10.3249 33.4049 10.3768 33.4655 10.4373L33.6644 10.6016C33.7854 10.714 33.9065 10.8351 34.0103 10.9562C34.4513 11.4491 34.7972 12.0025 35.0912 12.5645C35.3765 13.1353 35.6186 13.7146 35.8175 14.294C36.0164 14.8734 36.1721 15.4527 36.3018 16.0148C36.4315 16.5769 36.5352 17.1216 36.6131 17.6491C36.6909 18.168 36.7428 18.6609 36.7774 19.1192C36.7947 19.344 36.8033 19.5688 36.8206 19.7763C36.8293 19.9839 36.8379 20.1828 36.8379 20.373C36.8465 20.7448 36.8379 21.0734 36.8293 21.3415C36.8206 21.6096 36.8033 21.8257 36.786 21.9641C36.7687 22.1025 36.7601 22.1803 36.7601 22.1803C36.7428 22.3013 36.639 22.3792 36.5266 22.3705C36.3969 22.3705 36.3277 22.2927 36.3104 22.1976Z" fill="white"/>
<path d="M36.2591 22.1977C36.2591 22.1977 36.2504 22.1198 36.2331 21.9815C36.2158 21.8431 36.1985 21.627 36.1899 21.3589C36.1812 21.0908 36.1639 20.7622 36.1812 20.3904C36.1812 20.2002 36.1899 20.0099 36.1985 19.7937C36.2072 19.5862 36.2245 19.3614 36.2418 19.1365C36.2763 18.6782 36.3282 18.1854 36.4061 17.6665C36.4839 17.1477 36.579 16.5943 36.7174 16.0322C36.8471 15.4701 37.0027 14.8908 37.2016 14.3114C37.4005 13.732 37.634 13.1527 37.928 12.5819C38.222 12.0199 38.5679 11.4664 39.0089 10.9736C39.1126 10.8525 39.2424 10.7314 39.3548 10.619L39.5537 10.4547C39.6142 10.4028 39.6834 10.351 39.7525 10.2991C40.0293 10.0915 40.3492 9.94453 40.6778 9.83212C40.7643 9.80617 40.8507 9.78888 40.9286 9.77159L41.0583 9.74564H41.0756H41.1015H41.1102H41.1361L41.188 9.737C41.2572 9.72835 41.3263 9.7197 41.3955 9.71105C41.4733 9.70241 41.5598 9.70241 41.6376 9.69376C41.9576 9.68511 42.2602 9.71105 42.5542 9.77159C43.1509 9.90129 43.6784 10.2212 44.0329 10.619C44.3875 11.0168 44.5777 11.4664 44.6642 11.8729C44.7506 12.2793 44.7247 12.6425 44.6642 12.9278C44.6036 13.2132 44.4739 13.4207 44.3788 13.5504C44.3269 13.611 44.2837 13.6542 44.2491 13.6801C44.2145 13.7061 44.2059 13.7234 44.2059 13.7234C44.154 13.7753 44.0762 13.7753 44.0329 13.7234C43.981 13.6715 43.981 13.5937 44.0329 13.5504C44.0329 13.5504 44.0762 13.4985 44.128 13.3861C44.1799 13.2737 44.2318 13.1008 44.2318 12.8673C44.2405 12.6338 44.1972 12.3485 44.0762 12.0458C43.9637 11.7432 43.7562 11.4405 43.4709 11.1984C43.1855 10.9563 42.8137 10.8006 42.3899 10.7487C42.1824 10.7314 41.9489 10.7314 41.7241 10.7574C41.6722 10.766 41.6203 10.7747 41.5598 10.7833C41.4906 10.8006 41.4301 10.8093 41.3609 10.8265L41.309 10.8352L41.2831 10.8438H41.2745C41.2831 10.8438 41.2485 10.8438 41.2831 10.8438H41.2745L41.1966 10.8698C41.1447 10.8871 41.0929 10.8957 41.041 10.9217C40.6432 11.0946 40.2627 11.3886 39.9341 11.795C39.6055 12.2015 39.3202 12.6771 39.0694 13.1786C38.8186 13.6801 38.6025 14.2163 38.4036 14.7524C38.2133 15.2885 38.0404 15.8247 37.8934 16.3521C37.7377 16.8796 37.608 17.3985 37.4956 17.8913C37.3745 18.3842 37.2708 18.8512 37.1843 19.2835C37.0978 19.7159 37.02 20.1223 36.9595 20.4769C36.8989 20.8314 36.8471 21.1427 36.8125 21.4021C36.7779 21.6615 36.7433 21.8518 36.726 21.9988C36.7087 22.1371 36.7001 22.215 36.7001 22.215C36.6828 22.336 36.579 22.4138 36.4579 22.3966C36.3455 22.3706 36.2763 22.2928 36.2591 22.1977Z" fill="white"/>
</g>
<defs>
<clipPath id="clip0_1667_37436">
<rect width="73" height="73" fill="white"/>
</clipPath>
</defs>
</svg>
