<svg viewBox="0 0 73 73" fill="none" xmlns="http://www.w3.org/2000/svg">
<g clip-path="url(#clip0_1667_37512)">
<path d="M36.5 73C56.6584 73 73 56.6584 73 36.5C73 16.3416 56.6584 0 36.5 0C16.3416 0 0 16.3416 0 36.5C0 56.6584 16.3416 73 36.5 73Z" fill="#3E1C69"/>
<path fill-rule="evenodd" clip-rule="evenodd" d="M53.4911 21.9122C53.4911 23.7714 55.013 27.8788 55.013 27.8788C55.013 27.8788 52.8685 26.1061 53.4911 21.9122ZM19.5075 21.9122C19.5075 23.7714 17.9855 27.8788 17.9855 27.8788C17.9855 27.8788 20.1301 26.1061 19.5075 21.9122ZM30.2819 31.5279C30.3857 31.1042 30.8094 30.8448 31.2245 30.9486C31.6482 31.0523 31.9076 31.4761 31.8038 31.8911C31.7865 31.9517 31.7606 32.0208 31.7347 32.0727C31.8644 31.943 31.9595 31.7701 32.0114 31.5798C32.1411 31.0178 31.7952 30.4557 31.2331 30.3173C30.671 30.1876 30.1003 30.5335 29.9706 31.0956C29.8582 31.5625 30.0744 32.0295 30.4808 32.2543C30.2992 32.0727 30.2127 31.8047 30.2819 31.5279ZM42.7166 31.5279C42.6129 31.1042 42.1892 30.8448 41.7741 30.9486C41.3504 31.0523 41.091 31.4761 41.1947 31.8911C41.212 31.9517 41.238 32.0208 41.2639 32.0727C41.1342 31.943 41.0304 31.7701 40.9872 31.5798C40.8488 31.0178 41.2034 30.4557 41.7654 30.3173C42.3275 30.1876 42.8982 30.5335 43.0366 31.0956C43.149 31.5625 42.9328 32.0295 42.5264 32.2543C42.6993 32.0727 42.7858 31.8047 42.7166 31.5279ZM29.0972 52.8174C28.8292 52.6013 28.5611 52.3764 28.3103 52.143C25.2579 52.2467 23.1912 51.5463 22.2227 51.1745C21.9633 51.0707 21.7817 50.8632 21.6606 50.6124C20.891 50.6902 19.9571 50.6902 19.2134 50.6124C18.1325 50.5 17.2073 50.2406 16.7749 49.912C16.429 50.3097 15.7459 50.7075 14.6391 51.0448C13.3333 51.4425 11.7336 51.97 10.8256 52.0046C11.085 52.3246 11.4309 55.9132 12.0276 56.5876C12.6243 57.2621 12.7626 57.3832 12.7626 57.3832C10.8343 56.8644 9.63231 53.5784 10.082 51.8317C10.0906 51.7971 10.0993 51.7711 10.1079 51.7538C9.90902 51.529 10.5143 50.8026 11.8114 50.1109C12.9961 49.4796 15.988 48.7878 16.8182 49.0127C17.2678 48.7273 18.1671 48.6322 19.2221 48.8051C19.9312 48.9175 20.8305 49.0905 21.5914 49.298C21.7125 48.9089 21.9719 48.6927 22.3005 48.9262C22.7675 49.2461 24.5315 49.8342 26.5722 50.2579C26.1226 49.6871 25.7162 49.0818 25.353 48.4765C23.4852 48.5976 20.6057 48.0442 19.8879 47.7502C19.6545 47.6637 19.5247 47.4735 19.4556 47.2573C18.3747 47.2227 16.3339 46.7038 15.7373 46.2715C15.3654 46.0034 14.8985 45.7354 14.5266 45.4846C13.7484 45.5884 10.8689 44.2048 9.83119 43.2968C9.18265 42.7261 8.75893 42.1986 8.58599 41.8268C8.52546 41.8355 8.45628 41.8182 8.37846 41.749C6.95166 40.6421 5.8967 37.3043 7.10731 35.7132C7.10731 35.7132 7.06408 35.9034 7.00354 36.7941C6.94301 37.6848 8.87135 40.7459 8.85405 41.1523C9.58042 41.0918 11.3877 42.19 12.8058 43.0028C13.6014 43.4611 14.1375 43.9021 14.4402 44.2913C14.959 44.1875 15.7978 44.3432 16.723 44.7755C17.5705 45.1733 18.7292 45.7613 19.4556 46.2801C19.5247 45.8478 19.6631 45.4932 19.6631 45.4932C19.6631 45.4932 22.2832 46.4185 24.151 46.505C24.2116 46.505 24.2807 46.5136 24.3413 46.5223C23.9867 45.7527 23.6927 45.0003 23.4765 44.2913C21.6001 44.2999 18.6773 43.513 17.9596 43.1671C17.6829 43.0374 17.5705 42.7694 17.5445 42.4754C16.5242 42.1813 14.6218 41.1264 14.1462 40.547C13.8089 40.1406 13.3506 39.6996 13.048 39.3278C12.3908 39.2067 10.5662 36.3185 10.1511 34.9436C9.9609 34.3124 9.87443 33.7676 9.86578 33.3612C9.85713 33.3525 9.84849 33.3439 9.83984 33.3266C8.74164 31.8911 8.57734 28.389 10.1511 27.1611C10.1511 27.1611 10.0647 27.334 9.77931 28.1815C9.52854 28.9251 10.3327 31.6663 10.4451 32.5916C11.0937 32.9115 12.0362 34.8139 12.8145 36.2753C13.2641 37.1314 13.4803 37.8058 13.5149 38.3074C14.0338 38.3852 14.7428 38.7484 15.4605 39.3537C16.161 39.9417 17.0949 40.7891 17.6742 41.4636C17.7694 41.1437 17.8731 40.9016 17.8731 40.9016C17.8731 40.9016 20.4241 42.017 22.2746 42.2419C22.534 42.2678 22.7675 42.3197 23.0009 42.3889C22.9404 41.9911 22.9058 41.6279 22.9058 41.308C22.9058 40.8583 23.0182 40.4 23.2258 39.9417C23.1393 39.9158 23.0528 39.8898 22.975 39.8639C20.5451 39.077 18.2104 38.1777 18.1931 37.3994C18.1931 37.3216 18.2017 37.2438 18.219 37.1659C17.7607 37.0535 17.2678 36.8979 16.7576 36.699C13.9213 35.5662 14.6218 29.4613 15.5989 28.9684C15.7286 28.8992 16.1869 28.9165 16.7576 28.9857C16.282 26.3223 18.2795 21.0734 18.2795 21.0734L19.421 21.0821C19.421 21.0821 21.1937 19.0154 24.6526 18.5744C28.1201 18.1334 31.6482 20.4162 31.6482 20.4162C31.6482 20.4162 28.5438 19.7591 26.5809 20.2606C24.618 20.7535 22.1362 22.7251 22.8626 23.5033C23.5889 24.2816 24.8082 22.898 26.5895 22.0938C28.3795 21.2896 30.5586 21.8949 30.5586 21.8949C30.5586 21.8949 24.7044 24.7485 22.9577 26.919C21.7039 28.4755 21.1418 29.0721 20.0695 30.0839C20.1473 31.0956 18.6687 33.4303 20.1387 34.8485C20.2598 34.762 20.3722 34.7015 20.4759 34.6496C21.2542 34.2864 24.3413 36.5001 25.0244 37.6242C26.5722 36.1975 28.7859 34.909 31.0515 34.027C30.9132 33.8022 30.7575 33.5946 30.6105 33.413C30.5673 33.4044 30.5327 33.3957 30.4894 33.3871C29.3653 33.119 28.6649 31.9862 28.9416 30.8621C29.2097 29.738 30.3424 29.0375 31.4666 29.3143C32.5907 29.5823 33.2825 30.7151 33.0144 31.8392C32.902 32.3321 32.6167 32.7386 32.2362 33.0239C32.2535 33.2055 32.2708 33.3871 32.2881 33.5946C33.7668 33.119 35.2195 32.8423 36.482 32.8423C37.7358 32.8423 39.1886 33.119 40.6759 33.5946C40.7018 33.3957 40.7191 33.2055 40.7278 33.0239C40.3559 32.7472 40.0706 32.3321 39.9495 31.8392C39.6815 30.7151 40.3732 29.5823 41.4974 29.3143C42.6215 29.0462 43.7543 29.738 44.0224 30.8621C44.2904 31.9862 43.5987 33.119 42.4745 33.3871C42.4313 33.3957 42.388 33.4044 42.3535 33.413C42.2065 33.6033 42.0508 33.8022 41.9125 34.027C44.178 34.909 46.3917 36.1975 47.9396 37.6242C48.6141 36.5001 51.7098 34.2864 52.4794 34.6496C52.5832 34.6928 52.6956 34.762 52.8253 34.8485C54.2953 33.4303 52.8166 31.0956 52.8858 30.0839C51.8135 29.0721 51.2515 28.4668 49.9976 26.919C48.2422 24.7485 42.3881 21.8949 42.3881 21.8949C42.3881 21.8949 44.5672 21.2896 46.3571 22.0938C48.1471 22.898 49.3664 24.2816 50.0841 23.5033C50.8105 22.7251 48.3287 20.7621 46.3658 20.2606C44.4029 19.7677 41.2985 20.4162 41.2985 20.4162C41.2985 20.4162 44.8352 18.1334 48.2941 18.5744C51.7617 19.0154 53.5257 21.0821 53.5257 21.0821L54.6671 21.0734C54.6671 21.0734 56.6733 26.3223 56.189 28.9857C56.7598 28.9165 57.2181 28.8992 57.3478 28.9684C58.3163 29.4613 59.0253 35.5662 56.189 36.699C55.6789 36.8979 55.186 37.0535 54.7277 37.1659C54.745 37.2524 54.7536 37.3302 54.7536 37.3994C54.7363 38.1777 52.4016 39.077 49.9717 39.8639C49.8852 39.8898 49.7987 39.9158 49.7209 39.9417C49.9284 40.4 50.0409 40.8583 50.0409 41.308C50.0409 41.6279 50.0063 41.9911 49.9457 42.3889C50.1792 42.3283 50.4213 42.2765 50.6721 42.2419C52.5226 42.017 55.0736 40.9016 55.0736 40.9016C55.0736 40.9016 55.1773 41.135 55.2724 41.4636C55.8518 40.7891 56.7857 39.9417 57.4861 39.3537C58.1952 38.7484 58.9043 38.3852 59.4318 38.3074C59.4664 37.8058 59.6825 37.1227 60.1322 36.2753C60.9104 34.8139 61.8616 32.9115 62.5015 32.5916C62.6226 31.6663 63.4181 28.9165 63.1674 28.1815C62.882 27.334 62.7955 27.1611 62.7955 27.1611C64.3693 28.389 64.205 31.8911 63.1155 33.3266C63.1068 33.3352 63.0982 33.3439 63.0895 33.3612C63.0809 33.7676 62.9944 34.3037 62.8042 34.9436C62.3978 36.3185 60.5645 39.2067 59.9074 39.3278C59.6047 39.6996 59.155 40.1406 58.8092 40.547C58.3336 41.1264 56.4312 42.1813 55.4108 42.4754C55.3849 42.778 55.2724 43.0374 54.9957 43.1671C54.2867 43.5217 51.3552 44.3086 49.4874 44.2913C49.2626 45.0003 48.9772 45.7527 48.6227 46.5223C48.6832 46.5136 48.7438 46.5136 48.8129 46.505C50.6808 46.4185 53.3009 45.4932 53.3009 45.4932C53.3009 45.4932 53.4306 45.8478 53.4998 46.2801C54.2261 45.7613 55.3849 45.1733 56.2323 44.7755C57.1489 44.3432 57.9877 44.1789 58.5065 44.2913C58.8092 43.9021 59.3453 43.4611 60.1408 43.0028C61.559 42.19 63.3663 41.0918 64.0926 41.1523C64.0753 40.7459 66.0037 37.6848 65.9431 36.7941C65.8826 35.9034 65.8394 35.7132 65.8394 35.7132C67.05 37.3043 65.995 40.6421 64.5682 41.749C64.4818 41.8095 64.4212 41.8355 64.3607 41.8268C64.1791 42.1986 63.764 42.7261 63.1155 43.2968C62.0865 44.1962 59.1983 45.5884 58.42 45.4846C58.0568 45.7354 57.5813 46.0034 57.2094 46.2715C56.6128 46.7038 54.5634 47.214 53.4911 47.2573C53.4219 47.4821 53.2922 47.6637 53.0674 47.7502C52.341 48.0442 49.4701 48.5889 47.6023 48.4765C47.2392 49.0818 46.8241 49.6785 46.3831 50.2579C48.4238 49.8342 50.1879 49.2461 50.6548 48.9262C50.9834 48.6927 51.2428 48.9175 51.3639 49.298C52.1248 49.0905 53.0328 48.9175 53.7332 48.8051C54.7882 48.6322 55.6875 48.7273 56.1372 49.0127C56.9673 48.7878 59.9679 49.471 61.1439 50.1109C62.4324 50.8026 63.0463 51.529 62.8474 51.7538C62.8561 51.7711 62.8647 51.7971 62.8734 51.8317C63.323 53.5784 62.1211 56.8644 60.1927 57.3832C60.1927 57.3832 60.3397 57.2621 60.9277 56.5876C61.5157 55.9218 61.8703 52.3332 62.1297 52.0046C61.2304 51.9614 59.622 51.4425 58.3163 51.0448C57.2094 50.7075 56.5263 50.3097 56.1804 49.912C55.748 50.2406 54.8228 50.4913 53.7419 50.6124C52.9982 50.6902 52.0643 50.6902 51.2947 50.6124C51.1823 50.8632 51.0007 51.0794 50.7326 51.1745C49.7641 51.5463 47.6975 52.2381 44.645 52.143C44.3856 52.3764 44.1261 52.6013 43.8581 52.8174C46.1582 53.1633 48.6659 53.4228 50.1446 52.9558C51.6147 52.4975 51.9951 53.0509 51.8654 53.7254C52.7042 53.8984 53.6554 54.5037 54.2953 56.0256C54.9957 57.6945 55.4627 59.3029 55.0995 60.1071C55.1254 60.1503 55.1341 60.2195 55.1168 60.3146C54.745 62.0786 52.2027 64.4912 50.2397 64.1021C50.2397 64.1021 50.43 64.0589 51.2515 63.7216C51.9173 63.4449 53.2922 61.3955 53.9927 60.5308C52.8858 59.7871 52.2546 55.3943 51.8827 54.8841C51.7876 54.7458 51.6233 54.6593 51.4417 54.5901C51.2082 54.8928 50.8969 55.1263 50.5943 55.1868C49.4183 55.4116 46.5301 55.7835 42.7945 54.668C42.3189 54.5296 41.9038 54.3826 41.532 54.2356C38.8167 55.3597 34.0953 55.3597 31.3801 54.2356C31.0083 54.3826 30.5846 54.5296 30.1176 54.668C26.382 55.7748 23.4938 55.4116 22.3178 55.1868C22.0152 55.1263 21.7039 54.8928 21.4704 54.5901C21.2888 54.6593 21.1245 54.7458 21.0294 54.8841C20.6575 55.403 20.0263 59.7871 18.9194 60.5308C19.6199 61.3955 20.9948 63.4536 21.6606 63.7216C22.4821 64.0589 22.6723 64.1021 22.6723 64.1021C20.7181 64.4912 18.1758 62.0873 17.7953 60.3146C17.778 60.2195 17.7867 60.1503 17.8126 60.1071C17.4494 59.3029 17.9164 57.6945 18.6168 56.0256C19.2567 54.5037 20.2079 53.8897 21.0467 53.7254C20.9083 53.0596 21.2974 52.4975 22.7675 52.9558C24.298 53.4141 26.8057 53.1633 29.0972 52.8174ZM34.3634 35.67C35.0292 36.2407 35.9718 36.4742 36.482 36.4742C37.0008 36.4742 37.9693 36.2407 38.6265 35.67C37.9693 36.6212 37.3727 37.0362 36.4993 37.0362C35.6259 37.0362 35.0292 36.6212 34.3634 35.67ZM27.2035 48.4765C23.9954 44.2567 23.8916 40.5297 25.5951 39.7515C23.3295 42.5964 27.0824 48.1393 30.0917 50.6383C31.3455 51.676 33.8013 52.9645 34.0953 53.4228C31.6309 52.8002 29.2356 51.1485 27.2035 48.4765ZM45.527 48.4765C48.7351 44.2567 48.8302 40.5297 47.1267 39.7515C49.401 42.5964 45.6394 48.1393 42.6302 50.6383C41.3763 51.676 38.9205 52.9645 38.6265 53.4228C41.1083 52.8002 43.4949 51.1485 45.527 48.4765Z" fill="white"/>
<path d="M29.2876 8.65586C29.2876 8.65586 29.3827 8.56939 29.5557 8.40509C29.7459 8.24944 30.014 8.00732 30.3772 7.7479C30.7403 7.47984 31.1986 7.16854 31.7607 6.85724C32.3141 6.54594 32.9627 6.22599 33.6977 5.95792C34.0695 5.81957 34.4586 5.69851 34.8737 5.57745C35.2888 5.46503 35.7211 5.37856 36.1708 5.30938C37.0788 5.17967 38.0645 5.13644 39.0763 5.30938C40.0794 5.47368 41.1257 5.82822 42.0336 6.43352C42.1633 6.51999 42.2412 6.57188 42.3622 6.667C42.4833 6.75347 42.5871 6.83129 42.6908 6.92641C42.907 7.09936 43.1059 7.2896 43.3048 7.49713C43.6853 7.9122 44.0311 8.3878 44.256 8.94122C44.4894 9.486 44.6105 10.0913 44.5759 10.6966C44.55 11.3019 44.377 11.8986 44.0657 12.4174C43.7544 12.9362 43.3134 13.36 42.8032 13.654C42.293 13.948 41.7137 14.1036 41.143 14.1123H41.0392H41.0046H40.9787H40.9354H40.849L40.7365 14.1036C40.5809 14.095 40.4598 14.069 40.3215 14.0431C40.0534 13.9826 39.794 13.8961 39.5519 13.7837C39.0676 13.5502 38.6526 13.2216 38.3326 12.8411C37.6841 12.0802 37.3901 11.1463 37.3901 10.2988C37.3901 9.86648 37.4765 9.46006 37.6322 9.09687C37.7878 8.73369 38.0127 8.42239 38.2548 8.18026C38.5056 7.93814 38.7736 7.7652 39.0417 7.64414C39.3011 7.52307 39.5605 7.44525 39.7853 7.39337C40.2437 7.2896 40.6068 7.2896 40.849 7.2896C40.97 7.2896 41.0651 7.29825 41.1257 7.29825C41.1862 7.29825 41.2208 7.30689 41.2208 7.30689C41.29 7.30689 41.3419 7.36742 41.3332 7.4366C41.3332 7.49713 41.2813 7.54902 41.2208 7.54902H41.2121C41.2121 7.54902 41.1776 7.54902 41.117 7.55766C41.0565 7.56631 40.97 7.57496 40.849 7.5836C40.6155 7.60955 40.2782 7.67008 39.8805 7.80843C39.4827 7.94679 39.0244 8.18891 38.6699 8.60398C38.4969 8.81151 38.3499 9.06228 38.2634 9.34764C38.177 9.633 38.1337 9.95295 38.1597 10.2815C38.2029 10.9474 38.5056 11.6565 39.0244 12.2012C39.2838 12.4693 39.6038 12.6941 39.9496 12.8411C40.1226 12.9103 40.3128 12.9622 40.5031 12.9968C40.5982 13.0141 40.702 13.0227 40.7884 13.0227H40.8576H40.9441H40.9873H41.0133H41.0219C40.996 13.0227 41.0219 13.0227 41.0133 13.0227H41.0824C41.4716 12.9968 41.8434 12.8844 42.1806 12.6768C42.5092 12.4693 42.7859 12.1666 42.9848 11.8208C43.1837 11.4749 43.2961 11.0771 43.3048 10.6707C43.3134 10.2642 43.227 9.84918 43.054 9.4687C42.7168 8.69045 42.0596 8.02461 41.2986 7.52307C40.5463 7.02153 39.6989 6.69294 38.8342 6.52864C38.4018 6.44217 37.9694 6.40758 37.5371 6.39029C37.1047 6.37299 36.681 6.39029 36.2746 6.43352C35.8595 6.47676 35.4617 6.53729 35.0726 6.61511C34.6835 6.69294 34.3116 6.77941 33.9658 6.88318C33.2567 7.09071 32.6254 7.33283 32.072 7.57496C31.5186 7.82573 31.0516 8.06785 30.6712 8.28403C30.2907 8.50021 30.0053 8.6818 29.8151 8.81151C29.6162 8.94122 29.5124 9.01905 29.5124 9.01905C29.4173 9.08822 29.279 9.06228 29.2184 8.95852C29.2011 8.8461 29.2098 8.72504 29.2876 8.65586Z" fill="white"/>
<path d="M43.7023 14.8905C43.7023 14.8905 43.6072 14.977 43.4343 15.1413C43.244 15.2969 42.976 15.539 42.6128 15.7985C42.2496 16.0665 41.7913 16.3778 41.2292 16.6891C40.6758 17.0004 40.0273 17.3204 39.2923 17.5884C38.9204 17.7268 38.5313 17.8478 38.1162 17.9689C37.7012 18.0813 37.2688 18.1678 36.8191 18.237C35.9112 18.3667 34.9254 18.4099 33.9137 18.237C32.9106 18.0727 31.8643 17.7181 30.9563 17.1128C30.8266 17.0264 30.7488 16.9745 30.6277 16.8794C30.5067 16.7929 30.4029 16.7151 30.2991 16.6199C30.0829 16.447 29.8841 16.2568 29.6852 16.0492C29.3047 15.6342 28.9588 15.1586 28.734 14.6051C28.5005 14.0604 28.3794 13.455 28.414 12.8497C28.44 12.2444 28.6129 11.6478 28.9242 11.1289C29.2355 10.6101 29.6765 10.1864 30.1867 9.89239C30.6969 9.59838 31.2763 9.44273 31.847 9.43408H31.9507H31.9853H32.0113H32.0545H32.141L32.2534 9.44273C32.4091 9.45138 32.5301 9.47732 32.6685 9.50326C32.9365 9.56379 33.196 9.65026 33.4381 9.76268C33.9223 9.99615 34.3374 10.3247 34.6573 10.7052C35.3059 11.4662 35.5999 12.4001 35.5999 13.2475C35.5999 13.6799 35.5134 14.0863 35.3578 14.4495C35.2021 14.8127 34.9773 15.124 34.7352 15.3661C34.4844 15.6082 34.2163 15.7812 33.9483 15.9022C33.6888 16.0233 33.4294 16.1011 33.2046 16.153C32.7463 16.2568 32.3831 16.2568 32.141 16.2568C32.0199 16.2568 31.9248 16.2481 31.8643 16.2481C31.8037 16.2481 31.7692 16.2395 31.7692 16.2395C31.7 16.2395 31.6481 16.1789 31.6567 16.1098C31.6567 16.0492 31.7086 15.9973 31.7692 15.9973H31.7778C31.7778 15.9973 31.8124 15.9973 31.8729 15.9887C31.9335 15.98 32.0199 15.9714 32.141 15.9627C32.3745 15.9368 32.7117 15.8763 33.1095 15.7379C33.5073 15.5996 33.9656 15.3574 34.3201 14.9424C34.493 14.7348 34.64 14.4841 34.7265 14.1987C34.813 13.9134 34.8562 13.5934 34.8303 13.2648C34.787 12.599 34.4844 11.8899 33.9656 11.3451C33.7061 11.0771 33.3862 10.8522 33.0403 10.7052C32.8674 10.636 32.6771 10.5842 32.4869 10.5496C32.3918 10.5323 32.288 10.5236 32.2015 10.5236H32.1323H32.0459H32.0026H31.9767H31.968C31.994 10.5236 31.968 10.5236 31.9767 10.5236H31.9075C31.5184 10.5496 31.1466 10.662 30.8093 10.8695C30.4807 11.0771 30.204 11.3797 30.0051 11.7256C29.8062 12.0715 29.6938 12.4693 29.6852 12.8757C29.6765 13.2821 29.763 13.6972 29.9359 14.0777C30.2732 14.8559 30.9304 15.5217 31.6913 16.0233C32.4436 16.5248 33.2911 16.8534 34.1558 17.0177C34.5882 17.1042 35.0205 17.1388 35.4529 17.1561C35.8852 17.1734 36.309 17.1561 36.7154 17.1128C37.1304 17.0696 37.5282 17.0091 37.9173 16.9312C38.3065 16.8534 38.6783 16.7669 39.0242 16.6632C39.7333 16.4556 40.3645 16.2135 40.9179 15.9714C41.4714 15.7206 41.9383 15.4785 42.3188 15.2623C42.6993 15.0461 42.9846 14.8645 43.1749 14.7348C43.3738 14.6051 43.4775 14.5273 43.4775 14.5273C43.5726 14.4581 43.711 14.4841 43.7715 14.5878C43.7975 14.7003 43.7802 14.8213 43.7023 14.8905Z" fill="white"/>
</g>
<defs>
<clipPath id="clip0_1667_37512">
<rect width="73" height="73" fill="white"/>
</clipPath>
</defs>
</svg>
