<svg viewBox="0 0 73 73" fill="none" xmlns="http://www.w3.org/2000/svg">
<g clip-path="url(#clip0_1667_37421)">
<path d="M36.5 73C56.6584 73 73 56.6584 73 36.5C73 16.3416 56.6584 0 36.5 0C16.3416 0 0 16.3416 0 36.5C0 56.6584 16.3416 73 36.5 73Z" fill="#3E1C69"/>
<path fill-rule="evenodd" clip-rule="evenodd" d="M24.4366 39.4315C24.4366 39.3277 21.9808 45.0262 24.8862 47.1621C28.1203 49.5315 30.2043 52.5493 29.6941 55.8958C29.4866 57.2361 28.1722 59.0002 26.1833 60.3664C26.045 56.994 26.8232 53.734 24.0388 51.2955C25.3359 53.3449 26.5725 56.0601 22.0413 58.4986C22.0413 58.4986 22.5342 55.0657 19.1012 52.8001C15.6683 50.5345 14.0772 44.7063 14.0772 44.7063C14.5528 47.5685 15.2878 50.4481 19.3952 54.3566C19.3952 54.3566 15.625 53.44 12.2613 50.1454C8.8975 46.8422 7.0124 42.2764 8.55161 39.5266C10.0908 36.7768 8.90614 34.5025 8.61214 33.8886C8.74185 34.8571 9.26933 37.2956 8.10195 38.7656C6.93457 40.2357 7.61771 43.7637 7.61771 43.7637C7.61771 43.7637 5.92285 40.4778 5.40401 38.5322C4.88518 36.5865 5.61155 33.0239 7.61771 30.7583C9.62386 28.4927 9.18286 26.6249 9.18286 26.6249C8.74185 28.7262 7.53988 30.3692 5.69802 31.4674C5.69802 31.4674 5.99202 26.4347 7.25452 23.3649C10.6529 15.0808 20.995 11.8554 25.8461 13.4811C30.6367 15.0808 31.7349 17.7874 31.1901 19.3007C32.9282 21.843 32.7206 24.5669 32.3229 26.8497C31.8473 29.5217 32.3229 30.9399 33.5767 31.8824C34.8392 32.825 33.9226 33.5946 33.0146 33.9059C32.3315 34.148 32.1932 34.7447 32.098 35.5056C32.0635 35.7823 32.2278 36.0072 32.0894 36.1715C31.095 37.3043 28.4662 36.1023 28.1463 35.2376C28.6391 36.5779 29.8671 36.9411 30.5761 37.0621C31.2852 37.1918 31.5446 37.7712 31.2247 38.1603C30.9047 38.5495 30.775 39.345 30.8355 40.1838C30.8961 41.0226 30.3859 41.4809 28.8899 41.4203C27.4112 41.3598 24.4366 39.5439 24.4366 39.4315ZM29.0888 27.3945C29.305 27.3426 29.5298 27.3599 29.7287 27.4205C29.8325 27.2821 30.1697 26.6336 29.9276 26.0283C29.8671 26.4001 29.3223 26.6163 28.4057 27.1005C27.4372 27.6107 26.192 28.7608 25.3705 29.392L27.7312 28.1555C27.7312 28.1555 27.4977 28.5014 27.5842 29.0116C27.662 29.5131 28.1722 29.7898 28.1722 29.7898C28.1722 29.7898 27.8263 29.9022 26.0882 29.7639C27.1086 30.2481 28.8467 30.1184 29.2531 30.2568C29.6595 30.3865 29.8065 30.5767 29.8238 30.5421C29.8498 30.3 29.6941 29.9109 29.6422 29.7898H29.6336C28.9677 29.9368 28.3106 29.5217 28.1635 28.8559C27.9993 28.1987 28.423 27.5415 29.0888 27.3945ZM29.4779 28.1555C29.7287 28.1036 29.9795 28.2592 30.0314 28.5014C30.0832 28.7521 29.9276 29.0029 29.6768 29.0548C29.426 29.1067 29.1839 28.951 29.1234 28.7003C29.0715 28.4581 29.2272 28.2074 29.4779 28.1555ZM24.255 23.313C18.3316 29.686 17.9425 35.9034 22.3785 45.2251C22.3785 45.2165 13.2989 31.8046 24.255 23.313ZM29.9795 19.6725C27.2037 23.1141 20.8739 20.1135 17.3286 26.3741C14.6998 31.0177 16.1179 33.7329 12.4688 37.9701C15.9709 32.4964 13.8697 31.4847 16.8097 26.0715C20.2513 19.7158 26.4341 22.5867 29.9795 19.6725ZM29.7719 17.8566C28.1117 15.5737 24.6095 14.2853 20.9777 14.7177C17.3459 15.15 15.1062 16.7498 13.4459 18.6003C11.7857 20.4508 11.2323 22.3618 11.2323 22.3618C15.21 15.0463 23.0357 12.6683 29.7719 17.8566ZM17.0605 36.7941C18.5478 43.4957 21.4533 46.2541 25.1803 48.857C28.9072 51.4598 28.4403 54.2355 28.2327 54.5901C28.423 52.9298 27.1259 50.474 24.8603 49.0645C22.3785 47.5166 16.9135 42.899 17.0605 36.7941ZM27.1172 18.5484C19.525 18.2803 14.5269 21.4106 13.5411 25.0684C12.5639 28.7262 12.2959 30.9658 12.2959 30.9658C12.2959 30.9658 11.5781 22.3964 17.4756 19.7158C23.3643 17.0351 27.1172 18.5484 27.1172 18.5484ZM12.9876 32.9288C10.8431 36.2147 10.5059 40.7199 11.5781 43.8675C12.6504 47.0238 13.3941 47.9663 13.3941 47.9663C9.20015 43.3487 9.91787 34.9436 12.9876 32.9288ZM17.415 31.9862C15.21 36.1888 14.7344 40.0108 16.2736 43.6254C17.8647 47.3696 23.2087 50.2924 23.2519 53.8032C21.436 49.7476 18.5305 48.7791 16.7665 45.9342C14.622 42.4667 13.2384 36.7335 17.415 31.9862ZM26.2612 27.0573C27.4631 26.0542 29.426 25.6132 30.0227 25.5872C30.628 25.5613 30.4205 24.9128 28.9937 25.2241C27.5669 25.5354 25.8201 27.0573 26.2612 27.0573Z" fill="white"/>
<path fill-rule="evenodd" clip-rule="evenodd" d="M48.5631 39.4315C48.5631 39.5352 45.5885 41.3512 44.0925 41.4203C42.6052 41.4809 42.0864 41.0312 42.1469 40.1838C42.2074 39.345 42.0864 38.5495 41.7578 38.1603C41.4378 37.7712 41.6972 37.1918 42.4063 37.0621C43.1154 36.9324 44.3519 36.5779 44.8362 35.2376C44.5162 36.1023 41.8875 37.3043 40.893 36.1715C40.7547 36.0072 40.9103 35.7823 40.8844 35.5056C40.7893 34.736 40.6509 34.1394 39.9678 33.9059C39.0598 33.5946 38.1432 32.825 39.4057 31.8824C40.6596 30.9399 41.1352 29.5217 40.6596 26.8497C40.2618 24.5669 40.0543 21.843 41.7924 19.3007C41.2476 17.7874 42.3371 15.0808 47.1364 13.4811C51.9875 11.8554 62.3296 15.0808 65.7279 23.3649C66.9904 26.4347 67.2844 31.4674 67.2844 31.4674C65.4426 30.3692 64.2319 28.7262 63.7996 26.6249C63.7996 26.6249 63.3586 28.4927 65.3647 30.7583C67.3709 33.0239 68.0973 36.5952 67.5784 38.5322C67.0682 40.4691 65.3734 43.7551 65.3734 43.7551C65.3734 43.7551 66.0565 40.227 64.8891 38.757C63.7218 37.287 64.2579 34.8484 64.379 33.8799C64.0849 34.5025 62.9003 36.7768 64.4395 39.5179C65.9787 42.2591 64.1022 46.8335 60.7298 50.1368C57.366 53.44 53.5958 54.348 53.5958 54.348C57.7119 50.4308 58.4469 47.5599 58.9139 44.6976C58.9139 44.6976 57.3142 50.5259 53.8899 52.7915C50.4569 55.057 50.9498 58.49 50.9498 58.49C46.4186 56.0601 47.6465 53.3362 48.9523 51.2868C46.1679 53.7167 46.9461 56.9854 46.8078 60.3578C44.8189 58.9915 43.4959 57.2275 43.297 55.8872C42.7868 52.5407 44.8794 49.5228 48.1048 47.1535C51.019 45.0262 48.5631 39.3277 48.5631 39.4315ZM43.9109 27.3945C44.5768 27.5415 44.9918 28.1987 44.8448 28.8645C44.6978 29.5304 44.0406 29.9455 43.3748 29.7985H43.3662C43.3143 29.9282 43.1586 30.3173 43.1846 30.5508C43.1932 30.5853 43.3489 30.4038 43.7553 30.2654C44.1617 30.127 45.8912 30.2568 46.9202 29.7725C45.1821 29.9109 44.8362 29.7985 44.8362 29.7985C44.8362 29.7985 45.3464 29.5217 45.4242 29.0202C45.502 28.5187 45.2772 28.1641 45.2772 28.1641L47.6379 29.4007C46.8078 28.7694 45.5626 27.6107 44.6027 27.1092C43.6861 26.6249 43.15 26.4087 43.0808 26.0369C42.8387 26.6422 43.1846 27.2908 43.2797 27.4291C43.4699 27.3599 43.6948 27.3426 43.9109 27.3945ZM43.5218 28.1555C43.7726 28.2074 43.9282 28.4581 43.8677 28.7089C43.8158 28.9597 43.565 29.1153 43.3143 29.0634C43.0635 29.0116 42.9079 28.7608 42.9597 28.51C43.0203 28.2506 43.271 28.0949 43.5218 28.1555ZM48.7447 23.313C59.7008 31.8133 50.6212 45.2251 50.6212 45.2251C55.0486 35.9034 54.6681 29.686 48.7447 23.313ZM43.0203 19.6725C46.5743 22.5953 52.7484 19.7244 56.1987 26.0715C59.1387 31.4847 57.0374 32.4964 60.5396 37.9701C56.8818 33.7329 58.3086 31.0177 55.6798 26.3741C52.1172 20.1049 45.7874 23.1055 43.0203 19.6725ZM43.2278 17.8566C49.964 12.6596 57.7898 15.0463 61.7675 22.3532C61.7675 22.3532 61.2227 20.4421 59.5538 18.5916C57.8935 16.7411 55.6539 15.1414 52.022 14.709C48.3816 14.2853 44.8881 15.5824 43.2278 17.8566ZM55.9392 36.7941C56.0863 42.899 50.6212 47.5166 48.1394 49.0731C45.8739 50.4826 44.5768 52.9385 44.767 54.5987C44.5595 54.2356 44.1012 51.4684 47.8195 48.8656C51.5378 46.2541 54.4433 43.4957 55.9392 36.7941ZM45.8825 18.5484C45.8825 18.5484 49.6354 17.0265 55.5242 19.7071C61.4216 22.3878 60.7039 30.9658 60.7039 30.9658C60.7039 30.9658 60.4358 28.7348 59.4587 25.0684C58.4729 21.4106 53.4748 18.289 45.8825 18.5484ZM60.0121 32.9288C63.0819 34.9436 63.7996 43.3487 59.6057 47.9663C59.6057 47.9663 60.3493 47.0238 61.4216 43.8675C62.4939 40.7113 62.1566 36.2147 60.0121 32.9288ZM55.5847 31.9862C59.7613 36.7335 58.3778 42.458 56.2246 45.9342C54.4606 48.7791 51.5551 49.7476 49.7392 53.8032C49.7824 50.2924 55.1351 47.3696 56.7175 43.6254C58.2654 40.0108 57.7898 36.1888 55.5847 31.9862ZM46.7386 27.0573C47.1796 27.0573 45.4328 25.5354 44.0061 25.2241C42.5793 24.9128 42.3717 25.5699 42.977 25.5872C43.5737 25.6045 45.5366 26.0542 46.7386 27.0573Z" fill="white"/>
<path d="M31.5102 45.9861C31.5102 45.9861 31.5448 46.0121 31.6226 46.0467C31.6918 46.0899 31.8042 46.1504 31.9253 46.2196C32.0463 46.2888 32.2106 46.358 32.3922 46.4444C32.5738 46.5223 32.7813 46.6087 33.0148 46.6952C33.1272 46.7384 33.2483 46.7817 33.378 46.8163C33.4991 46.8595 33.6288 46.8941 33.7671 46.9287C34.0352 47.0065 34.3205 47.067 34.6232 47.1276C34.9172 47.1881 35.2372 47.2227 35.5485 47.2659C35.8684 47.2919 36.1883 47.3265 36.5169 47.3351C37.814 47.3783 39.1198 47.1967 40.045 46.8768C40.2785 46.799 40.486 46.7125 40.6763 46.6347C40.8579 46.5482 41.0222 46.479 41.1519 46.4012C41.2816 46.332 41.3853 46.2715 41.4545 46.2283C41.5237 46.185 41.5583 46.1677 41.5583 46.1677L41.5669 46.1591C41.6275 46.1245 41.7053 46.1418 41.7399 46.2023C41.7658 46.2455 41.7658 46.2974 41.7312 46.3407C41.7312 46.3407 41.7053 46.3753 41.6534 46.4444C41.6015 46.5136 41.5323 46.6174 41.4199 46.7384C41.2124 46.9806 40.8665 47.3092 40.3909 47.6032C40.1574 47.7588 39.8807 47.8885 39.5954 48.0182C39.3014 48.1393 38.9814 48.2604 38.6442 48.3468C38.3069 48.4419 37.9524 48.5025 37.5892 48.5457C37.226 48.5976 36.8542 48.6062 36.491 48.6062C36.1192 48.5976 35.7473 48.5717 35.3928 48.5198C35.0296 48.4679 34.6837 48.3987 34.3465 48.2949C34.1822 48.2517 34.0179 48.1912 33.8622 48.1393C33.7066 48.0788 33.5509 48.0269 33.4039 47.9577C33.1099 47.828 32.8419 47.6896 32.6084 47.5426C32.4873 47.4735 32.3836 47.387 32.2712 47.3178C32.1674 47.24 32.0723 47.1622 31.9858 47.093C31.8128 46.946 31.6745 46.8076 31.5534 46.6866C31.4324 46.5655 31.3718 46.4704 31.3113 46.4012C31.2594 46.332 31.2335 46.2974 31.2335 46.2974C31.1643 46.2023 31.1816 46.064 31.2767 45.9948C31.3459 45.9515 31.4324 45.9515 31.5102 45.9861Z" fill="white"/>
<path d="M41.4884 58.2913C41.4884 58.2913 41.4538 58.2653 41.376 58.2307C41.3068 58.1875 41.1944 58.127 41.0733 58.0578C40.9523 57.9886 40.788 57.9194 40.6064 57.833C40.4248 57.7551 40.2173 57.6687 39.9838 57.5822C39.8714 57.5389 39.7503 57.4957 39.6206 57.4611C39.4995 57.4179 39.3698 57.3833 39.2315 57.3487C38.9634 57.2709 38.6781 57.2104 38.3754 57.1498C38.0814 57.0893 37.7615 57.0547 37.4501 57.0115C37.1302 56.9855 36.8103 56.9509 36.4817 56.9423C35.1846 56.8991 33.8788 57.0806 32.9536 57.4006C32.7201 57.4784 32.5126 57.5649 32.3223 57.6427C32.1407 57.7292 31.9764 57.7984 31.8467 57.8762C31.717 57.9454 31.6133 58.0059 31.5441 58.0491C31.4749 58.0924 31.4403 58.1097 31.4403 58.1097L31.4317 58.1183C31.3711 58.1529 31.2933 58.1356 31.2587 58.0751C31.2328 58.0318 31.2328 57.98 31.2674 57.9367C31.2674 57.9367 31.2933 57.9021 31.3452 57.833C31.3971 57.7638 31.4663 57.66 31.5787 57.5389C31.7862 57.2968 32.1321 56.9682 32.6077 56.6742C32.8412 56.5186 33.1179 56.3889 33.4032 56.2592C33.6972 56.1381 34.0172 56.017 34.3544 55.9306C34.6917 55.8354 35.0462 55.7749 35.4094 55.7317C35.7726 55.6798 36.1444 55.6711 36.5076 55.6711C36.8794 55.6798 37.2513 55.7057 37.6058 55.7576C37.969 55.8095 38.3149 55.8787 38.6521 55.9824C38.8164 56.0257 38.9807 56.0862 39.1364 56.1381C39.292 56.1986 39.4477 56.2505 39.5947 56.3197C39.8887 56.4494 40.1567 56.5877 40.3902 56.7348C40.5113 56.8039 40.615 56.8904 40.7275 56.9596C40.8312 57.0374 40.9263 57.1152 41.0128 57.1844C41.1858 57.3314 41.3241 57.4698 41.4452 57.5908C41.5662 57.7119 41.6268 57.807 41.6873 57.8762C41.7392 57.9454 41.7651 57.98 41.7651 57.98C41.8343 58.0751 41.817 58.2134 41.7219 58.2826C41.6527 58.3345 41.5576 58.3345 41.4884 58.2913Z" fill="white"/>
<path d="M34.4927 56.3281C34.4927 56.3281 34.4495 56.1984 34.3976 55.9649C34.3457 55.7401 34.2852 55.4115 34.2246 55.0137C34.1728 54.6246 34.1209 54.1663 34.0949 53.6734C34.0776 53.4313 34.069 53.1719 34.069 52.9211C34.0603 52.6617 34.0603 52.4023 34.069 52.1428C34.069 51.8834 34.0776 51.624 34.0949 51.3646C34.1036 51.1052 34.1209 50.8544 34.1468 50.6123C34.19 50.1194 34.2419 49.6611 34.3025 49.272C34.363 48.8828 34.4322 48.5542 34.4927 48.3208C34.5186 48.2083 34.5446 48.1132 34.5619 48.0527C34.5792 47.9922 34.5878 47.9576 34.5878 47.9576C34.6051 47.8884 34.6829 47.8538 34.7435 47.8711C34.7867 47.8798 34.8213 47.9143 34.8299 47.9576C34.8299 47.9576 34.8386 47.9922 34.8559 48.0527C34.8732 48.1132 34.8991 48.1997 34.9251 48.3208C34.9769 48.5456 35.0461 48.8742 35.1153 49.272C35.1758 49.6611 35.2364 50.1194 35.271 50.6123C35.2969 50.8544 35.3055 51.1138 35.3228 51.3646C35.3315 51.624 35.3401 51.8834 35.3488 52.1428C35.3488 52.4023 35.3574 52.6617 35.3488 52.9211C35.3488 53.1805 35.3315 53.4313 35.3228 53.6734C35.2969 54.1663 35.245 54.6246 35.1931 55.0137C35.1412 55.4029 35.0721 55.7314 35.0202 55.9649C34.9683 56.1898 34.9251 56.3281 34.9251 56.3281C34.8905 56.4492 34.7608 56.5097 34.6484 56.4751C34.5705 56.4492 34.51 56.3886 34.4927 56.3281Z" fill="white"/>
<path d="M38.0806 56.3281C38.0806 56.3281 38.0374 56.1984 37.9855 55.9649C37.9336 55.7401 37.8731 55.4115 37.8125 55.0137C37.7606 54.6246 37.7088 54.1663 37.6828 53.6734C37.6655 53.4313 37.6569 53.1719 37.6569 52.9211C37.6482 52.6617 37.6482 52.4023 37.6569 52.1428C37.6569 51.8834 37.6655 51.624 37.6828 51.3646C37.6915 51.1052 37.7088 50.8544 37.7347 50.6123C37.7779 50.1194 37.8298 49.6611 37.8904 49.272C37.9509 48.8828 38.0201 48.5542 38.0806 48.3208C38.1065 48.2083 38.1325 48.1132 38.1498 48.0527C38.1671 47.9922 38.1757 47.9576 38.1757 47.9576C38.193 47.8884 38.2708 47.8538 38.3314 47.8711C38.3746 47.8798 38.4092 47.9143 38.4178 47.9576C38.4178 47.9576 38.4265 47.9922 38.4438 48.0527C38.4611 48.1132 38.487 48.1997 38.513 48.3208C38.5648 48.5456 38.634 48.8742 38.7032 49.272C38.7637 49.6611 38.8243 50.1194 38.8588 50.6123C38.8848 50.8544 38.8934 51.1138 38.9107 51.3646C38.9194 51.624 38.928 51.8834 38.9367 52.1428C38.9367 52.4023 38.9453 52.6617 38.9367 52.9211C38.9367 53.1805 38.9194 53.4313 38.9107 53.6734C38.8848 54.1663 38.8329 54.6246 38.781 55.0137C38.7291 55.4029 38.66 55.7314 38.6081 55.9649C38.5562 56.1898 38.513 56.3281 38.513 56.3281C38.4784 56.4492 38.3487 56.5097 38.2362 56.4751C38.1498 56.4492 38.0979 56.3886 38.0806 56.3281Z" fill="white"/>
</g>
<defs>
<clipPath id="clip0_1667_37421">
<rect width="73" height="73" fill="white"/>
</clipPath>
</defs>
</svg>
