<svg viewBox="0 0 73 73" fill="none" xmlns="http://www.w3.org/2000/svg">
<g clip-path="url(#clip0_1667_37444)">
<path d="M36.5 73C56.6584 73 73 56.6584 73 36.5C73 16.3416 56.6584 0 36.5 0C16.3416 0 0 16.3416 0 36.5C0 56.6584 16.3416 73 36.5 73Z" fill="#3E1C69"/>
<path fill-rule="evenodd" clip-rule="evenodd" d="M51.788 22.5174C50.4909 23.3043 49.6781 22.9152 47.9746 23.5637C42.4749 25.665 36.4997 19.6206 43.0197 14.3717C39.0852 16.6978 38.7825 20.6237 41.6707 23.46C41.6707 23.46 36.3181 24.2988 33.1618 23.9183C18.5912 22.1715 22.716 38.3073 30.559 34.148C28.1291 43.6859 21.1508 38.8175 19.7586 35.5834C10.2553 41.2819 6.00951 33.4562 7.73896 27.3772C7.73896 27.3772 11.1114 30.127 13.7574 30.1356C16.7407 30.1443 18.2626 29.3833 19.0928 28.1468C20.8828 25.4748 19.3868 20.6064 22.1539 16.62C22.4739 16.1617 22.8111 15.7293 23.1656 15.3229C19.4733 16.3001 15.3745 18.8769 13.3856 25.0597C10.5839 9.5898 33.7499 1.70352 42.008 11.1204C47.5768 12.6596 52.6008 15.9888 54.9875 20.0097C54.9875 20.0097 53.6212 21.0128 51.9782 21.2117C50.3266 21.4106 49.0382 20.7274 49.0382 20.7274C49.0382 20.7274 49.4446 22.1024 51.788 22.5174ZM19.2744 30.7323C19.309 31.0523 19.3868 31.3203 19.5078 31.5192C16.6024 33.681 11.0163 32.6693 8.59503 29.7033C11.267 32.211 17.199 32.8682 19.2744 30.7323ZM19.577 31.6316C19.7327 31.8564 19.9316 32.0034 20.1477 32.0726C16.7321 35.6958 11.3362 36.1628 8.85445 32.4877C11.8983 35.618 16.9137 34.7273 19.577 31.6316ZM20.5542 32.1159C20.8049 32.0986 21.0644 32.0207 21.3151 31.8737C22.0415 34.9867 23.5375 37.8836 27.5671 37.3129C23.7969 38.5926 21.1076 35.6958 20.5542 32.1159ZM21.4967 31.7613C21.6437 31.6576 21.7907 31.5279 21.9204 31.3722C23.2175 33.7156 26.1057 35.8861 28.7863 35.2894C26.27 36.3444 23.2002 34.295 21.4967 31.7613ZM48.7009 16.3001C47.9659 16.1444 47.2395 16.5941 47.0752 17.3204C46.911 18.0468 47.3779 18.7559 48.1043 18.9202C48.528 19.0153 48.943 18.9029 49.2543 18.6521C48.8133 19.1623 48.1216 19.4131 47.4125 19.2661C46.4008 19.0412 45.7609 18.0641 45.9857 17.061C46.2105 16.0666 47.2136 15.444 48.2253 15.6602C48.969 15.8245 49.5138 16.4038 49.6608 17.0956C49.5051 16.7065 49.1506 16.3952 48.7009 16.3001ZM48.9517 17.0178C48.5885 16.94 48.2253 17.1648 48.1389 17.528C48.061 17.8912 48.2945 18.2457 48.6577 18.3235C49.0295 18.4013 49.3927 18.1765 49.4705 17.8133C49.5484 17.4588 49.3149 17.0956 48.9517 17.0178ZM25.4658 13.2044C25.8722 12.9017 26.2959 12.625 26.7369 12.3742C23.157 11.8986 18.7728 13.1006 15.7895 16.767C15.7895 16.767 19.6289 13.1957 23.7104 13.1352C24.3935 13.1265 24.9729 13.1525 25.4658 13.2044ZM29.2619 11.2155C29.7635 11.0339 30.2737 10.8869 30.7838 10.7572C28.8642 9.71951 24.0217 9.65898 21.7648 11.1204C24.947 10.1259 27.8265 10.6361 29.2619 11.2155ZM33.845 10.2643C34.4935 10.2124 35.1507 10.1951 35.8079 10.2038C33.5337 8.63861 29.9191 8.8202 29.9191 8.8202C29.9191 8.8202 33.0148 9.33039 33.845 10.2643ZM37.9524 17.7269C38.5404 16.7324 35.6695 15.5045 33.0062 15.6083C30.3428 15.712 27.6968 18.2976 27.6968 18.2976C27.6968 18.2976 30.9741 16.4989 33.3867 16.6287C35.8079 16.7497 37.3817 18.6867 37.9524 17.7269ZM35.8598 18.116C35.5917 18.7732 33.2483 18.851 32.4355 18.4532C31.6226 18.0555 29.4003 18.0987 29.4003 18.0987C29.4003 18.0987 33.2397 16.3433 35.8598 18.116Z" fill="white"/>
<path fill-rule="evenodd" clip-rule="evenodd" d="M21.212 50.474C22.5091 49.6871 23.322 50.0762 25.0255 49.4276C30.5251 47.3264 36.5004 53.3708 29.9803 58.6197C33.9148 56.2936 34.2175 52.3677 31.3293 49.5314C31.3293 49.5314 36.6819 48.6926 39.8382 49.0731C54.4088 50.8285 50.2841 34.6928 42.441 38.8521C44.8709 29.3142 51.8492 34.1826 53.2414 37.4166C62.7447 31.7181 66.9905 39.5439 65.2611 45.6229C65.2611 45.6229 61.8886 42.873 59.2426 42.8644C56.2593 42.8557 54.7374 43.6167 53.9072 44.8533C52.1259 47.5253 53.6132 52.3937 50.8461 56.38C50.5262 56.8383 50.1889 57.2707 49.8344 57.6771C53.5268 56.7 57.6256 54.1231 59.6144 47.9403C62.4075 63.4102 39.2502 71.2965 30.9834 61.8797C25.4146 60.3405 20.3905 57.0113 18.0039 52.9903C18.0039 52.9903 19.3702 51.9872 21.0131 51.7883C22.6648 51.5895 23.9532 52.2726 23.9532 52.2726C23.9532 52.2726 23.5554 50.8977 21.212 50.474ZM53.717 42.2677C53.6824 41.9478 53.6046 41.6797 53.4835 41.4808C56.389 39.319 61.9751 40.3308 64.3963 43.2968C61.733 40.7891 55.7923 40.1319 53.717 42.2677ZM53.423 41.3684C53.2673 41.1436 53.0685 40.9966 52.8523 40.9274C56.2679 37.3042 61.6638 36.8373 64.1456 40.5123C61.1017 37.382 56.0863 38.2727 53.423 41.3684ZM52.4372 40.8842C52.1864 40.9015 51.927 40.9793 51.6763 41.1263C50.9499 38.0133 49.4539 35.1165 45.4243 35.6872C49.2031 34.4074 51.8924 37.3042 52.4372 40.8842ZM51.5033 41.2387C51.3563 41.3425 51.2093 41.4722 51.0796 41.6278C49.7825 39.2844 46.8943 37.114 44.2137 37.7106C46.73 36.647 49.7998 38.7051 51.5033 41.2387ZM24.2991 56.7C25.0341 56.8556 25.7605 56.406 25.9248 55.6796C26.0891 54.9532 25.6221 54.2442 24.8958 54.0799C24.472 53.9847 24.057 54.0972 23.7457 54.3479C24.1867 53.8377 24.8785 53.587 25.5875 53.734C26.5993 53.9588 27.2392 54.9359 27.0143 55.939C26.7895 56.9335 25.7864 57.5561 24.7747 57.3399C24.031 57.1756 23.4863 56.5962 23.3393 55.9044C23.4949 56.2936 23.8494 56.6049 24.2991 56.7ZM24.0483 55.9823C24.4115 56.0601 24.7747 55.8353 24.8612 55.4721C24.939 55.1089 24.7055 54.7543 24.3423 54.6765C23.9705 54.5987 23.6073 54.8235 23.5295 55.1867C23.443 55.5412 23.6765 55.9044 24.0483 55.9823ZM47.5342 59.787C47.1278 60.0897 46.7041 60.3664 46.2631 60.6172C49.843 61.0928 54.2272 59.8908 57.2105 56.2244C57.2105 56.2244 53.3711 59.7957 49.2896 59.8562C48.6065 59.8735 48.0271 59.8389 47.5342 59.787ZM43.7381 61.7846C43.2366 61.9661 42.7264 62.1132 42.2162 62.2429C44.1359 63.2805 48.9783 63.3411 51.2352 61.8797C48.0531 62.8741 45.1735 62.3639 43.7381 61.7846ZM39.1551 62.7358C38.5065 62.7876 37.8493 62.8049 37.1921 62.7963C39.4664 64.3614 43.0809 64.1798 43.0809 64.1798C43.0809 64.1798 39.9852 63.6697 39.1551 62.7358ZM35.039 55.2732C34.451 56.2676 37.3218 57.4955 39.9852 57.3918C42.6485 57.288 45.2946 54.7025 45.2946 54.7025C45.2946 54.7025 42.0259 56.5011 39.6047 56.3714C37.1921 56.2417 35.6183 54.3047 35.039 55.2732ZM37.1316 54.8754C37.3997 54.2182 39.7431 54.1404 40.5559 54.5382C41.3687 54.9359 43.5911 54.8927 43.5911 54.8927C43.5911 54.8927 39.7604 56.6567 37.1316 54.8754Z" fill="white"/>
<path d="M33.4125 42.3715C33.4125 42.3715 33.4298 42.3283 33.4731 42.2418C33.4904 42.1985 33.5163 42.1467 33.5422 42.0861C33.5682 42.0256 33.5941 41.9564 33.6201 41.8786C33.646 41.8008 33.6806 41.7229 33.7152 41.6278C33.7498 41.5327 33.7844 41.4376 33.8189 41.3252C33.8535 41.2128 33.8968 41.1003 33.9227 40.9793C33.9573 40.8582 34.0005 40.7285 34.0265 40.5902C34.0611 40.4518 34.0957 40.3134 34.1302 40.1664C34.1648 40.0194 34.1908 39.8638 34.2254 39.7081C34.2859 39.3882 34.3378 39.0596 34.3897 38.7051C34.4415 38.3592 34.4675 37.996 34.5021 37.6242C34.528 37.2523 34.554 36.8805 34.5626 36.5C34.5713 36.1195 34.5713 35.7477 34.5626 35.3759C34.5626 35.1943 34.5453 35.004 34.5367 34.8224C34.5194 34.6409 34.5107 34.4593 34.4934 34.2863C34.4675 33.9318 34.4156 33.5945 34.3724 33.2746C34.3205 32.9546 34.2686 32.652 34.1994 32.3839C34.1821 32.3147 34.1648 32.2456 34.1562 32.185C34.1389 32.1159 34.1216 32.0553 34.1043 31.9948C34.0697 31.8651 34.0351 31.7527 34.0005 31.6403C33.966 31.5278 33.9314 31.4327 33.8968 31.3376C33.8622 31.2425 33.8362 31.156 33.8017 31.0782C33.7671 31.0004 33.7411 30.9312 33.7152 30.8707C33.6892 30.8101 33.6633 30.7582 33.646 30.7237C33.6114 30.6372 33.5855 30.5939 33.5855 30.5939V30.5853C33.5595 30.5248 33.5855 30.4469 33.646 30.421C33.6979 30.4037 33.7498 30.4124 33.7844 30.4469C33.7844 30.4469 33.8189 30.4815 33.8881 30.5507C33.9573 30.6199 34.0611 30.715 34.1735 30.862C34.234 30.9312 34.2945 31.009 34.3551 31.0955C34.4243 31.182 34.4848 31.2771 34.554 31.3895C34.6231 31.4933 34.6923 31.6143 34.7615 31.7354C34.8307 31.8564 34.8999 31.9948 34.9604 32.1332C35.0901 32.4099 35.2112 32.7298 35.3236 33.0671C35.4273 33.4043 35.5311 33.7675 35.6003 34.1393C35.6781 34.5198 35.7386 34.9089 35.7732 35.3153C35.8165 35.7131 35.8251 36.1282 35.8251 36.5346C35.8165 36.941 35.7992 37.3561 35.7559 37.7539C35.7127 38.1516 35.6522 38.5494 35.5657 38.9212C35.4879 39.3017 35.3841 39.6563 35.2803 39.9935C35.1679 40.3307 35.0469 40.642 34.9171 40.9274C34.7874 41.2128 34.6491 41.4635 34.5107 41.6711C34.381 41.8872 34.2513 42.0602 34.1302 42.2158C34.0178 42.3715 33.9227 42.4666 33.8535 42.5271C33.7844 42.5963 33.7498 42.6309 33.7498 42.6309C33.6633 42.7174 33.5249 42.7174 33.4471 42.6309C33.3952 42.5531 33.3779 42.4493 33.4125 42.3715Z" fill="white"/>
<path d="M39.5864 30.6285C39.5864 30.6285 39.5691 30.6717 39.5259 30.7582C39.5086 30.8014 39.4826 30.8533 39.4567 30.9138C39.4308 30.9744 39.4048 31.0435 39.3789 31.1214C39.3529 31.1992 39.3183 31.277 39.2838 31.3721C39.2492 31.4673 39.2146 31.5624 39.18 31.6748C39.1454 31.7872 39.1022 31.8996 39.0762 32.0207C39.0416 32.1417 38.9984 32.2714 38.9725 32.4098C38.9379 32.5482 38.9033 32.6865 38.8687 32.8335C38.8341 32.9805 38.8082 33.1362 38.7736 33.2918C38.713 33.6118 38.6612 33.9404 38.6093 34.2949C38.5574 34.6408 38.5314 35.004 38.4969 35.3758C38.4709 35.7476 38.445 36.1195 38.4363 36.4999C38.4277 36.8804 38.4277 37.2523 38.4363 37.6241C38.4363 37.8057 38.4536 37.9959 38.4623 38.1775C38.4796 38.3591 38.4882 38.5407 38.5055 38.7136C38.5314 39.0682 38.5833 39.4054 38.6266 39.7254C38.6784 40.0453 38.7303 40.348 38.7995 40.616C38.8168 40.6852 38.8341 40.7544 38.8427 40.8149C38.86 40.8841 38.8773 40.9446 38.8946 41.0052C38.9292 41.1349 38.9638 41.2473 38.9984 41.3597C39.033 41.4721 39.0676 41.5672 39.1022 41.6623C39.1368 41.7575 39.1627 41.8439 39.1973 41.9218C39.2319 41.9996 39.2578 42.0688 39.2838 42.1293C39.3097 42.1898 39.3356 42.2417 39.3529 42.2763C39.3875 42.3628 39.4135 42.406 39.4135 42.406V42.4147C39.4394 42.4752 39.4135 42.553 39.3529 42.579C39.3011 42.5962 39.2492 42.5876 39.2146 42.553C39.2146 42.553 39.18 42.5184 39.1108 42.4492C39.0416 42.3801 38.9379 42.2849 38.8255 42.1379C38.7649 42.0688 38.7044 41.9909 38.6439 41.9045C38.5747 41.818 38.5142 41.7229 38.445 41.6105C38.3758 41.5067 38.3066 41.3856 38.2374 41.2646C38.1683 41.1435 38.0991 41.0052 38.0386 40.8668C37.9088 40.5901 37.7878 40.2701 37.6754 39.9329C37.5716 39.5957 37.4678 39.2325 37.3987 38.8606C37.3208 38.4802 37.2603 38.091 37.2257 37.6846C37.1825 37.2868 37.1738 36.8718 37.1738 36.4654C37.1825 36.0589 37.1998 35.6439 37.243 35.2461C37.2862 34.8483 37.3468 34.4506 37.4332 34.0787C37.5111 33.6982 37.6148 33.3437 37.7186 33.0065C37.831 32.6692 37.9521 32.3579 38.0818 32.0726C38.2115 31.7872 38.3499 31.5364 38.4882 31.3289C38.6179 31.1127 38.7476 30.9398 38.8687 30.7841C38.9811 30.6285 39.0762 30.5333 39.1454 30.4728C39.2146 30.4036 39.2492 30.3691 39.2492 30.3691C39.3356 30.2826 39.474 30.2826 39.5518 30.3691C39.6037 30.4469 39.621 30.542 39.5864 30.6285Z" fill="white"/>
<path d="M39.4129 36.7161C39.4129 36.7161 39.3178 36.7594 39.1622 36.8112C39.0065 36.8631 38.773 36.9237 38.505 36.9842C38.2283 37.0361 37.917 37.088 37.5711 37.1139C37.3981 37.1312 37.2252 37.1398 37.0436 37.1398C36.862 37.1485 36.6804 37.1485 36.4988 37.1398C36.3172 37.1398 36.1356 37.1312 35.954 37.1139C35.7725 37.1052 35.5995 37.088 35.4266 37.062C35.0893 37.0188 34.7694 36.9669 34.4927 36.9064C34.2159 36.8458 33.9911 36.7767 33.8355 36.7161C33.7576 36.6902 33.6971 36.6642 33.6539 36.6469C33.6106 36.6296 33.5847 36.621 33.5847 36.621C33.5155 36.5951 33.4809 36.5172 33.5155 36.4481C33.5328 36.4135 33.5588 36.3875 33.5847 36.3789C33.5847 36.3789 33.6106 36.3702 33.6539 36.3529C33.6971 36.3356 33.7576 36.3097 33.8355 36.2838C33.9911 36.2319 34.2246 36.1627 34.4927 36.0935C34.7694 36.033 35.0807 35.9725 35.4266 35.9379C35.5995 35.9119 35.7725 35.9033 35.954 35.886C36.1356 35.8773 36.3172 35.8687 36.4988 35.86C36.6804 35.86 36.862 35.8514 37.0436 35.86C37.2252 35.86 37.3981 35.8773 37.5711 35.886C37.9083 35.9119 38.2283 35.9638 38.505 36.0157C38.7817 36.0676 39.0065 36.1368 39.1622 36.1886C39.3178 36.2405 39.4129 36.2838 39.4129 36.2838C39.534 36.3356 39.5859 36.474 39.534 36.5951C39.5081 36.6469 39.4648 36.6902 39.4129 36.7161Z" fill="white"/>
</g>
<defs>
<clipPath id="clip0_1667_37444">
<rect width="73" height="73" fill="white"/>
</clipPath>
</defs>
</svg>
