<svg viewBox="0 0 73 73" fill="none" xmlns="http://www.w3.org/2000/svg">
<g clip-path="url(#clip0_1667_37457)">
<path d="M36.5 73C56.6584 73 73 56.6584 73 36.5C73 16.3416 56.6584 0 36.5 0C16.3416 0 0 16.3416 0 36.5C0 56.6584 16.3416 73 36.5 73Z" fill="#3E1C69"/>
<path fill-rule="evenodd" clip-rule="evenodd" d="M53.968 11.7344C53.3367 10.4805 52.8179 10.3335 51.7716 10.4805C50.7252 10.6275 50.9847 10.1952 45.3553 8.62136C40.0719 7.14268 36.881 8.0074 34.8316 9.51202C31.3641 9.64173 27.7495 8.87213 24.8095 9.33908C22.0769 9.77144 20.9269 12.7547 23.3135 15.6689C21.463 15.176 19.3704 13.9654 18.1597 14.5707C16.707 15.2884 17.1567 21.108 18.324 25.8726C18.5835 25.8034 18.8342 25.7429 19.0677 25.691C18.9034 25.0425 18.7478 24.3507 18.6094 23.633C17.8484 19.6034 17.9003 16.2136 18.7218 16.058C19.552 15.9023 20.8404 19.0413 21.6013 23.0623C22.2931 26.6768 22.3191 29.7812 21.7138 30.4902C21.7224 31.0264 21.8348 31.5798 22.1721 32.0554C22.1894 32.0813 22.198 32.0986 22.2153 32.1246C23.4692 31.6835 24.8268 30.0146 26.2103 29.0894C24.576 33.0239 26.8329 35.7045 29.6865 35.0733C32.8168 34.3815 36.1374 32.0727 39.6914 30.9918C42.0521 31.3636 45.0872 30.741 48.9872 27.7923C53.648 24.2642 53.2502 23.9529 54.2793 23.7108C55.3083 23.4687 55.732 23.1401 55.8617 21.7479C56.1125 19.1105 55.1613 14.0864 53.968 11.7344ZM35.3245 20.0617C34.0707 20.9004 34.2696 18.998 35.5839 17.7442C36.8897 16.4817 36.9588 12.9363 36.5005 12.0197C38.1003 14.588 36.5784 19.2229 35.3245 20.0617ZM35.5666 12.504C36.0163 14.856 35.4023 16.6287 34.5981 16.3174C33.8112 15.9975 35.5753 15.1068 35.5666 12.504ZM30.802 15.5997C32.9725 16.4903 34.4339 25.0425 32.8773 26.5125C33.5778 24.5669 32.1683 17.1475 30.802 15.5997ZM23.5989 30.3C23.8323 29.5909 23.6334 25.9418 23.0368 22.7855C22.4401 19.6293 21.2814 16.1618 20.8058 15.591C21.904 16.6719 23.0108 19.5774 23.6075 22.725C24.2128 25.8726 24.1955 29.1499 23.5989 30.3ZM26.3833 15.8072C25.5618 15.3835 24.8008 14.7609 24.5155 13.827C23.7459 11.3885 25.3888 10.7486 28.4845 11.2155C30.3351 11.4922 31.4851 11.8122 32.713 11.743C31.5716 13.4119 31.0701 14.9944 30.4388 15.1154C29.6087 15.2797 27.983 15.6516 26.3833 15.8072ZM32.419 31.9689C29.7038 33.5341 27.9484 33.5427 27.7668 30.9918C27.6804 29.7206 28.5191 28.6397 29.3752 27.8701C30.7069 27.5415 32.0213 27.3426 32.739 27.2043C33.4221 27.0746 34.6068 28.6311 36.5611 29.8157C35.1948 30.1616 34.2263 30.9312 32.419 31.9689ZM35.0737 23.9962C35.9558 22.8201 38.5413 19.906 38.4202 15.0895C39.3368 17.5799 38.4462 22.1543 36.8724 24.2815C35.2899 26.4174 34.2004 25.1722 35.0737 23.9962ZM38.1349 27.6799C36.8637 28.4841 37.1145 26.599 38.4462 25.3624C39.7865 24.1345 39.9421 20.5891 39.5011 19.6639C41.0317 22.2667 39.3974 26.8757 38.1349 27.6799ZM41.4641 29.5217C42.9773 25.7861 40.461 12.5299 37.6852 9.60714C41.3257 11.6825 44.1101 25.9331 41.4641 29.5217ZM53.8123 23.2352C54.5646 20.788 53.1638 13.4206 51.5727 11.4144C53.9853 13.2736 55.3688 20.5286 53.8123 23.2352Z" fill="white"/>
<path fill-rule="evenodd" clip-rule="evenodd" d="M8.7165 35.9467C9.30452 31.3723 14.4756 28.2247 20.0703 26.4434C15.3403 28.4755 11.7257 31.9949 11.6739 35.0041C11.5528 41.87 8.13714 40.5297 8.7165 35.9467Z" fill="white"/>
<path fill-rule="evenodd" clip-rule="evenodd" d="M20.8653 28.7002C20.1908 33.9404 23.4162 38.0652 28.7516 39.786C36.439 42.2677 42.1375 40.8582 46.4784 38.731C51.096 36.4741 58.8267 37.4339 45.7434 41.7402C32.6601 46.0466 18.2192 39.4228 20.8653 28.7002Z" fill="white"/>
<path fill-rule="evenodd" clip-rule="evenodd" d="M19.5939 29.3228C18.219 33.7761 17.8212 36.8113 21.2628 40.4172C24.7044 44.0317 33.0144 47.4301 43.6765 47.1188C54.3385 46.8075 55.8518 48.338 50.7672 49.4622C34.0348 53.1545 11.9497 42.4233 19.5939 29.3228Z" fill="white"/>
<path fill-rule="evenodd" clip-rule="evenodd" d="M19.1627 27.7144C11.2418 34.2517 14.0954 40.5987 17.1565 46.1935C18.2633 48.2256 13.5419 48.2083 12.6686 40.5296C12.1238 35.7822 15.5568 29.6946 19.1627 27.7144Z" fill="white"/>
<path fill-rule="evenodd" clip-rule="evenodd" d="M18.5402 29.7551C13.2048 39.6649 20.4858 45.2077 26.8588 48.5888C32.7043 51.6932 28.1818 53.976 23.5988 50.1799C20.2696 47.4214 17.1998 43.6339 16.2141 40.7112C14.9862 37.088 15.8163 33.1362 18.5402 29.7551Z" fill="white"/>
<path d="M27.4282 60.4788C27.4282 60.4788 27.4628 60.4701 27.5234 60.4615C27.5579 60.4528 27.5666 60.4442 27.5925 60.4355C27.6185 60.4269 27.6617 60.401 27.7049 60.375C27.7914 60.3231 27.8952 60.2453 28.0163 60.1329C28.1373 60.0205 28.267 59.8821 28.4227 59.7178C28.7167 59.3892 29.0626 58.9569 29.4863 58.4726C29.9186 57.9884 30.4115 57.4349 31.1552 56.968C31.3454 56.8556 31.5443 56.7432 31.7692 56.6653C31.994 56.5789 32.2447 56.5183 32.5042 56.4924L32.5993 56.4838H32.6252C32.6425 56.4838 32.6079 56.4838 32.6685 56.4838H32.6771H32.7203H32.7982H32.8414C32.8501 56.4838 32.8674 56.4838 32.8933 56.4838C32.9798 56.4924 33.0576 56.5097 33.1441 56.527C33.2219 56.5529 33.2997 56.5702 33.3689 56.5962C33.6802 56.7172 33.9656 56.9766 34.1212 57.262C34.2855 57.5474 34.3547 57.8327 34.3979 58.1008C34.4411 58.3689 34.4498 58.6283 34.4498 58.8877C34.4498 59.1385 34.4325 59.3892 34.4152 59.6313C34.3979 59.8648 34.3806 60.1069 34.3893 60.2885V60.3491C34.3893 60.3664 34.3979 60.375 34.3979 60.3923C34.3979 60.401 34.3979 60.3923 34.3979 60.4009C34.3979 60.3923 34.3893 60.3837 34.3893 60.3664L34.3633 60.3231C34.346 60.2972 34.3287 60.2712 34.3028 60.2539C34.2769 60.228 34.2336 60.1934 34.199 60.1761C34.1126 60.1415 34.078 60.1242 33.9655 60.1329L34.0607 60.1242C34.0693 60.1156 34.052 60.1156 34.0434 60.1156C34.0261 60.1242 34.0434 60.1156 34.0607 60.1069C34.0693 60.0983 34.0866 60.0983 34.1039 60.0897C34.1385 60.0724 34.1644 60.0551 34.2077 60.0291C34.2769 59.9859 34.3633 59.9167 34.4411 59.8389C34.7611 59.5449 35.0983 59.1644 35.4442 58.7926C35.7901 58.4121 36.1533 58.023 36.5597 57.6425C36.9661 57.2706 37.4244 56.8988 37.9952 56.6394C38.2805 56.5097 38.6005 56.4059 38.9377 56.38C39.0242 56.3713 39.1107 56.3713 39.1971 56.3713H39.2144H39.2663H39.2922H39.3441L39.4393 56.38C39.5257 56.3886 39.6468 56.4146 39.7506 56.4319C39.8457 56.4665 39.9408 56.4924 40.0359 56.5356C40.2262 56.6221 40.4077 56.7605 40.5461 56.9161C40.6845 57.0804 40.7882 57.2534 40.8488 57.4263C40.9871 57.7722 41.0217 58.0835 41.039 58.3775C41.0736 58.9655 40.9871 59.493 40.9525 59.9686C40.9439 60.0896 40.9352 60.1934 40.9352 60.2885V60.3491C40.9352 60.3664 40.9352 60.375 40.9352 60.3923C40.9352 60.3837 40.9266 60.375 40.9266 60.3664C40.9266 60.3577 40.9179 60.3664 40.9179 60.3491C40.9093 60.3404 40.9006 60.3231 40.892 60.3145C40.8747 60.2885 40.8574 60.2799 40.8315 60.2539C40.7969 60.228 40.7623 60.2021 40.7277 60.1934C40.6931 60.1761 40.6672 60.1675 40.6326 60.1675C40.6153 60.1675 40.598 60.1675 40.5807 60.1675C40.4769 60.1761 40.5547 60.1675 40.5375 60.1675H40.5461C40.572 60.1675 40.6153 60.1588 40.6326 60.1588C40.6239 60.1588 40.6239 60.1588 40.6153 60.1588C40.6412 60.1502 40.719 60.1156 40.7969 60.0724C40.9525 59.9772 41.1168 59.8302 41.2811 59.6746C41.4454 59.5189 41.6097 59.3546 41.774 59.1903C42.1026 58.8617 42.4226 58.5245 42.7511 58.2045C43.0884 57.8846 43.4256 57.5733 43.7975 57.3225C43.9791 57.1928 44.1779 57.0718 44.3768 56.968C44.5844 56.8642 44.7919 56.7778 45.0081 56.7172C45.2243 56.6567 45.4491 56.6135 45.6739 56.6221H45.7604H45.769C45.8123 56.6221 45.7863 56.6221 45.8036 56.6221H45.8209H45.8555C45.8987 56.6308 45.9506 56.6308 45.9939 56.6394C46.1236 56.6653 46.2446 56.6826 46.3484 56.7345C46.5732 56.821 46.7721 56.968 46.9105 57.1496C47.0488 57.3312 47.1266 57.5214 47.1785 57.703C47.2736 58.0662 47.2736 58.3861 47.265 58.6715C47.2477 58.9569 47.2218 59.2163 47.1872 59.4411C47.1266 59.8908 47.0661 60.2453 47.0834 60.4615C47.0921 60.5652 47.118 60.6085 47.118 60.6171C47.1267 60.6258 47.1439 60.6258 47.1439 60.6344C47.2131 60.6344 47.265 60.6863 47.265 60.7555C47.265 60.8247 47.2131 60.8765 47.1439 60.8765C47.1439 60.8765 47.1266 60.8765 47.1007 60.8765C47.0748 60.8765 47.0315 60.8765 46.9796 60.842C46.9537 60.8247 46.9278 60.8074 46.9105 60.7814C46.8932 60.7555 46.8672 60.7295 46.8499 60.7036C46.8153 60.6431 46.7981 60.5825 46.7808 60.5134C46.7289 60.2367 46.7375 59.8735 46.7462 59.4152C46.7462 59.1903 46.7548 58.9396 46.7375 58.6801C46.7202 58.4207 46.6856 58.1354 46.5905 57.8932C46.5473 57.7722 46.4868 57.6598 46.4003 57.582C46.3225 57.5041 46.2273 57.4522 46.1149 57.4177C46.0544 57.4004 46.0025 57.4004 45.9506 57.3917C45.9074 57.3917 45.8555 57.3917 45.8123 57.3917H45.7777H45.7604C45.769 57.3917 45.7344 57.3917 45.7777 57.3917H45.769L45.7171 57.4004C45.5701 57.409 45.4145 57.4522 45.2588 57.5041C45.1032 57.556 44.9475 57.6425 44.8005 57.729C44.6449 57.8241 44.4979 57.9365 44.3422 58.0575C44.0396 58.3083 43.7456 58.5937 43.4516 58.9136C43.1576 59.2336 42.8636 59.5795 42.5523 59.934C42.3966 60.1156 42.2323 60.2972 42.0507 60.4788C41.8691 60.6604 41.6789 60.842 41.4281 61.0236C41.3676 61.0668 41.2984 61.11 41.2206 61.1533C41.186 61.1706 41.1428 61.1965 41.0995 61.2138L41.039 61.2397L41.0044 61.257L40.9612 61.2743C40.9006 61.2916 40.8315 61.3089 40.7623 61.3176L40.6672 61.3262H40.6585C40.6326 61.3262 40.7017 61.3262 40.5893 61.3262C40.5547 61.3262 40.5288 61.3262 40.4942 61.3176C40.4337 61.3089 40.3645 61.3003 40.304 61.2743C40.2434 61.2484 40.1743 61.2051 40.1224 61.1619C40.0619 61.1187 40.0359 61.0754 39.9927 61.0322C39.9754 61.0063 39.9581 60.989 39.9408 60.963C39.9235 60.9371 39.9235 60.9284 39.9062 60.9025C39.8889 60.8679 39.8716 60.8247 39.8543 60.7901C39.8284 60.7209 39.8197 60.669 39.8024 60.6085L39.7851 60.4701C39.7765 60.4269 39.7765 60.3837 39.7765 60.3491C39.7678 60.1934 39.7765 60.0464 39.7765 59.9167C39.8024 59.3892 39.8457 58.905 39.8197 58.464C39.8024 58.2478 39.7678 58.0489 39.7073 57.9105C39.6814 57.8414 39.6468 57.7981 39.6122 57.7549C39.5776 57.729 39.5517 57.6944 39.4998 57.6771C39.4825 57.6598 39.4479 57.6598 39.422 57.6511C39.396 57.6511 39.3874 57.6425 39.3528 57.6338L39.2577 57.6252H39.2058H39.1798C39.1885 57.6252 39.1366 57.6252 39.2058 57.6252H39.1971L39.0674 57.6338C38.8858 57.6511 38.7042 57.7117 38.514 57.7981C38.1422 57.9797 37.7617 58.2564 37.4072 58.585C37.0526 58.9136 36.7067 59.2768 36.3608 59.6486C36.0149 60.0205 35.6691 60.4096 35.2367 60.7814C35.1243 60.8765 35.0119 60.963 34.8735 61.0581C34.813 61.1014 34.7265 61.1446 34.6487 61.1878C34.6141 61.2051 34.5622 61.2311 34.519 61.2484C34.4757 61.2657 34.4325 61.283 34.3633 61.3003C34.3028 61.3176 34.2163 61.3349 34.1644 61.3435L34.0693 61.3521H34.0001H33.9483C33.9137 61.3521 33.8791 61.3435 33.8445 61.3349C33.7753 61.3176 33.7148 61.3089 33.6456 61.2657C33.5764 61.2311 33.5159 61.1878 33.464 61.1446C33.4208 61.1014 33.3862 61.0581 33.3516 61.0063C33.3084 60.9544 33.2997 60.9198 33.2824 60.8852C33.2651 60.8506 33.2478 60.8074 33.2392 60.7728C33.2219 60.7122 33.2046 60.6517 33.1959 60.5998L33.1787 60.4615L33.17 60.3404C33.17 60.0291 33.1959 59.7956 33.2132 59.5535C33.2392 59.3114 33.2565 59.0866 33.2651 58.8704C33.2911 58.4467 33.2651 58.0316 33.1441 57.8068C33.0835 57.6944 33.0316 57.6425 32.9365 57.5906C32.9106 57.5819 32.8846 57.5733 32.8587 57.556C32.8328 57.556 32.8155 57.5474 32.7895 57.5387C32.7895 57.5387 32.7722 57.5387 32.7636 57.5301H32.7203L32.6425 57.5214H32.5993H32.5906C32.6425 57.5214 32.5993 57.5214 32.6166 57.5214H32.5993H32.5388C32.3831 57.5214 32.2275 57.5474 32.0632 57.5992C31.9075 57.6425 31.7519 57.7117 31.5962 57.7895C31.2936 57.9538 31.0082 58.1527 30.7488 58.3688C30.4807 58.585 30.2386 58.8012 30.0138 59.0174C29.5641 59.4498 29.1663 59.8475 28.8204 60.1588C28.4746 60.4701 28.1546 60.7036 27.8865 60.816C27.8174 60.842 27.7568 60.8679 27.6963 60.8852C27.6358 60.9025 27.5666 60.9111 27.532 60.9111C27.4715 60.9111 27.4369 60.9111 27.4369 60.9111C27.3158 60.9111 27.2207 60.8247 27.2207 60.7036C27.2553 60.5912 27.3245 60.5047 27.4282 60.4788Z" fill="white"/>
<path d="M26.0016 65.0012C26.0016 65.0012 26.0362 64.9926 26.0967 64.9839C26.1313 64.9753 26.14 64.9666 26.1659 64.958C26.1919 64.9494 26.2351 64.9234 26.2783 64.8975C26.3648 64.8456 26.4686 64.7678 26.5896 64.6553C26.7107 64.5429 26.8404 64.4046 26.9961 64.2403C27.2901 63.9117 27.6359 63.4793 28.0597 62.9951C28.492 62.5108 28.9849 61.9574 29.7286 61.4905C29.9188 61.378 30.1177 61.2656 30.3425 61.1878C30.5674 61.1013 30.8181 61.0408 31.0776 61.0149L31.1813 61.0062H31.2073C31.2246 61.0062 31.19 61.0062 31.2505 61.0062H31.2591H31.3024H31.3802H31.4234C31.4321 61.0062 31.4494 61.0062 31.4753 61.0062C31.5618 61.0149 31.6396 61.0322 31.7261 61.0494C31.8039 61.0754 31.8817 61.0927 31.9509 61.1186C32.2622 61.2397 32.5476 61.4991 32.7032 61.7845C32.8675 62.0698 32.9367 62.3552 32.9799 62.6232C33.0232 62.8913 33.0318 63.1507 33.0318 63.4101C33.0318 63.6609 33.0145 63.9117 32.9972 64.1538C32.9799 64.3873 32.9626 64.6294 32.9713 64.811V64.8715C32.9713 64.8888 32.9799 64.8975 32.9799 64.9148C32.9799 64.9234 32.9799 64.9148 32.9799 64.9234C32.9799 64.9148 32.9713 64.9061 32.9713 64.8888L32.9454 64.8456C32.9281 64.8196 32.9108 64.7937 32.8848 64.7764C32.8589 64.7505 32.8156 64.7159 32.7811 64.6986C32.6946 64.664 32.66 64.6467 32.5476 64.6553L32.6427 64.6467C32.6513 64.6381 32.6341 64.6381 32.6254 64.6381C32.6081 64.6467 32.6254 64.6381 32.6427 64.6294C32.6513 64.6208 32.6686 64.6208 32.6859 64.6121C32.7205 64.5948 32.7465 64.5775 32.7897 64.5516C32.8589 64.5083 32.9454 64.4392 33.0232 64.3613C33.3431 64.0673 33.6804 63.6869 34.0263 63.315C34.3721 62.9345 34.7353 62.5454 35.1418 62.1649C35.5482 61.7931 36.0065 61.4213 36.5772 61.1619C36.8626 61.0322 37.1825 60.9284 37.5197 60.9024C37.6062 60.8938 37.6927 60.8938 37.7792 60.8938H37.7965H37.8483H37.8743H37.9262L38.0213 60.9024C38.1078 60.9111 38.2288 60.937 38.3326 60.9543C38.4277 60.9889 38.5228 61.0149 38.6179 61.0581C38.8082 61.1446 38.9898 61.2829 39.1281 61.4386C39.2665 61.6029 39.3703 61.7758 39.4308 61.9488C39.5691 62.2947 39.6037 62.606 39.621 62.9C39.6556 63.488 39.5691 64.0155 39.5346 64.491C39.5259 64.6121 39.5173 64.7159 39.5173 64.811V64.8715C39.5173 64.8888 39.5173 64.8975 39.5173 64.9148C39.5173 64.9061 39.5086 64.8975 39.5086 64.8888C39.5086 64.8802 39.5 64.8888 39.5 64.8715C39.4913 64.8629 39.4827 64.8456 39.474 64.8369C39.4567 64.811 39.4394 64.8023 39.4135 64.7764C39.3789 64.7505 39.3443 64.7245 39.3097 64.7159C39.2751 64.6986 39.2492 64.6899 39.2146 64.6899C39.1973 64.6899 39.18 64.6899 39.1627 64.6899C39.059 64.6986 39.1368 64.6899 39.1195 64.6899H39.1281C39.1541 64.6899 39.1973 64.6813 39.2146 64.6813C39.206 64.6813 39.206 64.6813 39.1973 64.6813C39.2233 64.6726 39.3011 64.6381 39.3789 64.5948C39.5346 64.4997 39.6988 64.3527 39.8631 64.197C40.0274 64.0414 40.1917 63.8771 40.356 63.7128C40.6846 63.3842 41.0046 63.047 41.3332 62.727C41.6704 62.4071 42.0077 62.0958 42.3795 61.845C42.5611 61.7153 42.76 61.5942 42.9589 61.4905C43.1664 61.3867 43.3739 61.3002 43.5901 61.2397C43.8063 61.1792 44.0311 61.1359 44.2559 61.1446H44.3424H44.3511C44.3943 61.1446 44.3684 61.1446 44.3857 61.1446H44.4029H44.4375C44.4808 61.1532 44.5327 61.1532 44.5759 61.1619C44.7056 61.1878 44.8267 61.2051 44.9304 61.257C45.1466 61.3435 45.3541 61.4905 45.4925 61.6721C45.6309 61.8536 45.7087 62.0439 45.7606 62.2255C45.8557 62.5887 45.8557 62.9086 45.847 63.194C45.8297 63.4793 45.8038 63.7387 45.7692 63.9636C45.7087 64.4132 45.6481 64.7678 45.6654 64.9839C45.6741 65.0877 45.7 65.1309 45.7 65.1396C45.7087 65.1482 45.726 65.1482 45.726 65.1569C45.7952 65.1569 45.847 65.2088 45.847 65.278C45.847 65.3471 45.7952 65.399 45.726 65.399C45.726 65.399 45.7087 65.399 45.6827 65.399C45.6568 65.399 45.6136 65.399 45.5617 65.3644C45.5357 65.3471 45.5098 65.3298 45.4925 65.3039C45.4752 65.2779 45.4493 65.252 45.432 65.2261C45.3974 65.1655 45.3801 65.105 45.3628 65.0358C45.3109 64.7591 45.3196 64.3959 45.3282 63.9376C45.3282 63.7128 45.3368 63.462 45.3196 63.2026C45.3023 62.9432 45.2677 62.6578 45.1726 62.4157C45.1293 62.2946 45.0688 62.1822 44.9823 62.1044C44.9045 62.0266 44.8094 61.9747 44.697 61.9401C44.6364 61.9228 44.5845 61.9228 44.5327 61.9142C44.4894 61.9142 44.4375 61.9142 44.3943 61.9142H44.3597H44.3424C44.3511 61.9142 44.3165 61.9142 44.3597 61.9142H44.3511L44.2992 61.9228C44.1522 61.9315 43.9965 61.9747 43.8409 62.0266C43.6852 62.0785 43.5296 62.1649 43.3826 62.2514C43.2269 62.3465 43.0799 62.4589 42.9243 62.58C42.6216 62.8308 42.3276 63.1161 42.0336 63.4361C41.7396 63.756 41.4456 64.1019 41.1343 64.4565C40.9786 64.6381 40.8143 64.8196 40.6328 65.0012C40.4512 65.1828 40.2609 65.3644 40.0102 65.546C39.9496 65.5892 39.8804 65.6325 39.8026 65.6757C39.768 65.693 39.7248 65.719 39.6816 65.7363L39.621 65.7622L39.5864 65.7795L39.5432 65.7968C39.4827 65.8141 39.4135 65.8314 39.3443 65.84L39.2492 65.8487H39.2405C39.2146 65.8487 39.2838 65.8487 39.1714 65.8487C39.1368 65.8487 39.1108 65.8487 39.0762 65.84C39.0157 65.8314 38.9465 65.8227 38.886 65.7968C38.8255 65.7708 38.7563 65.7276 38.7044 65.6844C38.6439 65.6411 38.6179 65.5979 38.5747 65.5547C38.5574 65.5287 38.5401 65.5114 38.5228 65.4855C38.5055 65.4595 38.5055 65.4509 38.4882 65.4249C38.4709 65.3904 38.4536 65.3471 38.4364 65.3125C38.4104 65.2434 38.4018 65.1915 38.3845 65.1309L38.3672 64.9926C38.3585 64.9494 38.3585 64.9061 38.3585 64.8715C38.3499 64.7159 38.3585 64.5689 38.3585 64.4392C38.3845 63.9117 38.4277 63.4274 38.4018 62.9864C38.3845 62.7703 38.3499 62.5714 38.2893 62.433C38.2634 62.3638 38.2288 62.3206 38.1942 62.2774C38.1596 62.2514 38.1337 62.2168 38.0818 62.1995C38.0645 62.1822 38.0299 62.1822 38.004 62.1736C37.978 62.1736 37.9694 62.1649 37.9348 62.1563L37.8397 62.1476H37.7878H37.7619C37.7705 62.1476 37.7186 62.1476 37.7878 62.1476H37.7792L37.6495 62.1563C37.4679 62.1736 37.2863 62.2341 37.096 62.3206C36.7242 62.5022 36.3437 62.7789 35.9892 63.1075C35.6346 63.4361 35.2888 63.7993 34.9429 64.1711C34.597 64.5429 34.2511 64.9321 33.8187 65.3039C33.7063 65.399 33.5939 65.4855 33.4555 65.5806C33.395 65.6238 33.3085 65.6671 33.2307 65.7103C33.1961 65.7276 33.1442 65.7535 33.101 65.7708C33.0578 65.7881 33.0145 65.8054 32.9454 65.8227C32.8848 65.84 32.7984 65.8573 32.7465 65.866L32.6513 65.8746H32.5822H32.5303C32.4957 65.8746 32.4611 65.866 32.4265 65.8573C32.3573 65.84 32.2968 65.8314 32.2276 65.7881C32.1585 65.7535 32.0979 65.7103 32.046 65.6671C32.0028 65.6238 31.9682 65.5806 31.9336 65.5287C31.8904 65.4768 31.8817 65.4422 31.8645 65.4077C31.8472 65.3731 31.8299 65.3298 31.8212 65.2952C31.8039 65.2347 31.7866 65.1742 31.778 65.1223L31.7607 64.9839L31.752 64.8629C31.752 64.5516 31.778 64.3181 31.7953 64.076C31.8212 63.8339 31.8385 63.609 31.8472 63.3928C31.8731 62.9691 31.8472 62.5541 31.7261 62.3292C31.6656 62.2168 31.6137 62.1649 31.5186 62.1131C31.4926 62.1044 31.4667 62.0958 31.4407 62.0785C31.4148 62.0785 31.3975 62.0698 31.3716 62.0612C31.3716 62.0612 31.3543 62.0612 31.3456 62.0525H31.3024L31.2246 62.0439H31.1813H31.1727C31.2246 62.0439 31.1813 62.0439 31.1986 62.0439H31.1813H31.1208C30.9651 62.0439 30.8095 62.0698 30.6452 62.1217C30.4895 62.1649 30.3339 62.2341 30.1782 62.3119C29.8756 62.4762 29.5902 62.6751 29.3308 62.8913C29.0627 63.1075 28.8206 63.3237 28.5958 63.5399C28.1461 63.9722 27.7484 64.37 27.4025 64.6813C27.0566 64.9926 26.7366 65.2261 26.4686 65.3385C26.3994 65.3644 26.3389 65.3904 26.2783 65.4077C26.2178 65.425 26.1486 65.4336 26.114 65.4336C26.0535 65.4336 26.0189 65.4336 26.0189 65.4336C25.8979 65.4336 25.8027 65.3471 25.8027 65.2261C25.82 65.105 25.8892 65.0185 26.0016 65.0012Z" fill="white"/>
</g>
<defs>
<clipPath id="clip0_1667_37457">
<rect width="73" height="73" fill="white"/>
</clipPath>
</defs>
</svg>
