<svg viewBox="0 0 73 73" fill="none" xmlns="http://www.w3.org/2000/svg">
<g clip-path="url(#clip0_1667_37479)">
<path d="M36.5 73C56.6584 73 73 56.6584 73 36.5C73 16.3416 56.6584 0 36.5 0C16.3416 0 0 16.3416 0 36.5C0 56.6584 16.3416 73 36.5 73Z" fill="#3E1C69"/>
<path fill-rule="evenodd" clip-rule="evenodd" d="M22.0759 10.5583C22.4651 10.4372 22.7764 10.368 23.7189 10.8609C24.9901 11.5181 25.9067 12.6941 26.5639 13.6107C26.6417 13.7232 26.6763 13.8269 26.6849 13.922C26.9962 14.1209 27.3248 14.2766 27.6188 14.389C28.4576 14.7176 29.7547 15.4007 29.7633 17.061C29.772 18.7213 28.449 20.0529 27.3594 20.1826C26.2699 20.3123 25.6386 21.3241 25.8029 21.938C25.9672 22.552 26.6417 23.0362 26.6417 23.0362C26.6417 23.0362 25.1803 22.5087 24.7393 21.497C24.2983 20.4939 25.2235 19.2487 25.2235 19.2487C24.281 18.531 24.3242 15.4267 25.9153 14.9511C25.9153 14.9511 25.8634 14.8559 25.7424 14.7003C25.483 14.7781 25.2062 14.8214 24.9814 14.8214C24.3502 14.8214 22.2489 13.1006 21.6695 12.3482C21.6263 12.3828 21.5744 12.4174 21.5139 12.452C20.5973 13.04 19.3434 13.775 18.4873 13.7232C18.4268 13.7232 18.3663 13.7145 18.3144 13.7145C18.3144 13.7577 18.3144 13.8096 18.3144 13.8529C18.2971 15.0548 17.8129 16.326 16.5071 17.3204C16.4639 17.355 16.4207 17.3809 16.3774 17.4155C16.5417 17.502 16.6541 17.6058 16.6974 17.7182C16.8098 18.0381 17.9858 21.2808 17.3459 23.0449C17.3113 23.14 17.2767 23.2265 17.2335 23.3043C17.5016 23.2611 17.7264 23.2265 17.8734 23.2956C19.2137 23.875 20.4157 27.2474 20.6319 28.2419C21.9203 28.7434 23.3212 29.7033 24.2723 30.7236C24.2378 30.4901 24.2551 30.2653 24.3242 30.0664C24.1167 29.4784 24.6528 28.3456 25.9067 27.5674C27.3854 26.6421 28.8294 26.0714 29.3569 26.4778C30.3514 26.1406 33.2914 27.5501 34.5626 28.3889C34.6058 28.0516 34.8133 27.6798 35.2889 27.3512C36.3612 26.6162 38.1944 26.3568 37.4248 26.7718C36.8887 27.0572 36.318 27.1437 36.0067 28.1295C35.851 28.6223 35.7126 29.0634 35.4705 29.2104C35.2457 29.3487 35.0209 29.3055 34.8479 29.1671C34.4501 29.0979 33.7151 28.8558 32.5737 28.484C30.9653 27.9565 29.6509 27.6625 29.184 27.2561C28.5181 28.1035 26.8838 29.4265 25.751 30.0578C26.1401 30.7582 26.512 31.7959 26.7714 32.6779C28.5441 33.0324 30.6367 33.8972 31.4668 35.4277C32.7899 32.6347 33.2655 31.5019 34.3118 31.3116C34.6577 30.8015 35.5743 30.2999 36.7849 30.2567C38.4884 30.1875 40.0017 30.395 40.3043 30.9917C41.4976 31.2425 43.5125 32.5741 44.5415 33.4475C44.6279 33.1276 44.8614 32.7903 45.3284 32.5223C46.4525 31.8651 48.303 31.7354 47.4988 32.0899C46.9454 32.332 46.3747 32.3752 45.9856 33.3524C45.7953 33.828 45.6224 34.269 45.3803 34.3901C45.19 34.4852 44.9998 34.4679 44.8441 34.3728C44.455 34.2517 43.7632 33.9145 42.6996 33.3956C41.1863 32.6606 39.9152 32.1937 39.5088 31.7267C38.3155 32.1245 36.1709 32.4271 35.0382 32.332C34.6231 33.3091 33.5335 34.7273 32.8418 35.4969C34.2945 35.5142 36.0585 36.0849 36.6206 37.0102C36.7157 37.1658 36.7935 37.3042 36.8627 37.4339C38.1425 37.0793 40.0709 37.1312 41.6706 37.7192C42.371 36.7075 43.4 35.9466 44.0313 35.6612C44.2821 35.5488 44.5328 35.5315 44.749 35.6007C45.4408 34.9694 47.4383 35.0472 49.185 36.0503C51.001 33.7934 54.2177 32.505 57.1578 35.4191C61.9484 35.9379 63.5654 42.112 63.4443 42.7519C63.4443 42.7519 62.2943 40.3567 59.8211 39.5525C60.1065 40.1924 60.3832 40.8928 60.6426 41.6537C61.6457 44.5765 62.0781 48.2689 61.0231 49.9205C56.4228 41.1522 55.4629 46.7556 49.9374 43.5648C48.5106 42.7346 47.594 41.3078 47.715 39.5179C47.7237 39.3622 47.741 39.1979 47.7669 39.0423C47.5421 39.0682 47.3259 39.0855 47.1184 39.0942C46.4266 39.1114 45.7867 38.8607 45.2851 38.4975C45.216 38.7223 45.1295 38.9644 45.0171 39.2152C44.896 39.5006 44.7577 39.76 44.6107 39.9935C45.6224 41.2733 46.4525 42.9422 46.3487 44.343C46.8935 44.9051 46.9886 45.8649 46.9886 45.8649C46.9886 45.8649 46.5044 45.7266 45.8126 45.7785C45.631 46.0379 45.3976 46.3059 45.1295 46.574C45.2246 47.6636 45.7434 48.3899 45.7434 48.3899C45.7434 48.3899 44.2561 48.7704 43.5903 47.923C42.3018 48.9174 40.7367 49.8773 39.3877 50.5345C39.5607 51.2608 39.4137 52.212 38.7738 53.2583C38.6527 53.4572 38.5316 53.6388 38.4019 53.8118C39.0418 54.0452 39.6471 54.5122 40.0103 55.1867C40.0795 55.3164 40.1487 55.4461 40.2092 55.5844C41.2209 54.7889 42.4921 54.5554 43.7546 54.8062C50.0065 56.0427 47.0492 60.8852 56.2844 57.3225C55.9904 59.2595 53.232 61.7499 50.5513 63.2891C49.8509 63.6956 49.185 64.0414 48.5452 64.3355C50.9404 65.3645 53.379 64.3182 53.379 64.3182C53.0504 64.8802 47.7669 68.4602 43.8238 65.6931C38.9813 65.9957 37.6496 61.724 38.4365 58.5245C36.88 57.6252 35.8424 56.1725 35.7732 55.204C35.5311 55.0743 35.3581 54.8408 35.2889 54.5122C35.1592 53.8723 35.1852 52.7049 35.5311 51.6067C34.5366 51.6932 33.5422 51.6759 32.7553 51.5635C32.444 52.1255 31.2074 53.7426 30.1871 54.6419C30.5589 55.8266 30.7924 57.9019 30.6972 59.0433C31.2247 59.3287 31.8646 60.5566 32.8245 62.018C33.646 63.2718 34.1043 63.9636 34.1561 64.2576C34.2253 64.3614 34.2599 64.4911 34.2426 64.6467C34.1994 64.9235 33.8448 65.2261 33.4471 65.5547C32.6515 66.2205 32.7985 66.7826 32.7466 67.3879C32.6688 68.2613 32.1932 66.4713 32.4613 65.1915C32.5996 64.5084 32.9715 64.1539 33.3433 64.0328C32.3402 63.1681 30.4119 61.0063 30.0919 59.7956C29.4953 59.5189 28.9419 58.1959 28.5873 56.6394C28.3798 55.7487 28.4576 54.9532 28.6824 54.4171C28.6651 53.4659 29.5126 52.7741 31.5101 51.2003C31.3804 51.1225 31.2853 51.036 31.242 50.9322C31.1815 50.7939 31.1383 50.6209 31.1383 50.422C30.5762 50.8025 30.0055 50.9755 29.4434 50.8458C27.861 50.4912 26.218 49.7043 24.9122 48.8742C24.9036 48.8915 24.8949 48.9174 24.8863 48.9347C24.5491 49.5573 22.9493 51.5981 21.8598 52.3504C22.4651 53.3794 23.1569 55.5758 23.2866 56.7864C23.814 57.0372 24.4539 58.2997 25.4311 59.7956C26.2007 60.9803 26.6417 61.6721 26.7368 61.9921C26.8319 62.1045 26.8838 62.2515 26.8579 62.4244C26.8146 62.7011 26.4601 63.0038 26.0623 63.3324C25.2668 64.0069 25.4138 64.5603 25.3619 65.1656C25.2841 66.039 24.8085 64.249 25.0765 62.9778C25.2149 62.3033 25.5781 61.9488 25.9413 61.8278C24.9555 60.9803 23.079 58.8358 22.7245 57.6165C22.1105 57.3571 21.3755 56.207 20.7702 54.8235C20.2081 53.5437 20.3465 52.359 20.7962 51.9353C20.6751 50.8371 21.6349 50.1453 24.0389 48.2602C23.5546 47.9057 23.1569 47.5598 22.8715 47.2485C22.5688 46.9286 22.4824 46.6605 22.5429 46.4097C21.9376 46.3665 21.4015 46.1417 20.995 45.7093C20.6232 45.3115 20.2341 44.8965 19.8623 44.4814C19.2569 45.104 17.7437 46.4097 16.6541 46.9718C16.5071 48.1305 15.9105 49.9551 15.3743 51.0014C15.7202 51.5721 16.0142 52.7741 16.4898 54.1922C16.7838 55.0743 17 55.7055 17.1124 56.1379C17.3373 56.2589 17.467 56.4924 17.3891 56.7778C17.3113 57.0458 16.9222 57.2966 16.4812 57.5733C15.6078 58.1354 15.677 58.7061 15.5473 59.3028C15.357 60.1588 15.1236 58.3256 15.5473 57.0891C15.7375 56.5443 16.0402 56.2503 16.3601 56.1119C15.6597 55.0397 14.5874 52.9038 14.4231 51.6413C13.9648 51.1743 14.0081 49.713 14.3367 48.1132C14.5528 47.0842 15.0544 46.3319 15.5473 45.9774C15.8932 45.2078 16.9481 44.6803 19.0926 43.5734C18.4182 42.7433 17.8474 41.8959 17.5794 41.0744C17.3113 40.2788 17.3459 39.9416 17.467 39.5092C17.0692 39.4573 16.732 39.1374 16.412 38.437C16.4034 38.411 16.3861 38.3851 16.3688 38.3505C15.4435 38.3332 13.7573 38.1603 12.6764 37.8317C12.2613 39.1287 11.215 41.0744 10.5232 41.8267C10.921 42.259 11.0853 43.6512 11.4658 45.3807C11.7252 46.5308 11.8895 47.2831 11.9241 47.6895C12.1489 47.8279 12.2613 48.07 12.1576 48.3467C12.0624 48.6061 11.6474 48.8309 11.1977 49.0817C10.2898 49.5833 10.3157 50.154 10.1428 50.742C9.89199 51.5808 9.78822 49.7389 10.2984 48.5369C10.5492 47.9403 10.9383 47.6636 11.3015 47.5944C10.6011 46.4011 9.29533 42.9422 9.78822 41.9564C9.39909 41.4289 9.68445 39.9848 10.2638 38.4543C10.774 37.1312 11.7166 36.3789 12.3392 36.4049C13.0482 36.0244 14.0081 36.2838 15.9278 36.9237C15.5386 35.2634 15.3225 32.8854 15.8499 30.9744C14.4404 30.0405 14.1378 26.0368 13.8438 25.1548C13.6968 24.7138 13.8265 24.3506 14.1205 24.0739C13.9821 23.9788 13.8611 23.8577 13.7746 23.6934C13.1693 22.5606 12.9358 19.5168 13.0309 18.1765C13.0569 17.7614 13.3941 17.4761 13.8611 17.3118C13.6622 17.2253 13.4979 17.1042 13.4979 16.9486C13.5411 15.5477 15.0284 13.481 15.9451 12.5125C16.2909 12.1407 16.559 12.0975 16.8271 12.2012C16.8617 12.0802 16.9135 11.9505 17 11.7948C17.6053 10.6793 20.4589 9.98754 21.3323 10.0913C21.7474 10.2037 21.9635 10.3507 22.0759 10.5583ZM42.9504 41.083C42.4661 40.789 41.8349 40.9447 41.5409 41.4289C41.2728 41.8613 41.3679 42.4147 41.7398 42.7346C41.0826 42.3196 40.875 41.4549 41.2728 40.789C41.6792 40.1232 42.5526 39.907 43.2184 40.3134C43.8843 40.7198 44.1005 41.5932 43.694 42.259C43.4952 42.5876 43.1839 42.8125 42.8293 42.8989C43.0196 42.8125 43.1839 42.6741 43.2963 42.4839C43.5903 42.0169 43.4346 41.377 42.9504 41.083ZM40.287 43.7723C39.8028 43.4783 39.1715 43.634 38.8689 44.1182C38.6095 44.5506 38.6959 45.104 39.0678 45.4239C38.4106 45.0175 38.1944 44.1528 38.6008 43.487C39.0072 42.8211 39.8806 42.6049 40.5465 43.0114C41.2209 43.4178 41.4285 44.2911 41.022 44.957C40.8232 45.2856 40.5032 45.5104 40.1573 45.5969C40.3476 45.5104 40.5119 45.3721 40.6243 45.1818C40.9269 44.6976 40.7713 44.0663 40.287 43.7723ZM40.019 44.2047C39.7768 44.0577 39.4569 44.1355 39.3099 44.3776C39.1629 44.6197 39.2407 44.9397 39.4828 45.0867C39.725 45.2337 40.0449 45.1559 40.1919 44.9137C40.3389 44.6716 40.2611 44.3517 40.019 44.2047ZM42.6823 41.524C42.4402 41.377 42.1202 41.4549 41.9732 41.697C41.8262 41.9391 41.9041 42.259 42.1462 42.406C42.3883 42.553 42.7083 42.4752 42.8553 42.2331C43.0023 41.9823 42.9244 41.671 42.6823 41.524ZM36.2401 38.5494C35.4619 39.5352 36.8108 40.4691 36.8108 40.4691C36.8108 40.4691 34.8393 40.8841 34.0091 42.3369C33.179 43.7896 32.1932 46.4357 32.1932 46.4357C32.1932 46.4357 32.1932 42.6482 33.5422 41.4462C34.8912 40.2529 35.7299 40.201 35.7299 40.201C35.7299 40.201 35.0987 38.8088 36.2401 38.5494ZM30.9653 36.353C28.7949 36.8805 24.9036 43.0892 24.9036 43.0892C25.042 41.7748 27.9907 35.5747 30.9653 36.353ZM24.4626 33.3697C22.2057 34.1479 19.5682 37.6241 19.5682 37.6241C19.5682 37.6241 20.5021 35.177 22.2662 34.0528C24.0216 32.9287 24.4626 33.3697 24.4626 33.3697ZM19.8623 28.7607C18.6343 28.8558 17.4583 30.0837 17.4583 30.0837C17.4583 30.0837 18.1933 27.8873 19.8623 28.7607ZM16.7752 23.4599C15.9278 23.6588 15.3311 23.8837 15.3311 23.8837C15.3311 23.8837 16.0661 22.9238 16.7752 23.4599ZM21.9981 11.1376C21.6782 11.5181 22.2748 12.158 23.2087 12.9535C24.1426 13.7577 24.6182 13.6713 24.7652 13.507C24.9122 13.3513 22.9753 12.6077 21.9981 11.1376ZM14.3799 19.1104C14.7604 18.116 16.2736 17.7701 15.8413 17.5625C15.4003 17.3636 14.2588 17.4501 14.3799 19.1104ZM14.6739 16.1617C15.3397 14.6743 16.5071 13.0746 17 12.8671C17.5016 12.6595 17.614 13.0141 17.614 13.3254C17.614 13.6453 16.2477 13.8615 14.6739 16.1617ZM17.882 11.717C18.79 10.8696 20.6578 10.5064 20.8913 10.8782C21.1248 11.2327 19.2829 11.5873 17.882 11.717ZM26.6417 19.5946C28.6219 18.8856 29.1753 17.2166 28.4576 16.1444C27.7485 15.0721 26.2007 15.8677 26.8319 16.62C27.4718 17.3723 27.6707 18.6088 26.6417 19.5946ZM49.7644 59.199C45.6051 57.8933 45.4062 55.1348 43.7632 56.1897C42.1203 57.2361 46.9368 59.0693 49.7644 59.199ZM58.7921 40.4172C56.466 36.7248 53.7594 37.2264 54.3561 35.3758C54.9614 33.5253 57.9533 37.7106 58.7921 40.4172Z" fill="white"/>
<path d="M42.5958 9.52933C42.5958 9.52933 42.6304 9.56392 42.7082 9.61581C42.7774 9.67634 42.8812 9.75416 43.0109 9.85793C43.1406 9.9617 43.3135 10.0914 43.4951 10.273C43.6854 10.4546 43.8929 10.714 44.0399 11.034C44.1869 11.3453 44.2907 11.6998 44.3512 12.0543C44.4117 12.4089 44.455 12.7807 44.4723 13.1612C44.4809 13.3514 44.4896 13.5417 44.4982 13.7232C44.5069 13.9135 44.5069 14.1037 44.5069 14.294C44.5155 14.6744 44.5155 15.0636 44.5069 15.4527C44.5069 15.8418 44.4982 16.2309 44.4809 16.6114C44.4723 16.9919 44.455 17.3724 44.429 17.7356C44.3858 18.4619 44.3339 19.1451 44.2734 19.7331C44.2475 20.0271 44.2042 20.2951 44.1783 20.5286C44.1523 20.7621 44.1177 20.9696 44.0918 21.1426C44.0659 21.3155 44.0399 21.4452 44.0226 21.5404C44.0053 21.6355 43.9967 21.6787 43.9967 21.6787C43.9794 21.7479 43.9189 21.7911 43.8497 21.7738C43.7978 21.7652 43.7632 21.7219 43.7546 21.6787C43.7546 21.6787 43.7459 21.6268 43.7286 21.5404C43.7113 21.4452 43.6854 21.3155 43.6594 21.1426C43.6335 20.9696 43.5989 20.7621 43.573 20.5286C43.5384 20.2951 43.5038 20.0271 43.4778 19.7331C43.4173 19.1451 43.3568 18.4706 43.3222 17.7356C43.2963 17.3724 43.2876 16.9919 43.2703 16.6114C43.2617 16.2309 43.253 15.8418 43.2444 15.4527C43.2444 15.0636 43.2357 14.6744 43.2444 14.294C43.2444 13.9135 43.2617 13.5244 43.2703 13.1785C43.279 12.8239 43.279 12.4953 43.2703 12.184C43.2617 11.8727 43.2184 11.6047 43.1665 11.3712C43.106 11.1377 43.0195 10.9475 42.9071 10.7659C42.7947 10.5843 42.6737 10.4114 42.5699 10.273C42.4661 10.126 42.3969 10.0049 42.3451 9.92711C42.3018 9.84928 42.2759 9.80605 42.2759 9.80605C42.2153 9.70228 42.2499 9.57257 42.3537 9.51204C42.4315 9.46016 42.5266 9.47745 42.5958 9.52933Z" fill="white"/>
<path d="M43.8071 12.1063C43.8071 12.1063 43.8417 12.0631 43.9022 11.9766C43.9714 11.8901 44.0838 11.7604 44.2395 11.6134C44.3951 11.4664 44.6027 11.3021 44.8621 11.1551C45.1215 10.9995 45.4415 10.8525 45.8219 10.766C46.2024 10.6795 46.6521 10.6449 47.1363 10.7746C47.3784 10.8438 47.6292 10.9562 47.8454 11.1205C48.0702 11.2848 48.2605 11.501 48.3988 11.7431C48.6928 12.2274 48.7966 12.7635 48.8052 13.2737C48.8139 13.4121 48.8139 13.5072 48.8139 13.6196C48.8139 13.732 48.8139 13.8444 48.8139 13.9568C48.8139 14.1817 48.8139 14.4065 48.8139 14.6227C48.8139 15.0723 48.8052 15.5133 48.7879 15.9543C48.7793 16.3954 48.762 16.8277 48.736 17.2428C48.6928 18.0816 48.6409 18.8598 48.5804 19.5343C48.5545 19.8715 48.5112 20.1742 48.4853 20.4509C48.4593 20.719 48.4248 20.9611 48.3988 21.16C48.3729 21.3589 48.3469 21.5059 48.3296 21.6096C48.3123 21.7134 48.3037 21.7739 48.3037 21.7739C48.295 21.8431 48.2259 21.8863 48.1567 21.8777C48.1048 21.8691 48.0616 21.8258 48.0529 21.7739C48.0529 21.7739 48.0443 21.7221 48.027 21.6096C48.0097 21.5059 47.9837 21.3502 47.9578 21.16C47.9319 20.9611 47.8973 20.7276 47.8713 20.4509C47.8367 20.1828 47.8022 19.8715 47.7762 19.5343C47.7157 18.8598 47.6551 18.0816 47.6206 17.2428C47.5946 16.8277 47.586 16.3867 47.5687 15.9543C47.56 15.5133 47.5514 15.0637 47.5427 14.6227C47.5427 14.1817 47.5427 13.7406 47.5427 13.3083C47.5427 12.9365 47.4822 12.5992 47.3525 12.3484C47.2228 12.0977 47.0412 11.9247 46.7904 11.821C46.5397 11.7172 46.2456 11.6826 45.9689 11.7085C45.6836 11.7258 45.4155 11.7864 45.182 11.8642C44.9486 11.942 44.7497 12.0285 44.5854 12.115C44.4211 12.2014 44.3087 12.2706 44.2222 12.3311C44.1357 12.3917 44.0838 12.4263 44.0838 12.4263C43.9887 12.4954 43.8504 12.4695 43.7812 12.3657C43.7466 12.2793 43.7466 12.1755 43.8071 12.1063Z" fill="white"/>
<path d="M47.9574 12.1062C47.9574 12.1062 47.9661 12.0889 47.992 12.063C48.0179 12.037 48.0525 11.9938 48.1044 11.9332C48.2168 11.8122 48.3811 11.6479 48.6233 11.4663C48.8654 11.2847 49.1767 11.0945 49.5831 10.9475C49.9895 10.8005 50.4911 10.688 51.0704 10.7918C51.3644 10.8437 51.6671 10.9648 51.9438 11.1636C52.2205 11.3625 52.4453 11.6479 52.601 11.9592C52.7566 12.2705 52.8431 12.5991 52.8863 12.9363C52.9123 13.1006 52.9123 13.2736 52.9209 13.4292C52.9209 13.5762 52.9296 13.7232 52.9296 13.8702C52.9469 14.4582 52.9555 15.0722 52.9555 15.6948C52.9642 16.3174 52.9642 16.9486 52.9555 17.5799C52.9555 18.2111 52.9469 18.8424 52.9296 19.465C52.9209 20.0876 52.9036 20.7015 52.8777 21.2896C52.869 21.4366 52.869 21.5836 52.8604 21.7306C52.8518 21.8776 52.8518 21.99 52.8604 22.1197C52.869 22.3791 52.895 22.6299 52.9382 22.8634C53.0333 23.3303 53.2063 23.7281 53.4657 23.9443C53.7165 24.1691 54.071 24.2296 54.4083 24.195C54.7455 24.1604 55.0568 24.0653 55.3076 23.9702C55.5583 23.8751 55.7572 23.7886 55.8869 23.7281C56.0166 23.6676 56.0945 23.633 56.0945 23.633H56.1031C56.1636 23.607 56.2415 23.633 56.2674 23.6935C56.2934 23.7454 56.2761 23.8059 56.2328 23.8405C56.2328 23.8405 56.1723 23.8924 56.0512 23.9875C55.9907 24.0394 55.9215 24.0913 55.8264 24.1604C55.7399 24.2296 55.6362 24.2988 55.5065 24.3766C55.2557 24.5236 54.953 24.7052 54.5293 24.809C54.3218 24.8695 54.0797 24.8955 53.8116 24.8782C53.5435 24.8609 53.2582 24.7744 52.9988 24.6015C52.7393 24.4372 52.5232 24.195 52.3675 23.9443C52.2032 23.6848 52.0908 23.3995 51.9957 23.1141C51.9092 22.8201 51.8487 22.5175 51.8141 22.2062C51.7968 22.0505 51.7795 21.8776 51.7795 21.7306C51.7708 21.5836 51.7708 21.4366 51.7622 21.2896C51.7363 20.7015 51.7276 20.0876 51.7103 19.465C51.7017 18.8424 51.693 18.2111 51.6844 17.5799C51.6844 16.9486 51.6757 16.3174 51.6844 15.6948C51.6844 15.0722 51.7017 14.4582 51.7103 13.8702C51.7103 13.7232 51.719 13.5762 51.719 13.4292C51.719 13.2909 51.719 13.1784 51.7103 13.0574C51.693 12.8239 51.6498 12.6077 51.5806 12.4261C51.4423 12.0543 51.1742 11.8381 50.8283 11.7257C50.4824 11.6133 50.1019 11.6306 49.7647 11.6998C49.4274 11.769 49.1421 11.8814 48.9086 11.9938C48.6838 12.1062 48.5022 12.2186 48.3984 12.2964C48.2774 12.3829 48.2168 12.4261 48.2168 12.4261C48.1217 12.4953 47.9834 12.478 47.9142 12.3829C47.8882 12.2878 47.8969 12.184 47.9574 12.1062Z" fill="white"/>
<path d="M53.9575 22.4829C54.0785 22.4742 54.1996 22.4656 54.3206 22.4656C54.4417 22.4656 54.5628 22.4742 54.6752 22.4742C54.9086 22.4915 55.1421 22.5175 55.3756 22.552C55.6004 22.5866 55.8339 22.6299 56.0501 22.6904C56.2749 22.7423 56.4997 22.8028 56.7159 22.872C57.0532 22.9758 57.2434 23.3389 57.1396 23.6762L57.131 23.7108V23.7194C57.0878 23.8405 57.0359 23.9615 56.984 24.0826C56.9321 24.2037 56.8802 24.3247 56.8283 24.4371C56.7159 24.6706 56.6035 24.9041 56.4652 25.1376C56.3354 25.3711 56.1971 25.5959 56.0414 25.8121C55.9636 25.9245 55.8858 26.0282 55.7993 26.1407C55.7128 26.2444 55.6264 26.3568 55.5313 26.452C55.4794 26.5038 55.3929 26.5038 55.341 26.452C55.3151 26.426 55.3064 26.3914 55.2978 26.3655C55.2891 26.2271 55.2978 26.0888 55.3064 25.9504C55.3151 25.8121 55.3324 25.6824 55.341 25.544C55.3756 25.2759 55.4188 25.0165 55.4794 24.7571C55.5312 24.4977 55.6004 24.2469 55.6783 23.9961C55.7215 23.8751 55.7561 23.7454 55.7993 23.6243C55.8425 23.5032 55.8858 23.3735 55.929 23.2611L56.3441 24.0999C56.1279 24.0307 55.9031 23.9616 55.6869 23.8837C55.4707 23.8059 55.2545 23.7108 55.047 23.6157C54.8395 23.5205 54.6319 23.4081 54.4244 23.2957C54.3206 23.2352 54.2169 23.1747 54.1218 23.1055C54.018 23.0363 53.9229 22.9671 53.8277 22.8893C53.7326 22.8115 53.7153 22.6645 53.7932 22.5607C53.845 22.5175 53.8969 22.4915 53.9575 22.4829Z" fill="white"/>
</g>
<defs>
<clipPath id="clip0_1667_37479">
<rect width="73" height="73" fill="white"/>
</clipPath>
</defs>
</svg>
