<svg viewBox="0 0 73 73" fill="none" xmlns="http://www.w3.org/2000/svg">
<g clip-path="url(#clip0_1667_37506)">
<path d="M36.5 73C56.6584 73 73 56.6584 73 36.5C73 16.3416 56.6584 0 36.5 0C16.3416 0 0 16.3416 0 36.5C0 56.6584 16.3416 73 36.5 73Z" fill="#3E1C69"/>
<path fill-rule="evenodd" clip-rule="evenodd" d="M22.3707 43.6944C19.8889 44.2305 16.3522 42.6308 15.2454 42.5184C13.8186 42.38 12.8674 42.7173 12.8674 42.7173C12.8674 42.7173 15.1502 40.4258 18.7821 39.2584C19.9235 38.8952 20.9439 38.9384 21.7827 39.2238C21.7394 38.7222 21.7135 38.238 21.6962 37.7538C19.4393 38.2121 17.3812 38.5493 16.0928 38.3504C6.06199 36.7939 8.15462 18.4877 25.1897 11.7688C13.0317 18.6952 14.0693 32.4357 18.7043 28.8212C22.1113 26.1665 27.853 23.4426 32.5658 24.3073C33.5343 24.3332 35.2032 24.8261 36.5089 25.6563C37.8233 24.8261 39.4922 24.3332 40.4521 24.3073C45.1562 23.4426 50.9066 26.1665 54.3136 28.8212C58.9485 32.4357 59.9862 18.6952 47.8282 11.7688C64.8632 18.4877 66.9558 36.8026 56.9251 38.3504C55.628 38.5493 53.5786 38.2121 51.3216 37.7538C51.3043 38.2294 51.2784 38.7222 51.2352 39.2238C52.0739 38.9384 53.0943 38.8952 54.2358 39.2584C57.8676 40.4258 60.1505 42.7173 60.1505 42.7173C60.1505 42.7173 59.1993 42.3887 57.7725 42.5184C56.6656 42.6222 53.1289 44.2219 50.6472 43.6944C50.552 44.2824 50.4396 44.8791 50.3272 45.4844C49.67 48.9779 47.6552 52.2638 45.8912 54.3132C45.6231 54.6159 45.3983 54.9272 45.1994 55.2471C45.3464 55.5238 45.4848 55.8178 45.6231 56.1291C46.7472 58.7406 46.1419 60.8419 43.444 62.0266C42.9425 64.3786 41.7232 66.0908 36.5176 66.0908C31.2687 66.0908 30.0754 64.344 29.5825 61.966C26.9883 60.7641 26.4262 58.6974 27.5331 56.1205C27.6541 55.8438 27.7752 55.5844 27.9049 55.3422C27.6887 54.9964 27.4466 54.6505 27.1526 54.3132C25.3886 52.2638 23.3738 48.9779 22.7166 45.4844C22.5782 44.8704 22.4658 44.2738 22.3707 43.6944ZM36.5003 61.7066C34.8746 61.7066 33.0846 60.9284 31.8394 59.614C30.5942 58.291 30.9833 57.2792 31.139 57.9797C31.2946 58.6801 32.5398 59.6918 33.3094 59.147C34.0877 58.6023 33.6986 57.6683 32.3755 57.0544C31.0525 56.4318 31.0525 54.7196 31.7529 55.2644C32.4534 55.8092 34.3298 56.475 36.4916 56.475C38.6621 56.475 40.5299 55.8092 41.2303 55.2644C41.9307 54.7196 41.9307 56.4318 40.6077 57.0544C39.2847 57.677 38.9042 58.6023 39.6738 59.147C40.4521 59.6918 41.6886 58.6801 41.8443 57.9797C41.9999 57.2792 42.389 58.291 41.1438 59.614C39.9159 60.9284 38.126 61.7066 36.5003 61.7066ZM31.4416 61.4904C33.0068 62.7097 35.2464 63.2112 36.4657 63.2112C37.6849 63.2112 39.9938 62.7097 41.5589 61.4904C39.9938 63.5312 37.7195 63.8684 36.4916 63.8684C35.281 63.8684 33.0068 63.5312 31.4416 61.4904ZM50.9671 41.4894C50.9152 41.8871 50.8547 42.2936 50.7855 42.7L50.8287 42.7086C53.0597 43.0199 55.5415 41.8266 55.5415 41.8266C55.5415 41.8266 52.9646 40.9619 51.4513 41.3597C51.2871 41.4029 51.1228 41.4461 50.9671 41.4894ZM22.2064 42.7086C22.1459 42.3022 22.0853 41.8958 22.0248 41.498C21.8691 41.4548 21.7135 41.4029 21.5405 41.3597C20.0273 40.9705 17.4504 41.8266 17.4504 41.8266C17.4504 41.8266 19.9235 43.0199 22.1631 42.7086H22.2064ZM45.3291 43.9971C45.208 43.4696 44.6719 43.141 44.1444 43.2707C43.6169 43.3918 43.2884 43.9279 43.4094 44.4554C43.5305 44.9828 44.0666 45.3114 44.5941 45.1904C45.1302 45.0607 45.4502 44.5332 45.3291 43.9971ZM46.2889 43.7722C46.0382 42.7086 44.9746 42.0601 43.911 42.3108C43.1413 42.4924 42.5879 43.1064 42.4409 43.8241C42.4409 43.7982 42.4409 43.7809 42.4409 43.7549C42.4323 43.7895 42.4236 43.8155 42.415 43.8501C41.9653 46.254 43.7121 47.43 43.8245 49.3843C43.9369 51.3386 43.0722 53.3361 42.2939 53.803C44.1877 50.5863 43.0376 47.7673 42.3112 46.1329C41.4378 44.17 42.3717 41.7055 44.5249 41.1867C45.9776 40.8408 47.4477 41.7315 47.7936 43.1929C48.1395 44.6456 47.2401 46.1156 45.7874 46.4615C44.9573 46.6604 44.1271 46.4529 43.4959 45.9686C43.8937 46.1675 44.3606 46.228 44.8276 46.1156C45.8825 45.8995 46.5397 44.8272 46.2889 43.7722ZM27.6714 43.9971C27.7925 43.4696 28.3286 43.141 28.8561 43.2707C29.3836 43.3918 29.7122 43.9279 29.5911 44.4554C29.4614 44.9828 28.9339 45.3114 28.4065 45.1904C27.8703 45.0607 27.5504 44.5332 27.6714 43.9971ZM26.7116 43.7722C26.9624 42.7086 28.026 42.0601 29.0896 42.3108C29.8592 42.4924 30.4126 43.1064 30.5596 43.8241C30.5596 43.7982 30.5596 43.7809 30.5596 43.7549C30.5683 43.7895 30.5769 43.8155 30.5856 43.8501C31.0352 46.254 29.2885 47.43 29.1761 49.3843C29.0636 51.3386 29.9284 53.3361 30.7066 53.803C28.8129 50.5863 29.963 47.7673 30.6893 46.1329C31.5627 44.17 30.6288 41.7055 28.4756 41.1867C27.0229 40.8408 25.5529 41.7315 25.207 43.1929C24.8611 44.6456 25.7604 46.1156 27.2131 46.4615C28.0433 46.6604 28.8734 46.4529 29.5047 45.9686C29.1069 46.1675 28.6399 46.228 28.173 46.1156C27.1094 45.8995 26.4608 44.8272 26.7116 43.7722ZM55.5242 18.1418C66.3851 30.0923 62.2604 39.3708 52.1172 36.6037C66.3419 38.2553 61.1363 25.1028 55.5242 18.1418ZM17.4677 18.1418C6.61541 30.0923 10.7401 39.3708 20.8747 36.6037C6.65865 38.2553 11.8643 25.1028 17.4677 18.1418Z" fill="white"/>
<path d="M42.5871 8.75095C42.5871 8.75095 42.5698 8.79418 42.5439 8.86336C42.5179 8.94119 42.4747 9.0536 42.4142 9.2006C42.2845 9.49461 42.0942 9.92697 41.7656 10.4372C41.437 10.9473 40.9787 11.544 40.2956 12.0801C39.9497 12.3396 39.5606 12.6076 39.1023 12.7979C38.8774 12.9103 38.6353 12.9794 38.3845 13.0573C38.2635 13.1005 38.1338 13.1178 38.0041 13.1437C37.8744 13.1697 37.7446 13.2043 37.6063 13.2129C37.4679 13.2216 37.3382 13.2389 37.1999 13.2475C37.1393 13.2562 37.0702 13.2562 37.0096 13.2648C36.9491 13.2648 36.8799 13.2735 36.8194 13.2735C36.6897 13.2821 36.56 13.2907 36.4303 13.2994C36.3092 13.3167 36.1881 13.334 36.0671 13.3513C35.5828 13.4205 35.0727 13.5329 34.6057 13.7404C34.1388 13.9393 33.6977 14.2246 33.3432 14.5878C32.9887 14.951 32.7293 15.4093 32.6082 15.9022C32.565 16.0233 32.5563 16.153 32.539 16.2827C32.5217 16.3432 32.5304 16.4124 32.5217 16.4816V16.5767V16.6286V16.6545V16.6632C32.5217 16.6891 32.5217 16.6459 32.5217 16.6545L32.5304 16.8966C32.5304 16.9745 32.539 17.0609 32.5477 17.1215C32.565 17.2512 32.5736 17.3809 32.6082 17.5192C32.6601 17.796 32.7552 18.0467 32.859 18.2889C32.9281 18.4013 32.98 18.531 33.0578 18.6347C33.0924 18.6866 33.127 18.7472 33.1703 18.799L33.3 18.946C33.3432 18.9979 33.3864 19.0412 33.4383 19.0844L33.5853 19.2228L33.7496 19.3352C33.8015 19.3698 33.8534 19.413 33.9226 19.4476C34.0436 19.5081 34.156 19.5859 34.2944 19.6292L34.4846 19.707C34.5538 19.7329 34.623 19.7502 34.6922 19.7675C35.2456 19.9405 35.8509 19.9924 36.4735 20.001C37.1307 20.001 37.6928 19.9491 38.2548 19.7762C38.324 19.7502 38.3932 19.7416 38.4624 19.7156L38.6613 19.6378C38.7996 19.5946 38.912 19.5168 39.0331 19.4562C39.0936 19.4303 39.1455 19.3871 39.206 19.3438L39.3703 19.2314L39.5173 19.093C39.5692 19.0498 39.6211 19.0066 39.6557 18.9547L39.7854 18.8077C39.8286 18.7558 39.8632 18.6953 39.8978 18.6434C39.9843 18.5396 40.0362 18.4186 40.1053 18.2975C40.2178 18.0554 40.3129 17.796 40.3648 17.5192C40.4253 17.2512 40.4512 16.9658 40.4599 16.6805L40.4512 16.4729C40.4512 16.3951 40.4512 16.3086 40.4339 16.2568C40.4166 16.1357 40.408 16.0233 40.3648 15.8936C40.2351 15.3834 39.9843 14.9251 39.6211 14.5532C39.2666 14.1814 38.8169 13.8961 38.3413 13.6885C37.8657 13.4723 37.3555 13.3686 36.854 13.2821C36.7243 13.2648 36.6032 13.2475 36.4822 13.2302C36.3524 13.2216 36.2314 13.2129 36.1103 13.2043C36.0498 13.2043 35.9893 13.1956 35.9287 13.1956H35.8941H35.8855H35.8596H35.8077L35.7125 13.187C35.5828 13.1783 35.4618 13.161 35.3321 13.1524C35.2024 13.1437 35.064 13.1005 34.9343 13.0832C34.8046 13.0573 34.6662 13.04 34.5452 12.9967C34.303 12.9189 34.0609 12.8497 33.8361 12.7373C33.3864 12.5471 33.006 12.279 32.6601 12.0283C31.9942 11.4921 31.5446 10.8955 31.216 10.3939C30.8874 9.89238 30.7058 9.46002 30.5761 9.16601C30.5156 9.01901 30.4723 8.9066 30.4464 8.82877C30.4204 8.75095 30.4031 8.70771 30.4031 8.70771C30.3772 8.64718 30.4118 8.56936 30.481 8.55206C30.5415 8.53477 30.602 8.56071 30.6366 8.61259V8.62124C30.6366 8.62124 30.6539 8.65583 30.6885 8.72501C30.7231 8.79418 30.775 8.89795 30.8528 9.03631C30.9998 9.30437 31.2333 9.6935 31.5792 10.1432C31.9251 10.5928 32.4007 11.0943 33.0319 11.5354C33.3605 11.7342 33.7064 11.9504 34.1128 12.0801C34.3117 12.158 34.5192 12.2012 34.7354 12.2617C34.8392 12.2963 34.9516 12.2963 35.0554 12.3136C35.1678 12.3223 35.2629 12.3482 35.384 12.3568C35.505 12.3568 35.6347 12.3655 35.7644 12.3655C35.8163 12.3655 35.8768 12.3655 35.9374 12.3655C36.0066 12.3655 36.0757 12.3655 36.1363 12.3655C36.2746 12.3655 36.413 12.3655 36.5513 12.3655C36.6897 12.3741 36.828 12.3828 36.975 12.4001C37.5458 12.452 38.1338 12.5644 38.7218 12.7892C39.3012 13.014 39.8892 13.3426 40.3821 13.8182C40.8836 14.2852 41.2641 14.9251 41.463 15.6169C41.5235 15.7812 41.5494 15.98 41.5754 16.1703C41.5927 16.274 41.5927 16.3432 41.6013 16.421L41.61 16.5421V16.6026V16.6286V16.6459V16.6891C41.61 17.035 41.5927 17.3982 41.5235 17.7527C41.463 18.1159 41.3419 18.4704 41.1949 18.8163C41.1084 18.9893 41.0306 19.1622 40.9182 19.3179C40.8663 19.3957 40.8144 19.4822 40.7539 19.56L40.5637 19.7848C40.5031 19.8627 40.4339 19.9318 40.3561 19.9924L40.1399 20.1912L39.9065 20.3642C39.8286 20.4247 39.7508 20.4766 39.6643 20.5198C39.5 20.615 39.3271 20.7187 39.1541 20.7793L38.8947 20.8917C38.8083 20.9263 38.7131 20.9522 38.6267 20.9781L38.3586 21.056C38.2721 21.0819 38.177 21.0906 38.0905 21.1165L37.8225 21.1684C37.7274 21.1857 37.6322 21.1943 37.5458 21.203C37.3642 21.2203 37.1566 21.2549 37.001 21.2549L36.7502 21.2635L36.6292 21.2722H36.5686H36.4822C35.7817 21.2722 35.0381 21.203 34.329 20.9781C34.2425 20.9522 34.1474 20.9263 34.0609 20.8917L33.8015 20.7793C33.6199 20.7101 33.4556 20.6063 33.2913 20.5198C33.2048 20.4766 33.127 20.4161 33.0492 20.3642L32.8157 20.1912L32.5995 19.9924C32.5304 19.9232 32.4525 19.8627 32.392 19.7848L32.2018 19.56C32.1412 19.4822 32.0894 19.4043 32.0375 19.3179C31.9251 19.1622 31.8386 18.9806 31.7521 18.8163C31.5965 18.4704 31.4754 18.1073 31.4149 17.7441C31.3803 17.5711 31.3543 17.3809 31.337 17.1907C31.3284 17.0869 31.3284 17.0177 31.3198 16.9312L31.3111 16.6891C31.3111 16.6891 31.3111 16.6372 31.3111 16.6545V16.6372V16.6026V16.5335L31.3198 16.3951C31.3284 16.3 31.3284 16.2135 31.3457 16.1184C31.3803 15.9368 31.3976 15.7552 31.4581 15.5823C31.657 14.8818 32.0375 14.2333 32.539 13.7577C33.0406 13.2735 33.6286 12.9362 34.2166 12.7114C34.8132 12.4779 35.4012 12.3741 35.9806 12.3136C36.1276 12.305 36.2746 12.2877 36.413 12.279C36.5427 12.279 36.6724 12.279 36.8021 12.279C36.8713 12.279 36.9318 12.279 36.9923 12.279C37.0529 12.279 37.122 12.279 37.1826 12.2704C37.295 12.2704 37.4161 12.2617 37.5285 12.2617C37.6409 12.2531 37.7533 12.2358 37.8657 12.2185C37.9781 12.2012 38.0905 12.1925 38.1943 12.1666C38.4018 12.1147 38.6094 12.0628 38.8083 11.985C39.206 11.8553 39.5519 11.6478 39.8719 11.4489C40.4945 11.0165 40.9614 10.515 41.2987 10.074C41.6359 9.63297 41.8694 9.24384 42.0164 8.98442C42.0856 8.85471 42.1374 8.75095 42.172 8.67312C42.2066 8.60394 42.2239 8.56071 42.2239 8.56071C42.2758 8.45694 42.4055 8.4137 42.5093 8.46559C42.5785 8.53477 42.6217 8.64718 42.5871 8.75095Z" fill="white"/>
</g>
<defs>
<clipPath id="clip0_1667_37506">
<rect width="73" height="73" fill="white"/>
</clipPath>
</defs>
</svg>
