<svg viewBox="0 0 186 132" fill="none" xmlns="http://www.w3.org/2000/svg">
<g opacity="0.6">
<rect x="162.99" y="83.6733" width="16.6914" height="16.6914" rx="3.25686" transform="rotate(22.1238 162.99 83.6733)" fill="url(#paint0_linear_507_55284)"/>
<circle cx="167.579" cy="94.5477" r="5.08885" transform="rotate(22.1238 167.579 94.5477)" fill="url(#paint1_linear_507_55284)"/>
<path d="M168.774 94.0511C168.747 93.9281 168.686 93.812 168.59 93.703C168.496 93.588 168.381 93.5024 168.242 93.4462C167.9 93.3069 167.591 93.3004 167.315 93.4265C167.046 93.5552 166.844 93.7848 166.709 94.1154C166.575 94.446 166.559 94.7514 166.663 95.0316C166.772 95.3142 166.998 95.5251 167.341 95.6644C167.491 95.7255 167.634 95.745 167.769 95.7229C167.904 95.7007 168.029 95.6605 168.144 95.6021L168.655 96.9027C168.357 97.0336 168.045 97.0855 167.72 97.0584C167.403 97.0277 167.115 96.9598 166.857 96.8547C166.52 96.7178 166.224 96.5342 165.967 96.3038C165.716 96.0758 165.52 95.8175 165.378 95.5287C165.245 95.2363 165.173 94.9232 165.161 94.5893C165.15 94.2555 165.215 93.9142 165.357 93.5656C165.499 93.2169 165.69 92.927 165.931 92.6957C166.172 92.4645 166.441 92.2937 166.738 92.1833C167.044 92.0694 167.366 92.0182 167.705 92.0297C168.049 92.0437 168.39 92.1191 168.726 92.256C168.985 92.3611 169.237 92.5161 169.483 92.7212C169.737 92.9226 169.926 93.1743 170.048 93.4763L168.774 94.0511Z" fill="white"/>
</g>
<g opacity="0.4">
<rect x="28.2305" y="15.8467" width="12.0717" height="12.0717" rx="2.35545" transform="rotate(-25.2652 28.2305 15.8467)" fill="url(#paint2_linear_507_55284)"/>
<circle cx="36.2644" cy="18.729" r="3.6804" transform="rotate(-25.2652 36.2644 18.729)" fill="url(#paint3_linear_507_55284)"/>
<path d="M36.5576 17.7929C36.4789 17.747 36.3871 17.7229 36.2822 17.7205C36.1752 17.7139 36.073 17.7336 35.9754 17.7797C35.7334 17.8938 35.5786 18.0551 35.5109 18.2635C35.4474 18.4699 35.4708 18.6898 35.581 18.9233C35.6911 19.1567 35.8461 19.3145 36.0457 19.3967C36.2497 19.4769 36.4726 19.4599 36.7145 19.3458C36.8206 19.2957 36.9008 19.2293 36.9552 19.1465C37.0096 19.0638 37.0493 18.9776 37.0744 18.8879L38.0172 19.2525C37.9407 19.4754 37.8157 19.6668 37.642 19.8266C37.4706 19.9801 37.2936 20.1 37.1111 20.1861C36.8734 20.2983 36.6305 20.3663 36.3822 20.39C36.1382 20.4118 35.9046 20.3897 35.6815 20.3237C35.4606 20.2515 35.2585 20.1367 35.0752 19.9793C34.8919 19.8219 34.7422 19.6201 34.626 19.374C34.5098 19.1278 34.4492 18.8839 34.4442 18.6424C34.4392 18.4009 34.4801 18.174 34.5667 17.9618C34.6557 17.7434 34.7861 17.5469 34.958 17.3724C35.1342 17.1958 35.3411 17.0515 35.5788 16.9393C35.7613 16.8532 35.9673 16.7949 36.1968 16.7644C36.4286 16.7277 36.6548 16.7506 36.8754 16.8333L36.5576 17.7929Z" fill="white"/>
</g>
<g opacity="0.4">
<rect x="29" y="100.388" width="12.0717" height="12.0717" rx="2.35545" transform="rotate(-25.2652 29 100.388)" fill="url(#paint4_linear_507_55284)"/>
<circle cx="37.0339" cy="103.27" r="3.6804" transform="rotate(-25.2652 37.0339 103.27)" fill="url(#paint5_linear_507_55284)"/>
<path d="M37.3272 102.334C37.2484 102.289 37.1566 102.264 37.0517 102.262C36.9448 102.255 36.8425 102.275 36.7449 102.321C36.503 102.435 36.3482 102.597 36.2804 102.805C36.217 103.011 36.2403 103.231 36.3505 103.465C36.4607 103.698 36.6156 103.856 36.8153 103.938C37.0192 104.018 37.2421 104.001 37.484 103.887C37.5901 103.837 37.6704 103.771 37.7247 103.688C37.7791 103.605 37.8188 103.519 37.844 103.429L38.7867 103.794C38.7103 104.017 38.5852 104.208 38.4115 104.368C38.2401 104.522 38.0631 104.641 37.8806 104.728C37.643 104.84 37.4 104.908 37.1517 104.932C36.9077 104.953 36.6741 104.931 36.451 104.865C36.2301 104.793 36.028 104.678 35.8447 104.521C35.6615 104.363 35.5117 104.162 35.3956 103.915C35.2794 103.669 35.2188 103.425 35.2138 103.184C35.2087 102.942 35.2496 102.716 35.3363 102.503C35.4252 102.285 35.5556 102.088 35.7275 101.914C35.9037 101.737 36.1106 101.593 36.3483 101.481C36.5308 101.395 36.7368 101.336 36.9663 101.306C37.1981 101.269 37.4243 101.292 37.645 101.375L37.3272 102.334Z" fill="white"/>
</g>
<g opacity="0.8">
<rect y="52.2905" width="30.9848" height="30.9848" rx="6.04581" transform="rotate(-7.51949 0 52.2905)" fill="url(#paint6_linear_507_55284)"/>
<circle cx="17.3867" cy="65.6223" r="9.44658" transform="rotate(-7.51949 17.3867 65.6223)" fill="url(#paint7_linear_507_55284)"/>
<path d="M18.7294 63.7373C18.5728 63.5635 18.3672 63.4327 18.1126 63.3448C17.8564 63.245 17.591 63.2132 17.3163 63.2494C16.6356 63.3393 16.1309 63.6125 15.8024 64.0689C15.4858 64.5239 15.3708 65.0797 15.4575 65.7366C15.5442 66.3934 15.7995 66.9004 16.2233 67.2576C16.659 67.6132 17.2173 67.746 17.898 67.6562C18.1966 67.6168 18.4446 67.5172 18.6423 67.3575C18.8399 67.1977 19.0045 67.018 19.1361 66.8184L21.1555 68.4473C20.7942 68.9324 20.3388 69.3024 19.7892 69.5572C19.25 69.7985 18.7236 69.953 18.2101 70.0208C17.5413 70.1091 16.8942 70.0851 16.2687 69.949C15.6552 69.8113 15.1014 69.5745 14.6075 69.2387C14.124 68.8895 13.7198 68.4507 13.3949 67.9225C13.0701 67.3943 12.8619 66.7839 12.7705 66.0912C12.679 65.3986 12.7217 64.7551 12.8984 64.1607C13.0751 63.5663 13.3524 63.0436 13.7303 62.5928C14.1186 62.1284 14.5911 61.7501 15.1479 61.4579C15.7166 61.1641 16.3354 60.9731 17.0042 60.8848C17.5177 60.817 18.0669 60.8357 18.6519 60.9407C19.2472 61.0323 19.7822 61.2654 20.2569 61.6401L18.7294 63.7373Z" fill="white"/>
</g>
<g opacity="0.4">
<rect x="167.699" y="37.105" width="19.4132" height="19.4132" rx="3.78794" transform="rotate(21.0459 167.699 37.105)" fill="url(#paint8_linear_507_55284)"/>
<circle cx="173.271" cy="49.6493" r="5.91865" transform="rotate(21.0459 173.271 49.6493)" fill="url(#paint9_linear_507_55284)"/>
<path d="M174.402 49.4639C174.368 49.3214 174.294 49.1878 174.18 49.0632C174.069 48.9315 173.932 48.8345 173.77 48.7721C173.369 48.6176 173.009 48.6168 172.692 48.7695C172.381 48.925 172.151 49.1964 172.002 49.5838C171.853 49.9713 171.842 50.3267 171.968 50.6502C172.101 50.9764 172.369 51.2168 172.77 51.3713C172.946 51.439 173.113 51.4586 173.269 51.4299C173.426 51.4012 173.57 51.3516 173.702 51.2812L174.326 52.7825C173.981 52.9412 173.62 53.0084 173.241 52.9839C172.872 52.9552 172.536 52.8825 172.233 52.766C171.839 52.6142 171.49 52.4071 171.187 52.1448C170.89 51.8852 170.657 51.5891 170.485 51.2564C170.324 50.9193 170.233 50.5568 170.212 50.1688C170.192 49.7808 170.26 49.3826 170.417 48.974C170.575 48.5655 170.791 48.2241 171.066 47.95C171.341 47.6758 171.651 47.4713 171.994 47.3365C172.346 47.1972 172.72 47.1307 173.114 47.1367C173.515 47.1454 173.912 47.2257 174.307 47.3774C174.61 47.494 174.906 47.6688 175.197 47.9018C175.497 48.1305 175.722 48.4191 175.87 48.7675L174.402 49.4639Z" fill="white"/>
</g>
<g opacity="0.4">
<rect x="75.8379" width="26.5053" height="26.5053" rx="5.17176" transform="rotate(7.25738 75.8379 0)" fill="url(#paint10_linear_507_55284)"/>
<circle cx="87.3098" cy="14.8204" r="8.08088" transform="rotate(7.25738 87.3098 14.8204)" fill="url(#paint11_linear_507_55284)"/>
<path d="M88.9577 13.4565C88.8661 13.2787 88.7246 13.1256 88.5332 12.9974C88.3431 12.8589 88.1304 12.7747 87.8953 12.7447C87.3127 12.6705 86.8357 12.7864 86.4643 13.0923C86.1032 13.3995 85.8868 13.8342 85.8152 14.3964C85.7436 14.9586 85.8441 15.4336 86.1168 15.8215C86.3996 16.2107 86.8324 16.4424 87.415 16.5166C87.6706 16.5492 87.8975 16.5209 88.0958 16.4319C88.2941 16.3429 88.4695 16.2302 88.6219 16.0938L89.9368 17.8817C89.5321 18.2042 89.0747 18.4108 88.5646 18.5017C88.0659 18.5836 87.5968 18.5966 87.1573 18.5406C86.5848 18.4677 86.0548 18.3067 85.5671 18.0576C85.0897 17.8098 84.6833 17.4932 84.3481 17.1077C84.0243 16.7133 83.7857 16.2622 83.6322 15.7544C83.4788 15.2467 83.4398 14.6963 83.5153 14.1035C83.5908 13.5106 83.7665 12.9876 84.0423 12.5345C84.3181 12.0814 84.6615 11.7096 85.0725 11.4192C85.495 11.1198 85.9683 10.91 86.4926 10.7898C87.0272 10.6709 87.5807 10.6479 88.1531 10.7208C88.5926 10.7768 89.0429 10.912 89.5038 11.1265C89.9762 11.3321 90.3679 11.6417 90.6788 12.0552L88.9577 13.4565Z" fill="white"/>
</g>
<g opacity="0.4">
<rect x="137.031" y="9.48145" width="13.1275" height="13.1275" rx="2.56147" transform="rotate(25.1343 137.031 9.48145)" fill="url(#paint12_linear_507_55284)"/>
<circle cx="140.185" cy="18.2115" r="4.00229" transform="rotate(25.1343 140.185 18.2115)" fill="url(#paint13_linear_507_55284)"/>
<path d="M141.359 17.4132C141.343 17.3154 141.299 17.2217 141.228 17.1322C141.16 17.038 141.072 16.966 140.966 16.9161C140.703 16.7926 140.46 16.7747 140.239 16.8624C140.022 16.9523 139.854 17.1243 139.735 17.3784C139.615 17.6325 139.591 17.8717 139.66 18.096C139.734 18.3225 139.903 18.4975 140.166 18.6211C140.282 18.6752 140.393 18.6964 140.5 18.6846C140.607 18.6728 140.707 18.6464 140.8 18.6052L141.147 19.6479C140.908 19.7384 140.661 19.7662 140.406 19.7315C140.159 19.6943 139.936 19.6291 139.737 19.5359C139.478 19.4145 139.253 19.258 139.061 19.0665C138.874 18.8771 138.73 18.6661 138.631 18.4334C138.538 18.1982 138.494 17.9493 138.499 17.6867C138.504 17.424 138.569 17.1587 138.695 16.8907C138.821 16.6227 138.983 16.4029 139.182 16.2312C139.381 16.0596 139.599 15.9366 139.837 15.8621C140.082 15.7853 140.337 15.7583 140.602 15.7814C140.872 15.8066 141.137 15.8799 141.395 16.0013C141.594 16.0945 141.786 16.2267 141.97 16.3979C142.162 16.5666 142.299 16.7721 142.383 17.0143L141.359 17.4132Z" fill="white"/>
</g>
<g filter="url(#filter0_d_507_55284)">
<rect x="64" y="47.2358" width="68" height="68" rx="13.2683" fill="url(#paint14_linear_507_55284)"/>
<rect x="66.4878" y="49.7236" width="63.0244" height="63.0244" rx="10.7805" stroke="url(#paint15_linear_507_55284)" stroke-width="4.97561"/>
</g>
<g filter="url(#filter1_d_507_55284)">
<circle cx="97.9993" cy="81.2359" r="20.7317" fill="#86395A"/>
</g>
<path d="M101.749 77.0095C101.459 76.5865 101.049 76.2428 100.52 75.9785C99.9913 75.6877 99.4229 75.5423 98.8149 75.5423C97.308 75.5423 96.1316 75.9917 95.2856 76.8905C94.4661 77.7894 94.0563 78.9658 94.0563 80.4198C94.0563 81.8738 94.4661 83.0502 95.2856 83.9491C96.1316 84.8479 97.308 85.2973 98.8149 85.2973C99.4758 85.2973 100.044 85.1519 100.52 84.8611C100.996 84.5703 101.406 84.2267 101.749 83.8301L105.675 87.9542C104.75 88.9059 103.653 89.5801 102.384 89.9766C101.141 90.3467 99.9517 90.5318 98.8149 90.5318C97.3344 90.5318 95.9333 90.2938 94.6115 89.818C93.3161 89.3421 92.1793 88.668 91.2012 87.7956C90.2495 86.8967 89.496 85.8261 88.9409 84.5836C88.3857 83.341 88.1081 81.9531 88.1081 80.4198C88.1081 78.8865 88.3857 77.4986 88.9409 76.2561C89.496 75.0135 90.2495 73.9561 91.2012 73.0837C92.1793 72.1848 93.3161 71.4975 94.6115 71.0216C95.9333 70.5458 97.3344 70.3079 98.8149 70.3079C99.9517 70.3079 101.141 70.5061 102.384 70.9027C103.653 71.2728 104.75 71.9337 105.675 72.8854L101.749 77.0095Z" fill="white"/>
<defs>
<filter id="filter0_d_507_55284" x="50.7317" y="37.2846" width="94.5366" height="94.5366" filterUnits="userSpaceOnUse" color-interpolation-filters="sRGB">
<feFlood flood-opacity="0" result="BackgroundImageFix"/>
<feColorMatrix in="SourceAlpha" type="matrix" values="0 0 0 0 0 0 0 0 0 0 0 0 0 0 0 0 0 0 127 0" result="hardAlpha"/>
<feOffset dy="3.31707"/>
<feGaussianBlur stdDeviation="6.63415"/>
<feColorMatrix type="matrix" values="0 0 0 0 0 0 0 0 0 0 0 0 0 0 0 0 0 0 0.2 0"/>
<feBlend mode="normal" in2="BackgroundImageFix" result="effect1_dropShadow_507_55284"/>
<feBlend mode="normal" in="SourceGraphic" in2="effect1_dropShadow_507_55284" result="shape"/>
</filter>
<filter id="filter1_d_507_55284" x="63.9993" y="50.5529" width="67.9995" height="68" filterUnits="userSpaceOnUse" color-interpolation-filters="sRGB">
<feFlood flood-opacity="0" result="BackgroundImageFix"/>
<feColorMatrix in="SourceAlpha" type="matrix" values="0 0 0 0 0 0 0 0 0 0 0 0 0 0 0 0 0 0 127 0" result="hardAlpha"/>
<feOffset dy="3.31707"/>
<feGaussianBlur stdDeviation="6.63415"/>
<feColorMatrix type="matrix" values="0 0 0 0 0 0 0 0 0 0 0 0 0 0 0 0 0 0 0.2 0"/>
<feBlend mode="normal" in2="BackgroundImageFix" result="effect1_dropShadow_507_55284"/>
<feBlend mode="normal" in="SourceGraphic" in2="effect1_dropShadow_507_55284" result="shape"/>
</filter>
<linearGradient id="paint0_linear_507_55284" x1="162.99" y1="83.6733" x2="179.056" y2="100.365" gradientUnits="userSpaceOnUse">
<stop stop-color="#EBDD5D"/>
<stop offset="1" stop-color="#8D751F"/>
</linearGradient>
<linearGradient id="paint1_linear_507_55284" x1="167.579" y1="89.4588" x2="167.579" y2="99.6365" gradientUnits="userSpaceOnUse">
<stop stop-color="#A99745"/>
<stop offset="1" stop-color="#716228"/>
</linearGradient>
<linearGradient id="paint2_linear_507_55284" x1="28.2305" y1="15.8467" x2="39.8495" y2="27.9184" gradientUnits="userSpaceOnUse">
<stop stop-color="#EBDD5D"/>
<stop offset="1" stop-color="#8D751F"/>
</linearGradient>
<linearGradient id="paint3_linear_507_55284" x1="36.2644" y1="15.0486" x2="36.2644" y2="22.4093" gradientUnits="userSpaceOnUse">
<stop stop-color="#A99745"/>
<stop offset="1" stop-color="#716228"/>
</linearGradient>
<linearGradient id="paint4_linear_507_55284" x1="29" y1="100.388" x2="40.619" y2="112.46" gradientUnits="userSpaceOnUse">
<stop stop-color="#EBDD5D"/>
<stop offset="1" stop-color="#8D751F"/>
</linearGradient>
<linearGradient id="paint5_linear_507_55284" x1="37.0339" y1="99.5901" x2="37.0339" y2="106.951" gradientUnits="userSpaceOnUse">
<stop stop-color="#A99745"/>
<stop offset="1" stop-color="#716228"/>
</linearGradient>
<linearGradient id="paint6_linear_507_55284" x1="0" y1="52.2905" x2="29.8229" y2="83.2753" gradientUnits="userSpaceOnUse">
<stop stop-color="white"/>
<stop offset="1" stop-color="#D6D6D6"/>
</linearGradient>
<linearGradient id="paint7_linear_507_55284" x1="17.3867" y1="56.1757" x2="17.3867" y2="75.0689" gradientUnits="userSpaceOnUse">
<stop stop-color="#BCB7B7"/>
<stop offset="1" stop-color="#817F7F"/>
</linearGradient>
<linearGradient id="paint8_linear_507_55284" x1="167.699" y1="37.105" x2="186.384" y2="56.5181" gradientUnits="userSpaceOnUse">
<stop stop-color="white"/>
<stop offset="1" stop-color="#D6D6D6"/>
</linearGradient>
<linearGradient id="paint9_linear_507_55284" x1="173.271" y1="43.7307" x2="173.271" y2="55.568" gradientUnits="userSpaceOnUse">
<stop stop-color="#BCB7B7"/>
<stop offset="1" stop-color="#817F7F"/>
</linearGradient>
<linearGradient id="paint10_linear_507_55284" x1="75.8379" y1="0" x2="101.349" y2="26.5053" gradientUnits="userSpaceOnUse">
<stop stop-color="#EB7F5D"/>
<stop offset="0.656709" stop-color="#BE5F42"/>
<stop offset="1" stop-color="#A64F33"/>
</linearGradient>
<linearGradient id="paint11_linear_507_55284" x1="87.3098" y1="6.73954" x2="87.3098" y2="22.9013" gradientUnits="userSpaceOnUse">
<stop stop-color="#B65D1C"/>
<stop offset="1" stop-color="#9C4A0F"/>
</linearGradient>
<linearGradient id="paint12_linear_507_55284" x1="137.031" y1="9.48145" x2="149.666" y2="22.609" gradientUnits="userSpaceOnUse">
<stop stop-color="#EB7F5D"/>
<stop offset="0.656709" stop-color="#BE5F42"/>
<stop offset="1" stop-color="#A64F33"/>
</linearGradient>
<linearGradient id="paint13_linear_507_55284" x1="140.185" y1="14.2092" x2="140.185" y2="22.2137" gradientUnits="userSpaceOnUse">
<stop stop-color="#B65D1C"/>
<stop offset="1" stop-color="#9C4A0F"/>
</linearGradient>
<linearGradient id="paint14_linear_507_55284" x1="73.4319" y1="63.2395" x2="145.634" y2="158.064" gradientUnits="userSpaceOnUse">
<stop stop-color="#B526D6"/>
<stop offset="1" stop-color="#FEBE0C"/>
</linearGradient>
<linearGradient id="paint15_linear_507_55284" x1="73.4319" y1="63.2395" x2="145.634" y2="158.064" gradientUnits="userSpaceOnUse">
<stop stop-color="#B526D6"/>
<stop offset="1" stop-color="#FEBE0C"/>
</linearGradient>
</defs>
</svg>
