<svg viewBox="0 0 339 323" fill="none" xmlns="http://www.w3.org/2000/svg">
<g clip-path="url(#clip0_1193_86549)">
<path d="M305.948 206.51L299.107 254.557L298.47 258.694C293.379 262.035 273.333 263.149 265.06 258.694L264.423 255.035L255.832 206.351H305.948V206.51Z" fill="#3F0C7C"/>
<path d="M280.81 210.646C294.606 210.646 305.789 208.794 305.789 206.51C305.789 204.225 294.606 202.373 280.81 202.373C267.015 202.373 255.832 204.225 255.832 206.51C255.832 208.794 267.015 210.646 280.81 210.646Z" fill="#511599"/>
<path d="M305.312 206.509C305.312 207.782 299.107 208.896 290.198 209.373C287.652 209.532 284.788 209.532 281.765 209.532C280.652 209.532 279.697 209.532 278.742 209.532C278.424 209.532 278.106 209.532 277.788 209.532C276.197 209.532 274.765 209.373 273.333 209.373C264.583 208.896 258.219 207.782 258.219 206.509C258.219 205.396 262.355 204.441 268.719 203.964C270.628 203.805 272.856 203.646 275.083 203.646C277.151 203.487 279.379 203.487 281.606 203.487C283.038 203.487 284.311 203.487 285.584 203.487C290.198 203.646 294.334 203.805 297.516 204.282C302.448 204.759 305.312 205.555 305.312 206.509Z" fill="#572791"/>
<path d="M278.739 209.533C281.285 207.624 283.512 205.555 285.74 203.328C290.99 198.237 295.604 192.827 299.581 186.782L299.74 186.623C300.059 186.145 300.377 185.668 300.695 185.191C301.331 184.236 301.968 182.963 301.49 181.85C300.854 180.577 299.263 180.418 297.99 180.577C292.263 181.054 286.694 184.236 283.353 188.85C288.922 178.509 294.808 167.849 300.059 156.712C300.854 154.962 301.49 152.576 300.059 151.303C298.786 150.348 297.036 150.825 295.604 151.462C291.149 153.53 287.49 156.871 285.103 161.167C290.513 150.666 295.763 140.643 300.218 130.302C301.172 128.074 301.968 126.006 302.922 123.779C303.559 122.347 304.036 120.915 304.036 119.324V119.165C304.036 117.733 303.4 116.142 302.127 115.347C300.059 114.074 297.354 115.187 295.445 116.619C293.217 118.21 291.149 119.96 289.399 121.87C285.899 125.529 283.194 129.665 281.444 134.279C285.262 121.87 288.763 110.096 292.422 98.323C292.899 96.732 293.376 94.9819 293.217 93.2318C293.058 91.4818 291.945 89.7317 290.354 89.2544C288.285 88.618 286.217 90.209 284.785 91.6409C280.171 96.2547 276.671 102.141 274.921 108.346C277.308 95.6183 280.489 83.3677 281.762 70.799C281.921 69.8444 281.921 68.8898 281.921 67.7761C281.921 66.8215 281.762 65.8669 281.444 64.9123C280.808 63.0032 279.376 61.4122 277.467 61.094C274.762 60.7758 272.535 63.1623 270.944 65.5487C269.353 68.0943 267.921 70.6399 266.807 73.5037C265.057 77.6402 263.943 82.095 263.466 86.3906C263.466 73.8218 262.67 61.5713 260.443 49.4798C259.966 47.2524 259.648 45.1841 259.011 43.1159C258.216 39.4566 255.988 35.0018 252.329 35.32C250.261 35.4791 248.511 37.3883 247.715 39.2975C247.079 41.3658 247.238 43.5932 247.397 45.6614C247.556 46.7751 247.556 48.0479 247.715 49.1616C248.192 56.7983 248.829 64.435 249.306 72.0718C246.124 55.6846 236.737 40.5703 223.214 30.5471C222.896 30.2289 222.578 30.0698 222.259 29.7516C217.964 26.7287 211.6 24.3422 207.941 28.1606C206.031 30.0698 205.713 33.2518 206.35 35.9564C206.986 38.6611 208.736 40.8885 210.327 43.1159C219.714 56.0028 230.373 67.9352 242.147 78.7539C238.169 77.9584 234.987 75.0946 231.169 73.6627C227.351 72.2309 221.941 73.3446 221.146 77.4811C220.668 80.3449 222.896 82.7314 224.964 84.7996C234.987 94.6637 245.329 104.369 255.829 113.596C251.693 109.937 246.92 106.755 241.988 104.369C240.238 103.414 238.01 102.619 236.26 103.573C234.351 104.528 233.715 106.914 234.192 108.983C234.669 111.051 235.942 112.642 237.215 114.392C246.442 126.483 255.67 138.575 264.898 150.666C261.557 146.053 257.261 142.075 252.488 138.893C250.897 137.938 248.988 136.825 247.238 137.62C244.215 138.734 244.851 143.189 245.965 146.212C247.238 149.234 248.511 152.257 249.943 155.121C254.716 164.985 260.284 174.213 266.807 182.963C267.602 183.918 268.239 184.873 269.034 185.986C268.557 185.668 268.08 185.509 267.602 185.191C265.852 184.077 264.58 182.327 263.307 180.736C261.716 178.668 259.807 176.599 257.42 175.804C254.875 175.008 251.693 175.963 250.897 178.509C250.261 180.736 251.852 183.122 253.284 184.873C258.534 191.236 263.625 197.6 268.875 203.964C270.307 205.874 271.898 207.624 273.33 209.533C274.762 209.533 276.194 209.692 277.785 209.692" fill="#6621B8"/>
<path d="M260.126 49.6388C259.967 49.3206 259.649 48.8433 259.489 48.5251C258.535 46.9341 257.262 45.3431 255.512 44.7067C252.33 43.593 248.83 45.9795 247.557 49.0024C247.557 49.1615 247.398 49.3206 247.398 49.3206C247.239 48.2069 247.239 46.9341 247.08 45.8204C246.921 43.593 246.762 41.3657 247.398 39.4565C248.034 37.3882 249.784 35.479 252.012 35.479C255.83 35.1608 257.898 39.6156 258.694 43.2748C259.171 45.3431 259.649 47.4114 260.126 49.6388Z" fill="#7431C6"/>
<path d="M281.605 67.9349C280.65 67.2985 279.536 66.9803 278.423 66.8212C275.241 66.503 272.218 67.9349 269.831 70.0032C268.559 71.1169 267.604 72.3897 266.649 73.6624C267.763 70.9578 269.195 68.2531 270.786 65.7075C272.218 63.3211 274.604 60.9346 277.309 61.2528C279.218 61.571 280.65 63.162 281.286 65.0711C281.446 66.0257 281.605 66.9803 281.605 67.9349Z" fill="#7431C6"/>
<path d="M268.081 155.28C264.421 151.621 255.671 142.871 250.58 145.257C248.193 146.371 248.671 150.348 249.784 155.439C248.352 152.576 247.08 149.553 245.807 146.53C244.534 143.507 244.057 139.052 247.08 137.938C248.83 137.302 250.739 138.257 252.33 139.211C257.103 142.393 261.399 146.371 264.74 150.985C255.512 138.893 246.284 126.802 237.056 114.71C235.784 113.119 234.511 111.369 234.034 109.301C233.556 107.232 234.352 104.846 236.102 103.891C237.852 103.096 240.079 103.891 241.829 104.687C246.761 107.073 251.534 110.255 255.671 113.915C245.17 104.528 234.829 94.9819 224.806 85.1178C222.738 83.0495 220.51 80.6631 220.988 77.7993C221.624 73.8218 227.192 72.7082 231.011 73.9809C234.829 75.4128 238.011 78.2766 241.989 79.0721C230.215 68.2534 219.556 56.321 210.169 43.4341C208.578 41.2067 206.987 38.8202 206.191 36.2746C205.555 33.57 205.873 30.5471 207.782 28.6379C211.442 24.8195 217.806 27.206 222.101 30.2289C222.419 30.5471 222.738 30.7062 223.056 31.0244C215.26 28.797 209.532 29.7516 209.055 33.8882C207.782 43.5932 243.898 77.7993 244.216 80.6631C244.375 82.095 228.624 77.9584 227.988 81.7768C227.351 85.5951 258.057 113.596 257.898 115.187C257.739 116.301 240.557 105.801 238.011 109.301C234.988 112.801 261.558 143.984 268.081 155.28Z" fill="#7431C6"/>
<path d="M278.739 209.532C279.693 209.532 280.807 209.532 281.762 209.532C284.785 209.532 287.489 209.373 290.194 209.373C292.739 207.623 295.285 205.873 297.831 204.282C305.149 199.35 312.468 194.577 319.786 189.963C321.059 189.168 322.491 188.054 322.332 186.622C322.332 184.554 319.786 183.758 317.718 183.599C311.513 183.122 305.149 184.395 299.581 187.1C299.422 187.1 299.263 187.259 299.103 187.418C299.263 187.259 299.581 187.1 299.74 186.94C308.013 181.372 316.604 176.281 325.036 171.349C326.627 170.394 328.218 169.281 328.218 167.53C328.218 166.099 327.105 164.985 325.832 164.508C324.559 164.03 323.127 164.03 321.695 164.189C314.854 164.667 308.172 166.576 301.967 169.281C311.195 162.757 319.309 157.825 327.582 152.893C328.696 152.257 329.809 151.621 330.605 150.666C331.4 149.711 331.878 148.439 331.559 147.166C330.923 144.938 328.059 144.302 325.832 144.302C320.264 144.302 314.854 145.575 309.763 147.961C317.082 142.87 324.877 138.256 332.673 133.642C334.423 132.688 336.173 131.574 337.287 129.983C338.401 128.392 338.56 125.847 337.287 124.415C335.855 122.983 333.628 122.983 331.559 123.301C325.991 123.937 320.582 125.528 315.491 127.597C321.377 121.392 328.378 114.71 334.582 107.232C335.06 106.596 335.696 105.959 336.173 105.323C336.969 104.368 337.605 103.255 337.923 101.982C338.56 99.9136 338.242 97.5272 336.651 96.0953C334.264 94.027 330.446 95.1407 327.582 96.5726C325.036 97.8454 322.65 99.2772 320.423 101.027C320.104 101.186 319.786 101.505 319.627 101.664C319.309 101.823 319.15 102.141 318.832 102.3C318.195 102.777 317.718 103.096 317.241 103.573C316.127 104.527 315.013 105.482 314.059 106.437C313.74 106.755 313.263 107.232 312.786 107.55L312.627 107.709C312.15 108.187 311.831 108.505 311.354 108.982C311.036 109.3 310.718 109.778 310.399 110.096C310.24 110.255 310.081 110.414 309.922 110.732C309.763 110.891 309.604 111.051 309.445 111.369C309.127 111.846 308.808 112.164 308.331 112.642C307.854 113.119 307.536 113.755 307.058 114.392C306.899 114.71 306.581 115.028 306.422 115.187C306.263 115.505 306.104 115.823 305.786 115.983C304.99 117.096 304.195 118.369 303.558 119.483C303.24 120.119 302.763 120.915 302.445 121.551C302.285 121.074 302.285 120.756 302.285 120.278C302.285 119.801 302.126 119.483 302.126 119.005C301.967 117.892 301.808 116.778 301.808 115.664C301.649 113.278 301.49 110.891 301.331 108.664C301.331 107.55 301.172 106.437 300.376 105.8C298.785 104.687 296.876 106.278 295.762 107.869C295.285 108.505 294.808 109.3 294.49 109.937C294.33 110.255 294.171 110.573 294.012 110.891C293.535 111.687 293.058 112.642 292.58 113.437C292.262 113.914 292.103 114.551 291.785 115.028C291.626 115.505 291.308 115.983 291.149 116.46C290.83 117.096 290.671 117.733 290.353 118.369C290.194 118.687 290.194 119.005 290.035 119.324C289.876 119.642 289.876 119.96 289.717 120.278C289.558 120.915 289.239 121.551 289.08 122.187C288.921 122.824 288.762 123.46 288.444 124.097C288.444 124.256 288.285 124.415 288.285 124.574C288.126 125.051 288.126 125.528 287.967 126.006C287.807 126.801 287.648 127.438 287.489 128.233C287.33 128.71 287.33 129.188 287.171 129.665C287.012 130.142 287.012 130.62 286.853 131.097C286.853 131.256 286.853 131.415 286.694 131.574C286.535 132.211 286.535 132.847 286.376 133.483C286.216 134.438 286.057 135.233 286.057 136.188C286.057 136.665 285.898 136.984 285.898 137.461C285.898 137.938 285.739 138.575 285.739 139.211C285.103 144.461 284.944 150.03 284.625 155.28C284.148 150.507 283.353 145.734 282.716 140.802C282.398 139.211 282.08 137.302 280.648 136.506C279.216 135.711 277.307 136.506 276.352 137.779C275.398 139.052 275.08 140.802 274.761 142.393C274.125 146.689 273.966 150.984 274.125 155.28C274.443 165.621 276.352 175.963 278.262 186.145C275.875 181.054 274.284 177.395 272.057 173.894C271.261 172.622 270.307 171.349 268.875 170.872C266.647 170.235 264.261 172.463 263.943 174.849C263.624 177.235 264.579 179.463 265.375 181.69C265.693 182.327 265.852 182.804 266.17 183.44C266.488 184.236 266.806 184.872 267.125 185.509C269.67 191.554 272.216 197.759 274.92 203.805C275.716 205.873 276.671 207.782 277.466 209.851" fill="#6621B8"/>
<path d="M338.083 101.823C337.765 103.096 337.129 104.209 336.333 105.164C336.333 103.414 336.652 98.6409 335.061 98.0045C331.083 96.4135 316.446 100.391 301.332 126.96C301.65 123.46 299.582 110.573 298.627 110.255C296.559 109.619 287.808 123.301 284.785 164.03C283.354 158.621 283.195 138.575 279.376 138.415C275.399 138.097 275.558 151.302 274.444 155.121C274.285 150.825 274.444 146.529 275.08 142.234C275.24 140.643 275.558 138.893 276.671 137.62C277.626 136.347 279.535 135.552 280.967 136.347C282.399 137.143 282.717 138.893 283.035 140.484C283.831 145.257 284.467 150.03 284.945 154.962C285.74 138.575 286.695 121.233 296.081 107.869C297.195 106.278 299.263 104.687 300.695 105.8C301.491 106.437 301.65 107.55 301.65 108.664C301.968 112.801 302.127 116.778 302.923 121.551C308.332 110.891 317.242 101.982 327.901 96.5726C330.765 95.1407 334.583 94.027 336.97 96.0953C338.402 97.3681 338.72 99.7545 338.083 101.823Z" fill="#7431C6"/>
<path d="M137 310C217.634 310 283 297.688 283 282.5C283 267.312 217.634 255 137 255C56.3664 255 -9 267.312 -9 282.5C-9 297.688 56.3664 310 137 310Z" fill="url(#paint0_radial_1193_86549)" fill-opacity="0.2"/>
<path d="M78.4375 282.4V222.897H84.6423V282.4C84.6423 283.514 83.8468 284.309 82.7332 284.309H80.5058C79.233 284.309 78.4375 283.355 78.4375 282.4Z" fill="#2D213C"/>
<path d="M214.148 169.44C213.353 176.6 211.921 183.123 210.012 189.328C208.262 195.055 206.353 200.464 204.284 205.397C203.33 207.465 202.534 209.533 201.739 211.601C200.943 213.511 199.989 215.261 199.352 217.011C197.284 221.625 195.693 229.261 191.397 229.579C186.943 229.898 181.692 222.897 181.692 219.238C184.556 213.351 187.102 207.624 189.488 201.737C189.965 200.624 190.284 199.669 190.761 198.555C192.67 193.464 194.261 188.373 195.693 183.123C195.693 182.964 195.852 182.805 195.852 182.645C197.443 176.759 200.148 174.054 202.375 172.463C204.443 170.713 210.648 168.963 214.148 169.44Z" fill="#FDAD91"/>
<path d="M210.013 189.327C208.263 195.055 206.354 200.464 204.285 205.396C203.49 207.465 202.535 209.533 201.74 211.601C197.444 208.578 193.308 205.237 189.33 201.737C189.807 200.623 190.126 199.669 190.603 198.555C192.512 193.464 194.103 188.373 195.535 183.123C195.535 182.963 195.694 182.804 195.694 182.645C199.831 184.395 203.967 186.305 207.945 188.214C208.581 188.532 209.376 189.009 210.013 189.327Z" fill="#F08275"/>
<path d="M214.15 169.44C212.559 183.281 208.422 195.214 204.285 205.396C202.854 204.919 201.422 204.123 200.149 203.487C196.967 201.737 191.08 199.828 187.739 198.077C189.648 192.986 191.558 188.054 193.785 182.963C196.967 175.804 199.672 174.054 201.899 172.304C204.445 170.713 210.649 168.962 214.15 169.44Z" fill="url(#paint1_linear_1193_86549)"/>
<path d="M193.466 213.988C187.42 204.283 180.102 193.782 173.897 184.395C171.669 185.827 167.374 189.168 164.828 191.077C169.124 200.782 175.01 211.283 179.147 221.147C180.102 223.374 181.215 225.761 182.965 227.511C185.034 229.42 188.056 230.375 190.761 229.897C193.784 229.261 200.148 224.488 193.466 213.988Z" fill="#FDAD91"/>
<path d="M175.17 186.782C173.419 178.35 169.919 168.486 166.896 160.531C166.419 159.258 165.783 157.826 164.51 158.303C163.237 158.621 163.714 160.053 164.033 161.167C165.783 167.054 167.055 172.94 167.055 172.94C167.055 172.94 163.714 164.985 161.964 161.008C161.646 160.212 161.328 159.417 160.692 158.781C160.055 158.144 158.941 157.985 158.305 158.621C157.669 159.258 157.669 160.372 157.987 161.326C156.873 161.167 155.76 162.281 155.919 163.713C155.123 163.872 154.646 164.508 154.487 165.304C154.328 166.099 154.646 166.895 154.805 167.531C155.76 170.395 156.714 173.099 157.669 176.122C157.987 179.622 158.464 183.282 160.055 186.464C161.646 189.646 164.51 192.35 168.487 192.668C170.874 191.077 173.579 189.327 175.17 186.782Z" fill="#FDAD91"/>
<path d="M171.51 178.827C169.601 175.804 167.692 172.781 165.942 169.599C165.305 168.485 164.192 167.372 163.078 167.69C161.964 168.008 161.805 169.44 161.964 170.554C162.442 172.94 164.033 175.008 164.351 177.236C164.51 178.827 164.192 180.418 164.033 182.009C163.874 183.6 164.192 185.35 165.305 186.464" fill="url(#paint2_linear_1193_86549)"/>
<path d="M207.309 268.718C205.558 273.173 202.854 277.945 198.24 278.9C194.581 279.696 190.921 277.945 187.739 276.036C179.944 271.582 172.307 266.809 164.988 261.717C156.079 255.513 147.647 248.83 139.692 241.671C123.782 255.99 106.122 269.513 90.6895 284.787C84.3255 283.832 81.3027 280.65 77.3252 276.673C91.9622 257.263 108.349 238.807 125.214 220.829C128.078 217.806 131.26 214.465 135.396 213.511C140.487 212.238 145.737 214.465 150.51 216.693C158.784 220.511 166.898 224.329 175.171 228.148C184.08 232.284 192.99 236.421 201.899 240.557C207.786 243.262 210.491 248.512 210.65 253.763C210.968 258.854 209.377 263.945 207.309 268.718Z" fill="#F0A084"/>
<path d="M88.4631 273.332C89.895 278.741 93.8725 287.014 91.486 290.196C89.5768 292.742 81.1446 289.878 77.1672 288.446C70.0077 285.9 61.7346 283.673 55.6889 280.491C53.7797 279.536 50.9159 274.763 56.9617 273.65C65.7121 272.059 74.4625 271.581 88.4631 273.332Z" fill="#F0A084"/>
<path d="M207.308 268.718C205.558 273.172 202.854 277.945 198.24 278.9C194.581 279.695 190.921 277.945 187.739 276.036C179.944 271.581 172.307 266.809 164.988 261.717C170.716 251.376 174.216 239.762 175.171 227.989C184.08 232.125 192.99 236.262 201.899 240.398C207.786 243.103 210.49 248.353 210.65 253.603C210.968 258.854 209.377 263.945 207.308 268.718Z" fill="#3A1D5C"/>
<path d="M169.761 225.443C171.511 235.944 170.397 246.921 166.579 256.308C168.488 257.263 170.557 258.376 172.625 259.331C177.716 249.944 179.307 238.648 176.443 228.466C174.852 226.557 172.307 225.284 169.761 225.443Z" fill="#44226C"/>
<path d="M235.629 244.534C233.879 256.467 226.401 277.627 214.151 284.786C207.946 288.446 200.627 289.4 192.832 288.446C190.445 288.127 187.9 287.65 185.354 287.014C178.99 285.423 172.467 282.877 165.785 280.013C164.035 279.218 162.285 278.422 160.535 277.627C141.92 268.876 123.465 257.899 116.146 257.58C109.464 257.262 71.5986 274.286 48.5293 281.286C44.0746 277.945 41.529 272.377 42.0063 267.285C66.0302 254.717 103.577 233.875 115.828 231.966C124.26 230.693 151.466 237.057 175.967 240.875C176.444 241.034 177.081 241.034 177.558 241.193C183.604 242.148 189.49 242.943 194.741 243.262C195.377 240.875 195.536 239.284 196.491 237.852C197.127 236.739 198.082 235.784 199.832 234.829C201.423 235.466 203.173 235.943 205.082 236.42C215.583 238.807 229.424 238.489 235.629 244.534Z" fill="#FDAD91"/>
<path d="M202.854 271.104C202.377 276.831 198.877 281.763 195.217 286.059C194.422 286.854 193.786 287.65 192.99 288.445C190.604 288.127 188.058 287.65 185.512 287.014C179.149 285.423 172.625 282.877 165.943 280.013C169.921 279.059 173.58 276.195 175.807 272.695C178.83 268.081 179.626 262.353 179.308 256.944C178.989 251.535 177.398 246.125 175.967 240.875L185.831 248.671C190.445 250.58 194.899 253.285 198.24 257.262C201.263 260.921 203.331 266.013 202.854 271.104Z" fill="#F0A084"/>
<path d="M51.0741 276.195C48.8467 281.286 47.0966 290.355 42.9601 291.309C39.7781 292.105 35.0051 284.627 32.7778 281.127C28.6412 274.763 23.5501 267.922 20.8454 261.558C20.0499 259.649 20.5272 254.08 26.0956 256.944C34.0505 261.081 41.0509 266.172 51.0741 276.195Z" fill="#FDAD91"/>
<path d="M235.627 244.534C235.627 244.852 235.468 245.17 235.468 245.489C233.559 257.58 226.082 277.786 214.149 284.786C205.876 289.718 196.012 289.718 185.352 287.013C185.671 285.104 185.83 283.195 185.989 281.286C186.943 267.444 184.08 253.285 177.397 241.034C183.443 241.989 189.33 242.784 194.58 243.102C195.216 240.716 195.376 239.125 196.33 237.693C196.648 237.693 197.126 237.534 197.444 237.534C199.83 237.216 202.376 236.738 204.762 236.261C208.581 237.216 212.717 237.693 216.695 238.17C224.331 239.284 231.65 240.557 235.627 244.534Z" fill="#2A1642"/>
<path d="M235.469 245.489C233.559 257.58 226.082 277.786 214.149 284.786C205.876 289.718 196.012 289.718 185.353 287.014C185.671 285.104 185.83 283.195 185.989 281.286C187.898 274.763 187.739 267.763 185.83 261.24C189.966 268.081 192.194 276.036 192.194 283.991C200.149 285.105 208.581 282.718 214.627 277.468C217.809 274.763 220.672 270.786 220.195 266.649C219.559 260.762 213.672 257.421 209.058 253.762C203.808 249.626 199.671 243.898 197.285 237.693C199.671 237.375 202.217 236.898 204.603 236.42C208.422 237.375 212.558 237.852 216.536 238.33C218.922 238.966 220.991 239.602 223.218 240.239C227.514 241.512 231.968 242.943 235.469 245.489Z" fill="#3A1D5C"/>
<path d="M173.896 240.239C180.897 253.762 181.692 270.945 177.397 285.423C180.42 287.332 184.079 287.968 188.215 288.287C191.556 273.809 190.761 264.74 187.579 252.33C186.465 247.717 184.874 243.262 181.533 239.762C178.988 239.762 176.442 239.602 173.896 240.239Z" fill="#402066"/>
<path d="M227.514 163.554C223.218 172.781 214.309 180.259 203.967 183.123C205.24 178.827 206.513 174.372 206.354 169.917C206.354 168.008 206.035 165.94 205.24 164.19C204.285 161.803 202.853 159.735 200.785 158.144C205.558 154.485 209.854 150.667 214.149 146.848C214.468 146.53 214.786 146.212 215.104 146.053C215.263 149.394 217.331 152.576 219.718 155.28C222.263 158.144 224.809 160.849 227.514 163.554Z" fill="#FDAD91"/>
<path d="M212.081 149.235C210.49 155.599 209.536 159.099 205.24 164.19C204.285 161.804 202.853 159.735 200.785 158.144C205.717 154.485 207.785 153.053 212.081 149.235Z" fill="#F08275"/>
<path d="M221.627 139.53C225.604 137.939 230.218 137.939 234.196 139.53C238.173 141.121 241.514 143.984 243.901 147.644C244.378 148.439 244.855 149.235 244.855 150.189C244.855 151.144 244.537 152.098 243.583 152.417C242.787 152.735 241.514 152.098 241.514 151.462C242.469 154.167 241.673 157.349 239.605 159.258C238.491 160.212 236.9 160.849 235.628 160.053C234.991 159.576 234.673 158.781 234.514 158.144C234.355 157.349 234.514 156.553 234.514 155.758C234.196 156.871 233.559 157.985 232.764 158.781C231.968 159.576 230.855 160.212 229.741 160.212C228.627 160.212 227.354 159.576 226.877 158.462C226.4 157.03 227.195 155.44 227.354 154.008C227.832 151.78 226.877 149.394 225.445 147.803C224.013 146.053 221.945 144.939 219.718 144.462C220.513 142.553 221.15 140.962 221.627 139.53Z" fill="#0C1942"/>
<path d="M225.764 135.393C227.037 135.711 228.468 136.029 228.946 137.302C229.105 137.939 228.946 138.734 228.628 139.371C228.15 140.643 227.514 141.916 226.718 143.189C226.082 144.303 225.127 145.416 223.855 145.894C222.582 146.371 220.991 145.894 220.354 144.621L220.514 144.462" fill="white"/>
<path d="M209.854 154.803C207.786 157.508 205.081 160.372 201.899 161.963C198.717 163.554 195.217 164.031 192.035 162.758C188.057 161.167 185.512 157.19 183.444 153.371C181.375 153.212 179.784 153.053 178.352 152.576C177.875 152.417 177.557 152.258 177.239 151.94C176.92 151.462 177.239 150.826 177.398 150.349C178.352 148.28 179.148 146.212 180.102 144.144C178.034 138.893 177.875 135.711 178.193 131.416C178.511 127.12 179.625 122.825 182.171 119.483C185.035 115.824 189.33 113.438 193.785 112.324C198.24 111.21 203.013 111.21 207.945 111.529C213.831 112.96 218.604 117.733 220.513 123.302C222.582 129.029 218.922 133.484 216.695 139.212C214.627 144.78 220.673 141.28 209.854 154.803Z" fill="#FDAD91"/>
<path d="M210.332 140.803C205.081 139.689 200.308 136.984 196.649 133.007C192.99 129.029 190.603 124.097 189.808 118.688C183.285 122.506 178.671 129.188 177.557 136.507C175.966 130.62 177.08 123.938 180.421 118.847C182.808 115.347 186.149 112.642 190.126 111.369C194.104 110.097 198.717 110.415 202.218 112.642C205.081 114.392 207.15 117.256 208.582 120.279C211.286 125.688 212.241 131.734 210.332 140.803Z" fill="#F08275"/>
<path d="M227.991 131.098C227.196 138.734 222.423 146.212 216.536 150.826C213.513 148.28 211.286 144.939 208.899 141.439C203.808 139.212 199.512 135.393 196.808 130.461C194.103 125.688 192.989 119.961 194.103 114.552C189.012 115.824 184.398 119.165 181.534 123.62C178.671 128.075 177.557 133.643 178.671 138.734C175.966 137.303 173.898 135.075 172.466 132.53C170.238 128.87 168.966 124.257 168.488 119.802C168.17 116.779 168.329 113.438 170.079 110.892C171.829 108.347 175.011 107.074 178.034 106.438C183.444 105.165 189.171 105.324 194.899 106.756C195.694 106.915 196.49 107.074 197.285 107.392C204.763 107.233 212.877 107.233 219.082 111.21C225.446 115.347 228.787 123.461 227.991 131.098Z" fill="#0C1942"/>
<path d="M194.74 106.756C189.489 107.233 184.239 108.028 179.148 109.46C177.08 110.097 174.852 110.733 173.42 112.483C171.67 114.551 171.352 117.415 171.352 120.12C171.352 124.256 171.67 128.552 172.466 132.689C170.079 129.029 168.966 124.415 168.488 119.961C168.17 116.938 168.329 113.597 170.079 111.051C171.829 108.506 175.011 107.233 178.034 106.596C183.284 105.324 189.012 105.324 194.74 106.756Z" fill="#183061"/>
<path d="M204.763 140.962C205.876 138.893 207.626 137.143 209.854 135.87C210.968 135.234 212.399 134.757 213.672 135.075C215.581 135.393 216.854 137.461 217.013 139.371C217.013 141.28 216.059 143.189 214.627 144.462C213.195 145.894 211.445 146.848 209.854 147.803" fill="#FDAD91"/>
<path d="M245.491 215.42C244.219 225.92 241.355 245.489 231.491 262.035C218.286 256.944 205.399 248.512 195.694 238.33C197.285 236.739 198.557 234.989 199.671 233.08C201.58 229.738 202.853 226.238 203.33 222.579C203.012 222.261 202.694 222.102 202.535 221.784C199.035 218.442 195.853 214.465 194.898 209.851C194.739 209.215 194.739 208.578 194.58 208.101C194.103 203.328 195.853 198.555 198.08 194.26C200.626 189.327 202.535 185.191 204.285 179.941C212.876 173.577 218.286 167.054 223.695 159.417C232.764 164.031 239.446 173.895 242.787 184.077C244.219 188.055 245.014 192.032 245.651 196.01C246.446 201.737 246.446 208.101 245.491 215.42Z" fill="url(#paint3_linear_1193_86549)"/>
<path d="M245.49 215.419C244.217 225.92 241.354 245.489 231.49 262.035C218.284 256.944 205.397 248.512 195.692 238.33C197.283 236.739 198.556 234.989 199.67 233.079C207.784 236.42 217.33 237.216 224.807 232.92C230.217 229.738 234.035 224.488 237.058 218.92C241.035 211.601 243.899 203.964 245.49 195.85C246.445 201.737 246.445 208.101 245.49 215.419Z" fill="url(#paint4_linear_1193_86549)"/>
<path d="M217.649 212.874C214.786 217.17 209.854 219.397 205.081 220.829C204.285 221.147 203.49 221.306 202.694 221.465C199.194 218.124 196.171 214.147 195.057 209.533C194.898 208.896 194.898 208.26 194.739 207.783C201.74 211.442 209.695 213.192 217.649 212.874Z" fill="url(#paint5_linear_1193_86549)"/>
<path d="M245.966 279.854C245.011 281.127 244.534 280.809 243.898 282.4C243.261 283.832 242.625 287.173 243.58 288.605C244.216 289.4 245.171 290.036 245.966 290.514C249.148 292.264 252.489 293.378 255.989 294.332C256.626 294.491 257.262 294.65 257.739 294.491C258.376 294.332 258.853 293.696 258.853 293.059C258.853 292.423 258.058 291.946 257.421 291.627C255.83 290.673 254.08 289.877 252.966 288.764C259.171 289.877 265.217 290.991 271.422 292.105C272.217 292.264 273.013 292.423 273.649 292.105C274.286 291.787 274.922 290.832 274.922 289.718C275.717 290.036 277.149 288.286 277.308 287.65C277.627 285.264 273.649 283.991 270.467 282.877C261.717 279.536 249.307 275.081 245.966 279.854Z" fill="#FDAD91"/>
<path d="M254.559 279.218C251.218 280.65 248.672 281.763 244.695 281.923C234.672 252.808 226.399 225.92 219.239 205.078C219.08 204.442 218.762 203.646 218.603 203.01V202.851C217.966 200.941 217.171 198.873 216.534 196.805C214.148 189.486 211.921 181.531 213.83 174.849C214.784 171.508 217.33 168.485 220.671 167.372C228.149 165.144 233.558 177.713 235.626 186.304C235.626 186.304 236.263 188.532 237.058 192.509C237.694 195.055 238.49 198.396 239.285 202.055C239.445 203.01 239.763 203.964 239.922 204.919C244.854 225.602 252.013 258.376 254.559 279.218Z" fill="#FDAD91"/>
<path d="M240.081 205.078C233.399 206.191 226.239 206.191 219.398 204.919C219.239 204.282 218.921 203.487 218.762 202.85V202.691C218.125 200.782 217.33 198.714 216.693 196.646C223.375 194.259 230.217 192.827 237.217 192.35C237.853 194.895 238.649 198.236 239.444 201.896C239.604 203.169 239.922 204.123 240.081 205.078Z" fill="#F08275"/>
<path d="M241.196 201.896C234.355 203.01 217.49 203.964 217.49 203.964C214.467 195.214 211.444 183.6 213.831 175.008C214.785 171.667 217.331 168.644 220.672 167.531C228.15 165.303 234.673 177.077 236.741 185.668L241.196 201.896Z" fill="url(#paint6_linear_1193_86549)"/>
<path d="M39.7754 227.988V233.397L169.122 233.875V227.988L168.168 204.76L39.7754 227.988Z" fill="#2D213C"/>
<path d="M39.7754 227.988L81.6183 204.123H168.168L169.122 227.988H39.7754Z" fill="#514165"/>
<path d="M45.8223 291.309V231.807H52.0271V291.309C52.0271 292.423 51.0725 293.219 50.1179 293.219H47.7314C46.6178 293.219 45.8223 292.423 45.8223 291.309Z" fill="#2D213C"/>
<path d="M160.374 291.309V231.807H166.579V291.309C166.579 292.423 165.783 293.219 164.67 293.219H162.442C161.329 293.219 160.374 292.423 160.374 291.309Z" fill="#2D213C"/>
<path d="M103.253 224.806L103.571 226.238C103.73 226.715 104.048 227.034 104.685 227.034L158.778 226.875C159.574 226.875 160.051 226.238 160.21 225.602L161.006 205.874L103.253 224.806Z" fill="#0C1A3B"/>
<path d="M103.571 224.806V205.396H160.369C160.688 205.396 161.006 205.714 161.006 206.033L160.051 223.374C160.051 224.17 159.415 224.806 158.619 224.806H103.571Z" fill="#1F3A59"/>
<path d="M149.233 210.488L158.938 210.806L158.46 218.92L147.801 218.442L149.233 210.488Z" fill="#0C1C2F"/>
<path d="M126.164 206.67L148.437 206.829L144.937 221.943L113.754 221.784L126.164 206.67Z" fill="#0C1C2F"/>
<path d="M129.186 205.874L116.458 222.579" stroke="#1F3A59" stroke-width="0.795492" stroke-miterlimit="10"/>
<path d="M132.05 206.351L120.595 222.738" stroke="#1F3A59" stroke-width="0.795492" stroke-miterlimit="10"/>
<path d="M148.437 207.942L124.572 207.783" stroke="#1F3A59" stroke-width="0.795492" stroke-miterlimit="10"/>
<path d="M148.278 210.17L120.595 210.01" stroke="#1F3A59" stroke-width="0.795492" stroke-miterlimit="10"/>
<path d="M143.185 212.715L118.207 212.556" stroke="#1F3A59" stroke-width="0.795492" stroke-miterlimit="10"/>
<path d="M141.913 216.057L116.298 215.897" stroke="#1F3A59" stroke-width="0.795492" stroke-miterlimit="10"/>
<path d="M146.527 218.92L113.753 218.761" stroke="#1F3A59" stroke-width="0.795492" stroke-miterlimit="10"/>
<path d="M135.708 206.351L125.049 222.898" stroke="#1F3A59" stroke-width="0.795492" stroke-miterlimit="10"/>
<path d="M138.731 206.351L129.186 222.898" stroke="#1F3A59" stroke-width="0.795492" stroke-miterlimit="10"/>
<path d="M142.073 206.351L133.481 223.693" stroke="#1F3A59" stroke-width="0.795492" stroke-miterlimit="10"/>
<path d="M145.731 206.351L139.367 224.011" stroke="#1F3A59" stroke-width="0.795492" stroke-miterlimit="10"/>
<path d="M82.5729 178.667L79.391 176.758L77.4818 178.19C77.0045 178.667 76.8454 179.304 77.1636 179.94L101.665 225.124C101.824 225.602 102.46 225.761 102.778 225.602L105.006 224.965L99.4374 188.213L82.5729 178.667Z" fill="#0C1A3B"/>
<path d="M104.37 224.488L79.0731 178.031C78.7549 177.395 79.0731 176.599 79.8686 176.599L103.256 172.144C104.052 171.985 104.688 172.303 105.165 172.94L122.666 205.396L105.483 224.647C105.006 224.965 104.529 224.806 104.37 224.488Z" fill="#1F3A59"/>
<path d="M81.6182 178.191L103.256 174.054L120.12 204.919L105.483 220.988L81.6182 178.191Z" fill="#0C1C2F"/>
<path d="M153.73 47.8887H36.8743C32.5901 47.8887 29.1172 51.3616 29.1172 55.6457V139.568C29.1172 143.852 32.5902 147.325 36.8743 147.325H153.73C158.014 147.325 161.487 143.852 161.487 139.568V55.6457C161.487 51.3616 158.014 47.8887 153.73 47.8887Z" fill="#A86FEC"/>
<mask id="mask0_1193_86549" style="mask-type:luminance" maskUnits="userSpaceOnUse" x="29" y="47" width="133" height="101">
<path d="M153.731 47.8888H36.8752C32.5911 47.8888 29.1182 51.3618 29.1182 55.6459V139.568C29.1182 143.852 32.5911 147.325 36.8752 147.325H153.731C158.015 147.325 161.488 143.852 161.488 139.568V55.6459C161.488 51.3618 158.015 47.8888 153.731 47.8888Z" fill="white"/>
</mask>
<g mask="url(#mask0_1193_86549)">
<path d="M104.882 114.184C106.831 115.399 109.429 118.015 108.746 120.208C107.932 122.82 106.723 125.215 104.687 126.961C101.028 129.983 95.4596 129.983 91.0049 128.074C89.1694 127.288 87.4959 126.258 85.9177 125.085C82.2585 122.366 82.4967 116.355 82.4892 111.796C82.4883 111.279 82.462 110.764 82.4136 110.255C82.2545 109.46 82.2545 108.664 82.0954 108.028C81.9363 106.914 81.6181 105.801 81.459 104.687C81.1965 102.325 82.9243 100.55 85.3008 100.55C85.7793 100.55 86.2498 100.55 86.7092 100.55C89.3046 100.55 91.7589 100.55 94.1488 100.55C97.6469 100.55 100.421 102.951 101.08 106.386C101.114 106.563 101.15 106.739 101.187 106.914C101.505 109.142 102.301 111.528 103.733 113.278C103.947 113.493 104.178 113.702 104.425 113.879C104.572 113.984 104.725 114.086 104.882 114.184Z" fill="#95405D"/>
<path d="M103.81 113.136C103.951 113.208 103.835 113.473 103.679 113.496C96.7283 114.559 89.4178 113 83.6558 109.058C82.7341 108.427 82.1622 107.411 81.9283 106.319C81.704 105.272 81.9213 104.171 82.6343 103.373C83.3889 102.527 84.255 101.804 85.2121 101.201C86.1621 100.604 87.2908 100.391 88.4132 100.391C90.3883 100.391 92.2881 100.391 94.1489 100.391C97.647 100.391 100.421 102.792 101.08 106.227C101.114 106.404 101.15 106.58 101.187 106.755C101.501 108.952 102.28 111.304 103.675 113.047C103.711 113.093 103.759 113.109 103.81 113.136Z" fill="#7D3455"/>
<path d="M113.96 129.308C112.966 126.109 113.283 121.978 114.814 118.998C115.126 118.39 115.534 117.88 116.146 117.574C116.941 117.256 117.896 117.256 118.85 117.574C125.214 119.006 129.987 124.574 132.851 130.461C135.556 136.348 136.828 142.871 138.737 149.235C139.235 150.852 139.808 152.48 140.48 154.071C142.721 159.381 140.628 168.152 135.42 170.621C131.004 172.714 125.46 170.227 124.403 165.455C121.577 152.693 117.453 140.552 113.96 129.308Z" fill="#E8E0DA"/>
<path d="M137.941 166.838C137.941 166.9 137.891 166.894 137.828 166.895C137.572 166.896 137.25 166.907 136.987 166.99C136.878 167.024 136.769 167.06 136.657 167.073C118.098 169.134 99.3817 171.025 80.6655 169.122C75.0507 168.498 69.436 167.581 63.8213 166.139C60.9638 165.406 58.8911 162.983 58.4344 160.068C56.4843 147.622 54.7324 135.064 54.7324 122.506C54.7324 117.256 55.3688 111.21 59.9827 108.505C62.3691 107.074 65.392 106.914 67.9376 107.71C72.2199 108.744 76.7763 110.737 81.098 113.18C81.7635 113.557 82.3625 114.039 82.8679 114.613C86.8622 119.146 93.8177 128.105 100.075 128.552C102.337 128.703 103.884 126.817 104.869 124.166C106.643 119.391 111.234 115.024 116.095 116.543C119.134 117.493 121.931 118.833 123.94 121.074C126.804 124.256 128.077 128.234 129.19 132.37C131.895 143.507 132.213 155.439 137.304 165.622C137.458 165.929 137.612 166.384 137.908 166.702C137.929 166.724 137.941 166.808 137.941 166.838Z" fill="#FBF6F1"/>
<path d="M137.676 165.622C138.481 165.622 138.62 166.498 137.845 166.718C137.801 166.73 137.762 166.746 137.721 166.766C137.423 166.915 137.116 167.054 136.669 167.054C119.243 168.99 101.677 170.787 84.1025 169.442C82.0276 169.283 80.4191 167.596 80.2691 165.52C79.645 156.881 78.6408 148.289 77.2311 139.744C76.8859 137.651 78.7633 137.125 79.1637 139.208C79.3316 140.081 79.4843 140.958 79.6214 141.836C79.8003 142.982 81.3839 143.176 81.7373 142.071C82.1507 140.779 84.1167 140.977 83.9177 142.319C83.5218 144.988 82.9365 147.64 82.1616 150.253C82.0227 150.721 82.0681 151.231 82.3374 151.638C84.6848 155.193 89.0221 157.111 93.076 158.462C107.077 163.395 122.032 165.781 137.146 165.622C137.323 165.622 137.499 165.622 137.676 165.622Z" fill="#E8E0DA"/>
<path d="M107.234 88.459C108.666 87.3453 110.098 86.2316 111.848 85.7543C113.598 85.277 115.667 85.4361 116.939 86.7089C118.212 87.9817 118.371 90.05 117.576 91.641C116.78 93.2319 115.189 94.3456 113.598 94.982C111.848 95.6184 110.098 95.6184 108.348 95.7775" fill="#7D3455"/>
<path d="M70.6412 87.8225C69.2093 73.8219 77.0051 61.094 88.142 59.9803C99.2789 58.8666 108.507 69.3671 109.938 83.3678C111.37 97.3684 109.461 109.778 98.3243 111.051C87.1874 112.324 72.0731 101.823 70.6412 87.8225Z" fill="#95405D"/>
<path d="M111.689 68.4128C111.53 69.5265 111.211 70.6402 110.416 71.4357C109.949 72.019 109.397 72.5167 108.822 72.8035C108.421 73.0036 107.963 73.0317 107.515 73.0442C94.5449 73.4049 81.8852 75.1518 69.6867 78.436C67.1411 79.0724 66.0274 77.6405 65.5501 76.5269C65.0729 75.2541 64.9138 73.8222 65.232 72.5494C65.391 71.2766 65.8683 70.0038 66.8229 69.0492C67.4998 68.237 69.0143 65.7004 68.9236 64.6471C68.7556 62.6973 69.3656 60.7181 70.6413 59.3442C71.6236 58.2864 72.9647 57.6951 74.3408 57.5873C76.2325 57.4391 79.1815 56.3395 80.1872 54.7304C81.3009 53.1394 83.051 52.0257 84.8011 51.8666C86.2206 51.7247 87.6402 52.121 88.8479 52.8862C89.5075 53.3041 94.3768 53.4516 95.1424 53.2985C96.7334 52.9803 98.4835 53.4576 100.075 54.2531C101.665 55.0486 103.097 56.3214 103.893 58.0715C104.337 59.0488 107.867 62.2835 108.836 62.7452C108.994 62.8208 109.15 62.9067 109.302 63.0035C110.734 63.9581 111.848 66.1855 111.689 68.4128Z" fill="#0C1B3C"/>
<path d="M111.689 68.4128C111.527 69.5479 110.327 69.2296 109.894 68.1681C109.514 67.2377 108.94 66.3843 108.189 65.7082C106.876 64.6582 105.179 64.1857 103.52 64.317C102.47 64.4002 101.058 63.0617 101.348 62.0489C101.666 60.9352 101.666 59.6624 101.188 58.7078C100.711 57.7533 99.7566 57.1169 98.6429 56.7987C97.0519 56.3214 95.4609 56.6396 94.1882 57.5942C93.0198 58.4704 90.3758 58.7491 89.5077 57.5747C89.1352 57.0709 88.7408 56.6016 88.3015 56.1623C86.8696 54.7304 84.9604 53.7758 82.8922 53.9349C82.2364 53.9349 81.6826 53.1222 82.2376 52.7729C83.0379 52.2692 83.9196 51.9468 84.8013 51.8666C86.2209 51.7247 87.6405 52.121 88.8482 52.8862C89.5078 53.3041 94.3771 53.4516 95.1427 53.2985C96.7337 52.9803 98.4838 53.4576 100.075 54.2531C101.666 55.0486 103.098 56.3214 103.893 58.0715C104.337 59.0488 107.867 62.2835 108.836 62.7452C108.995 62.8208 109.15 62.9067 109.302 63.0035C110.734 63.9581 111.848 66.1855 111.689 68.4128Z" fill="#1B3359"/>
<path d="M79.711 91.3229C77.9609 89.891 75.7336 88.9364 73.3471 88.9364C71.1197 88.9364 68.7332 89.891 67.4604 91.8002C66.1877 93.7094 66.0286 96.414 67.4604 98.1641C68.8923 99.9142 71.2788 100.391 73.5062 100.073C75.7336 99.7551 77.6427 98.4823 79.5519 97.3686" fill="#95405D"/>
</g>
</g>
<defs>
<radialGradient id="paint0_radial_1193_86549" cx="0" cy="0" r="1" gradientUnits="userSpaceOnUse" gradientTransform="translate(137 282.5) rotate(90) scale(27.5 146)">
<stop stop-color="#9338FF"/>
<stop offset="1" stop-color="#732FC4" stop-opacity="0"/>
</radialGradient>
<linearGradient id="paint1_linear_1193_86549" x1="191.403" y1="177.841" x2="231.067" y2="216.018" gradientUnits="userSpaceOnUse">
<stop stop-color="#B526D6"/>
<stop offset="1" stop-color="#FEBE0C"/>
</linearGradient>
<linearGradient id="paint2_linear_1193_86549" x1="167" y1="173" x2="169" y2="179.5" gradientUnits="userSpaceOnUse">
<stop stop-color="#E49579"/>
<stop offset="1" stop-color="#E49579" stop-opacity="0"/>
</linearGradient>
<linearGradient id="paint3_linear_1193_86549" x1="201.676" y1="183.568" x2="305.731" y2="252.454" gradientUnits="userSpaceOnUse">
<stop stop-color="#B526D6"/>
<stop offset="1" stop-color="#FEBE0C"/>
</linearGradient>
<linearGradient id="paint4_linear_1193_86549" x1="202.699" y1="211.427" x2="275.6" y2="284.5" gradientUnits="userSpaceOnUse">
<stop stop-color="#B526D6"/>
<stop offset="1" stop-color="#FEBE0C"/>
</linearGradient>
<linearGradient id="paint5_linear_1193_86549" x1="197.917" y1="211.003" x2="209.275" y2="235.98" gradientUnits="userSpaceOnUse">
<stop stop-color="#B526D6"/>
<stop offset="1" stop-color="#FEBE0C"/>
</linearGradient>
<linearGradient id="paint6_linear_1193_86549" x1="216.886" y1="175.895" x2="257.318" y2="216.723" gradientUnits="userSpaceOnUse">
<stop stop-color="#B526D6"/>
<stop offset="1" stop-color="#FEBE0C"/>
</linearGradient>
<clipPath id="clip0_1193_86549">
<rect width="338.402" height="322.652" fill="white"/>
</clipPath>
</defs>
</svg>
