<svg xmlns="http://www.w3.org/2000/svg" viewBox="0 0 575 589" fill="none">
  <path d="M574.749 270.023C573.642 245.856 568.574 221.464 560.099 198.009C559.048 195.069 557.819 192.204 556.674 189.301L554.9 184.956C554.309 183.505 553.605 182.11 552.957 180.687L548.94 172.175L544.492 163.86C543.732 162.484 543 161.079 542.221 159.722L539.771 155.677C538.11 152.999 536.514 150.265 534.769 147.633C531.193 142.427 527.683 137.146 523.722 132.202C520.804 129.796 518.683 127.774 516.571 126.378C512.319 123.457 508.791 121.566 505.384 120.114C501.93 118.71 498.72 117.642 495.276 116.256C493.315 115.414 490.846 113.869 488.181 111.874C485.506 109.899 482.691 107.408 479.612 105.151C476.553 102.867 473.559 100.451 470.546 98.6344C469.392 97.9322 468.275 97.3048 467.186 96.7336C464.737 94.6175 462.719 92.6512 461.471 91.3403C459.847 89.5331 459.772 88.7091 462.25 89.9545C463.507 90.6006 464.896 91.2747 466.276 92.0894C467.646 92.9133 469.063 93.7654 470.471 94.6081C473.277 96.3404 476.168 97.9696 478.514 99.4678C480.494 100.694 480.476 99.833 479.199 97.9509C477.942 96.0595 475.229 93.3628 472.123 90.7129C458.43 79.3738 443.489 68.9803 427.506 60.8715C374.48 33.7924 312.744 24.7566 253.984 34.7287C249.826 35.5153 245.603 36.358 241.539 37.3879C237.503 38.5209 233.609 39.7194 230.033 40.9086C226.476 42.1727 223.276 43.5585 220.544 44.7757C217.804 45.9836 215.561 47.1353 214.003 48.2028C211.103 50.1129 207.424 52.2946 205.547 53.8677C202.15 55.113 198.771 56.4426 195.42 57.8378C179.916 64.9353 164.562 73.3624 151.432 83.4281C133.037 97.67 115.825 114 102.019 132.296C98.4718 136.781 95.3184 141.519 92.2026 146.192C90.5977 148.495 89.265 150.976 87.8197 153.345C86.4401 155.761 84.9478 158.083 83.7278 160.555C81.2313 165.462 78.7255 170.246 76.7452 175.228C75.7222 177.7 74.6805 180.115 73.7701 182.578C72.9067 185.059 72.0808 187.531 71.2831 189.975C71.2643 190.022 71.2455 190.069 71.2361 190.116C70.9264 190.687 70.6073 191.249 70.3164 191.82L66.7782 198.992C66.1963 200.191 65.5863 201.38 65.0326 202.588L63.4371 206.258L60.2461 213.609L57.4024 221.109L55.9853 224.863C55.5442 226.127 55.15 227.401 54.7277 228.674L52.25 236.324C46.159 256.877 42.4894 278.263 41.5885 299.874C41.5134 305.277 41.213 310.689 41.4852 316.101L41.7386 324.229L42.3674 332.337L42.649 335.867C42.3299 334.407 42.0108 332.955 41.7198 331.485L40.3496 323.311L39.6739 319.2C39.4768 317.833 39.3454 316.457 39.1765 315.081L38.2286 306.794C37.9095 304.022 37.8344 301.241 37.6279 298.451C37.4871 295.661 37.215 292.861 37.2056 290.061L37.1305 281.625C37.0648 278.797 37.1868 275.979 37.3276 273.151C37.4684 270.314 37.5998 267.477 37.7405 264.63C38.0221 261.793 38.313 258.947 38.5946 256.1L39.0451 251.812C39.2234 250.388 39.4674 248.965 39.6833 247.542C40.1431 244.686 40.603 241.83 41.0629 238.974C41.5884 236.118 42.2548 233.291 42.8648 230.435C44.0004 224.686 45.7367 219.077 47.3134 213.356C48.3176 210.153 49.3312 206.942 50.326 203.786C50.8234 202.204 51.2552 200.612 51.762 199.067C52.2687 197.522 52.7662 196.005 53.2636 194.507C61.8228 166.735 77.9841 139.469 98.7628 115.676C107.923 105.039 118.068 95.2355 128.579 86.0312C130.466 84.3926 132.221 82.6978 133.91 80.9936C135.637 79.3457 137.336 77.7258 138.997 76.134C139.813 75.3568 139.795 74.5516 139.457 74.2707C139.166 74.0272 137.908 74.177 137.007 74.7482C116.116 87.829 97.5521 104.833 81.6912 124.637C56.0322 157.184 37.0554 195.144 27.3418 235.388C27.0227 236.821 26.1499 238.965 25.6712 239.527C24.1884 241.249 23.8317 239.573 24.5075 235.304C26.8725 222.85 29.7162 210.369 33.8082 198.206L35.2816 193.618C35.779 192.091 36.3797 190.602 36.9334 189.086L40.3496 180.031C41.5978 177.054 42.9024 174.095 44.1975 171.117L46.1684 166.66L48.327 162.297C53.9393 150.527 60.7623 139.291 68.1578 128.298C75.6472 117.371 84.1126 106.996 93.2725 97.052C103.39 86.3215 114.83 75.9093 124.628 66.7143C140.339 52.1822 158.734 40.094 180.273 30.6931C197.795 23.0712 215.946 16.4699 234.669 12.2751C252.933 8.17391 271.553 5.81431 290.164 5.1495C308.765 4.47533 327.423 5.50532 345.883 8.33308C382.795 13.9044 418.665 26.4514 450.922 45.0285C470.818 56.5269 489.063 70.2256 504.915 86.2653C516.684 97.9696 528.152 110.648 538.222 124.159C539.058 125.264 541.263 127.165 541.432 126.968C541.948 126.378 542.709 125.377 541.676 123.682C539.471 120.096 537.275 116.331 534.816 112.67C532.291 109.056 529.616 105.432 526.688 101.93C501.667 73.0534 470.884 48.6054 436.093 31.4421C387.281 7.36865 331.721 -3.42744 277.616 0.954667C250.446 2.86482 223.52 8.82935 197.767 17.9119C194.557 19.073 191.385 20.3558 188.203 21.5824L183.436 23.4551C181.859 24.1105 180.31 24.8315 178.743 25.5151L169.405 29.7193L160.264 34.3355C158.743 35.122 157.214 35.8711 155.721 36.6857L151.273 39.2045C148.316 40.9086 145.323 42.5566 142.413 44.3263C136.66 47.9874 130.832 51.5455 125.332 55.5718C114.896 62.7536 105.163 70.8717 95.7314 79.2895L88.8708 85.8346L85.464 89.1305L82.1886 92.5575L75.6753 99.4491L69.4717 106.621C53.0102 125.817 39.2422 147.25 28.0644 169.9C20.3968 185.602 14.1557 202.12 9.7634 218.824C-5.83472 278.46 -2.52176 341.298 18.1162 398.078C26.5159 421.038 37.2525 443.398 50.7014 463.913C53.2073 467.733 55.8163 471.919 58.5005 475.842C61.1283 479.803 63.484 483.726 65.5112 487.013C67.5947 490.486 69.7251 494.007 72.1934 497.303C74.6617 500.599 77.2426 503.848 79.9268 507.05C82.7236 510.15 85.6142 513.202 88.5517 516.236C91.5175 519.242 94.7084 522.06 97.843 524.953C133.253 556.658 176.556 579.084 220.854 588.26L226.26 588.606C228.053 588.737 229.845 588.822 231.647 588.831C235.213 588.887 238.78 588.934 242.318 588.99C245.837 589.009 249.348 588.784 252.773 588.653C254.481 588.569 256.18 588.475 257.869 588.391C259.549 588.288 261.229 588.073 262.89 587.904C266.513 587.511 269 586.331 269.554 585.151C270.746 582.604 270.924 579.898 270.492 577.145C270.173 575.17 267.348 573.082 262.984 571.209C260.788 570.319 258.254 569.215 255.401 568.334C253.984 567.876 252.492 567.445 250.934 567.033C250.155 566.836 249.366 566.64 248.559 566.443C247.761 566.228 246.954 566.012 246.128 565.788C242.055 564.692 237.86 563.849 233.768 562.698C229.686 561.499 225.584 560.394 221.699 558.952C217.87 557.454 213.703 555.928 209.911 554.224C208.785 553.69 207.706 553.156 206.654 552.622C209.095 553.596 211.554 554.533 214.031 555.413C224.458 559.345 235.223 562.36 246.081 564.954C251.553 566.087 256.996 567.361 262.534 568.147C265.293 568.568 268.052 569.083 270.821 569.421L279.164 570.357C291.844 571.537 304.363 572.052 316.714 571.237L321.341 570.994L325.949 570.525C329.018 570.188 332.078 569.898 335.128 569.477C341.2 568.456 347.282 567.557 353.251 566.012C360.233 564.486 367.178 562.557 373.804 561.003C380.345 559.149 386.615 557.726 391.974 556.255C394.714 555.544 397.511 554.851 400.326 553.933C403.123 552.978 405.986 551.93 408.951 550.787C411.945 549.701 414.93 548.278 418.074 546.77C421.199 545.235 424.531 543.699 427.853 541.686C439.875 535.075 451.654 526.545 462.437 518.764C488.828 499.616 510.94 475.187 527.786 447.798C544.689 420.401 556.561 390.176 563.469 358.611C565.787 346.767 567.007 334.725 567.776 322.702L568.142 313.667C568.255 310.652 568.152 307.637 568.161 304.621L568.152 303.489C569.438 306.597 571.014 305.811 572.206 300.932C573.21 296.616 574.224 291.868 574.534 286.719C574.74 284.144 574.89 281.456 574.984 278.675C575.04 275.876 574.871 273.01 574.749 270.023ZM86.3838 402.713C85.8019 401.805 85.0792 400.925 84.6569 399.97C83.2022 396.702 83.3899 395.653 84.7695 397.488C85.22 398.032 85.7644 399.614 86.2712 400.738C86.3181 401.374 86.3462 402.048 86.3838 402.713ZM148.682 484.812C149.94 486.376 151.216 487.93 152.558 489.428C151.939 488.96 151.32 488.492 150.719 488.005L147.575 485.383C145.51 483.614 143.38 481.91 141.503 479.999C139.494 477.949 139.494 476.825 140.958 477.247C143.211 479.484 145.51 481.666 147.857 483.81C148.129 484.138 148.41 484.484 148.682 484.812ZM304.063 556.368C303.556 556.705 301.576 557.201 299.155 557.276C265.94 558.072 231.628 550.553 200.892 536.611C189.114 531.227 177.739 524.991 166.908 517.959C169.761 516.32 171.16 513.717 168.044 508.717C166.683 506.648 164.487 503.942 162.028 501.189C160.808 499.803 159.503 498.427 158.274 496.994C157.082 495.533 155.918 494.091 154.877 492.715C154.36 492.031 154.267 491.507 154.116 490.955C166.186 501.676 179.973 510.665 194.717 517.566C195.721 518.043 197.044 518.549 198.255 518.951C214.275 527.257 231.328 533.802 249.01 538.324C255.823 540.038 262.721 541.433 269.657 542.576C271.112 543.287 272.491 544.027 274.106 544.72C276.001 545.572 277.86 546.368 279.906 547.061C277.972 546.873 276.039 546.686 274.096 546.499C269.629 545.993 265.171 545.225 260.713 544.57L254.068 543.24C251.863 542.772 249.629 542.407 247.452 541.808C243.088 540.665 238.658 539.738 234.378 538.353C217.081 533.306 200.47 526.592 184.759 519.008C182.291 517.856 178.593 516.067 178.827 516.433C179.672 517.547 180.986 519.495 184.083 521.245C211.676 537.444 243.116 548.259 275.297 552.716C279.859 553.306 284.317 553.999 288.718 554.355C290.914 554.579 293.092 554.804 295.25 555.029C297.418 555.207 299.558 555.291 301.698 555.432C303.575 555.544 304.513 556.068 304.063 556.368ZM480.729 420.242C471.888 435.008 460.898 448.463 448.266 460.074C435.671 471.713 421.762 481.881 406.774 490.243C404.578 491.442 402.354 492.659 400.12 493.885C397.849 495.065 395.502 496.114 393.184 497.247L389.693 498.923L386.127 500.412C383.752 501.404 381.378 502.397 379.022 503.38C374.208 505.065 369.562 507.004 364.916 508.38C362.608 509.11 360.364 509.934 358.131 510.599C355.897 511.236 353.71 511.873 351.599 512.519C346.596 514.026 341.519 515.243 336.404 516.264C332.791 516.077 329.985 515.187 328.164 513.661C327.122 512.79 325.414 512.369 323.293 512.135C321.163 511.826 318.619 511.751 315.916 511.788C314.903 511.816 313.917 511.835 312.96 511.854C312.003 511.845 311.083 511.826 310.182 511.816C308.389 511.816 306.728 511.863 305.17 511.948C302.055 512.2 299.361 512.294 296.987 512.753C294.612 513.165 292.547 513.867 290.717 514.663C288.878 515.44 287.264 516.451 285.753 517.725C285.302 518.109 285.424 518.605 284.992 518.989C281.905 518.717 278.807 518.418 275.72 518.053C267.226 516.751 258.705 515.281 250.314 512.893C236.424 509.167 222.816 504.092 209.855 497.753C199.165 492.518 188.579 486.46 181.343 482.874C172.436 478.417 162.816 472.04 153.497 463.96C144.178 455.879 135.271 446.038 127.331 435.223C125.736 433.201 124.319 431.066 122.901 428.922C121.503 426.768 119.973 424.699 118.678 422.489L114.746 415.878L113.76 414.23L112.869 412.526L111.085 409.127C108.589 404.652 106.59 399.932 104.422 395.316C103.362 392.994 102.507 390.578 101.541 388.228C100.593 385.868 99.6168 383.509 98.8566 381.084C94.8116 369.988 91.9022 358.892 89.509 347.75C88.2233 342.188 87.4161 336.542 86.4589 330.886C86.1022 328.04 85.7456 325.184 85.3889 322.318C85.0135 319.453 84.8915 316.551 84.6006 313.639L84.3097 310.183L84.197 306.719C84.122 304.397 84.0563 302.075 83.9812 299.753C84.0375 297.421 84.0938 295.089 84.1501 292.749L84.2346 289.237L84.5067 285.726C84.6944 283.385 84.8821 281.035 85.0699 278.685C85.3889 276.344 85.6987 274.003 86.0178 271.662L86.4964 268.141L87.1627 264.649L88.5236 257.654C92.7938 239.133 99.523 220.978 109.049 204.517C110.438 202.091 111.799 199.376 113.375 196.904C114.783 194.638 116.097 192.26 117.402 190.078C118.763 187.925 119.992 185.883 120.987 184.132C121.963 182.381 122.751 180.958 123.277 180.022C123.755 179.085 123.877 178.617 123.521 178.795C122.226 179.46 120.771 179.994 118.443 182.765C104.6 198.309 90.8605 221.961 82.442 249.836C74.7837 275.014 71.574 301.897 73.2727 328.826C72.7941 324.8 72.4374 320.745 72.231 316.644C72.2028 312.309 71.7242 307.88 71.5083 303.61L71.1329 295.118C70.9734 292.28 71.1141 289.443 71.086 286.578C71.086 285.145 71.0954 283.713 71.0954 282.271C71.1047 280.829 71.2361 279.396 71.2924 277.945C71.4614 275.052 71.574 272.121 71.7992 269.171C70.5698 271.259 69.4999 272.327 68.9931 274.377C65.5675 288.31 64.385 303.039 66.5529 318.105C67.3507 322.562 67.5478 326.944 67.7167 331.167C67.9607 335.381 67.651 339.482 67.407 343.339C67.2099 346.27 67.0785 349.341 66.9753 352.31C66.8908 355.269 67.041 358.078 67.0504 360.55C71.5834 378.846 77.5617 394.689 85.0417 409.717C86.9469 413.303 88.8615 416.384 90.7854 418.94C92.7844 421.459 94.868 423.416 96.8576 424.895C97.965 425.701 99.1007 426.628 100.217 427.555C101.381 428.444 102.536 429.315 103.577 430.101C107.425 435.523 106.524 436.899 106.768 439.109C106.918 440.663 107.369 442.564 108.007 444.587C108.505 446.094 109.143 447.817 109.809 449.418C110.494 451.01 111.114 452.546 111.405 453.8C111.724 455.158 110.4 455.898 109.115 454.887C107.697 453.754 106.215 452.639 104.816 451.422C103.437 450.177 102.029 448.913 100.612 447.63C99.2039 446.319 97.7586 444.98 96.3414 443.566C94.9806 442.115 93.6197 440.607 92.2495 439.034C91.1045 437.723 89.922 436.206 88.7301 434.605C87.632 432.939 86.4964 431.216 85.3889 429.54C84.2815 427.854 83.1928 426.206 82.1323 424.736C81.8601 424.334 81.5973 423.95 81.3346 423.566C69.7627 401.29 61.5131 377.376 57.149 352.75C53.151 331.307 52.4001 309.5 53.9112 287.908C54.8872 277.13 56.1073 266.344 58.3409 255.697L59.1011 251.69C59.3827 250.36 59.7206 249.04 60.0209 247.71L61.3442 242.045C61.438 242.757 61.5413 243.469 61.6539 244.152C61.8041 244.911 62.5361 245.135 62.8927 244.442C63.8688 242.626 65.6707 239.47 65.8209 238.16C67.4258 225.697 70.1756 213.15 76.4543 199.769C77.2802 197.803 78.1342 195.865 78.9507 193.898C80.1145 191.67 81.3252 189.469 82.4796 187.297C88.2983 176.979 94.5395 166.904 101.663 157.503C108.711 148.055 116.247 138.963 124.544 130.611L127.613 127.436C128.654 126.397 129.743 125.414 130.813 124.393C132.962 122.39 135.074 120.339 137.261 118.363C141.756 114.562 146.13 110.62 150.869 107.118C155.458 103.419 160.339 100.133 165.172 96.7617C167.603 95.095 170.146 93.6156 172.633 92.0332L176.387 89.6923C177.645 88.9151 178.95 88.241 180.235 87.52C183.023 85.9844 185.773 84.3364 188.466 82.7633C191.197 81.2652 193.853 79.7951 196.35 78.4281C198.32 77.3232 199.146 76.3775 199.015 76.0591C198.902 75.7969 197.063 76.1527 195.223 76.958C183.267 81.8738 171.854 87.9975 160.789 94.6924C149.687 101.369 139.26 109.15 129.302 117.577L125.595 120.779C124.347 121.837 123.117 122.914 121.953 124.066L116.923 128.869C118.312 127.343 119.72 125.817 121.156 124.309L125.952 119.646C127.566 118.11 129.086 116.491 130.719 115.011C132.343 113.522 133.929 112.024 135.477 110.507C138.518 107.417 141.597 104.543 144.281 101.453C145.013 100.629 146.336 99.4303 147.744 98.3629C149.189 97.3329 150.681 96.3872 151.667 95.9378C155.008 94.4396 158.293 92.5294 161.784 90.741C165.266 88.9339 168.645 86.7803 172.249 84.9544C179.316 81.0686 186.645 77.4074 193.787 74.9168C195.214 74.4579 196.556 73.9617 197.851 73.4467C199.015 76.6584 202.609 78.8494 209.592 79.6453C213.121 80.0479 214.454 81.4805 214.153 83.5218C213.496 88.138 213.158 90.329 219.559 89.4489C221.173 89.271 223.219 88.9151 225.772 88.3627C227.048 88.0724 228.456 87.7447 230.014 87.3889C231.591 87.0799 233.308 86.7428 235.195 86.3776C237.072 85.9844 239.099 85.563 241.304 85.1042C243.529 84.739 245.931 84.3551 248.512 83.9338C249.798 83.7184 251.131 83.4937 252.52 83.269C253.918 83.1098 255.354 82.9412 256.846 82.7633C258.329 82.5854 259.868 82.4075 261.464 82.2203C262.252 82.1266 263.059 82.033 263.885 81.93C264.711 81.8738 265.546 81.8176 266.4 81.7615C267.799 81.8832 269.751 81.9019 270.473 82.136C271.947 82.6229 273.411 83.1191 273.721 83.7933C274.021 84.4675 274.603 85.0761 275.457 85.6098C276.32 86.1716 277.475 86.7054 278.93 87.1548C281.848 88.1286 285.959 88.5968 291.468 89.3927C294.218 89.7485 297.306 89.9358 300.759 90.432C304.213 90.8534 308.033 91.1343 312.219 91.771C314.312 92.0613 316.508 92.2766 318.798 92.595C321.078 92.9602 323.462 93.3347 325.94 93.728C328.427 94.037 330.989 94.6269 333.664 95.1138C334.996 95.3666 336.357 95.6194 337.746 95.8722C339.135 96.125 340.524 96.5089 341.96 96.8179C357.999 100.413 371.927 106.172 384.24 112.24C386.821 113.148 389.139 114.328 391.42 115.292C393.691 116.294 395.868 117.221 397.877 118.288C399.913 119.3 401.884 120.273 403.79 121.219C405.695 122.174 407.478 123.232 409.289 124.178C420.101 130.021 430.425 136.716 439.829 144.506C449.261 152.268 457.623 161.285 464.493 171.342C464.887 171.913 465.544 172.728 466.36 173.683C467.139 174.656 468.04 175.78 468.96 176.932C470.8 179.226 472.874 181.492 474.037 182.887C482.015 191.735 489.119 202.99 495.079 216.67C507.289 244.854 513.605 274.939 514.028 305.314H510.63C512.029 318.442 511.174 332.384 509.1 346.364C507.89 354.519 506.275 362.675 504.502 370.877C503.178 374.782 501.761 378.649 500.269 382.404C495.041 395.756 487.468 409.043 480.729 420.242Z" fill="url(#paint0_linear_1193_85707)" fill-opacity="0.4"/>
  <defs>
    <linearGradient id="paint0_linear_1193_85707" x1="287.498" y1="0" x2="287.498" y2="588.991" gradientUnits="userSpaceOnUse">
      <stop stop-color="#B45794"/>
      <stop offset="1" stop-color="#250F40" stop-opacity="0.89"/>
    </linearGradient>
  </defs>
</svg>