<svg width="367" height="393" viewBox="0 0 367 393" fill="none" xmlns="http://www.w3.org/2000/svg">
<g clip-path="url(#clip0_1351_41685)">
<path d="M366.852 189.346C366.145 173.921 362.91 158.352 357.501 143.382C356.83 141.505 356.046 139.676 355.315 137.824L354.183 135.051C353.805 134.124 353.356 133.234 352.943 132.325L350.379 126.893L347.539 121.586C347.054 120.707 346.587 119.811 346.09 118.944L344.526 116.363C343.466 114.653 342.448 112.908 341.334 111.229C339.051 107.906 336.811 104.535 334.283 101.38C332.42 99.844 331.066 98.5531 329.719 97.6626C327.005 95.798 324.753 94.5908 322.578 93.6644C320.374 92.768 318.325 92.0867 316.127 91.2022C314.875 90.6643 313.3 89.6782 311.598 88.4053C309.891 87.1442 308.094 85.5545 306.129 84.1142C304.177 82.656 302.266 81.1141 300.343 79.9547C299.606 79.5065 298.893 79.1061 298.198 78.7415C296.635 77.3909 295.347 76.1358 294.55 75.2991C293.514 74.1457 293.466 73.6198 295.048 74.4146C295.85 74.827 296.737 75.2573 297.617 75.7772C298.492 76.3032 299.396 76.847 300.295 77.3849C302.086 78.4905 303.931 79.5304 305.429 80.4866C306.692 81.2695 306.68 80.7197 305.866 79.5184C305.063 78.3112 303.332 76.59 301.349 74.8987C292.61 67.6614 283.073 61.0276 272.872 55.8521C239.027 38.5686 199.624 32.8014 162.12 39.1662C159.466 39.6682 156.77 40.2061 154.177 40.8635C151.601 41.5866 149.115 42.3516 146.833 43.1106C144.562 43.9174 142.52 44.8019 140.777 45.5788C139.027 46.3498 137.596 47.0848 136.601 47.7661C134.751 48.9853 132.402 50.3778 131.204 51.3818C129.036 52.1767 126.879 53.0253 124.741 53.9158C114.845 58.4459 105.045 63.8246 96.665 70.2491C84.9242 79.3391 73.9383 89.7619 65.1267 101.44C62.8624 104.302 60.8497 107.326 58.861 110.309C57.8367 111.779 56.9861 113.362 56.0636 114.874C55.183 116.416 54.2306 117.898 53.4519 119.476C51.8585 122.608 50.2591 125.662 48.9952 128.841C48.3423 130.419 47.6773 131.961 47.0963 133.533C46.5452 135.116 46.0181 136.694 45.5089 138.254C45.4969 138.284 45.4849 138.314 45.479 138.344C45.2813 138.708 45.0776 139.067 44.8919 139.431L42.6336 144.009C42.2622 144.774 41.8729 145.533 41.5194 146.304L40.5011 148.647L38.4645 153.338L36.6494 158.125L35.7449 160.522C35.4634 161.329 35.2118 162.141 34.9422 162.954L33.3608 167.837C29.4732 180.955 27.1311 194.605 26.556 208.398C26.5081 211.847 26.3164 215.301 26.4901 218.755L26.6518 223.943L27.0532 229.118L27.2329 231.371C27.0292 230.439 26.8256 229.513 26.6399 228.574L25.7653 223.357L25.334 220.733C25.2082 219.861 25.1243 218.982 25.0165 218.104L24.4115 212.815C24.2078 211.046 24.1599 209.271 24.0281 207.49C23.9383 205.709 23.7646 203.922 23.7586 202.135L23.7107 196.75C23.6687 194.945 23.7466 193.147 23.8365 191.342C23.9263 189.531 24.0102 187.72 24.1 185.903C24.2797 184.092 24.4654 182.276 24.6451 180.459L24.9327 177.722C25.0465 176.813 25.2022 175.905 25.34 174.996C25.6335 173.174 25.927 171.351 26.2205 169.528C26.556 167.705 26.9813 165.9 27.3707 164.078C28.0955 160.408 29.2037 156.828 30.21 153.177C30.851 151.133 31.4979 149.083 32.1328 147.069C32.4503 146.059 32.7259 145.043 33.0493 144.057C33.3728 143.071 33.6903 142.103 34.0078 141.146C39.4708 123.421 49.7859 106.018 63.0481 90.8316C68.8945 84.0425 75.3699 77.7853 82.0789 71.9106C83.2829 70.8647 84.4031 69.783 85.4813 68.6953C86.5835 67.6435 87.6677 66.6095 88.728 65.5936C89.2492 65.0975 89.2372 64.5836 89.0215 64.4043C88.8358 64.2489 88.0331 64.3445 87.4581 64.7091C74.124 73.058 62.2754 83.911 52.152 96.551C35.7749 117.325 23.6627 141.553 17.4629 167.239C17.2592 168.154 16.7022 169.522 16.3967 169.881C15.4502 170.98 15.2226 169.911 15.6539 167.185C17.1634 159.237 18.9784 151.27 21.5901 143.507L22.5306 140.579C22.8481 139.605 23.2314 138.654 23.5849 137.686L25.7653 131.907C26.562 130.007 27.3946 128.118 28.2213 126.218L29.4792 123.373L30.8569 120.588C34.4391 113.076 38.7939 105.904 43.5142 98.8877C48.2943 91.9134 53.6975 85.2916 59.5439 78.9447C66.0013 72.0958 73.3033 65.4501 79.5571 59.5814C89.5846 50.3061 101.325 42.5906 115.073 36.5904C126.256 31.7257 137.841 27.5123 149.792 24.8349C161.449 22.2173 173.333 20.7113 185.212 20.2869C197.084 19.8566 208.993 20.514 220.775 22.3189C244.335 25.8748 267.229 33.8831 287.817 45.7402C300.517 53.0791 312.161 61.8225 322.279 72.06C329.791 79.5304 337.111 87.6224 343.538 96.2462C344.071 96.9514 345.479 98.1646 345.587 98.0391C345.916 97.6626 346.401 97.0231 345.742 95.9414C344.335 93.6525 342.933 91.25 341.364 88.9132C339.752 86.6064 338.045 84.2935 336.176 82.0584C320.206 63.6273 300.559 48.0231 278.353 37.0685C247.198 21.7033 211.736 14.8126 177.203 17.6095C159.861 18.8287 142.676 22.6356 126.238 28.4327C124.19 29.1738 122.165 29.9925 120.134 30.7754L117.091 31.9707C116.085 32.389 115.097 32.8492 114.096 33.2855L108.136 35.9689L102.302 38.9152C101.331 39.4172 100.355 39.8953 99.4025 40.4153L96.5632 42.0229C94.6762 43.1106 92.7654 44.1624 90.9084 45.2919C87.2365 47.6287 83.5166 49.8997 80.0063 52.4695C73.3452 57.0534 67.1334 62.2349 61.1133 67.6076L56.7345 71.7851L54.5601 73.8887L52.4695 76.0761L48.3123 80.4747L44.3528 85.0525C33.846 97.304 25.0585 110.984 17.9242 125.441C13.0302 135.463 9.04672 146.005 6.24332 156.667C-3.71235 194.73 -1.59782 234.838 11.5746 271.078C16.9358 285.732 23.7885 300.004 32.3725 313.098C33.9718 315.536 35.6371 318.207 37.3503 320.712C39.0275 323.24 40.5311 325.744 41.8249 327.841C43.1548 330.059 44.5145 332.306 46.09 334.409C47.6654 336.513 49.3127 338.587 51.0259 340.631C52.8109 342.609 54.6559 344.557 56.5308 346.493C58.4237 348.412 60.4604 350.211 62.4611 352.057C85.062 372.293 112.701 386.607 140.974 392.463L144.425 392.685C145.569 392.768 146.713 392.822 147.863 392.828C150.139 392.864 152.416 392.894 154.674 392.93C156.92 392.942 159.16 392.798 161.347 392.714C162.437 392.661 163.521 392.601 164.6 392.547C165.672 392.481 166.744 392.344 167.804 392.236C170.117 391.985 171.704 391.232 172.057 390.479C172.818 388.854 172.932 387.127 172.656 385.37C172.453 384.109 170.65 382.776 167.864 381.581C166.463 381.013 164.845 380.308 163.024 379.746C162.12 379.453 161.167 379.178 160.173 378.915C159.676 378.79 159.172 378.664 158.657 378.539C158.148 378.401 157.633 378.264 157.106 378.12C154.506 377.421 151.829 376.883 149.217 376.148C146.611 375.383 143.993 374.678 141.513 373.758C139.069 372.801 136.41 371.827 133.99 370.739C133.271 370.399 132.582 370.058 131.911 369.717C133.469 370.339 135.038 370.937 136.619 371.498C143.275 374.009 150.145 375.933 157.076 377.588C160.568 378.311 164.042 379.124 167.577 379.626C169.338 379.895 171.099 380.224 172.866 380.439L178.191 381.037C186.284 381.79 194.275 382.118 202.158 381.598L205.111 381.443L208.052 381.144C210.011 380.929 211.964 380.744 213.911 380.475C217.786 379.823 221.668 379.25 225.478 378.264C229.934 377.29 234.367 376.058 238.596 375.066C242.771 373.883 246.773 372.975 250.193 372.036C251.942 371.582 253.727 371.14 255.524 370.554C257.309 369.945 259.136 369.275 261.029 368.546C262.94 367.853 264.845 366.944 266.852 365.982C268.847 365.002 270.973 364.022 273.094 362.737C280.767 358.518 288.285 353.073 295.167 348.107C312.012 335.885 326.125 320.293 336.877 302.812C347.665 285.326 355.243 266.034 359.652 245.888C361.131 238.328 361.91 230.642 362.401 222.969L362.635 217.201C362.707 215.277 362.641 213.353 362.647 211.428L362.641 210.705C363.461 212.689 364.468 212.187 365.228 209.074C365.869 206.318 366.516 203.288 366.714 200.001C366.846 198.358 366.942 196.643 367.002 194.868C367.037 193.081 366.93 191.252 366.852 189.346ZM55.1471 274.036C54.7757 273.457 54.3145 272.895 54.0449 272.285C53.1164 270.2 53.2362 269.53 54.1168 270.702C54.4043 271.048 54.7517 272.058 55.0752 272.775C55.1052 273.182 55.1231 273.612 55.1471 274.036ZM94.9099 326.437C95.7126 327.435 96.5272 328.427 97.3838 329.383C96.9885 329.084 96.5931 328.786 96.2097 328.475L94.203 326.801C92.8852 325.672 91.5254 324.584 90.3274 323.365C89.0455 322.056 89.0455 321.339 89.98 321.608C91.4176 323.036 92.8852 324.429 94.3827 325.797C94.5564 326.007 94.7362 326.228 94.9099 326.437ZM194.083 372.108C193.76 372.323 192.496 372.64 190.95 372.688C169.751 373.196 147.851 368.397 128.233 359.498C120.716 356.062 113.455 352.081 106.543 347.593C108.364 346.547 109.256 344.886 107.268 341.694C106.399 340.374 104.997 338.647 103.428 336.889C102.649 336.005 101.817 335.126 101.032 334.212C100.271 333.28 99.5283 332.359 98.8634 331.481C98.5339 331.045 98.474 330.71 98.3782 330.357C106.082 337.2 114.881 342.938 124.292 347.342C124.933 347.647 125.777 347.97 126.55 348.227C136.775 353.528 147.659 357.705 158.945 360.592C163.294 361.685 167.696 362.576 172.123 363.305C173.052 363.759 173.932 364.231 174.963 364.673C176.173 365.217 177.359 365.725 178.664 366.168C177.431 366.048 176.197 365.929 174.957 365.809C172.105 365.486 169.26 364.996 166.415 364.578L162.174 363.729C160.766 363.43 159.34 363.197 157.95 362.815C155.165 362.086 152.338 361.494 149.606 360.61C138.566 357.388 127.964 353.103 117.936 348.262C116.361 347.527 114.001 346.386 114.15 346.619C114.689 347.33 115.528 348.573 117.505 349.691C135.116 360.03 155.183 366.933 175.723 369.777C178.635 370.154 181.48 370.596 184.289 370.823C185.691 370.967 187.081 371.11 188.458 371.253C189.842 371.367 191.208 371.421 192.574 371.51C193.772 371.582 194.371 371.917 194.083 372.108ZM306.842 285.224C301.199 294.649 294.185 303.237 286.122 310.647C278.083 318.076 269.206 324.566 259.64 329.903C258.238 330.668 256.818 331.445 255.393 332.228C253.943 332.981 252.445 333.65 250.966 334.373L248.738 335.443L246.461 336.393C244.946 337.027 243.43 337.66 241.927 338.288C238.854 339.364 235.889 340.601 232.923 341.479C231.45 341.945 230.018 342.471 228.593 342.896C227.167 343.302 225.771 343.708 224.423 344.121C221.231 345.083 217.99 345.86 214.725 346.511C212.419 346.392 210.628 345.824 209.466 344.85C208.801 344.294 207.711 344.025 206.357 343.876C204.997 343.679 203.374 343.631 201.649 343.655C201.002 343.673 200.373 343.685 199.762 343.697C199.151 343.691 198.564 343.679 197.989 343.673C196.845 343.673 195.784 343.703 194.79 343.756C192.801 343.918 191.082 343.977 189.567 344.27C188.051 344.533 186.733 344.981 185.565 345.489C184.391 345.985 183.361 346.631 182.396 347.444C182.109 347.689 182.187 348.005 181.911 348.251C179.94 348.077 177.964 347.886 175.993 347.653C170.572 346.822 165.133 345.884 159.777 344.36C150.912 341.981 142.226 338.742 133.954 334.696C127.131 331.355 120.374 327.489 115.756 325.2C110.071 322.355 103.931 318.285 97.9828 313.128C92.0346 307.97 86.3499 301.689 81.2822 294.786C80.2639 293.495 79.3594 292.133 78.4549 290.764C77.5623 289.39 76.5859 288.069 75.7593 286.658L73.2494 282.439L72.6204 281.387L72.0514 280.3L70.9132 278.13C69.3198 275.273 68.0439 272.261 66.6602 269.315C65.9833 267.833 65.4382 266.291 64.8212 264.791C64.2162 263.285 63.5932 261.779 63.108 260.231C60.5263 253.149 58.6693 246.067 57.1418 238.955C56.3212 235.405 55.806 231.802 55.195 228.192C54.9674 226.375 54.7398 224.552 54.5121 222.723C54.2725 220.895 54.1947 219.042 54.009 217.183L53.8233 214.978L53.7514 212.767C53.7035 211.285 53.6615 209.803 53.6136 208.32C53.6496 206.832 53.6855 205.344 53.7214 203.85L53.7753 201.609L53.9491 199.368C54.0689 197.874 54.1887 196.374 54.3085 194.874C54.5121 193.38 54.7098 191.886 54.9135 190.391L55.219 188.144L55.6443 185.915L56.5129 181.451C59.2384 169.63 63.5333 158.042 69.6134 147.535C70.4999 145.987 71.3685 144.254 72.3748 142.676C73.2734 141.23 74.112 139.712 74.9446 138.32C75.8132 136.945 76.5979 135.642 77.2329 134.525C77.8558 133.407 78.359 132.499 78.6945 131.901C79 131.303 79.0778 131.005 78.8502 131.118C78.0236 131.542 77.0951 131.883 75.6095 133.652C66.774 143.573 58.0044 158.669 52.6312 176.461C47.7432 192.531 45.6946 209.689 46.7788 226.877C46.4733 224.307 46.2457 221.719 46.1139 219.102C46.0959 216.335 45.7904 213.508 45.6527 210.783L45.4131 205.362C45.3112 203.551 45.4011 201.741 45.3831 199.912C45.3831 198.997 45.3891 198.083 45.3891 197.163C45.3951 196.242 45.479 195.328 45.5149 194.402C45.6227 192.555 45.6946 190.684 45.8384 188.802C45.0536 190.135 44.3708 190.816 44.0473 192.125C41.8609 201.017 41.1061 210.418 42.4899 220.034C42.999 222.879 43.1248 225.676 43.2326 228.371C43.3884 231.06 43.1907 233.678 43.035 236.14C42.9092 238.011 42.8253 239.971 42.7594 241.866C42.7055 243.754 42.8013 245.547 42.8073 247.125C45.7006 258.803 49.5163 268.915 54.2905 278.507C55.5065 280.796 56.7285 282.762 57.9565 284.393C59.2324 286.001 60.5622 287.25 61.8321 288.194C62.539 288.708 63.2638 289.3 63.9766 289.892C64.7194 290.459 65.4562 291.015 66.1211 291.517C68.5771 294.977 68.002 295.856 68.1578 297.266C68.2536 298.258 68.5411 299.472 68.9485 300.763C69.2659 301.725 69.6733 302.824 70.0986 303.846C70.5359 304.862 70.9312 305.842 71.1169 306.643C71.3206 307.51 70.476 307.982 69.6553 307.336C68.7508 306.613 67.8043 305.902 66.9118 305.125C66.0312 304.33 65.1327 303.524 64.2282 302.705C63.3297 301.868 62.4072 301.014 61.5027 300.111C60.6341 299.185 59.7655 298.223 58.891 297.219C58.1602 296.382 57.4054 295.414 56.6446 294.392C55.9438 293.328 55.219 292.228 54.5121 291.159C53.8053 290.083 53.1104 289.031 52.4335 288.093C52.2598 287.836 52.0921 287.591 51.9244 287.346C44.5385 273.128 39.2731 257.864 36.4877 242.147C33.9359 228.461 33.4567 214.542 34.4211 200.76C35.0441 193.882 35.8228 186.997 37.2485 180.202L37.7337 177.644C37.9134 176.795 38.129 175.953 38.3207 175.104L39.1653 171.488C39.2252 171.943 39.2911 172.397 39.363 172.833C39.4588 173.317 39.9261 173.461 40.1537 173.018C40.7767 171.859 41.9268 169.845 42.0226 169.008C43.0469 161.054 44.8021 153.045 48.8095 144.505C49.3366 143.25 49.8817 142.013 50.4029 140.758C51.1457 139.336 51.9184 137.931 52.6552 136.545C56.3691 129.959 60.3526 123.528 64.8991 117.528C69.3977 111.498 74.2078 105.695 79.5031 100.364L81.4619 98.3379C82.1268 97.6746 82.8217 97.047 83.5046 96.3956C84.8763 95.1167 86.2241 93.8079 87.6198 92.5469C90.4891 90.1205 93.2805 87.6044 96.3056 85.3693C99.2348 83.0086 102.35 80.9109 105.435 78.7594C106.986 77.6957 108.609 76.7514 110.197 75.7414L112.593 74.2473C113.396 73.7513 114.228 73.321 115.049 72.8608C116.828 71.8807 118.583 70.8288 120.302 69.8248C122.045 68.8686 123.741 67.9303 125.334 67.0578C126.592 66.3526 127.119 65.749 127.035 65.5458C126.963 65.3784 125.789 65.6055 124.615 66.1195C116.984 69.2571 109.7 73.1656 102.637 77.4387C95.5508 81.6998 88.8957 86.6661 82.5402 92.0448L80.174 94.0888C79.3773 94.7641 78.5926 95.4513 77.8499 96.1864L74.6391 99.2523C75.5257 98.2782 76.4242 97.304 77.3407 96.3418L80.4017 93.3656C81.432 92.3855 82.4024 91.3516 83.4447 90.4073C84.481 89.4571 85.4933 88.5009 86.4817 87.5327C88.4225 85.5605 90.3873 83.7258 92.1005 81.7536C92.5677 81.2277 93.4123 80.4627 94.3109 79.7814C95.2333 79.124 96.1858 78.5204 96.8147 78.2335C98.9472 77.2773 101.044 76.0581 103.272 74.9167C105.494 73.7632 107.651 72.3887 109.951 71.2233C114.462 68.7431 119.14 66.4063 123.699 64.8166C124.609 64.5238 125.466 64.2071 126.292 63.8784C127.035 65.9282 129.329 67.3267 133.786 67.8347C136.038 68.0917 136.889 69.0061 136.697 70.3089C136.278 73.2552 136.062 74.6537 140.148 74.0919C141.178 73.9784 142.484 73.7513 144.113 73.3987C144.928 73.2134 145.826 73.0042 146.821 72.7771C147.827 72.5799 148.923 72.3648 150.127 72.1317C151.325 71.8807 152.619 71.6117 154.027 71.3189C155.447 71.0858 156.98 70.8408 158.627 70.5719C159.448 70.4344 160.299 70.291 161.185 70.1475C162.078 70.0459 162.994 69.9384 163.947 69.8248C164.893 69.7113 165.875 69.5977 166.894 69.4782C167.397 69.4184 167.912 69.3587 168.439 69.2929C168.966 69.2571 169.5 69.2212 170.045 69.1853C170.937 69.263 172.183 69.275 172.644 69.4244C173.585 69.7352 174.519 70.0519 174.717 70.4822C174.909 70.9125 175.28 71.301 175.825 71.6416C176.376 72.0002 177.113 72.3409 178.042 72.6277C179.904 73.2493 182.528 73.5481 186.044 74.0561C187.799 74.2832 189.77 74.4027 191.975 74.7194C194.179 74.9884 196.617 75.1677 199.289 75.5741C200.624 75.7593 202.026 75.8968 203.488 76.1C204.943 76.333 206.465 76.5721 208.046 76.8231C209.634 77.0203 211.269 77.3968 212.976 77.7076C213.827 77.869 214.695 78.0303 215.582 78.1917C216.468 78.3531 217.355 78.5981 218.272 78.7953C228.509 81.0902 237.398 84.7657 245.257 88.6383C246.905 89.218 248.384 89.9711 249.84 90.5866C251.289 91.2261 252.679 91.8177 253.961 92.499C255.261 93.1445 256.519 93.766 257.735 94.3696C258.951 94.9792 260.089 95.6545 261.245 96.2582C268.146 99.9874 274.735 104.26 280.737 109.233C286.757 114.187 292.094 119.942 296.479 126.361C296.731 126.726 297.15 127.245 297.671 127.855C298.168 128.477 298.743 129.194 299.331 129.929C300.505 131.393 301.828 132.839 302.571 133.73C307.663 139.377 312.197 146.561 316.001 155.292C323.794 173.281 327.826 192.483 328.095 211.87H325.927C326.819 220.249 326.274 229.148 324.951 238.071C324.178 243.276 323.147 248.481 322.015 253.717C321.171 256.209 320.266 258.677 319.314 261.074C315.977 269.596 311.143 278.076 306.842 285.224Z" fill="url(#paint0_linear_1351_41685)" fill-opacity="0.4"/>
</g>
<path d="M288.856 177.838C288.265 180.287 288.518 182.989 289.785 185.606C290.883 187.971 292.825 189.913 295.105 191.264C304.224 196.499 312.921 188.815 313.681 180.371C313.85 178.176 313.343 175.896 312.245 173.869C306.504 163.653 291.305 166.523 288.856 177.838Z" fill="url(#paint1_linear_1351_41685)"/>
<path d="M146.886 111.639L146.802 114.426L149.082 116.199L146.38 116.959L145.451 119.661L143.846 117.296H140.976L142.749 115.017L141.82 112.315L144.522 113.243L146.886 111.639Z" fill="#0C1A3B"/>
<path d="M113.532 92.2185V94.0761L115.136 95.0893L113.363 95.6804L112.941 97.4536L111.759 96.0182L109.901 96.1026L110.999 94.5827L110.324 92.894L112.097 93.4006L113.532 92.2185Z" fill="url(#paint2_linear_1351_41685)"/>
<path d="M99.181 50.9285L100.532 52.7017L102.812 52.6173L101.545 54.4749L102.39 56.5858L100.194 55.9103L98.421 57.3458L98.3366 55.1504L96.3945 53.8838L98.5899 53.1239L99.181 50.9285Z" fill="url(#paint3_linear_1351_41685)"/>
<path d="M158.366 49.1554L159.717 50.9286L161.997 50.7597L160.73 52.7018L161.575 54.8127L159.379 54.1372L157.606 55.5726V53.2928L155.664 52.1107L157.775 51.3508L158.366 49.1554Z" fill="url(#paint4_linear_1351_41685)"/>
<path d="M142.833 66.4651L143.677 67.5627L145.113 67.4783L144.353 68.6604L144.859 70.0114L143.508 69.6737L142.326 70.5181V69.0826L141.06 68.3227L142.411 67.8161L142.833 66.4651Z" fill="url(#paint5_linear_1351_41685)"/>
<path d="M197.799 154.449L198.812 155.715L200.501 155.547L199.656 156.898L200.332 158.417L198.727 158.08L197.461 159.177L197.292 157.489L195.856 156.729L197.461 156.053L197.799 154.449Z" fill="#0C1A3B"/>
<path d="M168.752 155.462L169.259 156.053L170.103 155.969L169.681 156.644L170.019 157.404L169.174 157.235L168.583 157.826L168.499 156.982L167.823 156.56L168.583 156.222L168.752 155.462Z" fill="#0C1A3B"/>
<path d="M207.679 129.286L208.27 129.878L209.03 129.793L208.608 130.553L208.945 131.229L208.185 131.06L207.594 131.651L207.51 130.806L206.75 130.384L207.51 130.046L207.679 129.286Z" fill="url(#paint6_linear_1351_41685)"/>
<path d="M184.118 143.81L184.625 144.401L185.469 144.316L185.047 144.992L185.385 145.752L184.625 145.583L183.949 146.09L183.865 145.33L183.189 144.907L183.949 144.57L184.118 143.81Z" fill="#0C1A3B"/>
<path d="M182.516 248.681L181.925 250.201L182.854 251.552L181.165 251.467L180.152 252.818L179.73 251.214L178.21 250.707L179.561 249.779L179.645 248.09L180.912 249.188L182.516 248.681Z" fill="url(#paint7_linear_1351_41685)"/>
<path d="M209.368 245.388L209.03 246.148L209.537 246.823H208.693L208.186 247.499L208.017 246.654L207.173 246.401L207.933 245.979V245.135L208.524 245.641L209.368 245.388Z" fill="#E8505B"/>
<path d="M185.304 231.625L185.051 232.385L185.558 233.06L184.713 232.976L184.207 233.651L183.953 232.891L183.193 232.638L183.869 232.131L183.953 231.371L184.544 231.878L185.304 231.625Z" fill="url(#paint8_linear_1351_41685)"/>
<path d="M201.431 60.47C206.374 60.47 210.381 56.4628 210.381 51.5197C210.381 46.5765 206.374 42.5693 201.431 42.5693C196.488 42.5693 192.48 46.5765 192.48 51.5197C192.48 56.4628 196.488 60.47 201.431 60.47Z" fill="url(#paint9_linear_1351_41685)"/>
<path d="M96.4082 148.661C99.0014 133.208 88.5768 118.579 73.1241 115.986C57.6715 113.393 43.0425 123.817 40.4493 139.27C37.8561 154.723 48.2807 169.352 63.7334 171.945C79.186 174.538 93.815 164.113 96.4082 148.661Z" fill="#AD207D"/>
<path d="M40.9095 150.877C41.0784 151.384 16.5916 174.857 22.9244 179.839C29.2572 184.821 55.7705 171.986 78.3153 153.748C100.945 135.509 121.547 113.302 115.89 107.476C110.233 101.65 82.0305 118.96 82.0305 118.96L85.408 121.071C85.408 121.071 102.464 110.094 107.868 114.4C113.272 118.622 97.9048 135.256 76.1199 151.13C54.4195 167.005 33.3946 178.15 30.1015 173.76C26.8085 169.453 42.2605 154.93 42.2605 154.93L40.9095 150.877Z" fill="#D945A6"/>
<g opacity="0.3">
<path d="M52.8151 123.941C53.0684 124.195 51.1263 125.884 48.931 129.092C46.7356 132.301 44.4558 137.451 44.3713 143.362C44.2869 149.273 46.3134 154.508 48.4243 157.801C50.4508 161.178 52.3085 162.867 52.0551 163.12C51.8863 163.289 49.6065 162.023 47.0733 158.645C45.8068 156.956 44.5402 154.761 43.6114 152.144C42.6826 149.526 42.0915 146.486 42.176 143.278C42.2604 140.069 42.9359 137.029 44.0336 134.412C45.0468 131.794 46.3978 129.683 47.7488 128.079C50.282 124.955 52.6462 123.773 52.8151 123.941Z" fill="white"/>
</g>
<path d="M96.7288 212.964L97.0666 213.639C97.4888 214.399 98.0798 214.99 98.8398 215.413L99.5153 215.75L98.8398 216.088C98.0798 216.51 97.4888 217.101 97.0666 217.861L96.7288 218.537L96.3911 217.861C95.9689 217.101 95.3778 216.51 94.6179 216.088L93.9424 215.75L94.6179 215.413C95.3778 214.99 95.9689 214.399 96.3911 213.639L96.7288 212.964Z" fill="url(#paint10_linear_1351_41685)"/>
<path d="M218.994 20.4467L219.331 21.0377C219.669 21.6288 220.176 22.1354 220.767 22.4732L221.273 22.8109L220.682 23.1487C220.091 23.4864 219.585 23.9931 219.247 24.5841L218.909 25.1752L218.571 24.5841C218.234 23.9931 217.727 23.4864 217.136 23.1487L216.545 22.8109L217.136 22.4732C217.727 22.1354 218.234 21.6288 218.571 21.0377L218.994 20.4467Z" fill="url(#paint11_linear_1351_41685)"/>
<path d="M70.1311 84.9569L70.7221 85.9701C71.3976 87.0678 72.4109 87.9966 73.593 88.5877L74.6907 89.0943L73.6774 89.6854C72.5797 90.3609 71.6509 91.3741 71.0599 92.5562L70.5532 93.6539L69.9622 92.6407C69.2867 91.543 68.2734 90.6142 67.0913 90.0231L65.9092 89.5165L66.9224 88.9254C68.0201 88.2499 68.9489 87.2367 69.54 86.0546L70.1311 84.9569Z" fill="url(#paint12_linear_1351_41685)"/>
<path d="M212.324 103.786L212.915 104.8C213.591 105.897 214.604 106.826 215.786 107.417L216.884 107.924L215.87 108.515C214.773 109.19 213.844 110.204 213.253 111.386L212.746 112.483L212.155 111.47C211.48 110.373 210.466 109.444 209.284 108.853L208.187 108.346L209.2 107.755C210.297 107.079 211.226 106.066 211.817 104.884L212.324 103.786Z" fill="#AD207D"/>
<path d="M257.668 207.053L258.259 208.573C258.934 209.671 259.948 210.6 261.13 211.191L262.227 211.697L261.214 212.288C260.116 212.964 259.188 213.977 258.597 215.159L258.09 216.595L257.499 215.159C256.823 214.062 255.81 213.133 254.628 212.542L253.53 212.035L254.544 211.444C255.641 210.769 256.57 209.755 257.161 208.573L257.668 207.053Z" fill="url(#paint13_linear_1351_41685)"/>
<path d="M246.267 191.939L246.52 192.615C246.858 193.121 247.28 193.543 247.787 193.797L248.209 194.05L247.787 194.303C247.28 194.641 246.858 195.063 246.605 195.57L246.351 196.245L246.098 195.654C245.76 195.148 245.338 194.726 244.831 194.472L244.409 194.219L244.831 193.966C245.338 193.628 245.76 193.206 246.013 192.699L246.267 191.939Z" fill="url(#paint14_linear_1351_41685)"/>
<path d="M141.649 169.985L142.24 170.239C142.916 170.492 143.591 170.576 144.267 170.408L144.858 170.323L144.605 170.914C144.351 171.59 144.267 172.265 144.436 172.941L144.52 173.532L143.929 173.278C143.254 173.025 142.578 172.941 141.903 173.11L141.312 173.194L141.565 172.603C141.818 171.927 141.903 171.252 141.734 170.576L141.649 169.985Z" fill="url(#paint15_linear_1351_41685)"/>
<path d="M304.445 130.131L304.698 130.215C305.036 130.384 305.374 130.384 305.711 130.3L306.049 130.215L305.965 130.469C305.796 130.806 305.796 131.144 305.88 131.482L305.965 131.82L305.711 131.735C305.374 131.566 305.036 131.566 304.698 131.651L304.36 131.735L304.445 131.482C304.614 131.144 304.614 130.806 304.529 130.469L304.445 130.131Z" fill="url(#paint16_linear_1351_41685)"/>
<path d="M195.774 213.893L196.027 213.977C196.365 214.146 196.703 214.146 197.04 214.062L197.378 213.977L197.294 214.231C197.125 214.568 197.125 214.906 197.209 215.244L197.294 215.582L197.04 215.497C196.703 215.328 196.365 215.328 196.027 215.413L195.689 215.497L195.774 215.244C195.943 214.906 195.943 214.568 195.858 214.231L195.774 213.893Z" fill="url(#paint17_linear_1351_41685)"/>
<path d="M105.933 159.853L106.186 159.937C106.524 160.106 106.862 160.106 107.2 160.022L107.537 159.937L107.453 160.191C107.284 160.528 107.284 160.866 107.369 161.204L107.453 161.542L107.2 161.457C106.862 161.288 106.524 161.288 106.186 161.373L105.849 161.457L105.933 161.204C106.102 160.866 106.102 160.528 106.018 160.191L105.933 159.853Z" fill="url(#paint18_linear_1351_41685)"/>
<path d="M176.522 97.2847L176.775 97.3692C177.113 97.538 177.451 97.538 177.789 97.4536L178.126 97.3692L178.042 97.6225C177.873 97.9602 177.873 98.298 177.957 98.6357L178.042 98.9735L177.789 98.889C177.451 98.7202 177.113 98.7202 176.775 98.8046L176.438 98.889L176.522 98.6357C176.691 98.298 176.691 97.9602 176.606 97.6225L176.522 97.2847Z" fill="url(#paint19_linear_1351_41685)"/>
<path d="M235.543 34.9699L235.797 35.0544C236.134 35.2232 236.472 35.2232 236.81 35.1388L237.148 35.0544L237.063 35.3077C236.894 35.6454 236.894 35.9832 236.979 36.3209L237.063 36.6587L236.81 36.5742C236.472 36.4054 236.134 36.4054 235.797 36.4898L235.459 36.5742L235.543 36.3209C235.712 35.9832 235.712 35.6454 235.628 35.3077L235.543 34.9699Z" fill="url(#paint20_linear_1351_41685)"/>
<path d="M56.1987 64.7763L56.452 64.8607C56.7898 65.0296 57.1275 65.0296 57.4653 64.9452L57.803 64.8607L57.7186 65.1141C57.5497 65.4518 57.5497 65.7896 57.6341 66.1273L57.7186 66.4651L57.4653 66.3806C57.1275 66.2117 56.7898 66.2117 56.452 66.2962L56.1143 66.3806L56.1987 66.1273C56.3676 65.7896 56.3676 65.4518 56.2831 65.1141L56.1987 64.7763Z" fill="url(#paint21_linear_1351_41685)"/>
<path d="M210.466 174.714L210.72 174.798C211.057 174.967 211.395 174.967 211.733 174.883L212.071 174.798L211.986 175.052C211.817 175.389 211.817 175.727 211.902 176.065L211.986 176.403L211.733 176.318C211.395 176.149 211.057 176.149 210.72 176.234L210.382 176.318L210.466 176.065C210.635 175.727 210.635 175.389 210.551 175.052L210.466 174.714Z" fill="url(#paint22_linear_1351_41685)"/>
<path d="M258.326 140.929C270.074 140.655 279.375 130.908 279.101 119.16C278.826 107.412 269.08 98.111 257.331 98.3857C245.583 98.6605 236.282 108.407 236.557 120.155C236.832 131.903 246.578 141.204 258.326 140.929Z" fill="url(#paint23_linear_1351_41685)"/>
<mask id="mask0_1351_41685" style="mask-type:alpha" maskUnits="userSpaceOnUse" x="52" y="87" width="264" height="293">
<rect x="52" y="87" width="264" height="293" fill="url(#paint24_linear_1351_41685)"/>
</mask>
<g mask="url(#mask0_1351_41685)">
<path d="M216.085 183.39C216.085 174.576 218.533 165.762 218.337 160.375C218.239 154.989 214.812 149.309 209.425 148.329C207.565 148.036 205.606 148.232 203.745 147.742C201.591 147.154 199.73 145.685 198.065 144.314C193.462 140.593 188.468 137.067 182.788 135.598C177.009 134.129 170.35 135.304 166.531 139.809C163.788 143.041 162.809 147.448 162.222 151.659C161.928 153.814 161.634 156.164 162.515 158.123C163.691 160.767 167.02 162.236 169.86 161.355" fill="#0C1B3C"/>
<path d="M210.018 239.31L176.819 237.743C176.623 234.217 178.386 212.378 178.386 212.378C178.386 212.378 165.851 210.419 165.655 197.884C165.459 185.348 167.711 156.556 167.711 156.556C182.205 150.288 199.05 152.443 211.487 162.04L213.348 163.509L210.018 239.31Z" fill="#FDAD91"/>
<path d="M178.383 212.28C178.383 212.28 186.315 212.965 194.738 207.677C194.738 207.677 190.918 216.687 178.383 215.61V212.28Z" fill="#F18576"/>
<path d="M211.879 176.534C212.075 176.436 220.497 173.988 220.204 182.606C219.91 191.224 211.39 189.168 211.39 188.874C211.39 188.58 211.879 176.534 211.879 176.534Z" fill="#FDAD91"/>
<path d="M214.122 162.921C213.926 166.545 214.808 170.658 214.122 174.282C214.024 174.869 212.653 176.24 212.457 176.828C211.674 179.962 210.401 181.333 208.54 178.101C207.855 176.828 207.365 173.302 207.071 171.931C206.288 168.112 205.504 164.195 204.819 160.375C201.783 161.746 198.551 162.824 195.319 162.628C191.989 162.432 188.66 160.767 187.191 157.829C185.624 160.473 182.882 162.236 179.846 162.628C176.81 163.019 173.676 161.942 171.521 159.886C170.444 161.648 167.702 162.138 165.939 161.061C164.176 159.983 163.295 157.535 163.882 155.479C164.764 152.443 167.996 150.778 171.032 149.896C182.979 146.371 196.2 149.113 206.875 155.479C208.442 156.36 210.009 157.437 211.184 158.71C212.457 160.081 214.122 161.648 214.122 163.411" fill="#0C1B3C"/>
<path d="M255.257 304.631L261.133 352.912L240.959 352.814L232.243 303.848L255.257 304.631Z" fill="url(#paint25_linear_1351_41685)"/>
<path d="M113.944 295.327L148.221 277.21L150.669 378.402L239.005 378.5L234.5 306.1L266.034 305.317C266.034 305.317 260.158 268.298 257.808 259.973C255.458 251.649 246.154 242.247 239.005 238.428C231.856 234.511 210.702 225.305 210.702 225.305C198.656 230.398 187.59 230.202 177.601 223.934C177.601 223.934 169.178 225.011 160.462 228.047C153.117 230.593 145.674 233.629 142.541 235.49C139.407 237.351 106.109 258.504 106.109 258.504L113.944 295.327Z" fill="url(#paint26_linear_1351_41685)"/>
<path d="M118.934 281.029L109.533 214.532V203.662C109.533 203.662 108.064 179.178 108.26 176.73C108.455 173.988 107.182 173.204 106.203 173.204C104.636 173.204 103.363 175.065 103.167 177.416C103.069 178.199 102.286 191.126 102.286 191.126C102.286 191.126 101.796 190.049 100.033 187.503C98.2704 184.956 93.9613 183.292 89.3584 183.096C84.7555 182.9 83.4824 183.292 83.2866 185.054C83.1886 185.74 83.5803 186.327 84.07 186.817C84.8535 187.601 85.9307 187.992 87.008 188.09C94.353 188.482 96.0179 192.497 96.0179 192.497V193.966C96.0179 193.966 91.8067 190.441 88.0853 191.616C87.4977 191.812 87.008 192.106 86.6163 192.399C84.6576 192.301 82.699 193.183 81.5238 194.848C80.3486 196.513 80.1527 198.863 81.0341 200.626C81.4258 201.507 82.3072 202.389 83.2866 202.193C83.7762 202.095 84.2659 201.801 84.6576 201.507C84.8535 201.311 85.1473 201.213 85.3432 201.115L85.9307 205.131C85.9307 205.131 87.6935 214.043 87.9873 217.96L86.8122 282.988C86.6163 291.998 93.9613 299.44 102.971 299.44C112.764 299.44 120.305 290.724 118.934 281.029Z" fill="#FDAD91"/>
<path d="M107.48 213.553C106.108 213.847 104.835 212.769 104.15 211.496C103.464 210.223 103.268 208.852 102.779 207.579C101.114 203.76 96.609 201.703 95.14 197.786C94.9441 197.198 94.8462 196.513 95.3358 196.219C95.8255 195.925 96.4131 196.219 96.8048 196.513C100.722 199.059 104.542 201.507 108.459 204.053" fill="url(#paint27_linear_1351_41685)"/>
</g>
<defs>
<linearGradient id="paint0_linear_1351_41685" x1="183.51" y1="17.0002" x2="183.51" y2="392.93" gradientUnits="userSpaceOnUse">
<stop stop-color="#B45794"/>
<stop offset="1" stop-color="#250F40" stop-opacity="0.89"/>
</linearGradient>
<linearGradient id="paint1_linear_1351_41685" x1="301.267" y1="167.572" x2="301.267" y2="192.808" gradientUnits="userSpaceOnUse">
<stop stop-color="#4E2F6F"/>
<stop offset="1" stop-color="#191340"/>
</linearGradient>
<linearGradient id="paint2_linear_1351_41685" x1="110.628" y1="93.4505" x2="116.186" y2="100.751" gradientUnits="userSpaceOnUse">
<stop stop-color="#B526D6"/>
<stop offset="1" stop-color="#FEBE0C"/>
</linearGradient>
<linearGradient id="paint3_linear_1351_41685" x1="97.2846" y1="52.4388" x2="104.098" y2="61.3875" gradientUnits="userSpaceOnUse">
<stop stop-color="#B526D6"/>
<stop offset="1" stop-color="#FEBE0C"/>
</linearGradient>
<linearGradient id="paint4_linear_1351_41685" x1="156.542" y1="50.6657" x2="163.38" y2="59.5271" gradientUnits="userSpaceOnUse">
<stop stop-color="#B526D6"/>
<stop offset="1" stop-color="#FEBE0C"/>
</linearGradient>
<linearGradient id="paint5_linear_1351_41685" x1="141.622" y1="67.4189" x2="145.925" y2="73.0707" gradientUnits="userSpaceOnUse">
<stop stop-color="#B526D6"/>
<stop offset="1" stop-color="#FEBE0C"/>
</linearGradient>
<linearGradient id="paint6_linear_1351_41685" x1="207.066" y1="129.843" x2="209.599" y2="133.051" gradientUnits="userSpaceOnUse">
<stop stop-color="#B526D6"/>
<stop offset="1" stop-color="#FEBE0C"/>
</linearGradient>
<linearGradient id="paint7_linear_1351_41685" x1="178.854" y1="249.203" x2="183.898" y2="255.709" gradientUnits="userSpaceOnUse">
<stop stop-color="#B526D6"/>
<stop offset="1" stop-color="#FEBE0C"/>
</linearGradient>
<linearGradient id="paint8_linear_1351_41685" x1="183.521" y1="231.908" x2="185.917" y2="235.171" gradientUnits="userSpaceOnUse">
<stop stop-color="#B526D6"/>
<stop offset="1" stop-color="#FEBE0C"/>
</linearGradient>
<linearGradient id="paint9_linear_1351_41685" x1="201.527" y1="42.5651" x2="201.527" y2="60.353" gradientUnits="userSpaceOnUse">
<stop stop-color="#4E2F6F"/>
<stop offset="1" stop-color="#191340"/>
</linearGradient>
<linearGradient id="paint10_linear_1351_41685" x1="94.7154" y1="214.276" x2="100.633" y2="222.047" gradientUnits="userSpaceOnUse">
<stop stop-color="#B526D6"/>
<stop offset="1" stop-color="#FEBE0C"/>
</linearGradient>
<linearGradient id="paint11_linear_1351_41685" x1="217.201" y1="21.5595" x2="222.221" y2="28.1533" gradientUnits="userSpaceOnUse">
<stop stop-color="#B526D6"/>
<stop offset="1" stop-color="#FEBE0C"/>
</linearGradient>
<linearGradient id="paint12_linear_1351_41685" x1="67.1272" y1="87.0037" x2="76.3376" y2="99.2173" gradientUnits="userSpaceOnUse">
<stop stop-color="#B526D6"/>
<stop offset="1" stop-color="#FEBE0C"/>
</linearGradient>
<linearGradient id="paint13_linear_1351_41685" x1="254.737" y1="209.299" x2="265.078" y2="221.679" gradientUnits="userSpaceOnUse">
<stop stop-color="#B526D6"/>
<stop offset="1" stop-color="#FEBE0C"/>
</linearGradient>
<linearGradient id="paint14_linear_1351_41685" x1="244.936" y1="192.953" x2="249.628" y2="198.39" gradientUnits="userSpaceOnUse">
<stop stop-color="#B526D6"/>
<stop offset="1" stop-color="#FEBE0C"/>
</linearGradient>
<linearGradient id="paint15_linear_1351_41685" x1="141.803" y1="170.82" x2="145.569" y2="175.765" gradientUnits="userSpaceOnUse">
<stop stop-color="#B526D6"/>
<stop offset="1" stop-color="#FEBE0C"/>
</linearGradient>
<linearGradient id="paint16_linear_1351_41685" x1="304.595" y1="130.528" x2="306.388" y2="132.883" gradientUnits="userSpaceOnUse">
<stop stop-color="#B526D6"/>
<stop offset="1" stop-color="#FEBE0C"/>
</linearGradient>
<linearGradient id="paint17_linear_1351_41685" x1="195.924" y1="214.29" x2="197.717" y2="216.645" gradientUnits="userSpaceOnUse">
<stop stop-color="#B526D6"/>
<stop offset="1" stop-color="#FEBE0C"/>
</linearGradient>
<linearGradient id="paint18_linear_1351_41685" x1="106.083" y1="160.25" x2="107.876" y2="162.605" gradientUnits="userSpaceOnUse">
<stop stop-color="#B526D6"/>
<stop offset="1" stop-color="#FEBE0C"/>
</linearGradient>
<linearGradient id="paint19_linear_1351_41685" x1="176.672" y1="97.6822" x2="178.465" y2="100.037" gradientUnits="userSpaceOnUse">
<stop stop-color="#B526D6"/>
<stop offset="1" stop-color="#FEBE0C"/>
</linearGradient>
<linearGradient id="paint20_linear_1351_41685" x1="235.693" y1="35.3674" x2="237.486" y2="37.7223" gradientUnits="userSpaceOnUse">
<stop stop-color="#B526D6"/>
<stop offset="1" stop-color="#FEBE0C"/>
</linearGradient>
<linearGradient id="paint21_linear_1351_41685" x1="56.3485" y1="65.1737" x2="58.1416" y2="67.5287" gradientUnits="userSpaceOnUse">
<stop stop-color="#B526D6"/>
<stop offset="1" stop-color="#FEBE0C"/>
</linearGradient>
<linearGradient id="paint22_linear_1351_41685" x1="210.616" y1="175.111" x2="212.409" y2="177.466" gradientUnits="userSpaceOnUse">
<stop stop-color="#B526D6"/>
<stop offset="1" stop-color="#FEBE0C"/>
</linearGradient>
<linearGradient id="paint23_linear_1351_41685" x1="257.559" y1="98.3705" x2="258.547" y2="140.646" gradientUnits="userSpaceOnUse">
<stop stop-color="#4E2F6F"/>
<stop offset="1" stop-color="#191340"/>
</linearGradient>
<linearGradient id="paint24_linear_1351_41685" x1="184" y1="289.5" x2="189" y2="362.5" gradientUnits="userSpaceOnUse">
<stop stop-color="#D9D9D9"/>
<stop offset="1" stop-color="#D9D9D9" stop-opacity="0"/>
</linearGradient>
<linearGradient id="paint25_linear_1351_41685" x1="243.112" y1="332.333" x2="246.688" y2="352.912" gradientUnits="userSpaceOnUse">
<stop stop-color="#FDAD91"/>
<stop offset="1" stop-color="#210D35"/>
</linearGradient>
<linearGradient id="paint26_linear_1351_41685" x1="128.292" y1="260.311" x2="290.841" y2="481.191" gradientUnits="userSpaceOnUse">
<stop stop-color="#B526D6"/>
<stop offset="1" stop-color="#FEBE0C"/>
</linearGradient>
<linearGradient id="paint27_linear_1351_41685" x1="102.125" y1="201.085" x2="103.419" y2="207.437" gradientUnits="userSpaceOnUse">
<stop stop-color="#E49579"/>
<stop offset="0.0001" stop-color="#E49579"/>
<stop offset="1" stop-color="#E49579" stop-opacity="0"/>
</linearGradient>
<clipPath id="clip0_1351_41685">
<rect width="367" height="375.936" fill="white" transform="translate(0 17)"/>
</clipPath>
</defs>
</svg>
