<svg viewBox="0 0 357 368" fill="none" xmlns="http://www.w3.org/2000/svg">
<g clip-path="url(#clip0_1349_26256)">
<path d="M272.997 77.7101C274.314 77.7101 275.573 76.5525 275.515 75.1922C275.457 73.832 274.416 72.6743 272.997 72.6743C271.681 72.6743 270.422 73.832 270.479 75.1922C270.552 76.5525 271.594 77.7101 272.997 77.7101Z" fill="#A33ED3"/>
<path d="M231.798 112.933C234.359 112.933 236.82 110.676 236.704 108.028C236.588 105.365 234.548 103.122 231.798 103.122C229.237 103.122 226.777 105.38 226.893 108.028C227.008 110.69 229.049 112.933 231.798 112.933Z" fill="url(#paint0_linear_1349_26256)"/>
<path d="M302.303 54.26C301.712 56.7087 301.966 59.4107 303.232 62.0283C304.33 64.3925 306.272 66.3346 308.552 67.6856C317.671 72.9207 326.368 65.2369 327.128 56.7931C327.297 54.5978 326.79 52.3179 325.693 50.2915C319.951 40.0745 304.752 42.9454 302.303 54.26Z" fill="url(#paint1_linear_1349_26256)"/>
<path d="M337.215 125L338.97 127.303L341.931 127.193L340.286 129.606L341.382 132.348L338.531 131.471L336.228 133.335L336.118 130.484L333.596 128.838L336.447 127.851L337.215 125Z" fill="url(#paint2_linear_1349_26256)"/>
<path d="M299.484 169.197L300.251 170.513C301.129 171.939 302.445 173.145 303.98 173.913L305.406 174.571L304.09 175.339C302.664 176.216 301.458 177.532 300.69 179.068L300.032 180.493L299.264 179.177C298.387 177.752 297.071 176.545 295.535 175.777L294 175.119L295.316 174.352C296.742 173.474 297.948 172.158 298.716 170.623L299.484 169.197Z" fill="url(#paint3_linear_1349_26256)"/>
<path d="M258.677 52L258.567 55.6191L261.528 57.9222L258.019 58.9092L256.813 62.4187L254.729 59.3479H251L253.303 56.3868L252.097 52.8774L255.606 54.0837L258.677 52Z" fill="url(#paint4_linear_1349_26256)"/>
<path d="M321.374 221L322.142 222.316C323.019 223.742 324.335 224.948 325.87 225.716L327.296 226.374L325.98 227.142C324.554 228.019 323.348 229.335 322.58 230.87L321.922 232.296L321.154 230.98C320.277 229.554 318.961 228.348 317.426 227.58L316 226.922L317.316 226.154C318.742 225.277 319.948 223.961 320.716 222.426L321.374 221Z" fill="#AD207D"/>
<path d="M287.716 113V115.413L289.8 116.729L287.496 117.496L286.948 119.8L285.413 117.935L283 118.045L284.426 116.071L283.548 113.877L285.851 114.535L287.716 113Z" fill="url(#paint5_linear_1349_26256)"/>
</g>
<path d="M167.51 106.119C168.132 109.232 168.34 112.345 168.547 115.459C168.755 120.232 168.132 125.42 164.812 128.741C166.887 131.647 170 133.929 173.321 134.76C176.642 135.59 180.378 135.175 183.491 133.722C184.321 133.307 185.151 132.892 185.981 132.269C187.019 131.647 188.057 131.024 188.887 130.401C184.529 122.93 184.529 114.006 185.774 105.497C183.698 105.082 176.849 104.874 174.566 104.459C173.736 104.667 172.698 104.459 171.868 104.459C170.208 104.459 168.962 106.534 167.51 106.119Z" fill="#FDAD91"/>
<path d="M185 116.399C176.6 121.677 171 118.598 168.5 116.399V112.44L185 112V116.399Z" fill="#F18576"/>
<path d="M185.566 121.062C186.396 124.798 187.227 127.703 188.887 130.609C187.849 131.232 186.812 131.854 185.981 132.477C185.151 132.892 184.321 133.514 183.491 133.93C180.378 135.382 176.642 135.797 173.321 134.967C170 134.137 166.887 131.854 164.812 128.949C166.887 126.873 167.717 124.175 168.34 121.477L185.566 121.062Z" fill="#FDAD91"/>
<path d="M183.283 284.603L166.056 283.565C152.358 282.735 141.773 270.905 142.603 257.208L145.301 208.436C146.132 194.738 157.962 184.154 171.66 184.984L188.886 186.022C202.584 186.852 213.169 198.682 212.339 212.379L209.641 261.151C208.811 274.848 196.981 285.433 183.283 284.603Z" fill="#2B0E4F"/>
<path d="M158.17 367.578C161.491 347.032 176.227 269.037 176.227 248.283L141.774 246C140.529 267.169 141.981 343.919 141.774 367.163L158.17 367.578Z" fill="url(#paint6_linear_1349_26256)"/>
<path d="M206.321 356.203C207.981 331.921 211.717 265.094 212.132 242.887L177.887 245.378C176.227 267.999 180.585 333.582 182.868 356.203H206.321Z" fill="url(#paint7_linear_1349_26256)"/>
<path d="M222.925 177.928C222.925 178.55 222.925 179.38 222.717 180.003C222.51 182.286 222.302 184.361 222.095 186.644C221.264 194.946 219.812 203.04 218.566 210.926C218.566 211.134 218.566 211.341 218.359 211.756C218.359 211.964 218.359 211.964 218.359 212.172C217.321 217.983 215.661 225.662 214 232.718C213.17 236.246 212.547 239.774 211.925 242.68C211.925 243.095 211.717 243.51 211.717 243.717C211.717 243.717 211.302 243.925 210.472 244.34C208.189 245.378 203.415 247.246 198.849 247.868C191.793 248.698 184.736 248.906 177.679 248.906C172.491 248.906 167.51 248.491 162.321 248.283C161.283 248.283 148 246.831 143.434 246.208C143.019 246.208 142.604 246 142.189 246C141.981 246 141.566 246 141.566 246C141.151 241.227 140.944 235.831 140.113 230.02C139.491 225.454 138.661 220.681 137.623 215.907C135.755 205.738 133.679 195.361 132.019 186.229C131.396 183.324 130.981 180.626 130.566 177.928C130.566 177.513 130.359 177.098 130.359 176.682C128.906 167.343 125.17 155.514 127.246 145.967C128.698 139.326 135.34 135.382 141.359 132.684H141.566C142.189 132.477 142.812 132.062 143.434 131.854C147.378 130.194 151.944 129.364 156.302 128.949C157.34 128.949 158.17 128.741 159.208 128.741C161.283 128.741 163.151 128.534 165.227 128.741C164.604 128.741 165.849 128.741 165.227 128.741C165.227 128.741 170.895 133.1 177 133.48C184 133.684 185.772 130.023 188.679 130.194C189.717 130.194 190.963 130.401 192 130.401C192.83 130.401 193.661 130.401 194.491 130.609C194.698 130.609 194.906 130.609 195.113 130.609H195.321C195.529 130.609 195.736 130.609 196.151 130.609C196.566 130.609 196.981 130.609 197.396 130.609C202.17 130.816 206.113 131.024 209.849 133.514C210.057 133.514 210.057 133.722 210.264 133.722C210.264 133.722 210.264 133.722 210.472 133.722C211.095 134.137 211.925 134.76 212.547 135.382C212.547 135.382 212.547 135.382 212.755 135.59C213.17 136.005 213.585 136.42 214 136.835C214.623 137.458 215.246 138.288 215.661 139.118C220.434 145.967 222.095 154.476 222.925 162.57C223.34 167.758 223.34 172.947 222.925 177.928Z" fill="url(#paint8_linear_1349_26256)"/>
<path d="M167.718 76.6489C171.661 78.3092 173.114 82.875 171.868 86.4032C170.623 90.1389 167.302 92.8369 163.774 94.9123C162.944 90.1389 162.529 85.7806 161.906 81.0072C161.699 79.1394 161.699 76.8564 163.567 76.0263C164.397 75.8187 166.68 76.2338 167.718 76.6489Z" fill="#2D201B"/>
<path d="M189.717 103.006C189.717 103.214 189.717 103.214 189.717 103.421V103.629C189.717 103.629 189.717 103.629 189.717 103.836C189.717 104.044 189.717 104.044 189.717 104.251C189.717 104.251 189.717 104.251 189.717 104.459C189.717 104.667 189.717 104.874 189.509 105.082C189.509 105.289 189.302 105.497 189.302 105.704V105.912C189.302 105.912 189.302 105.912 189.302 106.119C189.302 106.327 189.094 106.534 189.094 106.742C188.887 107.157 188.679 107.572 188.472 107.987C188.472 107.987 188.472 108.195 188.264 108.195C187.849 109.025 187.226 109.855 186.604 110.685C186.396 110.893 186.396 111.1 186.189 111.1L185.981 111.308C185.774 111.515 185.774 111.515 185.566 111.723C185.151 112.138 184.943 112.345 184.528 112.553C184.321 112.761 184.113 112.761 183.906 112.968C183.283 113.383 182.453 114.006 181.623 114.213C181 114.421 180.377 114.628 179.755 114.836C179.547 114.836 179.547 114.836 179.34 115.043H179.132H178.924C178.924 115.043 178.924 115.043 178.717 115.043C178.509 115.043 178.302 115.043 178.302 115.043C177.264 115.251 176.226 115.251 175.189 115.251C174.981 115.251 174.774 115.251 174.566 115.251C172.075 115.043 169.792 114.006 167.717 112.553C163.981 109.855 161.698 105.497 161.906 100.723L162.113 97.4027L162.528 87.8559L162.736 84.9504L162.943 80.7996C162.943 80.5921 162.943 80.3845 162.943 80.177C162.943 79.9695 162.943 79.9695 162.943 79.7619V79.5544V79.3469V79.1393V78.9318C162.943 78.9318 162.943 78.9318 162.943 78.7242V78.5167V78.3092C162.943 78.3092 162.943 78.3092 162.943 78.1016C162.943 77.8941 162.943 77.6865 163.151 77.479V77.2715V77.0639V76.8564V76.6489C163.151 76.6489 163.151 76.4413 163.358 76.4413C163.358 76.4413 163.358 76.2338 163.566 76.2338C163.566 76.0262 163.774 75.8187 163.774 75.6112C163.774 75.4036 163.981 75.4036 163.981 75.1961C163.981 74.9885 164.189 74.9885 164.189 74.781C166.679 70.6302 171.453 67.9322 176.849 68.3473C182.66 68.5548 187.641 72.4981 189.302 77.8941C189.924 79.5544 190.132 81.2147 189.924 82.875L189.717 102.384C189.717 102.591 189.717 102.799 189.717 103.006Z" fill="#FDAD91"/>
<path d="M153.812 94.9123C154.019 97.8178 156.302 100.101 159.208 99.8932C162.113 99.6857 164.396 97.4028 164.189 94.4972C163.981 91.5917 161.698 89.3087 158.793 89.5163C155.887 89.5163 153.812 92.0067 153.812 94.9123Z" fill="#FDAD91"/>
<path d="M188.056 93.8746C188.264 96.7801 190.547 99.063 193.452 98.8555C196.358 98.648 198.641 96.365 198.433 93.4595C198.226 90.554 195.943 88.271 193.037 88.4786C190.132 88.4786 187.849 90.969 188.056 93.8746Z" fill="#FDAD91"/>
<path d="M183.699 101.761C183.699 101.969 183.699 101.969 183.699 102.176V102.384C183.699 102.384 183.699 102.384 183.699 102.591C183.699 102.799 183.699 102.799 183.699 103.006C183.699 103.006 183.699 103.006 183.699 103.214C183.699 103.421 183.699 103.629 183.699 103.836C183.699 104.044 183.699 104.252 183.699 104.459V104.667C183.699 104.667 183.699 104.667 183.699 104.874C183.699 105.082 183.699 105.289 183.491 105.497C183.491 105.912 183.284 106.327 183.076 106.742V106.95C182.869 107.78 182.454 108.61 182.038 109.44C182.038 109.648 181.831 109.855 181.831 109.855L181.623 110.063C181.623 110.27 181.416 110.27 181.416 110.478C181.208 110.893 181.001 111.1 180.586 111.515C180.378 111.723 180.378 111.723 180.171 111.93C179.548 112.553 179.133 112.968 178.51 113.383C178.095 113.798 177.68 114.006 177.057 114.213C176.85 114.213 176.85 114.421 176.642 114.421H176.435C176.435 114.421 176.435 114.421 176.227 114.421C176.227 114.421 176.227 114.421 176.02 114.421C175.812 114.421 175.812 114.421 175.605 114.628C174.774 114.836 173.944 115.044 173.114 115.044C172.906 115.044 172.699 115.044 172.491 115.044C170.416 115.044 168.548 114.421 166.888 113.176C163.774 110.893 161.699 106.327 161.491 101.554V99.2706L161.076 89.9314L160.869 87.0258L160.661 82.8751C160.661 82.6675 160.661 82.46 160.661 82.2525C160.661 82.0449 160.661 82.0449 160.661 81.8374V81.6298V81.4223V81.2148V81.0072C160.661 81.0072 160.661 81.0072 160.661 80.7997V80.5921V80.3846C160.661 80.3846 160.661 80.3846 160.661 80.1771C160.661 79.9695 160.661 79.762 160.661 79.5545V79.3469V79.1394V78.9318V78.7243V78.5168V78.3092C161.076 76.8564 161.699 75.4037 162.529 74.1584L162.737 79.1394L163.152 89.3088C163.152 89.5163 163.152 89.7238 163.152 89.7238C164.812 90.1389 166.265 91.3841 167.095 92.8369C168.133 94.4972 168.755 96.3651 169.171 98.2329C169.378 98.2329 169.378 98.0254 169.586 97.8178C171.246 95.3274 174.567 95.1198 176.85 95.7425C179.34 96.3651 182.038 98.0254 182.661 101.554C183.491 101.554 183.699 101.554 183.699 101.761Z" fill="#0C1B3C"/>
<path d="M169.17 101.346C168.963 104.667 166.057 110.685 168.132 113.383C171.246 117.119 180.585 116.496 185.151 114.006C188.472 112.138 190.132 107.365 190.963 103.421C191.585 99.6857 191.378 95.7425 191.585 91.7992C191.793 87.6485 192.208 83.4977 192 79.5545C191.793 77.064 191.17 74.5735 189.717 72.7057C189.51 77.6866 189.302 82.6675 189.095 87.4409C189.095 87.6485 189.095 87.856 188.887 88.0635C188.68 88.2711 188.472 88.4786 188.057 88.6862C186.604 89.3088 185.359 90.7615 184.529 92.2143C183.698 93.6671 183.283 95.3274 182.661 96.9877C181 94.7048 177.887 94.0822 174.981 94.7048C172.906 95.1198 171.038 96.3651 170 98.0254C168.963 99.8932 168.963 101.969 169.17 104.044" fill="#0C1B3C"/>
<path d="M93 235.001C93 244.755 94.0377 254.509 97.3585 263.434C99.2264 268.414 102.132 273.188 106.283 276.509C110.434 279.829 116.245 281.074 121.226 278.999C129.736 275.471 131.811 263.434 129.528 254.094C127.868 247.038 124.34 240.604 122.887 233.548C121.434 226.699 121.226 219.643 121.642 212.587C122.679 198.474 127.245 186.437 135.132 174.4C140.113 166.721 149.66 150.533 145.509 140.986C139.698 127.703 125.377 144.929 121.434 150.118C103.377 174.607 93.2075 204.7 93 235.001Z" fill="url(#paint9_linear_1349_26256)"/>
<path d="M112.718 277.057C113.34 285.358 117.076 293.452 123.095 299.263C123.718 299.886 124.34 300.509 125.378 300.509C125.793 300.509 126.208 300.509 126.623 300.093C127.246 299.471 127.039 298.433 126.623 297.603C125.378 294.49 123.718 291.377 124.133 287.849C124.963 289.301 126.208 290.754 127.661 291.377C128.284 291.792 129.114 290.962 128.699 290.339C126.831 286.396 124.963 282.453 123.095 278.509C119.982 277.679 115.831 276.849 112.718 277.057Z" fill="#FDAD91"/>
<path d="M189.791 75.2243C187.458 77.0346 184.192 77.9397 181.16 78.166C176.029 78.6186 170.664 77.4872 165.532 77.4872C165.066 77.4872 164.599 77.4872 164.366 77.7134C164.133 77.7134 163.899 77.9397 163.666 77.9397L162.267 90.1591L162.033 92.4219C162.033 91.5168 161.8 90.6116 161.8 89.7065C161.567 88.5751 161.334 87.4436 161.1 86.3122L160.867 81.7865C160.867 81.5603 160.867 81.334 160.867 81.1077C160.867 80.8814 160.867 80.8814 160.867 80.6551V80.4288V80.2026V79.9763V79.75C160.867 79.75 160.867 79.75 160.867 79.5237V79.2974V79.0711C160.867 79.0711 160.867 79.0711 160.867 78.8449C160.867 78.6186 160.867 78.3923 160.867 78.166V77.9397V77.7134V77.4872V77.2609V77.0346V76.8083C160.867 76.582 161.1 76.3557 161.1 76.1294C161.1 75.9032 161.334 75.9032 161.334 75.6769C161.334 75.4506 161.567 75.4506 161.567 75.2243C163.899 70.4723 168.798 67.3044 174.396 66.8518C181.627 66.1729 187.458 69.7935 189.791 75.2243Z" fill="#0C1B3C"/>
<path d="M203.207 131.024C220.641 135.175 238.075 149.495 243.679 153.853C259.452 166.306 265.471 172.324 272.943 184.984C280.415 197.644 282.905 214.455 275.226 227.114C267.962 239.359 253.433 245.17 239.943 249.529C232.471 252.019 223.339 254.094 217.32 249.113C211.094 244.133 211.716 233.963 216.075 227.322C220.433 220.681 227.905 216.737 234.754 212.794C238.905 210.511 243.056 206.776 246.584 202.832C250.528 198.267 249.905 191.21 245.339 187.475C236.622 180.211 227.49 175.437 216.49 170.664C215.452 159.872 204.867 141.816 203.207 131.024Z" fill="url(#paint10_linear_1349_26256)"/>
<path d="M205.905 255.755C205.074 254.302 211.301 250.981 211.301 250.981C211.301 250.981 202.791 254.925 201.961 254.095C200.508 252.642 210.263 248.283 210.263 248.283C210.263 248.283 199.471 252.849 199.056 250.774C198.433 248.699 209.64 245.378 209.64 245.378C209.64 245.378 199.056 247.868 198.848 246.001C198.64 244.133 212.546 241.435 212.546 241.435C212.546 241.435 206.32 238.114 206.942 236.661C207.98 234.378 221.678 241.02 221.678 241.02L222.301 242.68C223.546 246.208 221.886 250.151 218.357 251.812C212.961 253.887 206.527 256.585 205.905 255.755Z" fill="#FDAD91"/>
<path d="M223.156 184.219C222.118 192.607 218.906 211.844 218.906 211.844C217.868 217.716 215.66 225.795 214 232.925C213.792 232.925 213.377 232.925 213.169 232.925C212.962 232.925 212.962 232.925 212.754 232.925C212.132 232.925 211.717 232.716 211.094 232.716C205.075 231.457 199.264 227.473 194.905 221.811C190.339 215.729 187.641 207.76 186.603 199.581C186.603 199.162 186.603 198.742 186.396 198.323C185.981 194.339 185.981 190.144 186.603 186.16C186.811 184.902 187.018 183.643 187.226 182.175C189.094 172.738 193.037 164.35 195.528 155.332C197.188 149.041 198.226 138.765 197.396 130.377H197.603C197.811 130.377 198.018 130.377 198.226 130.377C207.358 130.586 213.169 134.571 213.377 134.571C213.377 135.2 213.584 136.039 213.584 136.668C213.792 139.814 213.792 143.588 214 146.315C214.415 154.493 214.622 162.672 216.283 170.431C217.943 175.674 220.25 179.605 223.156 184.219Z" fill="#3A1D5C"/>
<path d="M131.396 181.566C132.434 189.954 134.095 201.069 135.34 209.038C135.34 209.248 135.34 209.457 135.547 209.877C135.547 210.087 135.547 210.087 135.547 210.296C136.585 216.168 138.868 223.927 140.321 231.058C140.529 231.058 140.529 231.058 140.736 231.058C140.944 231.058 140.944 231.058 141.151 231.058C141.774 231.058 142.189 230.848 142.812 230.848C149.038 229.59 154.849 225.605 159.208 219.943C163.774 213.861 166.68 205.892 167.51 197.714C167.51 197.294 167.51 196.875 167.717 196.455C168.132 192.471 168.132 188.277 167.51 184.292C167.302 183.034 167.095 181.775 166.887 180.308C165.019 170.87 161.076 162.482 158.585 153.464C156.925 147.173 155.887 136.897 156.717 128.509H156.51C156.302 128.509 156.095 128.509 155.887 128.509C146.755 128.719 140.529 132.703 140.529 132.703C140.529 133.332 140.321 134.171 140.321 134.8C140.113 137.946 140.113 141.721 139.906 144.447C139.283 152.626 139.283 160.804 137.623 168.564C136.17 173.806 134.302 176.952 131.396 181.566Z" fill="#3A1D5C"/>
<path d="M50.2668 82.0412C62.0149 81.7664 71.3159 72.02 71.0412 60.2719C70.7664 48.5237 61.0199 39.2228 49.2718 39.4975C37.5237 39.7723 28.2227 49.5187 28.4975 61.2668C28.7722 73.015 38.5187 82.3159 50.2668 82.0412Z" fill="url(#paint11_linear_1349_26256)"/>
<path d="M121.007 120.484L120.923 123.27L123.203 125.043L120.501 125.803L119.572 128.505L117.968 126.141H115.097L116.87 123.861L115.941 121.159L118.643 122.088L121.007 120.484Z" fill="url(#paint12_linear_1349_26256)"/>
<path d="M131.653 92.0631V93.9207L133.258 94.934L131.484 95.525L131.062 97.2982L129.88 95.8628L128.022 95.9472L129.12 94.4274L128.445 92.7386L130.218 93.2452L131.653 92.0631Z" fill="url(#paint13_linear_1349_26256)"/>
<path d="M87.3021 60.7732L88.6531 62.5464L90.9329 62.4619L89.6663 64.3196L90.5107 66.4305L88.3153 65.755L86.5421 67.1904L86.4577 64.9951L84.5156 63.7285L86.711 62.9686L87.3021 60.7732Z" fill="url(#paint14_linear_1349_26256)"/>
<path d="M231.702 31L233.053 32.7732L235.333 32.6043L234.066 34.5464L234.911 36.6573L232.715 35.9818L230.942 37.4172V35.1374L229 33.9553L231.111 33.1954L231.702 31Z" fill="url(#paint15_linear_1349_26256)"/>
<path d="M130.954 36.3097L131.798 37.4074L133.234 37.3229L132.474 38.5051L132.98 39.8561L131.629 39.5183L130.447 40.3627V38.9273L129.181 38.1673L130.532 37.6607L130.954 36.3097Z" fill="url(#paint16_linear_1349_26256)"/>
<path d="M74.5303 178.505C77.1235 163.053 66.6988 148.424 51.2462 145.83C35.7936 143.237 21.1646 153.662 18.5714 169.115C15.9782 184.567 26.4028 199.196 41.8554 201.789C57.3081 204.383 71.9371 193.958 74.5303 178.505Z" fill="#AD207D"/>
<path d="M19.0316 180.722C19.2005 181.228 -5.28637 204.702 1.04643 209.684C7.37924 214.665 33.8926 201.831 56.4374 183.592C79.0666 165.354 99.6693 143.147 94.012 137.321C88.3547 131.495 60.1526 148.804 60.1526 148.804L63.5301 150.915C63.5301 150.915 80.5865 139.938 85.9905 144.245C91.3945 148.466 76.0269 165.101 54.242 180.975C32.5416 196.849 11.5167 207.995 8.22361 203.604C4.93055 199.298 20.3826 184.775 20.3826 184.775L19.0316 180.722Z" fill="#D945A6"/>
<g opacity="0.3">
<path d="M30.9372 153.786C31.1905 154.039 29.2484 155.728 27.053 158.937C24.8577 162.145 22.5778 167.296 22.4934 173.207C22.409 179.117 24.4355 184.352 26.5464 187.645C28.5729 191.023 30.4305 192.712 30.1772 192.965C30.0083 193.134 27.7285 191.867 25.1954 188.49C23.9288 186.801 22.6623 184.606 21.7335 181.988C20.8047 179.37 20.2136 176.331 20.298 173.122C20.3825 169.913 21.058 166.874 22.1557 164.256C23.1689 161.639 24.5199 159.528 25.8709 157.923C28.404 154.799 30.7683 153.617 30.9372 153.786Z" fill="white"/>
</g>
<path d="M58.2531 104.801L58.8442 105.815C59.5197 106.912 60.5329 107.841 61.7151 108.432L62.8127 108.939L61.7995 109.53C60.7018 110.205 59.773 111.219 59.1819 112.401L58.6753 113.498L58.0842 112.485C57.4087 111.387 56.3955 110.459 55.2134 109.868L54.0312 109.361L55.0445 108.77C56.1422 108.094 57.071 107.081 57.6621 105.899L58.2531 104.801Z" fill="url(#paint17_linear_1349_26256)"/>
<defs>
<linearGradient id="paint0_linear_1349_26256" x1="228.251" y1="105.431" x2="238.666" y2="119.121" gradientUnits="userSpaceOnUse">
<stop stop-color="#B526D6"/>
<stop offset="1" stop-color="#FEBE0C"/>
</linearGradient>
<linearGradient id="paint1_linear_1349_26256" x1="314.714" y1="43.9941" x2="314.714" y2="69.2298" gradientUnits="userSpaceOnUse">
<stop stop-color="#4E2F6F"/>
<stop offset="1" stop-color="#191340"/>
</linearGradient>
<linearGradient id="paint2_linear_1349_26256" x1="334.752" y1="126.962" x2="343.602" y2="138.584" gradientUnits="userSpaceOnUse">
<stop stop-color="#B526D6"/>
<stop offset="1" stop-color="#FEBE0C"/>
</linearGradient>
<linearGradient id="paint3_linear_1349_26256" x1="295.582" y1="171.856" x2="307.545" y2="187.719" gradientUnits="userSpaceOnUse">
<stop stop-color="#B526D6"/>
<stop offset="1" stop-color="#FEBE0C"/>
</linearGradient>
<linearGradient id="paint4_linear_1349_26256" x1="256.32" y1="51.9976" x2="256.32" y2="62.3506" gradientUnits="userSpaceOnUse">
<stop stop-color="#4E2F6F"/>
<stop offset="1" stop-color="#191340"/>
</linearGradient>
<linearGradient id="paint5_linear_1349_26256" x1="283.943" y1="114.6" x2="291.163" y2="124.082" gradientUnits="userSpaceOnUse">
<stop stop-color="#B526D6"/>
<stop offset="1" stop-color="#FEBE0C"/>
</linearGradient>
<linearGradient id="paint6_linear_1349_26256" x1="163.5" y1="321" x2="177.141" y2="360.102" gradientUnits="userSpaceOnUse">
<stop stop-color="#2B0E4E"/>
<stop offset="1" stop-color="#18082A" stop-opacity="0"/>
</linearGradient>
<linearGradient id="paint7_linear_1349_26256" x1="202.989" y1="299.131" x2="174.313" y2="342.703" gradientUnits="userSpaceOnUse">
<stop stop-color="#36185C"/>
<stop offset="1" stop-color="#18082A"/>
</linearGradient>
<linearGradient id="paint8_linear_1349_26256" x1="140.031" y1="156.951" x2="272.302" y2="296.498" gradientUnits="userSpaceOnUse">
<stop stop-color="#B526D6"/>
<stop offset="1" stop-color="#FEBE0C"/>
</linearGradient>
<linearGradient id="paint9_linear_1349_26256" x1="100.425" y1="169.94" x2="225.471" y2="231.007" gradientUnits="userSpaceOnUse">
<stop stop-color="#B526D6"/>
<stop offset="1" stop-color="#FEBE0C"/>
</linearGradient>
<linearGradient id="paint10_linear_1349_26256" x1="213.845" y1="159.532" x2="345.032" y2="268.621" gradientUnits="userSpaceOnUse">
<stop stop-color="#B526D6"/>
<stop offset="1" stop-color="#FEBE0C"/>
</linearGradient>
<linearGradient id="paint11_linear_1349_26256" x1="49.499" y1="39.4823" x2="50.4877" y2="81.7577" gradientUnits="userSpaceOnUse">
<stop stop-color="#4E2F6F"/>
<stop offset="1" stop-color="#191340"/>
</linearGradient>
<linearGradient id="paint12_linear_1349_26256" x1="119.193" y1="120.482" x2="119.193" y2="128.453" gradientUnits="userSpaceOnUse">
<stop stop-color="#4E2F6F"/>
<stop offset="1" stop-color="#191340"/>
</linearGradient>
<linearGradient id="paint13_linear_1349_26256" x1="128.749" y1="93.2952" x2="134.307" y2="100.595" gradientUnits="userSpaceOnUse">
<stop stop-color="#B526D6"/>
<stop offset="1" stop-color="#FEBE0C"/>
</linearGradient>
<linearGradient id="paint14_linear_1349_26256" x1="85.4057" y1="62.2835" x2="92.2195" y2="71.2322" gradientUnits="userSpaceOnUse">
<stop stop-color="#B526D6"/>
<stop offset="1" stop-color="#FEBE0C"/>
</linearGradient>
<linearGradient id="paint15_linear_1349_26256" x1="229.878" y1="32.5103" x2="236.716" y2="41.3717" gradientUnits="userSpaceOnUse">
<stop stop-color="#B526D6"/>
<stop offset="1" stop-color="#FEBE0C"/>
</linearGradient>
<linearGradient id="paint16_linear_1349_26256" x1="129.743" y1="37.2636" x2="134.046" y2="42.9154" gradientUnits="userSpaceOnUse">
<stop stop-color="#B526D6"/>
<stop offset="1" stop-color="#FEBE0C"/>
</linearGradient>
<linearGradient id="paint17_linear_1349_26256" x1="55.2493" y1="106.848" x2="64.4597" y2="119.062" gradientUnits="userSpaceOnUse">
<stop stop-color="#B526D6"/>
<stop offset="1" stop-color="#FEBE0C"/>
</linearGradient>
<clipPath id="clip0_1349_26256">
<rect width="343" height="338.268" fill="white" transform="translate(14 0.575928)"/>
</clipPath>
</defs>
</svg>
