<svg viewBox="0 0 367 316" fill="none" xmlns="http://www.w3.org/2000/svg">
<path d="M321.196 242.157L319.818 255.702L319.015 263.738L317.488 278.919C317.247 281.317 315.233 283.145 312.823 283.154L260.414 283.352C258.025 283.361 256.008 281.578 255.723 279.206L253.812 263.279L252.779 255.473L251.172 242.157H321.196Z" fill="#91266C"/>
<path d="M319.819 255.702L319.015 263.623C296.63 269.018 277.115 268.1 253.698 263.279L252.779 255.473C274.934 260.064 295.138 260.409 319.819 255.702Z" fill="#91266C"/>
<path d="M286.184 247.896C305.52 247.896 321.196 245.327 321.196 242.157C321.196 238.987 305.52 236.417 286.184 236.417C266.847 236.417 251.172 238.987 251.172 242.157C251.172 245.327 266.847 247.896 286.184 247.896Z" fill="#A84385"/>
<path d="M286.184 246.404C302.731 246.404 316.145 244.502 316.145 242.157C316.145 239.811 302.731 237.909 286.184 237.909C269.637 237.909 256.223 239.811 256.223 242.157C256.223 244.502 269.637 246.404 286.184 246.404Z" fill="#4F0946" fill-opacity="0.48"/>
<path d="M367 207.549C354.603 211.199 342.664 216.509 331.759 223.146C323.494 228.235 315.688 233.987 308.685 240.514C303.864 244.939 299.157 249.807 292.844 251.576C284.005 254.121 274.592 250.138 265.523 244.165C269.656 210.646 257.028 175.579 232.348 151.795C253.814 164.185 270.115 184.871 276.658 208.102C278.954 187.858 279.413 167.393 278.15 147.038C277.232 132.104 275.395 117.281 272.64 102.568C282.512 119.936 288.941 139.073 291.352 158.764C293.073 172.592 292.959 186.752 290.892 200.579C294.451 182.216 302.486 165.18 313.621 150.467C327.167 132.547 345.534 118.166 366.541 109.426C345.649 125.135 329.922 146.706 318.787 169.826C316.95 173.588 315.343 177.349 313.736 181.11C305.356 201.022 299.617 221.93 293.992 242.948C301.568 231.996 312.129 223.036 324.182 216.952C337.269 210.204 352.192 206.774 367 207.549Z" fill="#C0298C"/>
<path d="M291.466 160.998C288.711 149.289 284.578 137.81 279.183 127.134C278.494 134.595 278.265 141.713 278.15 148.83C277.231 133.333 275.395 117.95 272.64 102.683C282.627 120.591 288.94 140.565 291.466 160.998Z" fill="#9D2674"/>
<path d="M366.541 109.571C345.648 125.871 329.922 148.256 318.787 172.248C316.95 176.151 315.343 180.054 313.736 183.957C318.213 162.376 328.889 142.057 344.271 126.216C332.562 133.333 322.231 142.057 313.621 152.159C327.282 133.563 345.534 118.639 366.541 109.571Z" fill="#9D2674"/>
<path d="M331.758 220.278C336.465 216.923 341.63 214.098 347.255 211.891C339.449 212.156 333.366 214.735 325.904 216.677C338.991 211.381 352.191 207.213 367 207.831C354.602 210.656 342.663 214.893 331.758 220.278Z" fill="#9D2674"/>
<path d="M365.28 183.267C350.357 190.04 336.696 199.453 325.217 210.933C310.983 225.052 299.962 242.386 293.649 261.786C284.351 262.36 274.937 261.442 263.343 256.62C263.917 232.743 247.846 209.325 225.347 201.29C244.173 198.879 266.213 217.82 273.789 236.531C274.708 216.902 272.412 195.665 267.017 175.921C263.573 163.293 258.752 151.24 252.553 140.679C270.69 156.291 282.858 178.561 286.761 202.667C288.139 211.621 288.483 220.805 287.565 229.873C294.797 219.198 304.095 210.014 314.771 202.553C329.35 192.336 346.683 185.563 365.28 183.267Z" fill="#91266C"/>
<path d="M265.41 159.275C266.558 164.556 267.132 170.295 267.017 175.92C263.573 163.293 258.752 151.24 252.553 140.679C270.805 156.291 282.858 178.561 286.761 202.667C281.251 187.4 274.019 172.821 265.41 159.275Z" fill="#9D2674"/>
<path d="M341.976 193.139C332.448 195.091 323.265 198.305 314.655 202.438C329.234 192.221 346.568 185.448 365.164 183.152C350.241 189.925 336.581 199.338 325.101 210.818C329.234 203.7 335.088 197.616 341.976 193.139Z" fill="#9D2674"/>
<path d="M116.346 0.300415H0.404297V233.446H116.346V0.300415Z" fill="#9D1970"/>
<path d="M111.752 4.77698H4.99414V228.969H111.752V4.77698Z" fill="#AD207D"/>
<path d="M75.2477 4.7771L4.99414 61.9442V44.7252L58.1435 4.7771H75.2477Z" fill="white" fill-opacity="0.05"/>
<path d="M100.502 4.7771L4.99414 80.0816V75.0307L95.3366 4.7771H100.502Z" fill="white" fill-opacity="0.05"/>
<path d="M111.752 72.3906V79.5078L4.99414 157.108V148.843L111.752 72.3906Z" fill="white" fill-opacity="0.05"/>
<path d="M111.751 172.261V228.969H32.5439L111.751 172.261Z" fill="white" fill-opacity="0.05"/>
<path d="M111.752 158.371V162.963L20.606 228.969H13.374L111.752 158.371Z" fill="white" fill-opacity="0.05"/>
<path d="M60.4406 2.94043H56.4229V230.805H60.4406V2.94043Z" fill="#9D1970"/>
<path d="M114.165 63.207H0.519531V67.2248H114.165V63.207Z" fill="#9D1970"/>
<path d="M114.165 174.557H0.519531V178.574H114.165V174.557Z" fill="#9D1970"/>
<path d="M99.7588 243.076H80.9326V314.018H99.7588V243.076Z" fill="#192C52"/>
<path d="M99.7588 243.076V273.381C99.1848 273.381 98.7256 273.267 98.1516 273.267C92.0676 272.463 86.2131 270.282 80.9326 267.183V243.076H99.7588Z" fill="#0C1A3B"/>
<path d="M35.7059 159.162L32.6064 161.113L47.0704 241.813L87.4777 261.787L157.961 256.507V251.8L101.712 221.61L35.7059 159.162Z" fill="#1F3A59"/>
<path d="M50.744 239.403L88.0518 256.507L157.961 251.571L110.207 219.543L105.615 156.751L35.7061 159.047L50.744 239.403Z" fill="#CCCFD4"/>
<path d="M62.6823 98.3208C63.945 108.193 61.8787 118.524 57.0574 127.249C55.4503 130.233 53.8432 133.333 54.0728 136.777C54.6467 144.468 57.0574 144.697 58.2053 148.371C59.5829 152.503 52.6953 161.342 54.3024 165.475C55.6799 169.034 65.8965 164.786 69.6847 165.475C75.8835 166.738 82.1972 166.853 88.396 165.934C94.3653 165.016 100.449 162.95 104.582 158.587C108.714 154.225 110.551 147.223 107.681 141.942C106.189 139.302 103.549 137.121 102.63 134.251C101.597 130.922 102.86 127.364 103.664 123.92C104.811 118.869 104.582 113.588 103.204 108.652C102.516 106.242 101.482 103.716 99.3014 102.339C97.8091 101.42 96.0872 101.076 94.3653 100.846C84.2634 99.354 73.932 98.0912 62.6823 98.3208Z" fill="#0C1B3C"/>
<path d="M160.6 155.029C150.498 169.837 139.363 183.957 127.31 197.158C126.162 198.421 124.784 199.798 123.062 199.913C121.455 200.028 119.963 198.995 118.7 197.962C115.601 195.436 112.731 192.681 110.205 189.697C106.647 185.564 103.547 180.972 101.137 176.036C106.417 171.559 111.583 167.082 116.289 164.327C118.126 168.001 119.963 171.789 121.914 175.462C122.373 176.495 122.947 177.528 123.521 178.562C133.049 167.427 142.577 156.177 152.564 145.386C154.63 148.486 157.041 151.356 160.6 155.029Z" fill="#FDAD91"/>
<path d="M121.685 175.462C118.127 180.398 114.224 185.219 110.091 189.696C106.533 185.564 103.433 180.972 101.022 176.036C106.303 171.559 111.469 167.082 116.175 164.327C117.897 168 119.849 171.788 121.685 175.462Z" fill="#F18576"/>
<path d="M97.6935 151.241C98.497 149.06 99.4154 146.879 100.219 144.812C100.563 143.894 99.071 144.009 99.9893 143.665C101.367 143.091 102.859 143.205 103.318 143.435C111.583 146.994 117.438 163.294 121.456 172.019C115.831 177.299 108.714 181.202 101.711 184.416C100.563 175.233 92.8721 163.524 97.6935 151.241Z" fill="url(#paint0_linear_1193_85711)"/>
<path d="M95.5121 141.828C94.1346 143.779 94.2494 147.452 93.1015 149.633C90.9204 153.651 87.5914 159.85 85.1807 160.194C81.5073 160.768 75.9973 151.011 73.5866 148.141C71.1759 145.386 69.7984 141.254 68.4209 137.81C70.4872 135.743 73.1274 132.3 73.5866 129.545C73.5866 129.43 73.5866 129.315 73.7014 129.2C74.1606 126.675 74.0458 124.035 73.8162 121.394C73.8162 121.05 73.8162 120.706 73.7014 120.246C74.0458 120.361 74.3902 120.361 74.6197 120.361C79.6707 121.279 83.6884 122.657 87.821 124.149C87.821 127.593 87.821 131.152 88.8541 134.366C89.0837 134.94 89.3133 135.629 89.5429 136.203C90.6908 138.958 92.7571 141.139 95.5121 141.828Z" fill="#FDAD91"/>
<path d="M89.429 136.318C83.5745 136.088 77.72 133.677 73.4727 129.545C73.4727 129.43 73.4727 129.315 73.5875 129.2C74.0466 126.675 73.9318 124.035 73.7022 121.394C73.9318 121.05 74.2762 120.706 74.6206 120.476C79.6715 121.394 83.6893 122.772 87.8218 124.264C87.8218 127.708 87.8218 131.267 88.855 134.596C88.855 135.17 89.1994 135.744 89.429 136.318Z" fill="#F18576"/>
<path d="M101.713 112.211C104.927 111.866 107.682 113.474 107.912 115.769C108.141 118.065 105.731 120.246 102.516 120.476C99.3022 120.82 96.5472 119.213 96.3176 116.917C96.2028 114.736 98.4987 112.555 101.713 112.211Z" fill="#F18576"/>
<path d="M65.3262 109.339C65.3262 96.7121 73.5913 86.3807 83.6931 86.3807C93.9097 86.3807 102.06 96.5974 102.06 109.339C102.06 122.081 94.9429 132.413 85.8742 131.954C75.8872 131.495 65.3262 121.967 65.3262 109.339Z" fill="#FDAD91"/>
<path d="M101.717 108.995C101.946 107.273 100.454 105.781 98.7321 105.322C97.125 104.863 95.2883 104.978 93.5664 104.863C91.8445 104.748 90.0078 104.059 89.2042 102.567C88.6303 101.534 88.7451 100.271 88.5155 99.1231C87.8267 95.9089 84.4977 93.4982 81.1687 93.9574C80.5947 97.1716 79.1024 100.271 76.8065 102.682C76.9213 100.501 76.4622 98.3195 76.3474 96.1384C76.2326 93.9574 76.2326 91.6615 77.3805 89.71C78.2989 87.9881 80.0208 86.7254 81.8574 86.0366C83.6941 85.3479 85.7604 85.2331 87.7119 85.3479C90.6966 85.6922 93.796 86.8402 95.6327 89.2508C98.0433 92.3503 97.8137 96.8272 100.224 100.041C100.798 100.845 101.602 101.534 102.061 102.337C102.52 103.141 102.75 104.289 102.291 105.207" fill="#F18576"/>
<path d="M66.9318 114.161C71.294 112.095 75.0822 108.651 77.3781 104.404C79.6739 100.156 80.7071 95.2201 80.1331 90.7431C77.8372 89.2508 75.3118 87.8733 72.6715 87.2993C69.9165 86.7254 66.9318 87.0697 64.8656 88.9064C62.7993 90.6283 61.9957 93.3834 61.6513 96.0236C60.6182 102.337 61.1922 108.881 62.2253 115.424C63.7176 114.965 65.4395 114.85 66.9318 114.161Z" fill="#0C1B3C"/>
<path d="M104.929 107.503C104.24 108.995 103.322 110.488 102.174 112.21C99.763 110.373 101.6 108.307 100.222 106.126C98.2707 103.37 92.8754 104.978 91.0387 102.108C89.8907 100.156 91.1535 97.7456 90.9239 95.5645C90.6943 93.3834 88.9724 91.5467 86.7913 90.858C84.6102 90.1692 82.3144 90.6284 80.3629 91.7763C78.4114 92.9243 76.9191 94.5314 75.8859 96.4829C73.2457 94.761 70.9498 92.5799 68.3096 89.9396C68.9983 86.1515 71.5238 82.8224 74.8528 80.6414C76.2303 79.723 77.8374 79.0343 79.5593 78.6899C84.9546 77.4272 93.2197 78.1159 97.5819 81.6745C101.944 85.2331 101.255 89.8249 104.24 94.6462C106.995 99.2379 107.225 102.911 104.929 107.503Z" fill="#0C1B3C"/>
<path d="M104.928 107.503C105.273 103.485 104.01 99.2377 101.14 96.1383C99.7627 94.5312 97.8112 93.2685 97.2373 91.2022C96.8929 90.0542 96.8929 88.9063 96.7781 87.7584C96.2041 84.6589 93.6787 82.1335 90.8088 80.756C87.939 79.4932 84.61 79.2636 81.3958 79.4932C79.2147 79.608 76.9188 79.9524 74.8525 80.5264C76.2301 79.608 77.8372 78.9193 79.5591 78.5749C84.9544 77.3122 93.2195 78.0009 97.5816 81.5595C101.944 85.1181 101.255 89.7099 104.24 94.5312C106.995 99.2377 107.224 102.911 104.928 107.503Z" fill="#264266"/>
<path d="M59.7017 115.538C60.1609 113.243 63.0307 111.98 66.2449 112.554C69.4591 113.128 71.5254 115.538 71.0663 117.834C70.6071 120.13 67.6224 121.393 64.523 120.819C61.4236 120.245 59.2425 117.834 59.7017 115.538Z" fill="#FDAD91"/>
<path d="M98.4968 209.096C114.109 214.018 129.835 219.057 145.562 223.978C149.35 225.15 153.368 226.556 155.894 229.603C159.337 233.705 159.108 239.798 158.763 245.188C156.927 268.742 154.057 292.296 150.039 315.615C145.677 315.85 141.366 315.381 136.889 315.615C131.034 301.436 129.606 286.554 125.244 271.906C120.882 257.258 112.042 242.493 97.6933 237.689C94.7087 236.751 91.2648 235.931 89.7725 233.119C86.6731 227.259 95.2826 220.58 98.4968 209.096Z" fill="url(#paint1_linear_1193_85711)"/>
<path d="M101.137 189.726C88.9686 188.568 76.8005 187.41 64.5176 186.252C60.8442 196.209 57.2856 205.47 56.7117 215.079C56.1377 224.688 58.7779 234.992 66.0099 241.475C71.7496 246.685 79.6703 248.537 87.3615 249.463C95.0527 250.39 102.859 250.39 110.779 252.242C117.437 272.386 123.677 294.758 132.516 315.481C132.516 315.481 143.774 315.944 148.365 315.481C144.807 294.989 140.74 269.723 137.297 249.116C136.608 245.296 135.919 241.36 133.853 238.118C127.654 228.74 113.305 230.245 104.236 223.531C107.795 213.111 107.106 201.303 101.137 189.726Z" fill="url(#paint2_linear_1193_85711)"/>
<path d="M106.415 203.127C106.644 205.767 106.874 208.637 106.759 211.507C91.9506 214.606 76.4535 214.721 61.5304 211.851C59.9232 211.507 58.0865 211.048 57.1682 209.67C56.1351 208.293 56.4794 206.341 56.8238 204.619C57.9717 198.306 59.1197 191.877 60.2676 185.449C57.5126 175.347 55.5611 165.704 53.4948 156.176C52.806 152.733 52.1173 148.944 53.6096 145.845C55.1019 142.86 58.3161 141.253 61.4156 140.105C64.515 138.957 65.2037 138.843 68.7623 137.006C72.0914 144.123 82.4228 156.865 87.3589 155.947C92.7542 154.914 92.6394 144.697 93.2133 140.45C98.8382 141.368 105.381 142.746 107.907 147.911C109.055 150.207 109.17 152.847 109.17 155.373C109.399 169.263 108.481 183.153 106.3 196.813C106.185 198.765 106.3 200.831 106.415 203.127Z" fill="url(#paint3_linear_1193_85711)"/>
<path d="M106.874 211.507C92.0652 214.607 76.5681 214.721 61.6449 211.852C60.0378 211.507 58.2011 211.048 57.2828 209.67C56.2496 208.293 56.594 206.341 56.9384 204.62C58.0863 198.306 59.2343 191.877 60.3822 185.449C57.6272 175.347 55.6757 165.705 53.6094 156.177C53.839 155.718 54.1833 155.258 54.5277 154.799L66.581 148.026C70.484 155.029 69.3361 163.638 68.6473 171.674C67.9586 179.709 68.1881 188.778 73.6982 194.518C77.8308 198.765 84.1444 200.257 89.9989 201.405C95.3942 202.438 101.134 203.472 106.529 203.012C106.644 205.767 106.988 208.637 106.874 211.507Z" fill="url(#paint4_linear_1193_85711)"/>
<path d="M64.6306 165.475C64.5158 165.704 64.5158 166.049 64.4011 166.393C62.7939 172.477 61.1868 179.135 59.3501 184.875C56.5951 193.37 53.2661 199.798 48.2152 199.339C37.769 198.535 31.4553 169.952 28.4707 152.388C31.2257 150.437 31.9145 149.174 36.3914 147.797C41.7867 162.49 43.5086 167.197 47.0672 174.658C47.2968 173.855 47.4116 173.051 47.5264 172.477C48.4448 167.885 47.2968 166.967 48.7891 159.046C50.8554 159.62 52.8069 160.424 54.8732 161.113C58.0874 162.375 61.3016 163.868 64.6306 165.475Z" fill="#FDAD91"/>
<path d="M64.403 166.393C62.7958 172.477 61.1887 179.135 59.352 184.875C54.6455 181.661 50.5129 177.413 47.5283 172.477C48.4467 167.885 47.2987 166.967 48.791 159.046C50.8573 159.62 52.8088 160.424 54.8751 161.113C57.8597 162.72 60.8444 164.442 63.829 166.049C63.9438 166.164 64.1734 166.278 64.403 166.393Z" fill="#F18576"/>
<path d="M36.0476 151.929C38.573 147.108 40.9837 142.287 43.5091 137.58C43.9683 136.662 44.3127 135.399 43.6239 134.825C43.1648 134.481 42.5908 134.481 42.1316 134.71C41.6724 134.94 41.3281 135.284 40.8689 135.629C39.147 137.35 37.6547 139.187 36.2772 141.598C36.3919 137.35 36.3919 133.103 36.1624 128.971C36.0476 127.823 35.9328 126.445 35.244 125.527C34.8996 125.068 34.3257 124.723 33.8665 124.838C33.1777 125.068 33.0629 125.871 33.0629 126.56C32.9481 129.545 32.9481 132.529 33.0629 135.858C32.0298 132.529 30.8819 129.315 29.8487 125.986C29.7339 125.412 29.5043 124.953 29.16 124.494C28.8156 124.034 28.1268 123.92 27.6676 124.149C27.2085 124.379 27.0937 124.953 26.9789 125.412C26.8641 126.445 27.0937 127.478 27.3233 128.511C27.8972 131.152 28.4712 133.792 28.8156 136.088C27.6676 133.677 26.4049 131.266 25.1422 128.856C24.9126 128.511 24.683 128.052 24.3386 127.823C23.9942 127.593 23.4203 127.478 23.1907 127.823C22.7315 128.167 22.8463 128.856 23.0759 129.43C23.9943 132.644 25.0274 135.858 26.0605 138.958C24.9126 136.777 23.6499 134.71 22.5019 132.529C22.0428 131.84 21.354 130.922 20.5505 131.266C19.8617 131.611 19.9765 132.644 20.2061 133.447C21.5836 137.924 22.9611 142.287 24.3386 146.649C25.257 149.863 26.4049 153.192 29.16 155.143" fill="#FDAD91"/>
<path d="M64.8621 142.172C65.0917 141.139 64.0585 140.106 62.9106 139.991C61.8775 139.876 60.6147 140.335 59.6964 140.795C55.7934 142.746 53.9567 144.009 52.12 147.797C49.5946 152.848 47.1839 161.113 45.2324 168.689C50.8573 174.314 55.7934 177.758 63.7142 180.972C65.7804 174.888 66.6988 171.674 67.6171 165.36C68.6503 159.047 68.6503 152.389 64.8621 142.172Z" fill="url(#paint5_linear_1193_85711)"/>
<path d="M303.635 219.198H297.78V309.656H303.635V219.198Z" fill="#2D213C"/>
<path d="M250.486 196.469H244.632V308.737H250.486V196.469Z" fill="#2D213C"/>
<path d="M78.9814 219.198H73.127V309.656H78.9814V219.198Z" fill="#2D213C"/>
<path d="M17.4541 196.469H11.5996V286.926H17.4541V196.469Z" fill="#2D213C"/>
<path d="M3.79395 196.469V203.128L64.9789 226.545L315.917 225.512L316.147 219.887L3.79395 196.469Z" fill="#2D213C"/>
<path d="M64.7493 219.887L3.79395 196.469H255.192L316.147 219.887H64.7493Z" fill="#514165"/>
<path d="M267.016 192.222L271.148 99.125H141.776L137.644 192.222H267.016Z" fill="#0C1A3B"/>
<path d="M142.12 192.222L146.253 99.125H141.776L137.644 192.222H142.12Z" fill="#1F3A59"/>
<path d="M253.126 210.704V209.097H251.634C246.928 206.457 231.66 203.357 213.523 203.357C195.385 203.357 180.118 206.457 175.411 209.097H173.919V210.475V210.589C173.919 213.344 191.712 213.459 213.523 213.459C235.333 213.459 253.012 213.459 253.126 210.704Z" fill="#1C3557"/>
<path d="M173.919 209.097C173.919 206.342 191.712 201.75 213.523 201.75C235.448 201.75 253.126 206.227 253.126 209.097C253.126 211.852 235.448 211.967 213.523 211.967C191.597 211.967 173.919 211.852 173.919 209.097Z" fill="#0C1A3B"/>
<path d="M220.869 208.408V154.8H195.385V205.768L202.732 208.408H220.869Z" fill="#1F3A59"/>
<path d="M227.986 208.408L223.394 154.8H197.91L202.502 208.408H227.986Z" fill="#192C52"/>
<path d="M87.5928 195.436V197.617L115.028 203.587L192.744 202.668V200.717L134.429 197.847L87.5928 195.436Z" fill="#0C1A3B"/>
<path d="M87.5928 195.436L165.652 195.551L192.744 200.717L115.258 201.406" fill="#1F3A59"/>
<path d="M58.2062 210.933L54.1885 189.123H75.5401L71.9815 210.933C69.3412 212.54 61.3057 212.311 58.2062 210.933Z" fill="#C3E3E8"/>
<path d="M64.8633 191.304C70.7594 191.304 75.5391 190.327 75.5391 189.122C75.5391 187.918 70.7594 186.941 64.8633 186.941C58.9672 186.941 54.1875 187.918 54.1875 189.122C54.1875 190.327 58.9672 191.304 64.8633 191.304Z" fill="#E1F3F5"/>
<path d="M64.8648 190.615C70.1269 190.615 74.3926 189.947 74.3926 189.123C74.3926 188.298 70.1269 187.63 64.8648 187.63C59.6027 187.63 55.3369 188.298 55.3369 189.123C55.3369 189.947 59.6027 190.615 64.8648 190.615Z" fill="#95B7BF"/>
<path d="M57.4022 193.025C55.9099 191.992 54.188 190.959 52.3513 190.615C50.5146 190.27 48.4483 190.615 47.1856 191.992C46.2672 193.025 45.9229 194.403 45.9229 195.78C46.0376 198.88 47.9891 201.75 50.3998 203.586C52.9253 205.423 55.9099 206.456 58.8945 207.489C59.3537 206.686 59.4685 205.767 59.3537 204.849C57.6318 204.275 55.7951 203.816 54.188 203.012C52.5809 202.209 50.9738 201.061 49.9406 199.569C49.4814 198.88 49.1371 198.191 49.1371 197.387C49.0223 196.584 49.2519 195.78 49.8258 195.321C50.3998 194.747 51.2034 194.632 52.0069 194.632C53.9584 194.632 58.2058 196.699 57.4022 193.025Z" fill="#C3E3E8"/>
<path d="M287.693 18.9987H191.421C186.592 18.9987 182.677 22.9137 182.677 27.7431V79.2451C182.677 84.0745 186.592 87.9895 191.421 87.9895H287.693C292.522 87.9895 296.437 84.0745 296.437 79.2451V27.7431C296.437 22.9137 292.522 18.9987 287.693 18.9987Z" fill="#CB3F9B"/>
<path d="M263.721 87.9896H211.146C211.146 87.9896 211.26 81.4464 218.033 78.5766C222.28 76.7399 226.413 76.5103 229.053 75.8216C230.66 75.3624 231.808 74.9032 232.153 73.8701C232.267 73.6405 232.382 73.2961 232.497 72.8369C233.301 69.5079 233.301 63.5387 233.301 63.5387L246.158 61.0132C246.158 61.0132 245.584 64.5718 245.584 68.2452C245.584 71.2298 246.043 74.3293 247.535 75.8216C247.65 75.9364 247.879 76.0511 247.994 76.2807C251.668 79.0358 260.621 79.4949 263.721 87.9896Z" fill="#95405D"/>
<path d="M246.156 61.1282C246.156 61.1282 245.582 64.6868 245.582 68.3602C241.908 71.23 237.202 72.8371 232.495 72.8371C233.299 69.5081 233.299 63.5388 233.299 63.5388L246.156 61.1282Z" fill="#7D3455"/>
<path d="M263.721 87.9894H211.146C211.146 87.9894 211.26 81.4462 218.033 78.5763C222.28 76.7396 226.413 76.51 229.053 75.8213C228.824 80.8722 232.727 86.9562 235.137 84.6604C237.318 82.5941 244.55 78.2319 247.994 76.2805C251.668 79.0355 260.621 79.4947 263.721 87.9894Z" fill="white"/>
<path d="M232.037 58.1429C231.463 59.9796 228.478 60.6684 225.379 59.7501C222.279 58.8317 220.213 56.5358 220.787 54.6991C221.361 52.8624 224.346 52.1737 227.445 53.092C230.545 54.0104 232.611 56.3062 232.037 58.1429Z" fill="#7D3455"/>
<path d="M253.274 53.4365C252.471 63.194 242.254 69.852 234.218 68.3597C228.02 67.2117 224.691 60.7833 225.379 51.0259C226.298 38.3986 231.923 33.9216 240.073 34.6104C248.108 35.2991 254.078 43.6791 253.274 53.4365Z" fill="#95405D"/>
<path d="M247.19 37.4803C246.042 36.562 245.009 35.2993 244.549 33.807C244.205 32.8886 243.975 31.7407 244.32 30.7075C244.549 29.6744 245.468 28.8708 246.501 28.6413C247.649 28.5265 248.682 29.33 249.6 30.0188C248.797 27.9525 249.256 25.5418 250.519 23.9347C251.322 22.7868 252.814 21.9832 254.192 22.3276C255.455 22.672 256.258 24.0495 256.832 25.3122C257.636 23.9347 258.784 22.7868 260.276 22.3276C261.768 21.8684 263.605 22.2128 264.523 23.4755C265.212 24.3939 265.327 25.5418 265.212 26.5749C265.097 28.0673 264.409 29.5596 263.49 30.8223C265.097 29.7892 267.164 29.6744 268.771 30.5927C270.378 31.5111 271.296 33.5774 270.837 35.4141C270.378 37.2508 268.656 38.6283 266.819 38.6283C268.541 38.8578 270.034 40.0058 270.837 41.4981C271.526 43.1052 271.181 45.0567 269.804 46.2046C268.656 47.123 266.934 47.2378 265.442 47.2378C266.934 48.3857 267.164 50.9112 265.786 52.2887C264.409 53.6662 261.883 53.4366 260.735 51.9443C261.309 53.0922 260.735 54.6994 259.702 55.5029C258.669 56.3065 257.177 56.4213 255.799 56.0769C254.536 55.7325 253.274 55.0437 252.241 54.2402" fill="#0A1433"/>
<path d="M254.422 58.717C253.159 58.9466 251.667 59.5206 250.519 60.3241C250.863 57.4543 248.797 54.9288 247.534 52.4034C246.272 49.8779 245.698 47.1229 245.813 44.2531C239.614 42.6459 233.185 42.0719 226.757 42.6459C226.872 42.1867 226.986 41.6128 227.216 41.1536C228.479 37.7098 231.463 34.9548 235.022 33.5772C238.81 32.0849 243.861 32.5441 247.649 34.0364C248.108 34.266 248.568 34.3808 249.027 34.7252C252.241 36.4471 254.192 39.4317 255.111 43.1051C256.488 48.156 256.259 53.6661 254.422 58.717Z" fill="#0C1B3C"/>
<path d="M249.028 34.7252C241.222 33.2329 232.956 35.8731 227.217 41.1536C228.48 37.7098 231.464 34.9548 235.023 33.5772C238.811 32.0849 243.862 32.5441 247.65 34.0364C248.224 34.266 248.683 34.3808 249.028 34.7252Z" fill="#152F4F"/>
<path d="M259.014 57.1096C259.473 58.9463 257.292 61.1274 254.078 61.8161C250.978 62.6197 247.994 61.7013 247.535 59.8646C247.075 58.0279 249.257 55.8469 252.471 55.1581C255.57 54.3546 258.555 55.2729 259.014 57.1096Z" fill="#95405D"/>
<defs>
<linearGradient id="paint0_linear_1193_85711" x1="99.6343" y1="152.936" x2="143.973" y2="188.771" gradientUnits="userSpaceOnUse">
<stop stop-color="#B526D6"/>
<stop offset="1" stop-color="#FEBE0C"/>
</linearGradient>
<linearGradient id="paint1_linear_1193_85711" x1="140.5" y1="262" x2="124.029" y2="315.683" gradientUnits="userSpaceOnUse">
<stop stop-color="#36185C"/>
<stop offset="1" stop-color="#18082A"/>
</linearGradient>
<linearGradient id="paint2_linear_1193_85711" x1="110" y1="246" x2="122" y2="320" gradientUnits="userSpaceOnUse">
<stop stop-color="#2B0E4E"/>
<stop offset="1" stop-color="#18082A"/>
</linearGradient>
<linearGradient id="paint3_linear_1193_85711" x1="60.5552" y1="155.108" x2="145.22" y2="236.763" gradientUnits="userSpaceOnUse">
<stop stop-color="#B526D6"/>
<stop offset="1" stop-color="#FEBE0C"/>
</linearGradient>
<linearGradient id="paint4_linear_1193_85711" x1="61.0006" y1="163.535" x2="133.451" y2="240.48" gradientUnits="userSpaceOnUse">
<stop stop-color="#B526D6"/>
<stop offset="1" stop-color="#FEBE0C"/>
</linearGradient>
<linearGradient id="paint5_linear_1193_85711" x1="48.4188" y1="149.622" x2="91.5344" y2="181.349" gradientUnits="userSpaceOnUse">
<stop stop-color="#B526D6"/>
<stop offset="1" stop-color="#FEBE0C"/>
</linearGradient>
</defs>
</svg>
